<?xml version="1.0" encoding="utf-8" standalone="no"?>
<!DOCTYPE svg PUBLIC "-//W3C//DTD SVG 1.1//EN"
  "http://www.w3.org/Graphics/SVG/1.1/DTD/svg11.dtd">
<svg xmlns:xlink="http://www.w3.org/1999/xlink" width="1067.398357pt" height="366.529592pt" viewBox="0 0 1067.398357 366.529592" xmlns="http://www.w3.org/2000/svg" version="1.1">
 <metadata>
  <rdf:RDF xmlns:dc="http://purl.org/dc/elements/1.1/" xmlns:cc="http://creativecommons.org/ns#" xmlns:rdf="http://www.w3.org/1999/02/22-rdf-syntax-ns#">
   <cc:Work>
    <dc:type rdf:resource="http://purl.org/dc/dcmitype/StillImage"/>
    <dc:date>2026-09-17T04:46:00.679582</dc:date>
    <dc:format>image/svg+xml</dc:format>
    <dc:creator>
     <cc:Agent>
      <dc:title>Matplotlib v3.11.2, https://matplotlib.org/</dc:title>
     </cc:Agent>
    </dc:creator>
   </cc:Work>
  </rdf:RDF>
 </metadata>
 <defs>
  <style type="text/css">*{stroke-linejoin: round; stroke-linecap: butt}</style>
 </defs>
 <g id="figure_1">
  <g id="patch_1">
   <path d="M 0 366.529592 
L 1067.398357 366.529592 
L 1067.398357 0 
L 0 0 
z
" style="fill: #ffffff"/>
  </g>
  <g id="axes_1">
   <g id="patch_2">
    <path d="M 34.874063 322.326545 
L 328.038911 322.326545 
L 328.038911 60.573818 
L 34.874063 60.573818 
z
" style="fill: #ffffff"/>
   </g>
   <g id="matplotlib.axis_1">
    <g id="xtick_1">
     <g id="line2d_1">
      <path d="M 34.874063 322.326545 
L 34.874063 60.573818 
" clip-path="url(#p9c01061575)" style="fill: none; stroke: #b0b0b0; stroke-opacity: 0.25; stroke-width: 0.8; stroke-linecap: square"/>
     </g>
     <g id="line2d_2">
      <defs>
       <path id="m0a6fab5254" d="M 0 0 
L 0 3.5 
" style="stroke: #000000; stroke-width: 0.8"/>
      </defs>
      <g>
       <use xlink:href="#m0a6fab5254" x="34.874063" y="322.326545" style="stroke: #000000; stroke-width: 0.8"/>
      </g>
     </g>
     <g id="text_1">
      <!-- 0 -->
      <g transform="translate(30.738437 339.203499) scale(0.13 -0.13)">
       <defs>
        <path id="DejaVuSans-13" d="M 2034 4250 
Q 1547 4250 1301 3770 
Q 1056 3291 1056 2328 
Q 1056 1369 1301 889 
Q 1547 409 2034 409 
Q 2525 409 2770 889 
Q 3016 1369 3016 2328 
Q 3016 3291 2770 3770 
Q 2525 4250 2034 4250 
z
M 2034 4750 
Q 2819 4750 3233 4129 
Q 3647 3509 3647 2328 
Q 3647 1150 3233 529 
Q 2819 -91 2034 -91 
Q 1250 -91 836 529 
Q 422 1150 422 2328 
Q 422 3509 836 4129 
Q 1250 4750 2034 4750 
z
" transform="scale(0.015625)"/>
       </defs>
       <use xlink:href="#DejaVuSans-13"/>
      </g>
     </g>
    </g>
    <g id="xtick_2">
     <g id="line2d_3">
      <path d="M 108.165275 322.326545 
L 108.165275 60.573818 
" clip-path="url(#p9c01061575)" style="fill: none; stroke: #b0b0b0; stroke-opacity: 0.25; stroke-width: 0.8; stroke-linecap: square"/>
     </g>
     <g id="line2d_4">
      <g>
       <use xlink:href="#m0a6fab5254" x="108.165275" y="322.326545" style="stroke: #000000; stroke-width: 0.8"/>
      </g>
     </g>
     <g id="text_2">
      <!-- 5 -->
      <g transform="translate(104.02965 339.203499) scale(0.13 -0.13)">
       <defs>
        <path id="DejaVuSans-18" d="M 691 4666 
L 3169 4666 
L 3169 4134 
L 1269 4134 
L 1269 2991 
Q 1406 3038 1543 3061 
Q 1681 3084 1819 3084 
Q 2600 3084 3056 2656 
Q 3513 2228 3513 1497 
Q 3513 744 3044 326 
Q 2575 -91 1722 -91 
Q 1428 -91 1123 -41 
Q 819 9 494 109 
L 494 744 
Q 775 591 1075 516 
Q 1375 441 1709 441 
Q 2250 441 2565 725 
Q 2881 1009 2881 1497 
Q 2881 1984 2565 2268 
Q 2250 2553 1709 2553 
Q 1456 2553 1204 2497 
Q 953 2441 691 2322 
L 691 4666 
z
" transform="scale(0.015625)"/>
       </defs>
       <use xlink:href="#DejaVuSans-18"/>
      </g>
     </g>
    </g>
    <g id="xtick_3">
     <g id="line2d_5">
      <path d="M 181.456487 322.326545 
L 181.456487 60.573818 
" clip-path="url(#p9c01061575)" style="fill: none; stroke: #b0b0b0; stroke-opacity: 0.25; stroke-width: 0.8; stroke-linecap: square"/>
     </g>
     <g id="line2d_6">
      <g>
       <use xlink:href="#m0a6fab5254" x="181.456487" y="322.326545" style="stroke: #000000; stroke-width: 0.8"/>
      </g>
     </g>
     <g id="text_3">
      <!-- 10 -->
      <g transform="translate(173.185237 339.203499) scale(0.13 -0.13)">
       <defs>
        <path id="DejaVuSans-14" d="M 794 531 
L 1825 531 
L 1825 4091 
L 703 3866 
L 703 4441 
L 1819 4666 
L 2450 4666 
L 2450 531 
L 3481 531 
L 3481 0 
L 794 0 
L 794 531 
z
" transform="scale(0.015625)"/>
       </defs>
       <use xlink:href="#DejaVuSans-14"/>
       <use xlink:href="#DejaVuSans-13" transform="translate(63.625 0)"/>
      </g>
     </g>
    </g>
    <g id="xtick_4">
     <g id="line2d_7">
      <path d="M 254.747699 322.326545 
L 254.747699 60.573818 
" clip-path="url(#p9c01061575)" style="fill: none; stroke: #b0b0b0; stroke-opacity: 0.25; stroke-width: 0.8; stroke-linecap: square"/>
     </g>
     <g id="line2d_8">
      <g>
       <use xlink:href="#m0a6fab5254" x="254.747699" y="322.326545" style="stroke: #000000; stroke-width: 0.8"/>
      </g>
     </g>
     <g id="text_4">
      <!-- 15 -->
      <g transform="translate(246.476449 339.203499) scale(0.13 -0.13)">
       <use xlink:href="#DejaVuSans-14"/>
       <use xlink:href="#DejaVuSans-18" transform="translate(63.625 0)"/>
      </g>
     </g>
    </g>
    <g id="xtick_5">
     <g id="line2d_9">
      <path d="M 328.038911 322.326545 
L 328.038911 60.573818 
" clip-path="url(#p9c01061575)" style="fill: none; stroke: #b0b0b0; stroke-opacity: 0.25; stroke-width: 0.8; stroke-linecap: square"/>
     </g>
     <g id="line2d_10">
      <g>
       <use xlink:href="#m0a6fab5254" x="328.038911" y="322.326545" style="stroke: #000000; stroke-width: 0.8"/>
      </g>
     </g>
     <g id="text_5">
      <!-- 20 -->
      <g transform="translate(319.767661 339.203499) scale(0.13 -0.13)">
       <defs>
        <path id="DejaVuSans-15" d="M 1228 531 
L 3431 531 
L 3431 0 
L 469 0 
L 469 531 
Q 828 903 1448 1529 
Q 2069 2156 2228 2338 
Q 2531 2678 2651 2914 
Q 2772 3150 2772 3378 
Q 2772 3750 2511 3984 
Q 2250 4219 1831 4219 
Q 1534 4219 1204 4116 
Q 875 4013 500 3803 
L 500 4441 
Q 881 4594 1212 4672 
Q 1544 4750 1819 4750 
Q 2544 4750 2975 4387 
Q 3406 4025 3406 3419 
Q 3406 3131 3298 2873 
Q 3191 2616 2906 2266 
Q 2828 2175 2409 1742 
Q 1991 1309 1228 531 
z
" transform="scale(0.015625)"/>
       </defs>
       <use xlink:href="#DejaVuSans-15"/>
       <use xlink:href="#DejaVuSans-13" transform="translate(63.625 0)"/>
      </g>
     </g>
    </g>
    <g id="text_6">
     <!-- normalised time $\omega_n t$ -->
     <g transform="translate(115.481487 356.206545) scale(0.13 -0.13)">
      <defs>
       <path id="DejaVuSans-51" d="M 3513 2113 
L 3513 0 
L 2938 0 
L 2938 2094 
Q 2938 2591 2744 2837 
Q 2550 3084 2163 3084 
Q 1697 3084 1428 2787 
Q 1159 2491 1159 1978 
L 1159 0 
L 581 0 
L 581 3500 
L 1159 3500 
L 1159 2956 
Q 1366 3272 1645 3428 
Q 1925 3584 2291 3584 
Q 2894 3584 3203 3211 
Q 3513 2838 3513 2113 
z
" transform="scale(0.015625)"/>
       <path id="DejaVuSans-52" d="M 1959 3097 
Q 1497 3097 1228 2736 
Q 959 2375 959 1747 
Q 959 1119 1226 758 
Q 1494 397 1959 397 
Q 2419 397 2687 759 
Q 2956 1122 2956 1747 
Q 2956 2369 2687 2733 
Q 2419 3097 1959 3097 
z
M 1959 3584 
Q 2709 3584 3137 3096 
Q 3566 2609 3566 1747 
Q 3566 888 3137 398 
Q 2709 -91 1959 -91 
Q 1206 -91 779 398 
Q 353 888 353 1747 
Q 353 2609 779 3096 
Q 1206 3584 1959 3584 
z
" transform="scale(0.015625)"/>
       <path id="DejaVuSans-55" d="M 2631 2963 
Q 2534 3019 2420 3045 
Q 2306 3072 2169 3072 
Q 1681 3072 1420 2755 
Q 1159 2438 1159 1844 
L 1159 0 
L 581 0 
L 581 3500 
L 1159 3500 
L 1159 2956 
Q 1341 3275 1631 3429 
Q 1922 3584 2338 3584 
Q 2397 3584 2469 3576 
Q 2541 3569 2628 3553 
L 2631 2963 
z
" transform="scale(0.015625)"/>
       <path id="DejaVuSans-50" d="M 3328 2828 
Q 3544 3216 3844 3400 
Q 4144 3584 4550 3584 
Q 5097 3584 5394 3201 
Q 5691 2819 5691 2113 
L 5691 0 
L 5113 0 
L 5113 2094 
Q 5113 2597 4934 2840 
Q 4756 3084 4391 3084 
Q 3944 3084 3684 2787 
Q 3425 2491 3425 1978 
L 3425 0 
L 2847 0 
L 2847 2094 
Q 2847 2600 2669 2842 
Q 2491 3084 2119 3084 
Q 1678 3084 1418 2786 
Q 1159 2488 1159 1978 
L 1159 0 
L 581 0 
L 581 3500 
L 1159 3500 
L 1159 2956 
Q 1356 3278 1631 3431 
Q 1906 3584 2284 3584 
Q 2666 3584 2933 3390 
Q 3200 3197 3328 2828 
z
" transform="scale(0.015625)"/>
       <path id="DejaVuSans-44" d="M 2194 1759 
Q 1497 1759 1228 1600 
Q 959 1441 959 1056 
Q 959 750 1161 570 
Q 1363 391 1709 391 
Q 2188 391 2477 730 
Q 2766 1069 2766 1631 
L 2766 1759 
L 2194 1759 
z
M 3341 1997 
L 3341 0 
L 2766 0 
L 2766 531 
Q 2569 213 2275 61 
Q 1981 -91 1556 -91 
Q 1019 -91 701 211 
Q 384 513 384 1019 
Q 384 1609 779 1909 
Q 1175 2209 1959 2209 
L 2766 2209 
L 2766 2266 
Q 2766 2663 2505 2880 
Q 2244 3097 1772 3097 
Q 1472 3097 1187 3025 
Q 903 2953 641 2809 
L 641 3341 
Q 956 3463 1253 3523 
Q 1550 3584 1831 3584 
Q 2591 3584 2966 3190 
Q 3341 2797 3341 1997 
z
" transform="scale(0.015625)"/>
       <path id="DejaVuSans-4f" d="M 603 4863 
L 1178 4863 
L 1178 0 
L 603 0 
L 603 4863 
z
" transform="scale(0.015625)"/>
       <path id="DejaVuSans-4c" d="M 603 3500 
L 1178 3500 
L 1178 0 
L 603 0 
L 603 3500 
z
M 603 4863 
L 1178 4863 
L 1178 4134 
L 603 4134 
L 603 4863 
z
" transform="scale(0.015625)"/>
       <path id="DejaVuSans-56" d="M 2834 3397 
L 2834 2853 
Q 2591 2978 2328 3040 
Q 2066 3103 1784 3103 
Q 1356 3103 1142 2972 
Q 928 2841 928 2578 
Q 928 2378 1081 2264 
Q 1234 2150 1697 2047 
L 1894 2003 
Q 2506 1872 2764 1633 
Q 3022 1394 3022 966 
Q 3022 478 2636 193 
Q 2250 -91 1575 -91 
Q 1294 -91 989 -36 
Q 684 19 347 128 
L 347 722 
Q 666 556 975 473 
Q 1284 391 1588 391 
Q 1994 391 2212 530 
Q 2431 669 2431 922 
Q 2431 1156 2273 1281 
Q 2116 1406 1581 1522 
L 1381 1569 
Q 847 1681 609 1914 
Q 372 2147 372 2553 
Q 372 3047 722 3315 
Q 1072 3584 1716 3584 
Q 2034 3584 2315 3537 
Q 2597 3491 2834 3397 
z
" transform="scale(0.015625)"/>
       <path id="DejaVuSans-48" d="M 3597 1894 
L 3597 1613 
L 953 1613 
Q 991 1019 1311 708 
Q 1631 397 2203 397 
Q 2534 397 2845 478 
Q 3156 559 3463 722 
L 3463 178 
Q 3153 47 2828 -22 
Q 2503 -91 2169 -91 
Q 1331 -91 842 396 
Q 353 884 353 1716 
Q 353 2575 817 3079 
Q 1281 3584 2069 3584 
Q 2775 3584 3186 3129 
Q 3597 2675 3597 1894 
z
M 3022 2063 
Q 3016 2534 2758 2815 
Q 2500 3097 2075 3097 
Q 1594 3097 1305 2825 
Q 1016 2553 972 2059 
L 3022 2063 
z
" transform="scale(0.015625)"/>
       <path id="DejaVuSans-47" d="M 2906 2969 
L 2906 4863 
L 3481 4863 
L 3481 0 
L 2906 0 
L 2906 525 
Q 2725 213 2448 61 
Q 2172 -91 1784 -91 
Q 1150 -91 751 415 
Q 353 922 353 1747 
Q 353 2572 751 3078 
Q 1150 3584 1784 3584 
Q 2172 3584 2448 3432 
Q 2725 3281 2906 2969 
z
M 947 1747 
Q 947 1113 1208 752 
Q 1469 391 1925 391 
Q 2381 391 2643 752 
Q 2906 1113 2906 1747 
Q 2906 2381 2643 2742 
Q 2381 3103 1925 3103 
Q 1469 3103 1208 2742 
Q 947 2381 947 1747 
z
" transform="scale(0.015625)"/>
       <path id="DejaVuSans-3" transform="scale(0.015625)"/>
       <path id="DejaVuSans-57" d="M 1172 4494 
L 1172 3500 
L 2356 3500 
L 2356 3053 
L 1172 3053 
L 1172 1153 
Q 1172 725 1289 603 
Q 1406 481 1766 481 
L 2356 481 
L 2356 0 
L 1766 0 
Q 1100 0 847 248 
Q 594 497 594 1153 
L 594 3053 
L 172 3053 
L 172 3500 
L 594 3500 
L 594 4494 
L 1172 4494 
z
" transform="scale(0.015625)"/>
       <path id="DejaVuSans-Oblique-35d" d="M 1369 -91 
Q 72 -91 434 1766 
Q 575 2500 1256 3500 
L 1875 3500 
Q 1231 2500 1088 1750 
Q 819 397 1519 397 
Q 2166 397 2478 2078 
L 3009 2078 
Q 2669 388 3316 397 
Q 4013 403 4275 1750 
Q 4419 2500 4169 3500 
L 4788 3500 
Q 5075 2500 4934 1766 
Q 4578 -94 3278 -91 
Q 2428 -88 2503 844 
Q 2194 -91 1369 -91 
z
" transform="scale(0.015625)"/>
       <path id="DejaVuSans-Oblique-51" d="M 3566 2113 
L 3156 0 
L 2578 0 
L 2988 2091 
Q 3016 2238 3031 2350 
Q 3047 2463 3047 2528 
Q 3047 2791 2881 2937 
Q 2716 3084 2419 3084 
Q 1956 3084 1622 2776 
Q 1288 2469 1184 1941 
L 800 0 
L 225 0 
L 903 3500 
L 1478 3500 
L 1363 2950 
Q 1603 3253 1940 3418 
Q 2278 3584 2650 3584 
Q 3113 3584 3367 3334 
Q 3622 3084 3622 2631 
Q 3622 2519 3608 2391 
Q 3594 2263 3566 2113 
z
" transform="scale(0.015625)"/>
       <path id="DejaVuSans-Oblique-57" d="M 2706 3500 
L 2619 3053 
L 1472 3053 
L 1100 1153 
Q 1081 1047 1072 975 
Q 1063 903 1063 863 
Q 1063 663 1183 572 
Q 1303 481 1569 481 
L 2150 481 
L 2053 0 
L 1503 0 
Q 991 0 739 200 
Q 488 400 488 806 
Q 488 878 497 964 
Q 506 1050 525 1153 
L 897 3053 
L 409 3053 
L 500 3500 
L 978 3500 
L 1172 4494 
L 1747 4494 
L 1556 3500 
L 2706 3500 
z
" transform="scale(0.015625)"/>
      </defs>
      <use xlink:href="#DejaVuSans-51" transform="translate(0 0.015625)"/>
      <use xlink:href="#DejaVuSans-52" transform="translate(63.378906 0.015625)"/>
      <use xlink:href="#DejaVuSans-55" transform="translate(124.560547 0.015625)"/>
      <use xlink:href="#DejaVuSans-50" transform="translate(163.673828 0.015625)"/>
      <use xlink:href="#DejaVuSans-44" transform="translate(261.085938 0.015625)"/>
      <use xlink:href="#DejaVuSans-4f" transform="translate(322.365234 0.015625)"/>
      <use xlink:href="#DejaVuSans-4c" transform="translate(350.148438 0.015625)"/>
      <use xlink:href="#DejaVuSans-56" transform="translate(377.931641 0.015625)"/>
      <use xlink:href="#DejaVuSans-48" transform="translate(430.03125 0.015625)"/>
      <use xlink:href="#DejaVuSans-47" transform="translate(491.554688 0.015625)"/>
      <use xlink:href="#DejaVuSans-3" transform="translate(555.03125 0.015625)"/>
      <use xlink:href="#DejaVuSans-57" transform="translate(586.818359 0.015625)"/>
      <use xlink:href="#DejaVuSans-4c" transform="translate(626.027344 0.015625)"/>
      <use xlink:href="#DejaVuSans-50" transform="translate(653.810547 0.015625)"/>
      <use xlink:href="#DejaVuSans-48" transform="translate(751.222656 0.015625)"/>
      <use xlink:href="#DejaVuSans-3" transform="translate(812.746094 0.015625)"/>
      <use xlink:href="#DejaVuSans-Oblique-35d" transform="translate(844.533203 0.015625)"/>
      <use xlink:href="#DejaVuSans-Oblique-51" transform="translate(928.273438 -14.984326) scale(0.7)"/>
      <use xlink:href="#DejaVuSans-Oblique-57" transform="translate(975.373047 0.015625)"/>
     </g>
    </g>
   </g>
   <g id="matplotlib.axis_2">
    <g id="ytick_1">
     <g id="line2d_11">
      <path d="M 34.874063 310.428694 
L 328.038911 310.428694 
" clip-path="url(#p9c01061575)" style="fill: none; stroke: #b0b0b0; stroke-opacity: 0.25; stroke-width: 0.8; stroke-linecap: square"/>
     </g>
     <g id="line2d_12">
      <defs>
       <path id="mc8d4ac1c2a" d="M 0 0 
L -3.5 0 
" style="stroke: #000000; stroke-width: 0.8"/>
      </defs>
      <g>
       <use xlink:href="#mc8d4ac1c2a" x="34.874063" y="310.428694" style="stroke: #000000; stroke-width: 0.8"/>
      </g>
     </g>
     <g id="text_7">
      <!-- 0.0 -->
      <g transform="translate(7.2 315.367171) scale(0.13 -0.13)">
       <defs>
        <path id="DejaVuSans-11" d="M 684 794 
L 1344 794 
L 1344 0 
L 684 0 
L 684 794 
z
" transform="scale(0.015625)"/>
       </defs>
       <use xlink:href="#DejaVuSans-13"/>
       <use xlink:href="#DejaVuSans-11" transform="translate(63.625 0)"/>
       <use xlink:href="#DejaVuSans-13" transform="translate(95.40625 0)"/>
      </g>
     </g>
    </g>
    <g id="ytick_2">
     <g id="line2d_13">
      <path d="M 34.874063 269.508631 
L 328.038911 269.508631 
" clip-path="url(#p9c01061575)" style="fill: none; stroke: #b0b0b0; stroke-opacity: 0.25; stroke-width: 0.8; stroke-linecap: square"/>
     </g>
     <g id="line2d_14">
      <g>
       <use xlink:href="#mc8d4ac1c2a" x="34.874063" y="269.508631" style="stroke: #000000; stroke-width: 0.8"/>
      </g>
     </g>
     <g id="text_8">
      <!-- 0.2 -->
      <g transform="translate(7.2 274.447107) scale(0.13 -0.13)">
       <use xlink:href="#DejaVuSans-13"/>
       <use xlink:href="#DejaVuSans-11" transform="translate(63.625 0)"/>
       <use xlink:href="#DejaVuSans-15" transform="translate(95.40625 0)"/>
      </g>
     </g>
    </g>
    <g id="ytick_3">
     <g id="line2d_15">
      <path d="M 34.874063 228.588567 
L 328.038911 228.588567 
" clip-path="url(#p9c01061575)" style="fill: none; stroke: #b0b0b0; stroke-opacity: 0.25; stroke-width: 0.8; stroke-linecap: square"/>
     </g>
     <g id="line2d_16">
      <g>
       <use xlink:href="#mc8d4ac1c2a" x="34.874063" y="228.588567" style="stroke: #000000; stroke-width: 0.8"/>
      </g>
     </g>
     <g id="text_9">
      <!-- 0.4 -->
      <g transform="translate(7.2 233.527044) scale(0.13 -0.13)">
       <defs>
        <path id="DejaVuSans-17" d="M 2419 4116 
L 825 1625 
L 2419 1625 
L 2419 4116 
z
M 2253 4666 
L 3047 4666 
L 3047 1625 
L 3713 1625 
L 3713 1100 
L 3047 1100 
L 3047 0 
L 2419 0 
L 2419 1100 
L 313 1100 
L 313 1709 
L 2253 4666 
z
" transform="scale(0.015625)"/>
       </defs>
       <use xlink:href="#DejaVuSans-13"/>
       <use xlink:href="#DejaVuSans-11" transform="translate(63.625 0)"/>
       <use xlink:href="#DejaVuSans-17" transform="translate(95.40625 0)"/>
      </g>
     </g>
    </g>
    <g id="ytick_4">
     <g id="line2d_17">
      <path d="M 34.874063 187.668504 
L 328.038911 187.668504 
" clip-path="url(#p9c01061575)" style="fill: none; stroke: #b0b0b0; stroke-opacity: 0.25; stroke-width: 0.8; stroke-linecap: square"/>
     </g>
     <g id="line2d_18">
      <g>
       <use xlink:href="#mc8d4ac1c2a" x="34.874063" y="187.668504" style="stroke: #000000; stroke-width: 0.8"/>
      </g>
     </g>
     <g id="text_10">
      <!-- 0.6 -->
      <g transform="translate(7.2 192.60698) scale(0.13 -0.13)">
       <defs>
        <path id="DejaVuSans-19" d="M 2113 2584 
Q 1688 2584 1439 2293 
Q 1191 2003 1191 1497 
Q 1191 994 1439 701 
Q 1688 409 2113 409 
Q 2538 409 2786 701 
Q 3034 994 3034 1497 
Q 3034 2003 2786 2293 
Q 2538 2584 2113 2584 
z
M 3366 4563 
L 3366 3988 
Q 3128 4100 2886 4159 
Q 2644 4219 2406 4219 
Q 1781 4219 1451 3797 
Q 1122 3375 1075 2522 
Q 1259 2794 1537 2939 
Q 1816 3084 2150 3084 
Q 2853 3084 3261 2657 
Q 3669 2231 3669 1497 
Q 3669 778 3244 343 
Q 2819 -91 2113 -91 
Q 1303 -91 875 529 
Q 447 1150 447 2328 
Q 447 3434 972 4092 
Q 1497 4750 2381 4750 
Q 2619 4750 2861 4703 
Q 3103 4656 3366 4563 
z
" transform="scale(0.015625)"/>
       </defs>
       <use xlink:href="#DejaVuSans-13"/>
       <use xlink:href="#DejaVuSans-11" transform="translate(63.625 0)"/>
       <use xlink:href="#DejaVuSans-19" transform="translate(95.40625 0)"/>
      </g>
     </g>
    </g>
    <g id="ytick_5">
     <g id="line2d_19">
      <path d="M 34.874063 146.74844 
L 328.038911 146.74844 
" clip-path="url(#p9c01061575)" style="fill: none; stroke: #b0b0b0; stroke-opacity: 0.25; stroke-width: 0.8; stroke-linecap: square"/>
     </g>
     <g id="line2d_20">
      <g>
       <use xlink:href="#mc8d4ac1c2a" x="34.874063" y="146.74844" style="stroke: #000000; stroke-width: 0.8"/>
      </g>
     </g>
     <g id="text_11">
      <!-- 0.8 -->
      <g transform="translate(7.2 151.686917) scale(0.13 -0.13)">
       <defs>
        <path id="DejaVuSans-1b" d="M 2034 2216 
Q 1584 2216 1326 1975 
Q 1069 1734 1069 1313 
Q 1069 891 1326 650 
Q 1584 409 2034 409 
Q 2484 409 2743 651 
Q 3003 894 3003 1313 
Q 3003 1734 2745 1975 
Q 2488 2216 2034 2216 
z
M 1403 2484 
Q 997 2584 770 2862 
Q 544 3141 544 3541 
Q 544 4100 942 4425 
Q 1341 4750 2034 4750 
Q 2731 4750 3128 4425 
Q 3525 4100 3525 3541 
Q 3525 3141 3298 2862 
Q 3072 2584 2669 2484 
Q 3125 2378 3379 2068 
Q 3634 1759 3634 1313 
Q 3634 634 3220 271 
Q 2806 -91 2034 -91 
Q 1263 -91 848 271 
Q 434 634 434 1313 
Q 434 1759 690 2068 
Q 947 2378 1403 2484 
z
M 1172 3481 
Q 1172 3119 1398 2916 
Q 1625 2713 2034 2713 
Q 2441 2713 2670 2916 
Q 2900 3119 2900 3481 
Q 2900 3844 2670 4047 
Q 2441 4250 2034 4250 
Q 1625 4250 1398 4047 
Q 1172 3844 1172 3481 
z
" transform="scale(0.015625)"/>
       </defs>
       <use xlink:href="#DejaVuSans-13"/>
       <use xlink:href="#DejaVuSans-11" transform="translate(63.625 0)"/>
       <use xlink:href="#DejaVuSans-1b" transform="translate(95.40625 0)"/>
      </g>
     </g>
    </g>
    <g id="ytick_6">
     <g id="line2d_21">
      <path d="M 34.874063 105.828377 
L 328.038911 105.828377 
" clip-path="url(#p9c01061575)" style="fill: none; stroke: #b0b0b0; stroke-opacity: 0.25; stroke-width: 0.8; stroke-linecap: square"/>
     </g>
     <g id="line2d_22">
      <g>
       <use xlink:href="#mc8d4ac1c2a" x="34.874063" y="105.828377" style="stroke: #000000; stroke-width: 0.8"/>
      </g>
     </g>
     <g id="text_12">
      <!-- 1.0 -->
      <g transform="translate(7.2 110.766853) scale(0.13 -0.13)">
       <use xlink:href="#DejaVuSans-14"/>
       <use xlink:href="#DejaVuSans-11" transform="translate(63.625 0)"/>
       <use xlink:href="#DejaVuSans-13" transform="translate(95.40625 0)"/>
      </g>
     </g>
    </g>
    <g id="ytick_7">
     <g id="line2d_23">
      <path d="M 34.874063 64.908313 
L 328.038911 64.908313 
" clip-path="url(#p9c01061575)" style="fill: none; stroke: #b0b0b0; stroke-opacity: 0.25; stroke-width: 0.8; stroke-linecap: square"/>
     </g>
     <g id="line2d_24">
      <g>
       <use xlink:href="#mc8d4ac1c2a" x="34.874063" y="64.908313" style="stroke: #000000; stroke-width: 0.8"/>
      </g>
     </g>
     <g id="text_13">
      <!-- 1.2 -->
      <g transform="translate(7.2 69.84679) scale(0.13 -0.13)">
       <use xlink:href="#DejaVuSans-14"/>
       <use xlink:href="#DejaVuSans-11" transform="translate(63.625 0)"/>
       <use xlink:href="#DejaVuSans-15" transform="translate(95.40625 0)"/>
      </g>
     </g>
    </g>
   </g>
   <g id="line2d_25">
    <path d="M 34.874063 310.428694 
L 38.392217 310.319549 
L 40.385837 310.027543 
L 42.144914 309.54467 
L 43.78672 308.862479 
L 45.399207 307.947672 
L 47.011694 306.77132 
L 48.653499 305.292096 
L 50.35394 303.453477 
L 52.142335 301.182061 
L 54.018684 298.432863 
L 56.041623 295.064556 
L 58.240469 290.956445 
L 60.644541 285.979973 
L 63.341793 279.870682 
L 66.478813 272.194155 
L 70.407419 261.957549 
L 77.267819 243.330599 
L 83.571179 226.484923 
L 87.792964 215.825649 
L 91.487025 207.089182 
L 94.887908 199.60859 
L 98.083564 193.104761 
L 101.161949 187.331924 
L 104.181698 182.134951 
L 107.142811 177.47353 
L 110.103924 173.221627 
L 113.065037 169.352802 
L 116.084786 165.770382 
L 119.163171 162.459936 
L 122.358828 159.347797 
L 125.730392 156.376819 
L 129.307182 153.524075 
L 133.177151 150.725506 
L 137.428254 147.929161 
L 142.20708 145.055561 
L 147.718855 142.006963 
L 154.08085 138.747842 
L 161.23443 135.336022 
L 168.710508 132.016228 
L 176.010677 129.015127 
L 183.017668 126.372324 
L 189.819432 124.043003 
L 196.533243 121.977591 
L 203.335007 120.118401 
L 210.341998 118.435458 
L 217.700803 116.898936 
L 225.587332 115.481957 
L 234.236128 114.157926 
L 243.852415 112.914963 
L 254.700057 111.74175 
L 266.925643 110.647785 
L 280.529172 109.657241 
L 295.569281 108.788422 
L 312.339148 108.046662 
L 328.05357 107.522523 
L 328.05357 107.522523 
" clip-path="url(#p9c01061575)" style="fill: none; stroke: #d55e00; stroke-width: 2; stroke-linecap: square"/>
   </g>
   <g id="line2d_26">
    <path d="M 34.874063 310.428694 
L 37.659268 310.319902 
L 39.242437 310.026294 
L 40.620381 309.546308 
L 41.939689 308.846716 
L 43.229678 307.90471 
L 44.519668 306.684645 
L 45.868294 305.093869 
L 47.275556 303.077357 
L 48.770771 300.528459 
L 50.35394 297.373468 
L 52.054382 293.472502 
L 53.901413 288.658892 
L 55.924351 282.744124 
L 58.181833 275.42888 
L 60.761813 266.27849 
L 63.840198 254.494569 
L 67.974029 237.714345 
L 78.176676 195.958691 
L 81.724148 182.577483 
L 84.802533 171.80418 
L 87.617056 162.740917 
L 90.255671 154.980209 
L 92.747697 148.329173 
L 95.122451 142.610833 
L 97.409251 137.670741 
L 99.637416 133.379098 
L 101.806944 129.677329 
L 103.917837 126.506184 
L 105.999411 123.771649 
L 108.080986 121.401594 
L 110.133242 119.395409 
L 112.214817 117.667928 
L 114.325709 116.202847 
L 116.495237 114.96646 
L 118.75272 113.93553 
L 121.156792 113.085257 
L 123.736771 112.411712 
L 126.60993 111.897128 
L 129.893541 111.540559 
L 133.968736 111.332215 
L 140.154824 111.26682 
L 151.442235 111.150192 
L 158.156045 110.831849 
L 165.368261 110.259607 
L 175.365682 109.218863 
L 191.343966 107.564829 
L 200.403212 106.872402 
L 209.403823 106.411105 
L 219.45988 106.125639 
L 232.62364 105.990987 
L 271.704469 105.946189 
L 328.05357 105.835268 
L 328.05357 105.835268 
" clip-path="url(#p9c01061575)" style="fill: none; stroke: #e69f00; stroke-width: 2; stroke-linecap: square"/>
   </g>
   <g id="line2d_27">
    <path d="M 34.874063 310.428694 
L 37.102227 310.317753 
L 38.362899 310.021077 
L 39.476981 309.528468 
L 40.532427 308.817517 
L 41.587873 307.836399 
L 42.672637 306.520636 
L 43.816037 304.77522 
L 45.018073 302.527618 
L 46.308063 299.635545 
L 47.715325 295.913484 
L 49.239858 291.227001 
L 50.910982 285.342371 
L 52.758012 277.994033 
L 54.839587 268.764975 
L 57.243659 257.055898 
L 60.204772 241.465645 
L 64.631783 216.813219 
L 71.11105 180.879002 
L 74.453296 163.64567 
L 77.267819 150.262866 
L 79.789163 139.315698 
L 82.134599 130.101419 
L 84.304127 122.451528 
L 86.356384 116.004082 
L 88.320687 110.552383 
L 90.167718 106.059574 
L 91.956113 102.279966 
L 93.656554 99.189329 
L 95.298359 96.651347 
L 96.881528 94.599233 
L 98.43538 92.942137 
L 99.959913 91.639546 
L 101.455129 90.652643 
L 102.950344 89.932967 
L 104.44556 89.459629 
L 105.970093 89.208777 
L 107.553262 89.172155 
L 109.253704 89.358953 
L 111.100734 89.792953 
L 113.123673 90.501418 
L 115.439791 91.553488 
L 118.254314 93.087906 
L 122.124284 95.474088 
L 131.711254 101.476733 
L 135.34668 103.433644 
L 138.63029 104.954358 
L 141.767311 106.166021 
L 144.875014 107.128139 
L 147.982716 107.858548 
L 151.207691 108.386507 
L 154.608573 108.71434 
L 158.273317 108.841242 
L 162.407148 108.757065 
L 167.3912 108.423813 
L 174.603416 107.694423 
L 188.793304 106.236869 
L 196.240063 105.72727 
L 203.745459 105.439922 
L 212.247665 105.345178 
L 223.828255 105.459025 
L 257.309355 105.893581 
L 282.083023 105.874282 
L 328.05357 105.817666 
L 328.05357 105.817666 
" clip-path="url(#p9c01061575)" style="fill: none; stroke: #009e73; stroke-width: 2; stroke-linecap: square"/>
   </g>
   <g id="line2d_28">
    <path d="M 34.874063 310.428694 
L 35.372468 310.311764 
L 35.900191 309.939069 
L 36.48655 309.236106 
L 37.160863 308.068193 
L 37.952447 306.231982 
L 38.890622 303.446697 
L 39.975386 299.467631 
L 41.20674 294.060914 
L 42.643319 286.702131 
L 44.343761 276.755863 
L 46.366699 263.538154 
L 48.975997 244.926072 
L 53.490961 210.801371 
L 58.152515 176.169692 
L 61.142946 155.606723 
L 63.693608 139.575576 
L 65.980408 126.579517 
L 68.091301 115.83358 
L 70.055603 106.954704 
L 71.902634 99.604515 
L 73.632393 93.594455 
L 75.274199 88.657628 
L 76.857368 84.585621 
L 78.352583 81.33856 
L 79.759845 78.79173 
L 81.108471 76.792895 
L 82.398461 75.265247 
L 83.629815 74.138623 
L 84.831851 73.333297 
L 86.004569 72.810929 
L 87.177287 72.531717 
L 88.350005 72.478682 
L 89.581359 72.647745 
L 90.871348 73.050651 
L 92.27861 73.727674 
L 93.832461 74.729558 
L 95.591538 76.139992 
L 97.614477 78.059173 
L 100.077185 80.720407 
L 103.390113 84.657075 
L 113.035719 96.31053 
L 116.143422 99.609793 
L 118.899309 102.219846 
L 121.479289 104.363341 
L 123.941997 106.125496 
L 126.346069 107.575375 
L 128.720823 108.74976 
L 131.095577 109.677864 
L 133.528967 110.388487 
L 136.020993 110.884016 
L 138.659608 111.178678 
L 141.474131 111.265843 
L 144.581834 111.134708 
L 148.158624 110.752846 
L 152.585635 110.043775 
L 159.827169 108.621027 
L 168.5346 106.97231 
L 174.310236 106.110891 
L 179.763375 105.52206 
L 185.363104 105.143993 
L 191.461237 104.960721 
L 198.673453 104.975839 
L 209.081326 105.244325 
L 231.450922 105.85576 
L 245.552857 105.971493 
L 268.010407 105.892798 
L 305.361476 105.805857 
L 328.05357 105.823417 
L 328.05357 105.823417 
" clip-path="url(#p9c01061575)" style="fill: none; stroke: #0072b2; stroke-width: 2; stroke-linecap: square"/>
   </g>
   <g id="line2d_29">
    <path d="M 34.874063 105.828377 
L 328.038911 105.828377 
" clip-path="url(#p9c01061575)" style="fill: none; stroke-dasharray: 1,1.65; stroke-dashoffset: 0; stroke: #000000"/>
   </g>
   <g id="patch_3">
    <path d="M 34.874063 322.326545 
L 34.874063 60.573818 
" style="fill: none; stroke: #000000; stroke-width: 0.8; stroke-linejoin: miter; stroke-linecap: square"/>
   </g>
   <g id="patch_4">
    <path d="M 34.874063 322.326545 
L 328.038911 322.326545 
" style="fill: none; stroke: #000000; stroke-width: 0.8; stroke-linejoin: miter; stroke-linecap: square"/>
   </g>
   <g id="text_14">
    <!-- Fig. 3.36: extra pole, $\zeta$ = 0.5 -->
    <g transform="translate(74.656487 54.573818) scale(0.15 -0.15)">
     <defs>
      <path id="DejaVuSans-29" d="M 628 4666 
L 3309 4666 
L 3309 4134 
L 1259 4134 
L 1259 2759 
L 3109 2759 
L 3109 2228 
L 1259 2228 
L 1259 0 
L 628 0 
L 628 4666 
z
" transform="scale(0.015625)"/>
      <path id="DejaVuSans-4a" d="M 2906 1791 
Q 2906 2416 2648 2759 
Q 2391 3103 1925 3103 
Q 1463 3103 1205 2759 
Q 947 2416 947 1791 
Q 947 1169 1205 825 
Q 1463 481 1925 481 
Q 2391 481 2648 825 
Q 2906 1169 2906 1791 
z
M 3481 434 
Q 3481 -459 3084 -895 
Q 2688 -1331 1869 -1331 
Q 1566 -1331 1297 -1286 
Q 1028 -1241 775 -1147 
L 775 -588 
Q 1028 -725 1275 -790 
Q 1522 -856 1778 -856 
Q 2344 -856 2625 -561 
Q 2906 -266 2906 331 
L 2906 616 
Q 2728 306 2450 153 
Q 2172 0 1784 0 
Q 1141 0 747 490 
Q 353 981 353 1791 
Q 353 2603 747 3093 
Q 1141 3584 1784 3584 
Q 2172 3584 2450 3431 
Q 2728 3278 2906 2969 
L 2906 3500 
L 3481 3500 
L 3481 434 
z
" transform="scale(0.015625)"/>
      <path id="DejaVuSans-16" d="M 2597 2516 
Q 3050 2419 3304 2112 
Q 3559 1806 3559 1356 
Q 3559 666 3084 287 
Q 2609 -91 1734 -91 
Q 1441 -91 1130 -33 
Q 819 25 488 141 
L 488 750 
Q 750 597 1062 519 
Q 1375 441 1716 441 
Q 2309 441 2620 675 
Q 2931 909 2931 1356 
Q 2931 1769 2642 2001 
Q 2353 2234 1838 2234 
L 1294 2234 
L 1294 2753 
L 1863 2753 
Q 2328 2753 2575 2939 
Q 2822 3125 2822 3475 
Q 2822 3834 2567 4026 
Q 2313 4219 1838 4219 
Q 1578 4219 1281 4162 
Q 984 4106 628 3988 
L 628 4550 
Q 988 4650 1302 4700 
Q 1616 4750 1894 4750 
Q 2613 4750 3031 4423 
Q 3450 4097 3450 3541 
Q 3450 3153 3228 2886 
Q 3006 2619 2597 2516 
z
" transform="scale(0.015625)"/>
      <path id="DejaVuSans-1d" d="M 750 794 
L 1409 794 
L 1409 0 
L 750 0 
L 750 794 
z
M 750 3309 
L 1409 3309 
L 1409 2516 
L 750 2516 
L 750 3309 
z
" transform="scale(0.015625)"/>
      <path id="DejaVuSans-5b" d="M 3513 3500 
L 2247 1797 
L 3578 0 
L 2900 0 
L 1881 1375 
L 863 0 
L 184 0 
L 1544 1831 
L 300 3500 
L 978 3500 
L 1906 2253 
L 2834 3500 
L 3513 3500 
z
" transform="scale(0.015625)"/>
      <path id="DejaVuSans-53" d="M 1159 525 
L 1159 -1331 
L 581 -1331 
L 581 3500 
L 1159 3500 
L 1159 2969 
Q 1341 3281 1617 3432 
Q 1894 3584 2278 3584 
Q 2916 3584 3314 3078 
Q 3713 2572 3713 1747 
Q 3713 922 3314 415 
Q 2916 -91 2278 -91 
Q 1894 -91 1617 61 
Q 1341 213 1159 525 
z
M 3116 1747 
Q 3116 2381 2855 2742 
Q 2594 3103 2138 3103 
Q 1681 3103 1420 2742 
Q 1159 2381 1159 1747 
Q 1159 1113 1420 752 
Q 1681 391 2138 391 
Q 2594 391 2855 752 
Q 3116 1113 3116 1747 
z
" transform="scale(0.015625)"/>
      <path id="DejaVuSans-f" d="M 750 794 
L 1409 794 
L 1409 256 
L 897 -744 
L 494 -744 
L 750 256 
L 750 794 
z
" transform="scale(0.015625)"/>
      <path id="DejaVuSans-Oblique-34a" d="M 1966 397 
Q 2378 394 2578 159 
Q 2794 -88 2722 -463 
Q 2650 -822 2372 -1072 
Q 2069 -1344 1559 -1344 
Q 1606 -1109 1650 -872 
Q 1863 -888 2022 -750 
Q 2144 -641 2166 -525 
Q 2197 -359 2125 -222 
Q 2050 -91 1872 -91 
Q -22 -91 316 1669 
Q 616 3206 2609 4284 
L 947 4284 
L 1059 4863 
L 3778 4863 
L 3666 4284 
Q 1181 3147 894 1669 
Q 647 397 1966 397 
z
" transform="scale(0.015625)"/>
      <path id="DejaVuSans-20" d="M 678 2906 
L 4684 2906 
L 4684 2381 
L 678 2381 
L 678 2906 
z
M 678 1631 
L 4684 1631 
L 4684 1100 
L 678 1100 
L 678 1631 
z
" transform="scale(0.015625)"/>
     </defs>
     <use xlink:href="#DejaVuSans-29" transform="translate(0 0.015625)"/>
     <use xlink:href="#DejaVuSans-4c" transform="translate(50.519531 0.015625)"/>
     <use xlink:href="#DejaVuSans-4a" transform="translate(78.302734 0.015625)"/>
     <use xlink:href="#DejaVuSans-11" transform="translate(141.779297 0.015625)"/>
     <use xlink:href="#DejaVuSans-3" transform="translate(173.566406 0.015625)"/>
     <use xlink:href="#DejaVuSans-16" transform="translate(205.353516 0.015625)"/>
     <use xlink:href="#DejaVuSans-11" transform="translate(268.976562 0.015625)"/>
     <use xlink:href="#DejaVuSans-16" transform="translate(300.763672 0.015625)"/>
     <use xlink:href="#DejaVuSans-19" transform="translate(364.386719 0.015625)"/>
     <use xlink:href="#DejaVuSans-1d" transform="translate(428.009766 0.015625)"/>
     <use xlink:href="#DejaVuSans-3" transform="translate(461.701172 0.015625)"/>
     <use xlink:href="#DejaVuSans-48" transform="translate(493.488281 0.015625)"/>
     <use xlink:href="#DejaVuSans-5b" transform="translate(553.011719 0.015625)"/>
     <use xlink:href="#DejaVuSans-57" transform="translate(612.191406 0.015625)"/>
     <use xlink:href="#DejaVuSans-55" transform="translate(651.400391 0.015625)"/>
     <use xlink:href="#DejaVuSans-44" transform="translate(692.513672 0.015625)"/>
     <use xlink:href="#DejaVuSans-3" transform="translate(753.792969 0.015625)"/>
     <use xlink:href="#DejaVuSans-53" transform="translate(785.580078 0.015625)"/>
     <use xlink:href="#DejaVuSans-52" transform="translate(849.056641 0.015625)"/>
     <use xlink:href="#DejaVuSans-4f" transform="translate(910.238281 0.015625)"/>
     <use xlink:href="#DejaVuSans-48" transform="translate(938.021484 0.015625)"/>
     <use xlink:href="#DejaVuSans-f" transform="translate(999.544922 0.015625)"/>
     <use xlink:href="#DejaVuSans-3" transform="translate(1031.332031 0.015625)"/>
     <use xlink:href="#DejaVuSans-Oblique-34a" transform="translate(1063.119141 0.015625)"/>
     <use xlink:href="#DejaVuSans-3" transform="translate(1117.513672 0.015625)"/>
     <use xlink:href="#DejaVuSans-20" transform="translate(1149.300781 0.015625)"/>
     <use xlink:href="#DejaVuSans-3" transform="translate(1233.089844 0.015625)"/>
     <use xlink:href="#DejaVuSans-13" transform="translate(1264.876953 0.015625)"/>
     <use xlink:href="#DejaVuSans-11" transform="translate(1328.5 0.015625)"/>
     <use xlink:href="#DejaVuSans-18" transform="translate(1360.287109 0.015625)"/>
    </g>
   </g>
   <g id="legend_1">
    <g id="line2d_30">
     <path d="M 224.771723 262.421858 
L 234.771723 262.421858 
L 244.771723 262.421858 
" style="fill: none; stroke: #d55e00; stroke-width: 2; stroke-linecap: square"/>
    </g>
    <g id="text_15">
     <!-- $\alpha$ = 0.5 -->
     <g transform="translate(252.771723 265.921858) scale(0.1 -0.1)">
      <defs>
       <path id="DejaVuSans-Oblique-345" d="M 2619 1628 
L 2622 2350 
Q 2625 3088 2069 3091 
Q 1653 3094 1394 2747 
Q 1069 2319 959 1747 
Q 825 1059 994 731 
Q 1169 397 1547 397 
Q 1966 397 2319 1063 
L 2619 1628 
z
M 2166 3578 
Q 3141 3594 3128 2584 
Q 3128 2584 3616 3500 
L 4128 3500 
L 3119 1603 
L 3109 919 
Q 3109 766 3194 638 
Q 3291 488 3391 488 
L 3669 488 
L 3575 0 
L 3228 0 
Q 2934 0 2722 263 
Q 2622 394 2619 669 
Q 2416 334 2066 50 
Q 1900 -81 1453 -78 
Q 722 -72 456 397 
Q 184 884 353 1747 
Q 534 2675 1009 3097 
Q 1544 3569 2166 3578 
z
" transform="scale(0.015625)"/>
      </defs>
      <use xlink:href="#DejaVuSans-Oblique-345" transform="translate(0 0.78125)"/>
      <use xlink:href="#DejaVuSans-3" transform="translate(65.917969 0.78125)"/>
      <use xlink:href="#DejaVuSans-20" transform="translate(97.705078 0.78125)"/>
      <use xlink:href="#DejaVuSans-3" transform="translate(181.494141 0.78125)"/>
      <use xlink:href="#DejaVuSans-13" transform="translate(213.28125 0.78125)"/>
      <use xlink:href="#DejaVuSans-11" transform="translate(276.904297 0.78125)"/>
      <use xlink:href="#DejaVuSans-18" transform="translate(308.691406 0.78125)"/>
     </g>
    </g>
    <g id="line2d_31">
     <path d="M 224.771723 277.422639 
L 234.771723 277.422639 
L 244.771723 277.422639 
" style="fill: none; stroke: #e69f00; stroke-width: 2; stroke-linecap: square"/>
    </g>
    <g id="text_16">
     <!-- $\alpha$ = 1 -->
     <g transform="translate(252.771723 280.922639) scale(0.1 -0.1)">
      <use xlink:href="#DejaVuSans-Oblique-345" transform="translate(0 0.09375)"/>
      <use xlink:href="#DejaVuSans-3" transform="translate(65.917969 0.09375)"/>
      <use xlink:href="#DejaVuSans-20" transform="translate(97.705078 0.09375)"/>
      <use xlink:href="#DejaVuSans-3" transform="translate(181.494141 0.09375)"/>
      <use xlink:href="#DejaVuSans-14" transform="translate(213.28125 0.09375)"/>
     </g>
    </g>
    <g id="line2d_32">
     <path d="M 224.771723 292.42342 
L 234.771723 292.42342 
L 244.771723 292.42342 
" style="fill: none; stroke: #009e73; stroke-width: 2; stroke-linecap: square"/>
    </g>
    <g id="text_17">
     <!-- $\alpha$ = 2 -->
     <g transform="translate(252.771723 295.92342) scale(0.1 -0.1)">
      <use xlink:href="#DejaVuSans-Oblique-345" transform="translate(0 0.78125)"/>
      <use xlink:href="#DejaVuSans-3" transform="translate(65.917969 0.78125)"/>
      <use xlink:href="#DejaVuSans-20" transform="translate(97.705078 0.78125)"/>
      <use xlink:href="#DejaVuSans-3" transform="translate(181.494141 0.78125)"/>
      <use xlink:href="#DejaVuSans-15" transform="translate(213.28125 0.78125)"/>
     </g>
    </g>
    <g id="line2d_33">
     <path d="M 224.771723 307.424202 
L 234.771723 307.424202 
L 244.771723 307.424202 
" style="fill: none; stroke: #0072b2; stroke-width: 2; stroke-linecap: square"/>
    </g>
    <g id="text_18">
     <!-- no extra pole -->
     <g transform="translate(252.771723 310.924202) scale(0.1 -0.1)">
      <use xlink:href="#DejaVuSans-51"/>
      <use xlink:href="#DejaVuSans-52" transform="translate(63.375 0)"/>
      <use xlink:href="#DejaVuSans-3" transform="translate(124.5625 0)"/>
      <use xlink:href="#DejaVuSans-48" transform="translate(156.34375 0)"/>
      <use xlink:href="#DejaVuSans-5b" transform="translate(216.125 0)"/>
      <use xlink:href="#DejaVuSans-57" transform="translate(275.3125 0)"/>
      <use xlink:href="#DejaVuSans-55" transform="translate(314.515625 0)"/>
      <use xlink:href="#DejaVuSans-44" transform="translate(355.625 0)"/>
      <use xlink:href="#DejaVuSans-3" transform="translate(416.90625 0)"/>
      <use xlink:href="#DejaVuSans-53" transform="translate(448.6875 0)"/>
      <use xlink:href="#DejaVuSans-52" transform="translate(512.171875 0)"/>
      <use xlink:href="#DejaVuSans-4f" transform="translate(573.359375 0)"/>
      <use xlink:href="#DejaVuSans-48" transform="translate(601.140625 0)"/>
     </g>
    </g>
   </g>
  </g>
  <g id="axes_2">
   <g id="patch_5">
    <path d="M 398.151638 322.326545 
L 691.316487 322.326545 
L 691.316487 60.573818 
L 398.151638 60.573818 
z
" style="fill: #ffffff"/>
   </g>
   <g id="matplotlib.axis_3">
    <g id="xtick_6">
     <g id="line2d_34">
      <path d="M 467.585418 322.326545 
L 467.585418 60.573818 
" clip-path="url(#pde80cb7b9c)" style="fill: none; stroke: #b0b0b0; stroke-opacity: 0.25; stroke-width: 0.8; stroke-linecap: square"/>
     </g>
     <g id="line2d_35">
      <g>
       <use xlink:href="#m0a6fab5254" x="467.585418" y="322.326545" style="stroke: #000000; stroke-width: 0.8"/>
      </g>
     </g>
     <g id="text_19">
      <!-- 2 -->
      <g transform="translate(463.449793 339.203499) scale(0.13 -0.13)">
       <use xlink:href="#DejaVuSans-15"/>
      </g>
     </g>
    </g>
    <g id="xtick_7">
     <g id="line2d_36">
      <path d="M 537.720549 322.326545 
L 537.720549 60.573818 
" clip-path="url(#pde80cb7b9c)" style="fill: none; stroke: #b0b0b0; stroke-opacity: 0.25; stroke-width: 0.8; stroke-linecap: square"/>
     </g>
     <g id="line2d_37">
      <g>
       <use xlink:href="#m0a6fab5254" x="537.720549" y="322.326545" style="stroke: #000000; stroke-width: 0.8"/>
      </g>
     </g>
     <g id="text_20">
      <!-- 4 -->
      <g transform="translate(533.584924 339.203499) scale(0.13 -0.13)">
       <use xlink:href="#DejaVuSans-17"/>
      </g>
     </g>
    </g>
    <g id="xtick_8">
     <g id="line2d_38">
      <path d="M 607.855681 322.326545 
L 607.855681 60.573818 
" clip-path="url(#pde80cb7b9c)" style="fill: none; stroke: #b0b0b0; stroke-opacity: 0.25; stroke-width: 0.8; stroke-linecap: square"/>
     </g>
     <g id="line2d_39">
      <g>
       <use xlink:href="#m0a6fab5254" x="607.855681" y="322.326545" style="stroke: #000000; stroke-width: 0.8"/>
      </g>
     </g>
     <g id="text_21">
      <!-- 6 -->
      <g transform="translate(603.720056 339.203499) scale(0.13 -0.13)">
       <use xlink:href="#DejaVuSans-19"/>
      </g>
     </g>
    </g>
    <g id="xtick_9">
     <g id="line2d_40">
      <path d="M 677.990812 322.326545 
L 677.990812 60.573818 
" clip-path="url(#pde80cb7b9c)" style="fill: none; stroke: #b0b0b0; stroke-opacity: 0.25; stroke-width: 0.8; stroke-linecap: square"/>
     </g>
     <g id="line2d_41">
      <g>
       <use xlink:href="#m0a6fab5254" x="677.990812" y="322.326545" style="stroke: #000000; stroke-width: 0.8"/>
      </g>
     </g>
     <g id="text_22">
      <!-- 8 -->
      <g transform="translate(673.855187 339.203499) scale(0.13 -0.13)">
       <use xlink:href="#DejaVuSans-1b"/>
      </g>
     </g>
    </g>
    <g id="text_23">
     <!-- $\alpha$  (extra pole at $-\alpha\zeta\omega_n$) -->
     <g transform="translate(465.889063 356.206545) scale(0.13 -0.13)">
      <defs>
       <path id="DejaVuSans-b" d="M 1984 4856 
Q 1566 4138 1362 3434 
Q 1159 2731 1159 2009 
Q 1159 1288 1364 580 
Q 1569 -128 1984 -844 
L 1484 -844 
Q 1016 -109 783 600 
Q 550 1309 550 2009 
Q 550 2706 781 3412 
Q 1013 4119 1484 4856 
L 1984 4856 
z
" transform="scale(0.015625)"/>
       <path id="DejaVuSans-c9c" d="M 678 2272 
L 4684 2272 
L 4684 1741 
L 678 1741 
L 678 2272 
z
" transform="scale(0.015625)"/>
       <path id="DejaVuSans-c" d="M 513 4856 
L 1013 4856 
Q 1481 4119 1714 3412 
Q 1947 2706 1947 2009 
Q 1947 1309 1714 600 
Q 1481 -109 1013 -844 
L 513 -844 
Q 928 -128 1133 580 
Q 1338 1288 1338 2009 
Q 1338 2731 1133 3434 
Q 928 4138 513 4856 
z
" transform="scale(0.015625)"/>
      </defs>
      <use xlink:href="#DejaVuSans-Oblique-345" transform="translate(0 0.015625)"/>
      <use xlink:href="#DejaVuSans-3" transform="translate(65.917969 0.015625)"/>
      <use xlink:href="#DejaVuSans-3" transform="translate(97.705078 0.015625)"/>
      <use xlink:href="#DejaVuSans-b" transform="translate(129.492188 0.015625)"/>
      <use xlink:href="#DejaVuSans-48" transform="translate(168.505859 0.015625)"/>
      <use xlink:href="#DejaVuSans-5b" transform="translate(228.029297 0.015625)"/>
      <use xlink:href="#DejaVuSans-57" transform="translate(287.208984 0.015625)"/>
      <use xlink:href="#DejaVuSans-55" transform="translate(326.417969 0.015625)"/>
      <use xlink:href="#DejaVuSans-44" transform="translate(367.53125 0.015625)"/>
      <use xlink:href="#DejaVuSans-3" transform="translate(428.810547 0.015625)"/>
      <use xlink:href="#DejaVuSans-53" transform="translate(460.597656 0.015625)"/>
      <use xlink:href="#DejaVuSans-52" transform="translate(524.074219 0.015625)"/>
      <use xlink:href="#DejaVuSans-4f" transform="translate(585.255859 0.015625)"/>
      <use xlink:href="#DejaVuSans-48" transform="translate(613.039062 0.015625)"/>
      <use xlink:href="#DejaVuSans-3" transform="translate(674.5625 0.015625)"/>
      <use xlink:href="#DejaVuSans-44" transform="translate(706.349609 0.015625)"/>
      <use xlink:href="#DejaVuSans-57" transform="translate(767.628906 0.015625)"/>
      <use xlink:href="#DejaVuSans-3" transform="translate(806.837891 0.015625)"/>
      <use xlink:href="#DejaVuSans-c9c" transform="translate(838.625 0.015625)"/>
      <use xlink:href="#DejaVuSans-Oblique-345" transform="translate(922.414062 0.015625)"/>
      <use xlink:href="#DejaVuSans-Oblique-34a" transform="translate(988.332031 0.015625)"/>
      <use xlink:href="#DejaVuSans-Oblique-35d" transform="translate(1042.726562 0.015625)"/>
      <use xlink:href="#DejaVuSans-Oblique-51" transform="translate(1126.466797 -14.984326) scale(0.7)"/>
      <use xlink:href="#DejaVuSans-c" transform="translate(1173.566406 0.015625)"/>
     </g>
    </g>
   </g>
   <g id="matplotlib.axis_4">
    <g id="ytick_8">
     <g id="line2d_42">
      <path d="M 398.151638 302.667247 
L 691.316487 302.667247 
" clip-path="url(#pde80cb7b9c)" style="fill: none; stroke: #b0b0b0; stroke-opacity: 0.25; stroke-width: 0.8; stroke-linecap: square"/>
     </g>
     <g id="line2d_43">
      <g>
       <use xlink:href="#mc8d4ac1c2a" x="398.151638" y="302.667247" style="stroke: #000000; stroke-width: 0.8"/>
      </g>
     </g>
     <g id="text_24">
      <!-- 2 -->
      <g transform="translate(382.880388 307.605724) scale(0.13 -0.13)">
       <use xlink:href="#DejaVuSans-15"/>
      </g>
     </g>
    </g>
    <g id="ytick_9">
     <g id="line2d_44">
      <path d="M 398.151638 249.124239 
L 691.316487 249.124239 
" clip-path="url(#pde80cb7b9c)" style="fill: none; stroke: #b0b0b0; stroke-opacity: 0.25; stroke-width: 0.8; stroke-linecap: square"/>
     </g>
     <g id="line2d_45">
      <g>
       <use xlink:href="#mc8d4ac1c2a" x="398.151638" y="249.124239" style="stroke: #000000; stroke-width: 0.8"/>
      </g>
     </g>
     <g id="text_25">
      <!-- 4 -->
      <g transform="translate(382.880388 254.062716) scale(0.13 -0.13)">
       <use xlink:href="#DejaVuSans-17"/>
      </g>
     </g>
    </g>
    <g id="ytick_10">
     <g id="line2d_46">
      <path d="M 398.151638 195.581231 
L 691.316487 195.581231 
" clip-path="url(#pde80cb7b9c)" style="fill: none; stroke: #b0b0b0; stroke-opacity: 0.25; stroke-width: 0.8; stroke-linecap: square"/>
     </g>
     <g id="line2d_47">
      <g>
       <use xlink:href="#mc8d4ac1c2a" x="398.151638" y="195.581231" style="stroke: #000000; stroke-width: 0.8"/>
      </g>
     </g>
     <g id="text_26">
      <!-- 6 -->
      <g transform="translate(382.880388 200.519708) scale(0.13 -0.13)">
       <use xlink:href="#DejaVuSans-19"/>
      </g>
     </g>
    </g>
    <g id="ytick_11">
     <g id="line2d_48">
      <path d="M 398.151638 142.038224 
L 691.316487 142.038224 
" clip-path="url(#pde80cb7b9c)" style="fill: none; stroke: #b0b0b0; stroke-opacity: 0.25; stroke-width: 0.8; stroke-linecap: square"/>
     </g>
     <g id="line2d_49">
      <g>
       <use xlink:href="#mc8d4ac1c2a" x="398.151638" y="142.038224" style="stroke: #000000; stroke-width: 0.8"/>
      </g>
     </g>
     <g id="text_27">
      <!-- 8 -->
      <g transform="translate(382.880388 146.9767) scale(0.13 -0.13)">
       <use xlink:href="#DejaVuSans-1b"/>
      </g>
     </g>
    </g>
    <g id="ytick_12">
     <g id="line2d_50">
      <path d="M 398.151638 88.495216 
L 691.316487 88.495216 
" clip-path="url(#pde80cb7b9c)" style="fill: none; stroke: #b0b0b0; stroke-opacity: 0.25; stroke-width: 0.8; stroke-linecap: square"/>
     </g>
     <g id="line2d_51">
      <g>
       <use xlink:href="#mc8d4ac1c2a" x="398.151638" y="88.495216" style="stroke: #000000; stroke-width: 0.8"/>
      </g>
     </g>
     <g id="text_28">
      <!-- 10 -->
      <g transform="translate(374.609138 93.433692) scale(0.13 -0.13)">
       <use xlink:href="#DejaVuSans-14"/>
       <use xlink:href="#DejaVuSans-13" transform="translate(63.625 0)"/>
      </g>
     </g>
    </g>
    <g id="text_29">
     <!-- $\omega_n t_r$ -->
     <g transform="translate(367.486091 204.580182) rotate(-90) scale(0.13 -0.13)">
      <defs>
       <path id="DejaVuSans-Oblique-55" d="M 2853 2969 
Q 2766 3016 2653 3041 
Q 2541 3066 2413 3066 
Q 1953 3066 1609 2717 
Q 1266 2369 1153 1784 
L 800 0 
L 225 0 
L 909 3500 
L 1484 3500 
L 1375 2956 
Q 1603 3259 1920 3421 
Q 2238 3584 2597 3584 
Q 2691 3584 2781 3573 
Q 2872 3563 2963 3538 
L 2853 2969 
z
" transform="scale(0.015625)"/>
      </defs>
      <use xlink:href="#DejaVuSans-Oblique-35d" transform="translate(0 0.78125)"/>
      <use xlink:href="#DejaVuSans-Oblique-51" transform="translate(83.740234 -14.218701) scale(0.7)"/>
      <use xlink:href="#DejaVuSans-Oblique-57" transform="translate(130.839844 0.78125)"/>
      <use xlink:href="#DejaVuSans-Oblique-55" transform="translate(170.048828 -14.218701) scale(0.7)"/>
     </g>
    </g>
   </g>
   <g id="line2d_52">
    <path d="M 411.477313 72.471669 
L 418.310993 166.765621 
L 425.144672 234.233184 
L 431.978352 262.398215 
L 438.812031 275.088542 
L 445.64571 282.692029 
L 452.47939 287.832415 
L 459.313069 291.527067 
L 466.146749 294.418534 
L 472.980428 296.667453 
L 479.814108 298.434461 
L 486.647787 299.93374 
L 493.481467 301.218836 
L 500.315146 302.28975 
L 507.148826 303.253572 
L 513.982505 304.003212 
L 520.816184 304.699306 
L 527.649864 305.341854 
L 534.483543 305.877311 
L 541.317223 306.359222 
L 548.150902 306.787588 
L 554.984582 307.162407 
L 561.818261 307.537227 
L 568.651941 307.858501 
L 575.48562 308.12623 
L 582.319299 308.393958 
L 589.152979 308.608141 
L 595.986658 308.822324 
L 602.820338 309.036506 
L 609.654017 309.250689 
L 616.487697 309.411326 
L 623.321376 309.518418 
L 630.155056 309.7326 
L 636.988735 309.839692 
L 643.822415 309.946783 
L 650.656094 310.10742 
L 657.489773 310.160966 
L 664.323453 310.268057 
L 671.157132 310.375149 
L 677.990812 310.428694 
" clip-path="url(#pde80cb7b9c)" style="fill: none; stroke: #0072b2; stroke-width: 2.4; stroke-linecap: square"/>
   </g>
   <g id="line2d_53">
    <path d="M 398.151638 312.409885 
L 691.316487 312.409885 
" clip-path="url(#pde80cb7b9c)" style="fill: none; stroke-dasharray: 8.14,3.52; stroke-dashoffset: 0; stroke: #666666; stroke-width: 2.2"/>
   </g>
   <g id="patch_6">
    <path d="M 398.151638 322.326545 
L 398.151638 60.573818 
" style="fill: none; stroke: #000000; stroke-width: 0.8; stroke-linejoin: miter; stroke-linecap: square"/>
   </g>
   <g id="patch_7">
    <path d="M 398.151638 322.326545 
L 691.316487 322.326545 
" style="fill: none; stroke: #000000; stroke-width: 0.8; stroke-linejoin: miter; stroke-linecap: square"/>
   </g>
   <g id="text_30">
    <!-- Fig. 3.38: rise time versus the extra pole -->
    <g transform="translate(392.590703 54.573818) scale(0.15 -0.15)">
     <defs>
      <path id="DejaVuSans-59" d="M 191 3500 
L 800 3500 
L 1894 563 
L 2988 3500 
L 3597 3500 
L 2284 0 
L 1503 0 
L 191 3500 
z
" transform="scale(0.015625)"/>
      <path id="DejaVuSans-58" d="M 544 1381 
L 544 3500 
L 1119 3500 
L 1119 1403 
Q 1119 906 1312 657 
Q 1506 409 1894 409 
Q 2359 409 2629 706 
Q 2900 1003 2900 1516 
L 2900 3500 
L 3475 3500 
L 3475 0 
L 2900 0 
L 2900 538 
Q 2691 219 2414 64 
Q 2138 -91 1772 -91 
Q 1169 -91 856 284 
Q 544 659 544 1381 
z
M 1991 3584 
L 1991 3584 
z
" transform="scale(0.015625)"/>
      <path id="DejaVuSans-4b" d="M 3513 2113 
L 3513 0 
L 2938 0 
L 2938 2094 
Q 2938 2591 2744 2837 
Q 2550 3084 2163 3084 
Q 1697 3084 1428 2787 
Q 1159 2491 1159 1978 
L 1159 0 
L 581 0 
L 581 4863 
L 1159 4863 
L 1159 2956 
Q 1366 3272 1645 3428 
Q 1925 3584 2291 3584 
Q 2894 3584 3203 3211 
Q 3513 2838 3513 2113 
z
" transform="scale(0.015625)"/>
     </defs>
     <use xlink:href="#DejaVuSans-29"/>
     <use xlink:href="#DejaVuSans-4c" transform="translate(50.234375 0)"/>
     <use xlink:href="#DejaVuSans-4a" transform="translate(78.015625 0)"/>
     <use xlink:href="#DejaVuSans-11" transform="translate(141.5 0)"/>
     <use xlink:href="#DejaVuSans-3" transform="translate(173.28125 0)"/>
     <use xlink:href="#DejaVuSans-16" transform="translate(205.0625 0)"/>
     <use xlink:href="#DejaVuSans-11" transform="translate(268.6875 0)"/>
     <use xlink:href="#DejaVuSans-16" transform="translate(300.46875 0)"/>
     <use xlink:href="#DejaVuSans-1b" transform="translate(364.09375 0)"/>
     <use xlink:href="#DejaVuSans-1d" transform="translate(427.71875 0)"/>
     <use xlink:href="#DejaVuSans-3" transform="translate(461.40625 0)"/>
     <use xlink:href="#DejaVuSans-55" transform="translate(493.1875 0)"/>
     <use xlink:href="#DejaVuSans-4c" transform="translate(534.296875 0)"/>
     <use xlink:href="#DejaVuSans-56" transform="translate(562.078125 0)"/>
     <use xlink:href="#DejaVuSans-48" transform="translate(614.171875 0)"/>
     <use xlink:href="#DejaVuSans-3" transform="translate(675.703125 0)"/>
     <use xlink:href="#DejaVuSans-57" transform="translate(707.484375 0)"/>
     <use xlink:href="#DejaVuSans-4c" transform="translate(746.6875 0)"/>
     <use xlink:href="#DejaVuSans-50" transform="translate(774.46875 0)"/>
     <use xlink:href="#DejaVuSans-48" transform="translate(871.875 0)"/>
     <use xlink:href="#DejaVuSans-3" transform="translate(933.40625 0)"/>
     <use xlink:href="#DejaVuSans-59" transform="translate(965.1875 0)"/>
     <use xlink:href="#DejaVuSans-48" transform="translate(1024.375 0)"/>
     <use xlink:href="#DejaVuSans-55" transform="translate(1085.90625 0)"/>
     <use xlink:href="#DejaVuSans-56" transform="translate(1127.015625 0)"/>
     <use xlink:href="#DejaVuSans-58" transform="translate(1179.109375 0)"/>
     <use xlink:href="#DejaVuSans-56" transform="translate(1242.484375 0)"/>
     <use xlink:href="#DejaVuSans-3" transform="translate(1294.578125 0)"/>
     <use xlink:href="#DejaVuSans-57" transform="translate(1326.359375 0)"/>
     <use xlink:href="#DejaVuSans-4b" transform="translate(1365.5625 0)"/>
     <use xlink:href="#DejaVuSans-48" transform="translate(1428.9375 0)"/>
     <use xlink:href="#DejaVuSans-3" transform="translate(1490.46875 0)"/>
     <use xlink:href="#DejaVuSans-48" transform="translate(1522.25 0)"/>
     <use xlink:href="#DejaVuSans-5b" transform="translate(1582.03125 0)"/>
     <use xlink:href="#DejaVuSans-57" transform="translate(1641.21875 0)"/>
     <use xlink:href="#DejaVuSans-55" transform="translate(1680.421875 0)"/>
     <use xlink:href="#DejaVuSans-44" transform="translate(1721.53125 0)"/>
     <use xlink:href="#DejaVuSans-3" transform="translate(1782.8125 0)"/>
     <use xlink:href="#DejaVuSans-53" transform="translate(1814.59375 0)"/>
     <use xlink:href="#DejaVuSans-52" transform="translate(1878.078125 0)"/>
     <use xlink:href="#DejaVuSans-4f" transform="translate(1939.265625 0)"/>
     <use xlink:href="#DejaVuSans-48" transform="translate(1967.046875 0)"/>
    </g>
   </g>
   <g id="legend_2">
    <g id="line2d_54">
     <path d="M 588.049299 73.672256 
L 598.049299 73.672256 
L 608.049299 73.672256 
" style="fill: none; stroke-dasharray: 8.14,3.52; stroke-dashoffset: 0; stroke: #666666; stroke-width: 2.2"/>
    </g>
    <g id="text_31">
     <!-- no extra pole -->
     <g transform="translate(616.049299 77.172256) scale(0.1 -0.1)">
      <use xlink:href="#DejaVuSans-51"/>
      <use xlink:href="#DejaVuSans-52" transform="translate(63.375 0)"/>
      <use xlink:href="#DejaVuSans-3" transform="translate(124.5625 0)"/>
      <use xlink:href="#DejaVuSans-48" transform="translate(156.34375 0)"/>
      <use xlink:href="#DejaVuSans-5b" transform="translate(216.125 0)"/>
      <use xlink:href="#DejaVuSans-57" transform="translate(275.3125 0)"/>
      <use xlink:href="#DejaVuSans-55" transform="translate(314.515625 0)"/>
      <use xlink:href="#DejaVuSans-44" transform="translate(355.625 0)"/>
      <use xlink:href="#DejaVuSans-3" transform="translate(416.90625 0)"/>
      <use xlink:href="#DejaVuSans-53" transform="translate(448.6875 0)"/>
      <use xlink:href="#DejaVuSans-52" transform="translate(512.171875 0)"/>
      <use xlink:href="#DejaVuSans-4f" transform="translate(573.359375 0)"/>
      <use xlink:href="#DejaVuSans-48" transform="translate(601.140625 0)"/>
     </g>
    </g>
   </g>
  </g>
  <g id="axes_3">
   <g id="patch_8">
    <path d="M 761.429214 322.326545 
L 1054.594063 322.326545 
L 1054.594063 60.573818 
L 761.429214 60.573818 
z
" style="fill: #ffffff"/>
   </g>
   <g id="matplotlib.axis_5">
    <g id="xtick_10">
     <g id="line2d_55">
      <path d="M 761.429214 322.326545 
L 761.429214 60.573818 
" clip-path="url(#p2193f56921)" style="fill: none; stroke: #b0b0b0; stroke-opacity: 0.25; stroke-width: 0.8; stroke-linecap: square"/>
     </g>
     <g id="line2d_56">
      <g>
       <use xlink:href="#m0a6fab5254" x="761.429214" y="322.326545" style="stroke: #000000; stroke-width: 0.8"/>
      </g>
     </g>
     <g id="text_32">
      <!-- 0 -->
      <g transform="translate(757.293589 339.203499) scale(0.13 -0.13)">
       <use xlink:href="#DejaVuSans-13"/>
      </g>
     </g>
    </g>
    <g id="xtick_11">
     <g id="line2d_57">
      <path d="M 810.290022 322.326545 
L 810.290022 60.573818 
" clip-path="url(#p2193f56921)" style="fill: none; stroke: #b0b0b0; stroke-opacity: 0.25; stroke-width: 0.8; stroke-linecap: square"/>
     </g>
     <g id="line2d_58">
      <g>
       <use xlink:href="#m0a6fab5254" x="810.290022" y="322.326545" style="stroke: #000000; stroke-width: 0.8"/>
      </g>
     </g>
     <g id="text_33">
      <!-- 1 -->
      <g transform="translate(806.154397 339.203499) scale(0.13 -0.13)">
       <use xlink:href="#DejaVuSans-14"/>
      </g>
     </g>
    </g>
    <g id="xtick_12">
     <g id="line2d_59">
      <path d="M 859.15083 322.326545 
L 859.15083 60.573818 
" clip-path="url(#p2193f56921)" style="fill: none; stroke: #b0b0b0; stroke-opacity: 0.25; stroke-width: 0.8; stroke-linecap: square"/>
     </g>
     <g id="line2d_60">
      <g>
       <use xlink:href="#m0a6fab5254" x="859.15083" y="322.326545" style="stroke: #000000; stroke-width: 0.8"/>
      </g>
     </g>
     <g id="text_34">
      <!-- 2 -->
      <g transform="translate(855.015205 339.203499) scale(0.13 -0.13)">
       <use xlink:href="#DejaVuSans-15"/>
      </g>
     </g>
    </g>
    <g id="xtick_13">
     <g id="line2d_61">
      <path d="M 908.011638 322.326545 
L 908.011638 60.573818 
" clip-path="url(#p2193f56921)" style="fill: none; stroke: #b0b0b0; stroke-opacity: 0.25; stroke-width: 0.8; stroke-linecap: square"/>
     </g>
     <g id="line2d_62">
      <g>
       <use xlink:href="#m0a6fab5254" x="908.011638" y="322.326545" style="stroke: #000000; stroke-width: 0.8"/>
      </g>
     </g>
     <g id="text_35">
      <!-- 3 -->
      <g transform="translate(903.876013 339.203499) scale(0.13 -0.13)">
       <use xlink:href="#DejaVuSans-16"/>
      </g>
     </g>
    </g>
    <g id="xtick_14">
     <g id="line2d_63">
      <path d="M 956.872446 322.326545 
L 956.872446 60.573818 
" clip-path="url(#p2193f56921)" style="fill: none; stroke: #b0b0b0; stroke-opacity: 0.25; stroke-width: 0.8; stroke-linecap: square"/>
     </g>
     <g id="line2d_64">
      <g>
       <use xlink:href="#m0a6fab5254" x="956.872446" y="322.326545" style="stroke: #000000; stroke-width: 0.8"/>
      </g>
     </g>
     <g id="text_36">
      <!-- 4 -->
      <g transform="translate(952.736821 339.203499) scale(0.13 -0.13)">
       <use xlink:href="#DejaVuSans-17"/>
      </g>
     </g>
    </g>
    <g id="xtick_15">
     <g id="line2d_65">
      <path d="M 1005.733254 322.326545 
L 1005.733254 60.573818 
" clip-path="url(#p2193f56921)" style="fill: none; stroke: #b0b0b0; stroke-opacity: 0.25; stroke-width: 0.8; stroke-linecap: square"/>
     </g>
     <g id="line2d_66">
      <g>
       <use xlink:href="#m0a6fab5254" x="1005.733254" y="322.326545" style="stroke: #000000; stroke-width: 0.8"/>
      </g>
     </g>
     <g id="text_37">
      <!-- 5 -->
      <g transform="translate(1001.597629 339.203499) scale(0.13 -0.13)">
       <use xlink:href="#DejaVuSans-18"/>
      </g>
     </g>
    </g>
    <g id="xtick_16">
     <g id="line2d_67">
      <path d="M 1054.594063 322.326545 
L 1054.594063 60.573818 
" clip-path="url(#p2193f56921)" style="fill: none; stroke: #b0b0b0; stroke-opacity: 0.25; stroke-width: 0.8; stroke-linecap: square"/>
     </g>
     <g id="line2d_68">
      <g>
       <use xlink:href="#m0a6fab5254" x="1054.594063" y="322.326545" style="stroke: #000000; stroke-width: 0.8"/>
      </g>
     </g>
     <g id="text_38">
      <!-- 6 -->
      <g transform="translate(1050.458438 339.203499) scale(0.13 -0.13)">
       <use xlink:href="#DejaVuSans-19"/>
      </g>
     </g>
    </g>
    <g id="text_39">
     <!-- time [s] -->
     <g transform="translate(882.80281 356.204514) scale(0.13 -0.13)">
      <defs>
       <path id="DejaVuSans-3e" d="M 550 4863 
L 1875 4863 
L 1875 4416 
L 1125 4416 
L 1125 -397 
L 1875 -397 
L 1875 -844 
L 550 -844 
L 550 4863 
z
" transform="scale(0.015625)"/>
       <path id="DejaVuSans-40" d="M 1947 4863 
L 1947 -844 
L 622 -844 
L 622 -397 
L 1369 -397 
L 1369 4416 
L 622 4416 
L 622 4863 
L 1947 4863 
z
" transform="scale(0.015625)"/>
      </defs>
      <use xlink:href="#DejaVuSans-57"/>
      <use xlink:href="#DejaVuSans-4c" transform="translate(39.203125 0)"/>
      <use xlink:href="#DejaVuSans-50" transform="translate(66.984375 0)"/>
      <use xlink:href="#DejaVuSans-48" transform="translate(164.390625 0)"/>
      <use xlink:href="#DejaVuSans-3" transform="translate(225.921875 0)"/>
      <use xlink:href="#DejaVuSans-3e" transform="translate(257.703125 0)"/>
      <use xlink:href="#DejaVuSans-56" transform="translate(296.71875 0)"/>
      <use xlink:href="#DejaVuSans-40" transform="translate(348.8125 0)"/>
     </g>
    </g>
   </g>
   <g id="matplotlib.axis_6">
    <g id="ytick_13">
     <g id="line2d_69">
      <path d="M 761.429214 321.669267 
L 1054.594063 321.669267 
" clip-path="url(#p2193f56921)" style="fill: none; stroke: #b0b0b0; stroke-opacity: 0.25; stroke-width: 0.8; stroke-linecap: square"/>
     </g>
     <g id="line2d_70">
      <g>
       <use xlink:href="#mc8d4ac1c2a" x="761.429214" y="321.669267" style="stroke: #000000; stroke-width: 0.8"/>
      </g>
     </g>
     <g id="text_40">
      <!-- −2.5 -->
      <g transform="translate(722.861558 326.607743) scale(0.13 -0.13)">
       <use xlink:href="#DejaVuSans-c9c"/>
       <use xlink:href="#DejaVuSans-15" transform="translate(83.796875 0)"/>
       <use xlink:href="#DejaVuSans-11" transform="translate(147.421875 0)"/>
       <use xlink:href="#DejaVuSans-18" transform="translate(179.203125 0)"/>
      </g>
     </g>
    </g>
    <g id="ytick_14">
     <g id="line2d_71">
      <path d="M 761.429214 287.54697 
L 1054.594063 287.54697 
" clip-path="url(#p2193f56921)" style="fill: none; stroke: #b0b0b0; stroke-opacity: 0.25; stroke-width: 0.8; stroke-linecap: square"/>
     </g>
     <g id="line2d_72">
      <g>
       <use xlink:href="#mc8d4ac1c2a" x="761.429214" y="287.54697" style="stroke: #000000; stroke-width: 0.8"/>
      </g>
     </g>
     <g id="text_41">
      <!-- 0.0 -->
      <g transform="translate(733.755152 292.485446) scale(0.13 -0.13)">
       <use xlink:href="#DejaVuSans-13"/>
       <use xlink:href="#DejaVuSans-11" transform="translate(63.625 0)"/>
       <use xlink:href="#DejaVuSans-13" transform="translate(95.40625 0)"/>
      </g>
     </g>
    </g>
    <g id="ytick_15">
     <g id="line2d_73">
      <path d="M 761.429214 253.424673 
L 1054.594063 253.424673 
" clip-path="url(#p2193f56921)" style="fill: none; stroke: #b0b0b0; stroke-opacity: 0.25; stroke-width: 0.8; stroke-linecap: square"/>
     </g>
     <g id="line2d_74">
      <g>
       <use xlink:href="#mc8d4ac1c2a" x="761.429214" y="253.424673" style="stroke: #000000; stroke-width: 0.8"/>
      </g>
     </g>
     <g id="text_42">
      <!-- 2.5 -->
      <g transform="translate(733.755152 258.363149) scale(0.13 -0.13)">
       <use xlink:href="#DejaVuSans-15"/>
       <use xlink:href="#DejaVuSans-11" transform="translate(63.625 0)"/>
       <use xlink:href="#DejaVuSans-18" transform="translate(95.40625 0)"/>
      </g>
     </g>
    </g>
    <g id="ytick_16">
     <g id="line2d_75">
      <path d="M 761.429214 219.302376 
L 1054.594063 219.302376 
" clip-path="url(#p2193f56921)" style="fill: none; stroke: #b0b0b0; stroke-opacity: 0.25; stroke-width: 0.8; stroke-linecap: square"/>
     </g>
     <g id="line2d_76">
      <g>
       <use xlink:href="#mc8d4ac1c2a" x="761.429214" y="219.302376" style="stroke: #000000; stroke-width: 0.8"/>
      </g>
     </g>
     <g id="text_43">
      <!-- 5.0 -->
      <g transform="translate(733.755152 224.240853) scale(0.13 -0.13)">
       <use xlink:href="#DejaVuSans-18"/>
       <use xlink:href="#DejaVuSans-11" transform="translate(63.625 0)"/>
       <use xlink:href="#DejaVuSans-13" transform="translate(95.40625 0)"/>
      </g>
     </g>
    </g>
    <g id="ytick_17">
     <g id="line2d_77">
      <path d="M 761.429214 185.180079 
L 1054.594063 185.180079 
" clip-path="url(#p2193f56921)" style="fill: none; stroke: #b0b0b0; stroke-opacity: 0.25; stroke-width: 0.8; stroke-linecap: square"/>
     </g>
     <g id="line2d_78">
      <g>
       <use xlink:href="#mc8d4ac1c2a" x="761.429214" y="185.180079" style="stroke: #000000; stroke-width: 0.8"/>
      </g>
     </g>
     <g id="text_44">
      <!-- 7.5 -->
      <g transform="translate(733.755152 190.118556) scale(0.13 -0.13)">
       <defs>
        <path id="DejaVuSans-1a" d="M 525 4666 
L 3525 4666 
L 3525 4397 
L 1831 0 
L 1172 0 
L 2766 4134 
L 525 4134 
L 525 4666 
z
" transform="scale(0.015625)"/>
       </defs>
       <use xlink:href="#DejaVuSans-1a"/>
       <use xlink:href="#DejaVuSans-11" transform="translate(63.625 0)"/>
       <use xlink:href="#DejaVuSans-18" transform="translate(95.40625 0)"/>
      </g>
     </g>
    </g>
    <g id="ytick_18">
     <g id="line2d_79">
      <path d="M 761.429214 151.057782 
L 1054.594063 151.057782 
" clip-path="url(#p2193f56921)" style="fill: none; stroke: #b0b0b0; stroke-opacity: 0.25; stroke-width: 0.8; stroke-linecap: square"/>
     </g>
     <g id="line2d_80">
      <g>
       <use xlink:href="#mc8d4ac1c2a" x="761.429214" y="151.057782" style="stroke: #000000; stroke-width: 0.8"/>
      </g>
     </g>
     <g id="text_45">
      <!-- 10.0 -->
      <g transform="translate(725.483902 155.996259) scale(0.13 -0.13)">
       <use xlink:href="#DejaVuSans-14"/>
       <use xlink:href="#DejaVuSans-13" transform="translate(63.625 0)"/>
       <use xlink:href="#DejaVuSans-11" transform="translate(127.25 0)"/>
       <use xlink:href="#DejaVuSans-13" transform="translate(159.03125 0)"/>
      </g>
     </g>
    </g>
    <g id="ytick_19">
     <g id="line2d_81">
      <path d="M 761.429214 116.935485 
L 1054.594063 116.935485 
" clip-path="url(#p2193f56921)" style="fill: none; stroke: #b0b0b0; stroke-opacity: 0.25; stroke-width: 0.8; stroke-linecap: square"/>
     </g>
     <g id="line2d_82">
      <g>
       <use xlink:href="#mc8d4ac1c2a" x="761.429214" y="116.935485" style="stroke: #000000; stroke-width: 0.8"/>
      </g>
     </g>
     <g id="text_46">
      <!-- 12.5 -->
      <g transform="translate(725.483902 121.873962) scale(0.13 -0.13)">
       <use xlink:href="#DejaVuSans-14"/>
       <use xlink:href="#DejaVuSans-15" transform="translate(63.625 0)"/>
       <use xlink:href="#DejaVuSans-11" transform="translate(127.25 0)"/>
       <use xlink:href="#DejaVuSans-18" transform="translate(159.03125 0)"/>
      </g>
     </g>
    </g>
    <g id="ytick_20">
     <g id="line2d_83">
      <path d="M 761.429214 82.813188 
L 1054.594063 82.813188 
" clip-path="url(#p2193f56921)" style="fill: none; stroke: #b0b0b0; stroke-opacity: 0.25; stroke-width: 0.8; stroke-linecap: square"/>
     </g>
     <g id="line2d_84">
      <g>
       <use xlink:href="#mc8d4ac1c2a" x="761.429214" y="82.813188" style="stroke: #000000; stroke-width: 0.8"/>
      </g>
     </g>
     <g id="text_47">
      <!-- 15.0 -->
      <g transform="translate(725.483902 87.751665) scale(0.13 -0.13)">
       <use xlink:href="#DejaVuSans-14"/>
       <use xlink:href="#DejaVuSans-18" transform="translate(63.625 0)"/>
       <use xlink:href="#DejaVuSans-11" transform="translate(127.25 0)"/>
       <use xlink:href="#DejaVuSans-13" transform="translate(159.03125 0)"/>
      </g>
     </g>
    </g>
    <g id="text_48">
     <!-- altitude [ft] -->
     <g transform="translate(715.738511 228.247291) rotate(-90) scale(0.13 -0.13)">
      <defs>
       <path id="DejaVuSans-49" d="M 2375 4863 
L 2375 4384 
L 1825 4384 
Q 1516 4384 1395 4259 
Q 1275 4134 1275 3809 
L 1275 3500 
L 2222 3500 
L 2222 3053 
L 1275 3053 
L 1275 0 
L 697 0 
L 697 3053 
L 147 3053 
L 147 3500 
L 697 3500 
L 697 3744 
Q 697 4328 969 4595 
Q 1241 4863 1831 4863 
L 2375 4863 
z
" transform="scale(0.015625)"/>
      </defs>
      <use xlink:href="#DejaVuSans-44"/>
      <use xlink:href="#DejaVuSans-4f" transform="translate(61.28125 0)"/>
      <use xlink:href="#DejaVuSans-57" transform="translate(89.0625 0)"/>
      <use xlink:href="#DejaVuSans-4c" transform="translate(128.265625 0)"/>
      <use xlink:href="#DejaVuSans-57" transform="translate(156.046875 0)"/>
      <use xlink:href="#DejaVuSans-58" transform="translate(195.25 0)"/>
      <use xlink:href="#DejaVuSans-47" transform="translate(258.625 0)"/>
      <use xlink:href="#DejaVuSans-48" transform="translate(322.109375 0)"/>
      <use xlink:href="#DejaVuSans-3" transform="translate(383.640625 0)"/>
      <use xlink:href="#DejaVuSans-3e" transform="translate(415.421875 0)"/>
      <use xlink:href="#DejaVuSans-49" transform="translate(454.4375 0)"/>
      <use xlink:href="#DejaVuSans-57" transform="translate(487.890625 0)"/>
      <use xlink:href="#DejaVuSans-40" transform="translate(527.09375 0)"/>
     </g>
    </g>
   </g>
   <g id="line2d_85">
    <path d="M 761.429214 287.54697 
L 762.479748 295.422701 
L 763.444773 301.084335 
L 764.324289 305.007723 
L 765.106082 307.560196 
L 765.802366 309.13173 
L 766.400926 309.98007 
L 766.913977 310.353837 
L 767.365951 310.423679 
L 767.805709 310.267077 
L 768.294329 309.843119 
L 768.868458 309.022991 
L 769.540311 307.643817 
L 770.334319 305.46663 
L 771.262697 302.226024 
L 772.349878 297.567938 
L 773.62029 291.082977 
L 775.110582 282.257086 
L 776.906262 270.215538 
L 779.178346 253.375596 
L 782.598688 226.153248 
L 788.54764 178.817135 
L 791.406069 157.963753 
L 793.861386 141.636486 
L 796.072393 128.380533 
L 798.124598 117.391172 
L 800.042433 108.298757 
L 801.850328 100.772515 
L 803.560499 94.572884 
L 805.185162 89.488785 
L 806.736531 85.339321 
L 808.214607 81.998003 
L 809.631606 79.326785 
L 810.987528 77.230795 
L 812.282371 75.623688 
L 813.540569 74.407338 
L 814.762119 73.529693 
L 815.959239 72.938435 
L 817.156359 72.592721 
L 818.37791 72.471939 
L 819.648322 72.572077 
L 821.004244 72.906622 
L 822.48232 73.507043 
L 824.131414 74.425649 
L 826.012602 75.737119 
L 828.260255 77.587182 
L 831.179761 80.297712 
L 843.163174 91.74806 
L 846.107111 94.076076 
L 848.843385 95.961316 
L 851.469719 97.504055 
L 854.047191 98.762525 
L 856.624663 99.775074 
L 859.250997 100.56823 
L 861.975055 101.157669 
L 864.857915 101.551693 
L 867.985085 101.750805 
L 871.490936 101.745336 
L 875.631993 101.507868 
L 881.141187 100.952754 
L 900.026361 98.880934 
L 906.928123 98.451039 
L 914.306289 98.219413 
L 923.248041 98.172449 
L 938.199822 98.355476 
L 961.15276 98.590626 
L 987.916937 98.590068 
L 1054.601392 98.561497 
L 1054.601392 98.561497 
" clip-path="url(#p2193f56921)" style="fill: none; stroke: #0072b2; stroke-width: 2.4; stroke-linecap: square"/>
   </g>
   <g id="line2d_86">
    <path d="M 761.429214 98.561941 
L 1054.594063 98.561941 
" clip-path="url(#p2193f56921)" style="fill: none; stroke-dasharray: 8.14,3.52; stroke-dashoffset: 0; stroke: #d55e00; stroke-width: 2.2"/>
   </g>
   <g id="line2d_87">
    <path d="M 761.429214 287.54697 
L 1054.594063 287.54697 
" clip-path="url(#p2193f56921)" style="fill: none; stroke: #000000; stroke-width: 0.8; stroke-linecap: square"/>
   </g>
   <g id="patch_9">
    <path d="M 761.429214 322.326545 
L 761.429214 60.573818 
" style="fill: none; stroke: #000000; stroke-width: 0.8; stroke-linejoin: miter; stroke-linecap: square"/>
   </g>
   <g id="patch_10">
    <path d="M 761.429214 322.326545 
L 1054.594063 322.326545 
" style="fill: none; stroke: #000000; stroke-width: 0.8; stroke-linejoin: miter; stroke-linecap: square"/>
   </g>
   <g id="patch_11">
    <path d="M 781.270031 311.153919 
Q 775.269013 310.843096 770.384533 310.590104 
" style="fill: none; stroke: #666666; stroke-linecap: round"/>
    <path d="M 774.470287 312.904541 
L 770.384533 310.590104 
L 774.687535 308.710163 
" style="fill: none; stroke: #666666; stroke-linecap: round"/>
   </g>
   <g id="text_49">
    <!-- undershoot -1.68 -->
    <g style="fill: #666666" transform="translate(785.268227 316.428694) scale(0.105 -0.105)">
     <defs>
      <path id="DejaVuSans-10" d="M 313 2009 
L 1997 2009 
L 1997 1497 
L 313 1497 
L 313 2009 
z
" transform="scale(0.015625)"/>
     </defs>
     <use xlink:href="#DejaVuSans-58"/>
     <use xlink:href="#DejaVuSans-51" transform="translate(63.375 0)"/>
     <use xlink:href="#DejaVuSans-47" transform="translate(126.75 0)"/>
     <use xlink:href="#DejaVuSans-48" transform="translate(190.234375 0)"/>
     <use xlink:href="#DejaVuSans-55" transform="translate(251.765625 0)"/>
     <use xlink:href="#DejaVuSans-56" transform="translate(292.875 0)"/>
     <use xlink:href="#DejaVuSans-4b" transform="translate(344.96875 0)"/>
     <use xlink:href="#DejaVuSans-52" transform="translate(408.34375 0)"/>
     <use xlink:href="#DejaVuSans-52" transform="translate(469.53125 0)"/>
     <use xlink:href="#DejaVuSans-57" transform="translate(530.71875 0)"/>
     <use xlink:href="#DejaVuSans-3" transform="translate(569.921875 0)"/>
     <use xlink:href="#DejaVuSans-10" transform="translate(601.703125 0)"/>
     <use xlink:href="#DejaVuSans-14" transform="translate(637.78125 0)"/>
     <use xlink:href="#DejaVuSans-11" transform="translate(701.40625 0)"/>
     <use xlink:href="#DejaVuSans-19" transform="translate(733.1875 0)"/>
     <use xlink:href="#DejaVuSans-1b" transform="translate(796.8125 0)"/>
    </g>
   </g>
   <g id="text_50">
    <!-- Fig. 3.35: pull back, go down, then climb -->
    <g transform="translate(755.82492 54.573818) scale(0.15 -0.15)">
     <defs>
      <path id="DejaVuSans-45" d="M 3116 1747 
Q 3116 2381 2855 2742 
Q 2594 3103 2138 3103 
Q 1681 3103 1420 2742 
Q 1159 2381 1159 1747 
Q 1159 1113 1420 752 
Q 1681 391 2138 391 
Q 2594 391 2855 752 
Q 3116 1113 3116 1747 
z
M 1159 2969 
Q 1341 3281 1617 3432 
Q 1894 3584 2278 3584 
Q 2916 3584 3314 3078 
Q 3713 2572 3713 1747 
Q 3713 922 3314 415 
Q 2916 -91 2278 -91 
Q 1894 -91 1617 61 
Q 1341 213 1159 525 
L 1159 0 
L 581 0 
L 581 4863 
L 1159 4863 
L 1159 2969 
z
" transform="scale(0.015625)"/>
      <path id="DejaVuSans-46" d="M 3122 3366 
L 3122 2828 
Q 2878 2963 2633 3030 
Q 2388 3097 2138 3097 
Q 1578 3097 1268 2742 
Q 959 2388 959 1747 
Q 959 1106 1268 751 
Q 1578 397 2138 397 
Q 2388 397 2633 464 
Q 2878 531 3122 666 
L 3122 134 
Q 2881 22 2623 -34 
Q 2366 -91 2075 -91 
Q 1284 -91 818 406 
Q 353 903 353 1747 
Q 353 2603 823 3093 
Q 1294 3584 2113 3584 
Q 2378 3584 2631 3529 
Q 2884 3475 3122 3366 
z
" transform="scale(0.015625)"/>
      <path id="DejaVuSans-4e" d="M 581 4863 
L 1159 4863 
L 1159 1991 
L 2875 3500 
L 3609 3500 
L 1753 1863 
L 3688 0 
L 2938 0 
L 1159 1709 
L 1159 0 
L 581 0 
L 581 4863 
z
" transform="scale(0.015625)"/>
      <path id="DejaVuSans-5a" d="M 269 3500 
L 844 3500 
L 1563 769 
L 2278 3500 
L 2956 3500 
L 3675 769 
L 4391 3500 
L 4966 3500 
L 4050 0 
L 3372 0 
L 2619 2869 
L 1863 0 
L 1184 0 
L 269 3500 
z
" transform="scale(0.015625)"/>
     </defs>
     <use xlink:href="#DejaVuSans-29"/>
     <use xlink:href="#DejaVuSans-4c" transform="translate(50.234375 0)"/>
     <use xlink:href="#DejaVuSans-4a" transform="translate(78.015625 0)"/>
     <use xlink:href="#DejaVuSans-11" transform="translate(141.5 0)"/>
     <use xlink:href="#DejaVuSans-3" transform="translate(173.28125 0)"/>
     <use xlink:href="#DejaVuSans-16" transform="translate(205.0625 0)"/>
     <use xlink:href="#DejaVuSans-11" transform="translate(268.6875 0)"/>
     <use xlink:href="#DejaVuSans-16" transform="translate(300.46875 0)"/>
     <use xlink:href="#DejaVuSans-18" transform="translate(364.09375 0)"/>
     <use xlink:href="#DejaVuSans-1d" transform="translate(427.71875 0)"/>
     <use xlink:href="#DejaVuSans-3" transform="translate(461.40625 0)"/>
     <use xlink:href="#DejaVuSans-53" transform="translate(493.1875 0)"/>
     <use xlink:href="#DejaVuSans-58" transform="translate(556.671875 0)"/>
     <use xlink:href="#DejaVuSans-4f" transform="translate(620.046875 0)"/>
     <use xlink:href="#DejaVuSans-4f" transform="translate(647.828125 0)"/>
     <use xlink:href="#DejaVuSans-3" transform="translate(675.609375 0)"/>
     <use xlink:href="#DejaVuSans-45" transform="translate(707.390625 0)"/>
     <use xlink:href="#DejaVuSans-44" transform="translate(770.875 0)"/>
     <use xlink:href="#DejaVuSans-46" transform="translate(832.15625 0)"/>
     <use xlink:href="#DejaVuSans-4e" transform="translate(887.140625 0)"/>
     <use xlink:href="#DejaVuSans-f" transform="translate(945.046875 0)"/>
     <use xlink:href="#DejaVuSans-3" transform="translate(976.828125 0)"/>
     <use xlink:href="#DejaVuSans-4a" transform="translate(1008.609375 0)"/>
     <use xlink:href="#DejaVuSans-52" transform="translate(1072.09375 0)"/>
     <use xlink:href="#DejaVuSans-3" transform="translate(1133.28125 0)"/>
     <use xlink:href="#DejaVuSans-47" transform="translate(1165.0625 0)"/>
     <use xlink:href="#DejaVuSans-52" transform="translate(1228.546875 0)"/>
     <use xlink:href="#DejaVuSans-5a" transform="translate(1289.734375 0)"/>
     <use xlink:href="#DejaVuSans-51" transform="translate(1371.515625 0)"/>
     <use xlink:href="#DejaVuSans-f" transform="translate(1434.890625 0)"/>
     <use xlink:href="#DejaVuSans-3" transform="translate(1466.671875 0)"/>
     <use xlink:href="#DejaVuSans-57" transform="translate(1498.453125 0)"/>
     <use xlink:href="#DejaVuSans-4b" transform="translate(1537.65625 0)"/>
     <use xlink:href="#DejaVuSans-48" transform="translate(1601.03125 0)"/>
     <use xlink:href="#DejaVuSans-51" transform="translate(1662.5625 0)"/>
     <use xlink:href="#DejaVuSans-3" transform="translate(1725.9375 0)"/>
     <use xlink:href="#DejaVuSans-46" transform="translate(1757.71875 0)"/>
     <use xlink:href="#DejaVuSans-4f" transform="translate(1812.703125 0)"/>
     <use xlink:href="#DejaVuSans-4c" transform="translate(1840.484375 0)"/>
     <use xlink:href="#DejaVuSans-50" transform="translate(1868.265625 0)"/>
     <use xlink:href="#DejaVuSans-45" transform="translate(1965.671875 0)"/>
    </g>
   </g>
   <g id="legend_3">
    <g id="line2d_88">
     <path d="M 910.433125 307.424202 
L 920.433125 307.424202 
L 930.433125 307.424202 
" style="fill: none; stroke-dasharray: 8.14,3.52; stroke-dashoffset: 0; stroke: #d55e00; stroke-width: 2.2"/>
    </g>
    <g id="text_51">
     <!-- final value 13.8 (FVT) -->
     <g transform="translate(938.433125 310.924202) scale(0.1 -0.1)">
      <defs>
       <path id="DejaVuSans-13af" d="M 3431 3500 
L 3431 0 
L 2853 0 
L 2853 3053 
L 1275 3053 
L 1275 0 
L 697 0 
L 697 3053 
L 147 3053 
L 147 3500 
L 697 3500 
L 697 3744 
Q 697 4316 967 4589 
Q 1238 4863 1797 4863 
L 2375 4863 
L 2375 4384 
L 1825 4384 
Q 1516 4384 1395 4259 
Q 1275 4134 1275 3809 
L 1275 3500 
L 3431 3500 
z
M 2853 4856 
L 3431 4856 
L 3431 4128 
L 2853 4128 
L 2853 4856 
z
" transform="scale(0.015625)"/>
       <path id="DejaVuSans-39" d="M 1831 0 
L 50 4666 
L 709 4666 
L 2188 738 
L 3669 4666 
L 4325 4666 
L 2547 0 
L 1831 0 
z
" transform="scale(0.015625)"/>
       <path id="DejaVuSans-37" d="M -19 4666 
L 3928 4666 
L 3928 4134 
L 2272 4134 
L 2272 0 
L 1638 0 
L 1638 4134 
L -19 4134 
L -19 4666 
z
" transform="scale(0.015625)"/>
      </defs>
      <use xlink:href="#DejaVuSans-13af"/>
      <use xlink:href="#DejaVuSans-51" transform="translate(62.984375 0)"/>
      <use xlink:href="#DejaVuSans-44" transform="translate(126.359375 0)"/>
      <use xlink:href="#DejaVuSans-4f" transform="translate(187.640625 0)"/>
      <use xlink:href="#DejaVuSans-3" transform="translate(215.421875 0)"/>
      <use xlink:href="#DejaVuSans-59" transform="translate(247.203125 0)"/>
      <use xlink:href="#DejaVuSans-44" transform="translate(306.390625 0)"/>
      <use xlink:href="#DejaVuSans-4f" transform="translate(367.671875 0)"/>
      <use xlink:href="#DejaVuSans-58" transform="translate(395.453125 0)"/>
      <use xlink:href="#DejaVuSans-48" transform="translate(458.828125 0)"/>
      <use xlink:href="#DejaVuSans-3" transform="translate(520.359375 0)"/>
      <use xlink:href="#DejaVuSans-14" transform="translate(552.140625 0)"/>
      <use xlink:href="#DejaVuSans-16" transform="translate(615.765625 0)"/>
      <use xlink:href="#DejaVuSans-11" transform="translate(679.390625 0)"/>
      <use xlink:href="#DejaVuSans-1b" transform="translate(711.171875 0)"/>
      <use xlink:href="#DejaVuSans-3" transform="translate(774.796875 0)"/>
      <use xlink:href="#DejaVuSans-b" transform="translate(806.578125 0)"/>
      <use xlink:href="#DejaVuSans-29" transform="translate(845.59375 0)"/>
      <use xlink:href="#DejaVuSans-39" transform="translate(903.109375 0)"/>
      <use xlink:href="#DejaVuSans-37" transform="translate(971.515625 0)"/>
      <use xlink:href="#DejaVuSans-c" transform="translate(1032.59375 0)"/>
     </g>
    </g>
   </g>
  </g>
  <g id="text_52">
   <!-- Beyond the pure second order: an extra pole and a RHP zero -->
   <g transform="translate(304.786655 18.597656) scale(0.15 -0.15)">
    <defs>
     <path id="DejaVuSans-25" d="M 1259 2228 
L 1259 519 
L 2272 519 
Q 2781 519 3026 730 
Q 3272 941 3272 1375 
Q 3272 1813 3026 2020 
Q 2781 2228 2272 2228 
L 1259 2228 
z
M 1259 4147 
L 1259 2741 
L 2194 2741 
Q 2656 2741 2882 2914 
Q 3109 3088 3109 3444 
Q 3109 3797 2882 3972 
Q 2656 4147 2194 4147 
L 1259 4147 
z
M 628 4666 
L 2241 4666 
Q 2963 4666 3353 4366 
Q 3744 4066 3744 3513 
Q 3744 3084 3544 2831 
Q 3344 2578 2956 2516 
Q 3422 2416 3680 2098 
Q 3938 1781 3938 1306 
Q 3938 681 3513 340 
Q 3088 0 2303 0 
L 628 0 
L 628 4666 
z
" transform="scale(0.015625)"/>
     <path id="DejaVuSans-5c" d="M 2059 -325 
Q 1816 -950 1584 -1140 
Q 1353 -1331 966 -1331 
L 506 -1331 
L 506 -850 
L 844 -850 
Q 1081 -850 1212 -737 
Q 1344 -625 1503 -206 
L 1606 56 
L 191 3500 
L 800 3500 
L 1894 763 
L 2988 3500 
L 3597 3500 
L 2059 -325 
z
" transform="scale(0.015625)"/>
     <path id="DejaVuSans-35" d="M 2841 2188 
Q 3044 2119 3236 1894 
Q 3428 1669 3622 1275 
L 4263 0 
L 3584 0 
L 2988 1197 
Q 2756 1666 2539 1819 
Q 2322 1972 1947 1972 
L 1259 1972 
L 1259 0 
L 628 0 
L 628 4666 
L 2053 4666 
Q 2853 4666 3247 4331 
Q 3641 3997 3641 3322 
Q 3641 2881 3436 2590 
Q 3231 2300 2841 2188 
z
M 1259 4147 
L 1259 2491 
L 2053 2491 
Q 2509 2491 2742 2702 
Q 2975 2913 2975 3322 
Q 2975 3731 2742 3939 
Q 2509 4147 2053 4147 
L 1259 4147 
z
" transform="scale(0.015625)"/>
     <path id="DejaVuSans-2b" d="M 628 4666 
L 1259 4666 
L 1259 2753 
L 3553 2753 
L 3553 4666 
L 4184 4666 
L 4184 0 
L 3553 0 
L 3553 2222 
L 1259 2222 
L 1259 0 
L 628 0 
L 628 4666 
z
" transform="scale(0.015625)"/>
     <path id="DejaVuSans-33" d="M 1259 4147 
L 1259 2394 
L 2053 2394 
Q 2494 2394 2734 2622 
Q 2975 2850 2975 3272 
Q 2975 3691 2734 3919 
Q 2494 4147 2053 4147 
L 1259 4147 
z
M 628 4666 
L 2053 4666 
Q 2838 4666 3239 4311 
Q 3641 3956 3641 3272 
Q 3641 2581 3239 2228 
Q 2838 1875 2053 1875 
L 1259 1875 
L 1259 0 
L 628 0 
L 628 4666 
z
" transform="scale(0.015625)"/>
     <path id="DejaVuSans-5d" d="M 353 3500 
L 3084 3500 
L 3084 2975 
L 922 459 
L 3084 459 
L 3084 0 
L 275 0 
L 275 525 
L 2438 3041 
L 353 3041 
L 353 3500 
z
" transform="scale(0.015625)"/>
    </defs>
    <use xlink:href="#DejaVuSans-25"/>
    <use xlink:href="#DejaVuSans-48" transform="translate(68.609375 0)"/>
    <use xlink:href="#DejaVuSans-5c" transform="translate(130.140625 0)"/>
    <use xlink:href="#DejaVuSans-52" transform="translate(189.328125 0)"/>
    <use xlink:href="#DejaVuSans-51" transform="translate(250.515625 0)"/>
    <use xlink:href="#DejaVuSans-47" transform="translate(313.890625 0)"/>
    <use xlink:href="#DejaVuSans-3" transform="translate(377.375 0)"/>
    <use xlink:href="#DejaVuSans-57" transform="translate(409.15625 0)"/>
    <use xlink:href="#DejaVuSans-4b" transform="translate(448.359375 0)"/>
    <use xlink:href="#DejaVuSans-48" transform="translate(511.734375 0)"/>
    <use xlink:href="#DejaVuSans-3" transform="translate(573.265625 0)"/>
    <use xlink:href="#DejaVuSans-53" transform="translate(605.046875 0)"/>
    <use xlink:href="#DejaVuSans-58" transform="translate(668.53125 0)"/>
    <use xlink:href="#DejaVuSans-55" transform="translate(731.90625 0)"/>
    <use xlink:href="#DejaVuSans-48" transform="translate(770.8125 0)"/>
    <use xlink:href="#DejaVuSans-3" transform="translate(832.34375 0)"/>
    <use xlink:href="#DejaVuSans-56" transform="translate(864.125 0)"/>
    <use xlink:href="#DejaVuSans-48" transform="translate(916.21875 0)"/>
    <use xlink:href="#DejaVuSans-46" transform="translate(977.75 0)"/>
    <use xlink:href="#DejaVuSans-52" transform="translate(1032.734375 0)"/>
    <use xlink:href="#DejaVuSans-51" transform="translate(1093.921875 0)"/>
    <use xlink:href="#DejaVuSans-47" transform="translate(1157.296875 0)"/>
    <use xlink:href="#DejaVuSans-3" transform="translate(1220.78125 0)"/>
    <use xlink:href="#DejaVuSans-52" transform="translate(1252.5625 0)"/>
    <use xlink:href="#DejaVuSans-55" transform="translate(1313.75 0)"/>
    <use xlink:href="#DejaVuSans-47" transform="translate(1353.109375 0)"/>
    <use xlink:href="#DejaVuSans-48" transform="translate(1416.59375 0)"/>
    <use xlink:href="#DejaVuSans-55" transform="translate(1478.125 0)"/>
    <use xlink:href="#DejaVuSans-1d" transform="translate(1517.484375 0)"/>
    <use xlink:href="#DejaVuSans-3" transform="translate(1551.171875 0)"/>
    <use xlink:href="#DejaVuSans-44" transform="translate(1582.953125 0)"/>
    <use xlink:href="#DejaVuSans-51" transform="translate(1644.234375 0)"/>
    <use xlink:href="#DejaVuSans-3" transform="translate(1707.609375 0)"/>
    <use xlink:href="#DejaVuSans-48" transform="translate(1739.390625 0)"/>
    <use xlink:href="#DejaVuSans-5b" transform="translate(1799.171875 0)"/>
    <use xlink:href="#DejaVuSans-57" transform="translate(1858.359375 0)"/>
    <use xlink:href="#DejaVuSans-55" transform="translate(1897.5625 0)"/>
    <use xlink:href="#DejaVuSans-44" transform="translate(1938.671875 0)"/>
    <use xlink:href="#DejaVuSans-3" transform="translate(1999.953125 0)"/>
    <use xlink:href="#DejaVuSans-53" transform="translate(2031.734375 0)"/>
    <use xlink:href="#DejaVuSans-52" transform="translate(2095.21875 0)"/>
    <use xlink:href="#DejaVuSans-4f" transform="translate(2156.40625 0)"/>
    <use xlink:href="#DejaVuSans-48" transform="translate(2184.1875 0)"/>
    <use xlink:href="#DejaVuSans-3" transform="translate(2245.71875 0)"/>
    <use xlink:href="#DejaVuSans-44" transform="translate(2277.5 0)"/>
    <use xlink:href="#DejaVuSans-51" transform="translate(2338.78125 0)"/>
    <use xlink:href="#DejaVuSans-47" transform="translate(2402.15625 0)"/>
    <use xlink:href="#DejaVuSans-3" transform="translate(2465.640625 0)"/>
    <use xlink:href="#DejaVuSans-44" transform="translate(2497.421875 0)"/>
    <use xlink:href="#DejaVuSans-3" transform="translate(2558.703125 0)"/>
    <use xlink:href="#DejaVuSans-35" transform="translate(2590.484375 0)"/>
    <use xlink:href="#DejaVuSans-2b" transform="translate(2659.96875 0)"/>
    <use xlink:href="#DejaVuSans-33" transform="translate(2735.171875 0)"/>
    <use xlink:href="#DejaVuSans-3" transform="translate(2795.46875 0)"/>
    <use xlink:href="#DejaVuSans-5d" transform="translate(2827.25 0)"/>
    <use xlink:href="#DejaVuSans-48" transform="translate(2879.734375 0)"/>
    <use xlink:href="#DejaVuSans-55" transform="translate(2941.265625 0)"/>
    <use xlink:href="#DejaVuSans-52" transform="translate(2980.171875 0)"/>
   </g>
  </g>
 </g>
 <defs>
  <clipPath id="p9c01061575">
   <rect x="34.874063" y="60.573818" width="293.164848" height="261.752727"/>
  </clipPath>
  <clipPath id="pde80cb7b9c">
   <rect x="398.151638" y="60.573818" width="293.164848" height="261.752727"/>
  </clipPath>
  <clipPath id="p2193f56921">
   <rect x="761.429214" y="60.573818" width="293.164848" height="261.752727"/>
  </clipPath>
 </defs>
</svg>
