<?xml version="1.0" encoding="utf-8" standalone="no"?>
<!DOCTYPE svg PUBLIC "-//W3C//DTD SVG 1.1//EN"
  "http://www.w3.org/Graphics/SVG/1.1/DTD/svg11.dtd">
<svg xmlns:xlink="http://www.w3.org/1999/xlink" width="964.5062pt" height="394.903273pt" viewBox="0 0 964.5062 394.903273" xmlns="http://www.w3.org/2000/svg" version="1.1">
 <metadata>
  <rdf:RDF xmlns:dc="http://purl.org/dc/elements/1.1/" xmlns:cc="http://creativecommons.org/ns#" xmlns:rdf="http://www.w3.org/1999/02/22-rdf-syntax-ns#">
   <cc:Work>
    <dc:type rdf:resource="http://purl.org/dc/dcmitype/StillImage"/>
    <dc:date>2026-09-25T21:33:52.251813</dc:date>
    <dc:format>image/svg+xml</dc:format>
    <dc:creator>
     <cc:Agent>
      <dc:title>Matplotlib v3.11.1, https://matplotlib.org/</dc:title>
     </cc:Agent>
    </dc:creator>
   </cc:Work>
  </rdf:RDF>
 </metadata>
 <defs>
  <style type="text/css">*{stroke-linejoin: round; stroke-linecap: butt}</style>
 </defs>
 <g id="figure_1">
  <g id="patch_1">
   <path d="M 0 394.903273 
L 964.5062 394.903273 
L 964.5062 0 
L 0 0 
z
" style="fill: #ffffff"/>
  </g>
  <g id="axes_1">
   <g id="patch_2">
    <path d="M 51.877109 350.700226 
L 475.455586 350.700226 
L 475.455586 59.997818 
L 51.877109 59.997818 
z
" style="fill: #ffffff"/>
   </g>
   <g id="matplotlib.axis_1">
    <g id="xtick_1">
     <g id="line2d_1">
      <path d="M 71.130676 350.700226 
L 71.130676 59.997818 
" clip-path="url(#pf21609a99f)" style="fill: none; stroke: #b0b0b0; stroke-opacity: 0.25; stroke-width: 0.8; stroke-linecap: square"/>
     </g>
     <g id="line2d_2">
      <defs>
       <path id="m92cbe0a989" d="M 0 0 
L 0 3.5 
" style="stroke: #000000; stroke-width: 0.8"/>
      </defs>
      <g>
       <use xlink:href="#m92cbe0a989" x="71.130676" y="350.700226" style="stroke: #000000; stroke-width: 0.8"/>
      </g>
     </g>
     <g id="text_1">
      <!-- 0 -->
      <g transform="translate(66.995051 367.577179) scale(0.13 -0.13)">
       <defs>
        <path id="DejaVuSans-13" d="M 2034 4250 
Q 1547 4250 1301 3770 
Q 1056 3291 1056 2328 
Q 1056 1369 1301 889 
Q 1547 409 2034 409 
Q 2525 409 2770 889 
Q 3016 1369 3016 2328 
Q 3016 3291 2770 3770 
Q 2525 4250 2034 4250 
z
M 2034 4750 
Q 2819 4750 3233 4129 
Q 3647 3509 3647 2328 
Q 3647 1150 3233 529 
Q 2819 -91 2034 -91 
Q 1250 -91 836 529 
Q 422 1150 422 2328 
Q 422 3509 836 4129 
Q 1250 4750 2034 4750 
z
" transform="scale(0.015625)"/>
       </defs>
       <use xlink:href="#DejaVuSans-13"/>
      </g>
     </g>
    </g>
    <g id="xtick_2">
     <g id="line2d_3">
      <path d="M 148.144945 350.700226 
L 148.144945 59.997818 
" clip-path="url(#pf21609a99f)" style="fill: none; stroke: #b0b0b0; stroke-opacity: 0.25; stroke-width: 0.8; stroke-linecap: square"/>
     </g>
     <g id="line2d_4">
      <g>
       <use xlink:href="#m92cbe0a989" x="148.144945" y="350.700226" style="stroke: #000000; stroke-width: 0.8"/>
      </g>
     </g>
     <g id="text_2">
      <!-- 2 -->
      <g transform="translate(144.00932 367.577179) scale(0.13 -0.13)">
       <defs>
        <path id="DejaVuSans-15" d="M 1228 531 
L 3431 531 
L 3431 0 
L 469 0 
L 469 531 
Q 828 903 1448 1529 
Q 2069 2156 2228 2338 
Q 2531 2678 2651 2914 
Q 2772 3150 2772 3378 
Q 2772 3750 2511 3984 
Q 2250 4219 1831 4219 
Q 1534 4219 1204 4116 
Q 875 4013 500 3803 
L 500 4441 
Q 881 4594 1212 4672 
Q 1544 4750 1819 4750 
Q 2544 4750 2975 4387 
Q 3406 4025 3406 3419 
Q 3406 3131 3298 2873 
Q 3191 2616 2906 2266 
Q 2828 2175 2409 1742 
Q 1991 1309 1228 531 
z
" transform="scale(0.015625)"/>
       </defs>
       <use xlink:href="#DejaVuSans-15"/>
      </g>
     </g>
    </g>
    <g id="xtick_3">
     <g id="line2d_5">
      <path d="M 225.159213 350.700226 
L 225.159213 59.997818 
" clip-path="url(#pf21609a99f)" style="fill: none; stroke: #b0b0b0; stroke-opacity: 0.25; stroke-width: 0.8; stroke-linecap: square"/>
     </g>
     <g id="line2d_6">
      <g>
       <use xlink:href="#m92cbe0a989" x="225.159213" y="350.700226" style="stroke: #000000; stroke-width: 0.8"/>
      </g>
     </g>
     <g id="text_3">
      <!-- 4 -->
      <g transform="translate(221.023588 367.577179) scale(0.13 -0.13)">
       <defs>
        <path id="DejaVuSans-17" d="M 2419 4116 
L 825 1625 
L 2419 1625 
L 2419 4116 
z
M 2253 4666 
L 3047 4666 
L 3047 1625 
L 3713 1625 
L 3713 1100 
L 3047 1100 
L 3047 0 
L 2419 0 
L 2419 1100 
L 313 1100 
L 313 1709 
L 2253 4666 
z
" transform="scale(0.015625)"/>
       </defs>
       <use xlink:href="#DejaVuSans-17"/>
      </g>
     </g>
    </g>
    <g id="xtick_4">
     <g id="line2d_7">
      <path d="M 302.173482 350.700226 
L 302.173482 59.997818 
" clip-path="url(#pf21609a99f)" style="fill: none; stroke: #b0b0b0; stroke-opacity: 0.25; stroke-width: 0.8; stroke-linecap: square"/>
     </g>
     <g id="line2d_8">
      <g>
       <use xlink:href="#m92cbe0a989" x="302.173482" y="350.700226" style="stroke: #000000; stroke-width: 0.8"/>
      </g>
     </g>
     <g id="text_4">
      <!-- 6 -->
      <g transform="translate(298.037857 367.577179) scale(0.13 -0.13)">
       <defs>
        <path id="DejaVuSans-19" d="M 2113 2584 
Q 1688 2584 1439 2293 
Q 1191 2003 1191 1497 
Q 1191 994 1439 701 
Q 1688 409 2113 409 
Q 2538 409 2786 701 
Q 3034 994 3034 1497 
Q 3034 2003 2786 2293 
Q 2538 2584 2113 2584 
z
M 3366 4563 
L 3366 3988 
Q 3128 4100 2886 4159 
Q 2644 4219 2406 4219 
Q 1781 4219 1451 3797 
Q 1122 3375 1075 2522 
Q 1259 2794 1537 2939 
Q 1816 3084 2150 3084 
Q 2853 3084 3261 2657 
Q 3669 2231 3669 1497 
Q 3669 778 3244 343 
Q 2819 -91 2113 -91 
Q 1303 -91 875 529 
Q 447 1150 447 2328 
Q 447 3434 972 4092 
Q 1497 4750 2381 4750 
Q 2619 4750 2861 4703 
Q 3103 4656 3366 4563 
z
" transform="scale(0.015625)"/>
       </defs>
       <use xlink:href="#DejaVuSans-19"/>
      </g>
     </g>
    </g>
    <g id="xtick_5">
     <g id="line2d_9">
      <path d="M 379.18775 350.700226 
L 379.18775 59.997818 
" clip-path="url(#pf21609a99f)" style="fill: none; stroke: #b0b0b0; stroke-opacity: 0.25; stroke-width: 0.8; stroke-linecap: square"/>
     </g>
     <g id="line2d_10">
      <g>
       <use xlink:href="#m92cbe0a989" x="379.18775" y="350.700226" style="stroke: #000000; stroke-width: 0.8"/>
      </g>
     </g>
     <g id="text_5">
      <!-- 8 -->
      <g transform="translate(375.052125 367.577179) scale(0.13 -0.13)">
       <defs>
        <path id="DejaVuSans-1b" d="M 2034 2216 
Q 1584 2216 1326 1975 
Q 1069 1734 1069 1313 
Q 1069 891 1326 650 
Q 1584 409 2034 409 
Q 2484 409 2743 651 
Q 3003 894 3003 1313 
Q 3003 1734 2745 1975 
Q 2488 2216 2034 2216 
z
M 1403 2484 
Q 997 2584 770 2862 
Q 544 3141 544 3541 
Q 544 4100 942 4425 
Q 1341 4750 2034 4750 
Q 2731 4750 3128 4425 
Q 3525 4100 3525 3541 
Q 3525 3141 3298 2862 
Q 3072 2584 2669 2484 
Q 3125 2378 3379 2068 
Q 3634 1759 3634 1313 
Q 3634 634 3220 271 
Q 2806 -91 2034 -91 
Q 1263 -91 848 271 
Q 434 634 434 1313 
Q 434 1759 690 2068 
Q 947 2378 1403 2484 
z
M 1172 3481 
Q 1172 3119 1398 2916 
Q 1625 2713 2034 2713 
Q 2441 2713 2670 2916 
Q 2900 3119 2900 3481 
Q 2900 3844 2670 4047 
Q 2441 4250 2034 4250 
Q 1625 4250 1398 4047 
Q 1172 3844 1172 3481 
z
" transform="scale(0.015625)"/>
       </defs>
       <use xlink:href="#DejaVuSans-1b"/>
      </g>
     </g>
    </g>
    <g id="xtick_6">
     <g id="line2d_11">
      <path d="M 456.202019 350.700226 
L 456.202019 59.997818 
" clip-path="url(#pf21609a99f)" style="fill: none; stroke: #b0b0b0; stroke-opacity: 0.25; stroke-width: 0.8; stroke-linecap: square"/>
     </g>
     <g id="line2d_12">
      <g>
       <use xlink:href="#m92cbe0a989" x="456.202019" y="350.700226" style="stroke: #000000; stroke-width: 0.8"/>
      </g>
     </g>
     <g id="text_6">
      <!-- 10 -->
      <g transform="translate(447.930769 367.577179) scale(0.13 -0.13)">
       <defs>
        <path id="DejaVuSans-14" d="M 794 531 
L 1825 531 
L 1825 4091 
L 703 3866 
L 703 4441 
L 1819 4666 
L 2450 4666 
L 2450 531 
L 3481 531 
L 3481 0 
L 794 0 
L 794 531 
z
" transform="scale(0.015625)"/>
       </defs>
       <use xlink:href="#DejaVuSans-14"/>
       <use xlink:href="#DejaVuSans-13" transform="translate(63.625 0)"/>
      </g>
     </g>
    </g>
    <g id="text_7">
     <!-- time [s] -->
     <g transform="translate(238.45752 384.578195) scale(0.13 -0.13)">
      <defs>
       <path id="DejaVuSans-57" d="M 1172 4494 
L 1172 3500 
L 2356 3500 
L 2356 3053 
L 1172 3053 
L 1172 1153 
Q 1172 725 1289 603 
Q 1406 481 1766 481 
L 2356 481 
L 2356 0 
L 1766 0 
Q 1100 0 847 248 
Q 594 497 594 1153 
L 594 3053 
L 172 3053 
L 172 3500 
L 594 3500 
L 594 4494 
L 1172 4494 
z
" transform="scale(0.015625)"/>
       <path id="DejaVuSans-4c" d="M 603 3500 
L 1178 3500 
L 1178 0 
L 603 0 
L 603 3500 
z
M 603 4863 
L 1178 4863 
L 1178 4134 
L 603 4134 
L 603 4863 
z
" transform="scale(0.015625)"/>
       <path id="DejaVuSans-50" d="M 3328 2828 
Q 3544 3216 3844 3400 
Q 4144 3584 4550 3584 
Q 5097 3584 5394 3201 
Q 5691 2819 5691 2113 
L 5691 0 
L 5113 0 
L 5113 2094 
Q 5113 2597 4934 2840 
Q 4756 3084 4391 3084 
Q 3944 3084 3684 2787 
Q 3425 2491 3425 1978 
L 3425 0 
L 2847 0 
L 2847 2094 
Q 2847 2600 2669 2842 
Q 2491 3084 2119 3084 
Q 1678 3084 1418 2786 
Q 1159 2488 1159 1978 
L 1159 0 
L 581 0 
L 581 3500 
L 1159 3500 
L 1159 2956 
Q 1356 3278 1631 3431 
Q 1906 3584 2284 3584 
Q 2666 3584 2933 3390 
Q 3200 3197 3328 2828 
z
" transform="scale(0.015625)"/>
       <path id="DejaVuSans-48" d="M 3597 1894 
L 3597 1613 
L 953 1613 
Q 991 1019 1311 708 
Q 1631 397 2203 397 
Q 2534 397 2845 478 
Q 3156 559 3463 722 
L 3463 178 
Q 3153 47 2828 -22 
Q 2503 -91 2169 -91 
Q 1331 -91 842 396 
Q 353 884 353 1716 
Q 353 2575 817 3079 
Q 1281 3584 2069 3584 
Q 2775 3584 3186 3129 
Q 3597 2675 3597 1894 
z
M 3022 2063 
Q 3016 2534 2758 2815 
Q 2500 3097 2075 3097 
Q 1594 3097 1305 2825 
Q 1016 2553 972 2059 
L 3022 2063 
z
" transform="scale(0.015625)"/>
       <path id="DejaVuSans-3" transform="scale(0.015625)"/>
       <path id="DejaVuSans-3e" d="M 550 4863 
L 1875 4863 
L 1875 4416 
L 1125 4416 
L 1125 -397 
L 1875 -397 
L 1875 -844 
L 550 -844 
L 550 4863 
z
" transform="scale(0.015625)"/>
       <path id="DejaVuSans-56" d="M 2834 3397 
L 2834 2853 
Q 2591 2978 2328 3040 
Q 2066 3103 1784 3103 
Q 1356 3103 1142 2972 
Q 928 2841 928 2578 
Q 928 2378 1081 2264 
Q 1234 2150 1697 2047 
L 1894 2003 
Q 2506 1872 2764 1633 
Q 3022 1394 3022 966 
Q 3022 478 2636 193 
Q 2250 -91 1575 -91 
Q 1294 -91 989 -36 
Q 684 19 347 128 
L 347 722 
Q 666 556 975 473 
Q 1284 391 1588 391 
Q 1994 391 2212 530 
Q 2431 669 2431 922 
Q 2431 1156 2273 1281 
Q 2116 1406 1581 1522 
L 1381 1569 
Q 847 1681 609 1914 
Q 372 2147 372 2553 
Q 372 3047 722 3315 
Q 1072 3584 1716 3584 
Q 2034 3584 2315 3537 
Q 2597 3491 2834 3397 
z
" transform="scale(0.015625)"/>
       <path id="DejaVuSans-40" d="M 1947 4863 
L 1947 -844 
L 622 -844 
L 622 -397 
L 1369 -397 
L 1369 4416 
L 622 4416 
L 622 4863 
L 1947 4863 
z
" transform="scale(0.015625)"/>
      </defs>
      <use xlink:href="#DejaVuSans-57"/>
      <use xlink:href="#DejaVuSans-4c" transform="translate(39.203125 0)"/>
      <use xlink:href="#DejaVuSans-50" transform="translate(66.984375 0)"/>
      <use xlink:href="#DejaVuSans-48" transform="translate(164.390625 0)"/>
      <use xlink:href="#DejaVuSans-3" transform="translate(225.921875 0)"/>
      <use xlink:href="#DejaVuSans-3e" transform="translate(257.703125 0)"/>
      <use xlink:href="#DejaVuSans-56" transform="translate(296.71875 0)"/>
      <use xlink:href="#DejaVuSans-40" transform="translate(348.8125 0)"/>
     </g>
    </g>
   </g>
   <g id="matplotlib.axis_2">
    <g id="ytick_1">
     <g id="line2d_13">
      <path d="M 51.877109 337.48648 
L 475.455586 337.48648 
" clip-path="url(#pf21609a99f)" style="fill: none; stroke: #b0b0b0; stroke-opacity: 0.25; stroke-width: 0.8; stroke-linecap: square"/>
     </g>
     <g id="line2d_14">
      <defs>
       <path id="m4d7bb9c083" d="M 0 0 
L -3.5 0 
" style="stroke: #000000; stroke-width: 0.8"/>
      </defs>
      <g>
       <use xlink:href="#m4d7bb9c083" x="51.877109" y="337.48648" style="stroke: #000000; stroke-width: 0.8"/>
      </g>
     </g>
     <g id="text_8">
      <!-- 0.0 -->
      <g transform="translate(24.203047 342.424957) scale(0.13 -0.13)">
       <defs>
        <path id="DejaVuSans-11" d="M 684 794 
L 1344 794 
L 1344 0 
L 684 0 
L 684 794 
z
" transform="scale(0.015625)"/>
       </defs>
       <use xlink:href="#DejaVuSans-13"/>
       <use xlink:href="#DejaVuSans-11" transform="translate(63.625 0)"/>
       <use xlink:href="#DejaVuSans-13" transform="translate(95.40625 0)"/>
      </g>
     </g>
    </g>
    <g id="ytick_2">
     <g id="line2d_15">
      <path d="M 51.877109 303.12972 
L 475.455586 303.12972 
" clip-path="url(#pf21609a99f)" style="fill: none; stroke: #b0b0b0; stroke-opacity: 0.25; stroke-width: 0.8; stroke-linecap: square"/>
     </g>
     <g id="line2d_16">
      <g>
       <use xlink:href="#m4d7bb9c083" x="51.877109" y="303.12972" style="stroke: #000000; stroke-width: 0.8"/>
      </g>
     </g>
     <g id="text_9">
      <!-- 0.2 -->
      <g transform="translate(24.203047 308.068197) scale(0.13 -0.13)">
       <use xlink:href="#DejaVuSans-13"/>
       <use xlink:href="#DejaVuSans-11" transform="translate(63.625 0)"/>
       <use xlink:href="#DejaVuSans-15" transform="translate(95.40625 0)"/>
      </g>
     </g>
    </g>
    <g id="ytick_3">
     <g id="line2d_17">
      <path d="M 51.877109 268.772961 
L 475.455586 268.772961 
" clip-path="url(#pf21609a99f)" style="fill: none; stroke: #b0b0b0; stroke-opacity: 0.25; stroke-width: 0.8; stroke-linecap: square"/>
     </g>
     <g id="line2d_18">
      <g>
       <use xlink:href="#m4d7bb9c083" x="51.877109" y="268.772961" style="stroke: #000000; stroke-width: 0.8"/>
      </g>
     </g>
     <g id="text_10">
      <!-- 0.4 -->
      <g transform="translate(24.203047 273.711437) scale(0.13 -0.13)">
       <use xlink:href="#DejaVuSans-13"/>
       <use xlink:href="#DejaVuSans-11" transform="translate(63.625 0)"/>
       <use xlink:href="#DejaVuSans-17" transform="translate(95.40625 0)"/>
      </g>
     </g>
    </g>
    <g id="ytick_4">
     <g id="line2d_19">
      <path d="M 51.877109 234.416201 
L 475.455586 234.416201 
" clip-path="url(#pf21609a99f)" style="fill: none; stroke: #b0b0b0; stroke-opacity: 0.25; stroke-width: 0.8; stroke-linecap: square"/>
     </g>
     <g id="line2d_20">
      <g>
       <use xlink:href="#m4d7bb9c083" x="51.877109" y="234.416201" style="stroke: #000000; stroke-width: 0.8"/>
      </g>
     </g>
     <g id="text_11">
      <!-- 0.6 -->
      <g transform="translate(24.203047 239.354678) scale(0.13 -0.13)">
       <use xlink:href="#DejaVuSans-13"/>
       <use xlink:href="#DejaVuSans-11" transform="translate(63.625 0)"/>
       <use xlink:href="#DejaVuSans-19" transform="translate(95.40625 0)"/>
      </g>
     </g>
    </g>
    <g id="ytick_5">
     <g id="line2d_21">
      <path d="M 51.877109 200.059442 
L 475.455586 200.059442 
" clip-path="url(#pf21609a99f)" style="fill: none; stroke: #b0b0b0; stroke-opacity: 0.25; stroke-width: 0.8; stroke-linecap: square"/>
     </g>
     <g id="line2d_22">
      <g>
       <use xlink:href="#m4d7bb9c083" x="51.877109" y="200.059442" style="stroke: #000000; stroke-width: 0.8"/>
      </g>
     </g>
     <g id="text_12">
      <!-- 0.8 -->
      <g transform="translate(24.203047 204.997918) scale(0.13 -0.13)">
       <use xlink:href="#DejaVuSans-13"/>
       <use xlink:href="#DejaVuSans-11" transform="translate(63.625 0)"/>
       <use xlink:href="#DejaVuSans-1b" transform="translate(95.40625 0)"/>
      </g>
     </g>
    </g>
    <g id="ytick_6">
     <g id="line2d_23">
      <path d="M 51.877109 165.702682 
L 475.455586 165.702682 
" clip-path="url(#pf21609a99f)" style="fill: none; stroke: #b0b0b0; stroke-opacity: 0.25; stroke-width: 0.8; stroke-linecap: square"/>
     </g>
     <g id="line2d_24">
      <g>
       <use xlink:href="#m4d7bb9c083" x="51.877109" y="165.702682" style="stroke: #000000; stroke-width: 0.8"/>
      </g>
     </g>
     <g id="text_13">
      <!-- 1.0 -->
      <g transform="translate(24.203047 170.641159) scale(0.13 -0.13)">
       <use xlink:href="#DejaVuSans-14"/>
       <use xlink:href="#DejaVuSans-11" transform="translate(63.625 0)"/>
       <use xlink:href="#DejaVuSans-13" transform="translate(95.40625 0)"/>
      </g>
     </g>
    </g>
    <g id="ytick_7">
     <g id="line2d_25">
      <path d="M 51.877109 131.345922 
L 475.455586 131.345922 
" clip-path="url(#pf21609a99f)" style="fill: none; stroke: #b0b0b0; stroke-opacity: 0.25; stroke-width: 0.8; stroke-linecap: square"/>
     </g>
     <g id="line2d_26">
      <g>
       <use xlink:href="#m4d7bb9c083" x="51.877109" y="131.345922" style="stroke: #000000; stroke-width: 0.8"/>
      </g>
     </g>
     <g id="text_14">
      <!-- 1.2 -->
      <g transform="translate(24.203047 136.284399) scale(0.13 -0.13)">
       <use xlink:href="#DejaVuSans-14"/>
       <use xlink:href="#DejaVuSans-11" transform="translate(63.625 0)"/>
       <use xlink:href="#DejaVuSans-15" transform="translate(95.40625 0)"/>
      </g>
     </g>
    </g>
    <g id="ytick_8">
     <g id="line2d_27">
      <path d="M 51.877109 96.989163 
L 475.455586 96.989163 
" clip-path="url(#pf21609a99f)" style="fill: none; stroke: #b0b0b0; stroke-opacity: 0.25; stroke-width: 0.8; stroke-linecap: square"/>
     </g>
     <g id="line2d_28">
      <g>
       <use xlink:href="#m4d7bb9c083" x="51.877109" y="96.989163" style="stroke: #000000; stroke-width: 0.8"/>
      </g>
     </g>
     <g id="text_15">
      <!-- 1.4 -->
      <g transform="translate(24.203047 101.927639) scale(0.13 -0.13)">
       <use xlink:href="#DejaVuSans-14"/>
       <use xlink:href="#DejaVuSans-11" transform="translate(63.625 0)"/>
       <use xlink:href="#DejaVuSans-17" transform="translate(95.40625 0)"/>
      </g>
     </g>
    </g>
    <g id="ytick_9">
     <g id="line2d_29">
      <path d="M 51.877109 62.632403 
L 475.455586 62.632403 
" clip-path="url(#pf21609a99f)" style="fill: none; stroke: #b0b0b0; stroke-opacity: 0.25; stroke-width: 0.8; stroke-linecap: square"/>
     </g>
     <g id="line2d_30">
      <g>
       <use xlink:href="#m4d7bb9c083" x="51.877109" y="62.632403" style="stroke: #000000; stroke-width: 0.8"/>
      </g>
     </g>
     <g id="text_16">
      <!-- 1.6 -->
      <g transform="translate(24.203047 67.57088) scale(0.13 -0.13)">
       <use xlink:href="#DejaVuSans-14"/>
       <use xlink:href="#DejaVuSans-11" transform="translate(63.625 0)"/>
       <use xlink:href="#DejaVuSans-19" transform="translate(95.40625 0)"/>
      </g>
     </g>
    </g>
    <g id="text_17">
     <!-- $y(t)$ -->
     <g transform="translate(17.08 216.854022) rotate(-90) scale(0.13 -0.13)">
      <defs>
       <path id="DejaVuSans-Oblique-5c" d="M 1588 -325 
Q 1188 -997 936 -1164 
Q 684 -1331 294 -1331 
L -159 -1331 
L -63 -850 
L 269 -850 
Q 509 -850 678 -719 
Q 847 -588 1056 -206 
L 1234 128 
L 459 3500 
L 1069 3500 
L 1650 819 
L 3256 3500 
L 3859 3500 
L 1588 -325 
z
" transform="scale(0.015625)"/>
       <path id="DejaVuSans-b" d="M 1984 4856 
Q 1566 4138 1362 3434 
Q 1159 2731 1159 2009 
Q 1159 1288 1364 580 
Q 1569 -128 1984 -844 
L 1484 -844 
Q 1016 -109 783 600 
Q 550 1309 550 2009 
Q 550 2706 781 3412 
Q 1013 4119 1484 4856 
L 1984 4856 
z
" transform="scale(0.015625)"/>
       <path id="DejaVuSans-Oblique-57" d="M 2706 3500 
L 2619 3053 
L 1472 3053 
L 1100 1153 
Q 1081 1047 1072 975 
Q 1063 903 1063 863 
Q 1063 663 1183 572 
Q 1303 481 1569 481 
L 2150 481 
L 2053 0 
L 1503 0 
Q 991 0 739 200 
Q 488 400 488 806 
Q 488 878 497 964 
Q 506 1050 525 1153 
L 897 3053 
L 409 3053 
L 500 3500 
L 978 3500 
L 1172 4494 
L 1747 4494 
L 1556 3500 
L 2706 3500 
z
" transform="scale(0.015625)"/>
       <path id="DejaVuSans-c" d="M 513 4856 
L 1013 4856 
Q 1481 4119 1714 3412 
Q 1947 2706 1947 2009 
Q 1947 1309 1714 600 
Q 1481 -109 1013 -844 
L 513 -844 
Q 928 -128 1133 580 
Q 1338 1288 1338 2009 
Q 1338 2731 1133 3434 
Q 928 4138 513 4856 
z
" transform="scale(0.015625)"/>
      </defs>
      <use xlink:href="#DejaVuSans-Oblique-5c" transform="translate(0 0.125)"/>
      <use xlink:href="#DejaVuSans-b" transform="translate(59.179688 0.125)"/>
      <use xlink:href="#DejaVuSans-Oblique-57" transform="translate(98.193359 0.125)"/>
      <use xlink:href="#DejaVuSans-c" transform="translate(137.402344 0.125)"/>
     </g>
    </g>
   </g>
   <g id="line2d_31">
    <path d="M 71.130676 337.48648 
L 73.133047 337.37316 
L 75.212433 337.027588 
L 77.368832 336.443369 
L 79.67926 335.584684 
L 82.143717 334.429681 
L 84.839216 332.916152 
L 87.842773 330.963308 
L 91.154386 328.538022 
L 95.0051 325.433199 
L 99.70297 321.346463 
L 106.55724 315.057172 
L 118.417437 304.169245 
L 124.116493 299.262807 
L 129.122421 295.243259 
L 133.743277 291.817454 
L 138.13309 288.840268 
L 142.368875 286.236877 
L 146.527645 283.944079 
L 150.609402 281.947977 
L 154.691158 280.200219 
L 158.772914 278.693892 
L 162.931685 277.397363 
L 167.167469 276.310885 
L 171.557283 275.417692 
L 176.101124 274.722775 
L 180.876009 274.220085 
L 185.958951 273.911809 
L 191.426964 273.8052 
L 197.511091 273.913946 
L 204.442375 274.26634 
L 212.913945 274.930281 
L 225.236228 276.143443 
L 248.802594 278.481061 
L 260.81682 279.422253 
L 272.291946 280.097915 
L 284.075129 280.566336 
L 296.859497 280.847614 
L 311.723251 280.945008 
L 331.515918 280.836238 
L 413.382086 280.162453 
L 456.202019 280.16159 
L 456.202019 280.16159 
" clip-path="url(#pf21609a99f)" style="fill: none; stroke: #56b4e9; stroke-width: 2.2; stroke-linecap: square"/>
   </g>
   <g id="line2d_32">
    <path d="M 51.877109 280.225214 
L 475.455586 280.225214 
" clip-path="url(#pf21609a99f)" style="fill: none; stroke-dasharray: 1.2,1.98; stroke-dashoffset: 0; stroke: #56b4e9; stroke-width: 1.2"/>
   </g>
   <g id="line2d_33">
    <path d="M 71.130676 337.48648 
L 72.285891 337.372154 
L 73.441105 337.035719 
L 74.673333 336.443171 
L 75.982575 335.562499 
L 77.368832 334.363884 
L 78.909118 332.731644 
L 80.603432 330.598171 
L 82.451774 327.902484 
L 84.531159 324.459018 
L 86.841587 320.188361 
L 89.537087 314.710814 
L 92.694672 307.762138 
L 96.776428 298.196433 
L 112.795396 260.039512 
L 116.492081 252.137015 
L 119.803694 245.575259 
L 122.807251 240.098493 
L 125.656779 235.350341 
L 128.352278 231.277544 
L 130.970763 227.720161 
L 133.43522 224.734518 
L 135.822662 222.176572 
L 138.210104 219.943866 
L 140.520532 218.086744 
L 142.753946 216.567746 
L 144.98736 215.311287 
L 147.220774 214.307034 
L 149.454188 213.543424 
L 151.764616 212.993291 
L 154.075044 212.672274 
L 156.462486 212.564582 
L 158.926943 212.673407 
L 161.545428 213.011493 
L 164.317941 213.592488 
L 167.398512 214.472206 
L 170.78714 215.678952 
L 174.637853 217.291351 
L 179.412738 219.544351 
L 186.806108 223.315846 
L 196.432891 228.180253 
L 201.977919 230.727922 
L 206.829818 232.719032 
L 211.373659 234.348024 
L 215.763473 235.688383 
L 220.076272 236.775573 
L 224.389071 237.636682 
L 228.778884 238.289163 
L 233.322726 238.741209 
L 238.097611 238.99338 
L 243.257567 239.040606 
L 248.956622 238.865828 
L 255.579849 238.432172 
L 264.051419 237.640867 
L 294.780112 234.570523 
L 304.098839 233.980678 
L 313.417565 233.613771 
L 323.42942 233.445784 
L 335.058575 233.481178 
L 351.231571 233.773724 
L 388.121405 234.493884 
L 408.761229 234.621941 
L 437.10248 234.549814 
L 456.202019 234.458785 
L 456.202019 234.458785 
" clip-path="url(#pf21609a99f)" style="fill: none; stroke: #0072b2; stroke-width: 2.2; stroke-linecap: square"/>
   </g>
   <g id="line2d_34">
    <path d="M 51.877109 234.416201 
L 475.455586 234.416201 
" clip-path="url(#pf21609a99f)" style="fill: none; stroke-dasharray: 1.2,1.98; stroke-dashoffset: 0; stroke: #0072b2; stroke-width: 1.2"/>
   </g>
   <g id="line2d_35">
    <path d="M 71.130676 337.48648 
L 71.669776 337.386139 
L 72.285891 337.029329 
L 72.979019 336.326819 
L 73.749162 335.183531 
L 74.596319 333.500795 
L 75.597504 330.96342 
L 76.675704 327.602264 
L 77.907932 323.016971 
L 79.294189 316.990231 
L 80.911489 308.9243 
L 82.759831 298.538661 
L 84.993245 284.661799 
L 87.919787 264.95641 
L 98.162685 194.671656 
L 100.627141 179.917729 
L 102.783541 168.268556 
L 104.785912 158.649978 
L 106.55724 151.181872 
L 108.17454 145.25789 
L 109.714825 140.431338 
L 111.101082 136.775573 
L 112.410324 133.921982 
L 113.642553 131.763862 
L 114.720752 130.289466 
L 115.721938 129.260091 
L 116.646109 128.594159 
L 117.57028 128.194589 
L 118.417437 128.056156 
L 119.264594 128.129343 
L 120.188766 128.44269 
L 121.112937 128.990641 
L 122.114122 129.837476 
L 123.269336 131.124754 
L 124.501565 132.840749 
L 125.887821 135.160646 
L 127.505121 138.335593 
L 129.353463 142.499548 
L 131.509863 147.948186 
L 134.205362 155.415713 
L 138.441147 167.918752 
L 143.601103 182.991069 
L 146.527645 190.849106 
L 148.992102 196.841549 
L 151.148501 201.518758 
L 153.150872 205.334288 
L 154.999215 208.374961 
L 156.693529 210.740794 
L 158.310828 212.616252 
L 159.774099 213.989803 
L 161.237371 215.05863 
L 162.623627 215.794863 
L 163.93287 216.249414 
L 165.242113 216.477462 
L 166.551355 216.487734 
L 167.937612 216.272423 
L 169.400883 215.807278 
L 170.941168 215.072399 
L 172.558468 214.053464 
L 174.406811 212.612559 
L 176.486196 210.689105 
L 178.873638 208.162329 
L 181.877195 204.638694 
L 187.345208 197.795455 
L 191.812035 192.372964 
L 194.892606 188.978094 
L 197.511091 186.41371 
L 199.898533 184.380282 
L 202.131947 182.76719 
L 204.211332 181.529955 
L 206.213703 180.585293 
L 208.216074 179.882992 
L 210.218445 179.418833 
L 212.220816 179.184557 
L 214.300202 179.171827 
L 216.456601 179.388863 
L 218.690015 179.837244 
L 221.154471 180.562834 
L 223.926985 181.619254 
L 227.238599 183.132038 
L 231.936469 185.55162 
L 240.022967 189.729281 
L 243.796666 191.411206 
L 247.10828 192.65138 
L 250.188851 193.574206 
L 253.192407 194.244453 
L 256.195964 194.684506 
L 259.19952 194.900486 
L 262.357105 194.90194 
L 265.745733 194.6746 
L 269.519432 194.1896 
L 273.98626 193.382442 
L 280.917544 191.872012 
L 289.389113 190.079233 
L 294.549069 189.222218 
L 299.169925 188.676459 
L 303.713767 188.362677 
L 308.411638 188.26446 
L 313.494579 188.385961 
L 319.501692 188.762102 
L 328.897433 189.609098 
L 339.910473 190.54269 
L 347.149815 190.926616 
L 354.158113 191.074829 
L 361.85954 191.008617 
L 372.179452 190.676 
L 392.434205 189.992153 
L 403.293216 189.890262 
L 416.308628 190.007958 
L 448.654621 190.391185 
L 456.202019 190.381548 
L 456.202019 190.381548 
" clip-path="url(#pf21609a99f)" style="fill: none; stroke: #e69f00; stroke-width: 2.2; stroke-linecap: square"/>
   </g>
   <g id="line2d_36">
    <path d="M 51.877109 190.243225 
L 475.455586 190.243225 
" clip-path="url(#pf21609a99f)" style="fill: none; stroke-dasharray: 1.2,1.98; stroke-dashoffset: 0; stroke: #e69f00; stroke-width: 1.2"/>
   </g>
   <g id="line2d_37">
    <path d="M 71.130676 337.48648 
L 71.438734 337.37696 
L 71.823805 336.934859 
L 72.285891 335.964238 
L 72.82499 334.238975 
L 73.441105 331.509429 
L 74.211247 327.008771 
L 75.135418 320.105645 
L 76.213618 310.154526 
L 77.445847 296.574755 
L 78.909118 277.909612 
L 80.834474 250.270133 
L 84.531159 193.033058 
L 87.226659 153.11571 
L 89.075001 128.874843 
L 90.615286 111.446357 
L 91.924529 98.964545 
L 93.079743 89.900176 
L 94.080928 83.599022 
L 95.0051 79.097835 
L 95.775242 76.320824 
L 96.468371 74.577756 
L 97.007471 73.713537 
L 97.469556 73.311204 
L 97.854628 73.211564 
L 98.239699 73.323209 
L 98.701785 73.731589 
L 99.240884 74.578439 
L 99.856999 76.020875 
L 100.550127 78.225989 
L 101.397284 81.71564 
L 102.398469 86.88645 
L 103.553684 94.12062 
L 104.93994 104.33676 
L 106.634254 118.6051 
L 109.021697 140.790256 
L 113.719567 184.768841 
L 115.644924 200.504098 
L 117.185209 211.38578 
L 118.571466 219.633954 
L 119.72668 225.276958 
L 120.80488 229.478293 
L 121.729051 232.238016 
L 122.576208 234.078493 
L 123.269336 235.094774 
L 123.88545 235.631633 
L 124.42455 235.822259 
L 124.96365 235.756811 
L 125.50275 235.440527 
L 126.118864 234.779851 
L 126.811993 233.667866 
L 127.582135 231.994744 
L 128.506306 229.415561 
L 129.584506 225.684083 
L 130.816735 220.578106 
L 132.280006 213.544736 
L 134.205362 203.109077 
L 137.748019 182.348555 
L 140.520532 166.710491 
L 142.445889 157.087942 
L 143.986174 150.452352 
L 145.372431 145.438344 
L 146.527645 142.02085 
L 147.605845 139.488756 
L 148.530016 137.836919 
L 149.377173 136.746975 
L 150.147316 136.107192 
L 150.840444 135.814012 
L 151.456559 135.774327 
L 152.072673 135.938024 
L 152.765801 136.358559 
L 153.535944 137.10864 
L 154.383101 138.260782 
L 155.384286 140.034762 
L 156.5395 142.585703 
L 157.848743 146.045107 
L 159.466042 150.993234 
L 161.622442 158.388912 
L 167.937612 180.556543 
L 169.70894 185.751631 
L 171.249225 189.597333 
L 172.558468 192.301685 
L 173.713682 194.222529 
L 174.791882 195.605138 
L 175.793067 196.527838 
L 176.717239 197.07035 
L 177.564396 197.309711 
L 178.411552 197.307528 
L 179.258709 197.071152 
L 180.182881 196.557366 
L 181.184066 195.716395 
L 182.262266 194.505065 
L 183.494494 192.772578 
L 184.957765 190.303392 
L 186.729093 186.847854 
L 189.270564 181.342049 
L 193.968435 171.119458 
L 195.970806 167.347513 
L 197.588105 164.747662 
L 199.051376 162.804158 
L 200.360619 161.426419 
L 201.515833 160.508371 
L 202.594033 159.908552 
L 203.672233 159.557103 
L 204.750432 159.450144 
L 205.828632 159.580001 
L 206.906832 159.935475 
L 208.062046 160.550283 
L 209.371288 161.513055 
L 210.834559 162.880638 
L 212.528873 164.77657 
L 214.762287 167.63347 
L 221.924614 177.06508 
L 223.772957 179.012891 
L 225.390256 180.419177 
L 226.930542 181.466255 
L 228.316798 182.148895 
L 229.626041 182.561824 
L 230.935284 182.750219 
L 232.244526 182.72006 
L 233.630783 182.462069 
L 235.094054 181.957472 
L 236.711354 181.15472 
L 238.559696 179.976863 
L 240.870124 178.221889 
L 249.726765 171.192885 
L 251.729136 170.043976 
L 253.577478 169.240048 
L 255.271792 168.738825 
L 256.966106 168.469684 
L 258.66042 168.429337 
L 260.431748 168.618571 
L 262.280091 169.043648 
L 264.359476 169.756395 
L 266.900947 170.87923 
L 271.136732 173.046945 
L 275.064459 174.963638 
L 277.682945 175.997069 
L 279.993373 176.671363 
L 282.149772 177.070711 
L 284.306172 177.23913 
L 286.462571 177.183426 
L 288.772999 176.898461 
L 291.391484 176.343176 
L 294.780112 175.375867 
L 303.40571 172.803425 
L 306.332252 172.223721 
L 309.104766 171.902486 
L 311.800265 171.81461 
L 314.649793 171.948617 
L 317.884393 172.33551 
L 322.197192 173.100495 
L 330.360704 174.581929 
L 334.057389 174.992613 
L 337.523031 175.151318 
L 341.065687 175.087766 
L 345.147444 174.78242 
L 351.693657 174.026934 
L 358.085841 173.369295 
L 362.629683 173.130267 
L 367.09651 173.123826 
L 372.179452 173.348918 
L 390.123776 174.35662 
L 395.899847 174.30827 
L 403.986345 173.989276 
L 414.383271 173.620918 
L 421.545598 173.606129 
L 431.480439 173.839485 
L 443.263622 174.06097 
L 452.96742 173.997589 
L 456.202019 173.944208 
L 456.202019 173.944208 
" clip-path="url(#pf21609a99f)" style="fill: none; stroke: #d55e00; stroke-width: 2.2; stroke-linecap: square"/>
   </g>
   <g id="line2d_38">
    <path d="M 51.877109 173.882863 
L 475.455586 173.882863 
" clip-path="url(#pf21609a99f)" style="fill: none; stroke-dasharray: 1.2,1.98; stroke-dashoffset: 0; stroke: #d55e00; stroke-width: 1.2"/>
   </g>
   <g id="line2d_39">
    <path d="M 51.877109 165.702682 
L 475.455586 165.702682 
" clip-path="url(#pf21609a99f)" style="fill: none; stroke-dasharray: 3.7,1.6; stroke-dashoffset: 0; stroke: #000000"/>
   </g>
   <g id="patch_3">
    <path d="M 51.877109 350.700226 
L 51.877109 59.997818 
" style="fill: none; stroke: #000000; stroke-width: 0.8; stroke-linejoin: miter; stroke-linecap: square"/>
   </g>
   <g id="patch_4">
    <path d="M 51.877109 350.700226 
L 475.455586 350.700226 
" style="fill: none; stroke: #000000; stroke-width: 0.8; stroke-linejoin: miter; stroke-linecap: square"/>
   </g>
   <g id="text_18">
    <!-- Step responses (dotted: final values) -->
    <g transform="translate(125.545645 53.997818) scale(0.15 -0.15)">
     <defs>
      <path id="DejaVuSans-36" d="M 3425 4513 
L 3425 3897 
Q 3066 4069 2747 4153 
Q 2428 4238 2131 4238 
Q 1616 4238 1336 4038 
Q 1056 3838 1056 3469 
Q 1056 3159 1242 3001 
Q 1428 2844 1947 2747 
L 2328 2669 
Q 3034 2534 3370 2195 
Q 3706 1856 3706 1288 
Q 3706 609 3251 259 
Q 2797 -91 1919 -91 
Q 1588 -91 1214 -16 
Q 841 59 441 206 
L 441 856 
Q 825 641 1194 531 
Q 1563 422 1919 422 
Q 2459 422 2753 634 
Q 3047 847 3047 1241 
Q 3047 1584 2836 1778 
Q 2625 1972 2144 2069 
L 1759 2144 
Q 1053 2284 737 2584 
Q 422 2884 422 3419 
Q 422 4038 858 4394 
Q 1294 4750 2059 4750 
Q 2388 4750 2728 4690 
Q 3069 4631 3425 4513 
z
" transform="scale(0.015625)"/>
      <path id="DejaVuSans-53" d="M 1159 525 
L 1159 -1331 
L 581 -1331 
L 581 3500 
L 1159 3500 
L 1159 2969 
Q 1341 3281 1617 3432 
Q 1894 3584 2278 3584 
Q 2916 3584 3314 3078 
Q 3713 2572 3713 1747 
Q 3713 922 3314 415 
Q 2916 -91 2278 -91 
Q 1894 -91 1617 61 
Q 1341 213 1159 525 
z
M 3116 1747 
Q 3116 2381 2855 2742 
Q 2594 3103 2138 3103 
Q 1681 3103 1420 2742 
Q 1159 2381 1159 1747 
Q 1159 1113 1420 752 
Q 1681 391 2138 391 
Q 2594 391 2855 752 
Q 3116 1113 3116 1747 
z
" transform="scale(0.015625)"/>
      <path id="DejaVuSans-55" d="M 2631 2963 
Q 2534 3019 2420 3045 
Q 2306 3072 2169 3072 
Q 1681 3072 1420 2755 
Q 1159 2438 1159 1844 
L 1159 0 
L 581 0 
L 581 3500 
L 1159 3500 
L 1159 2956 
Q 1341 3275 1631 3429 
Q 1922 3584 2338 3584 
Q 2397 3584 2469 3576 
Q 2541 3569 2628 3553 
L 2631 2963 
z
" transform="scale(0.015625)"/>
      <path id="DejaVuSans-52" d="M 1959 3097 
Q 1497 3097 1228 2736 
Q 959 2375 959 1747 
Q 959 1119 1226 758 
Q 1494 397 1959 397 
Q 2419 397 2687 759 
Q 2956 1122 2956 1747 
Q 2956 2369 2687 2733 
Q 2419 3097 1959 3097 
z
M 1959 3584 
Q 2709 3584 3137 3096 
Q 3566 2609 3566 1747 
Q 3566 888 3137 398 
Q 2709 -91 1959 -91 
Q 1206 -91 779 398 
Q 353 888 353 1747 
Q 353 2609 779 3096 
Q 1206 3584 1959 3584 
z
" transform="scale(0.015625)"/>
      <path id="DejaVuSans-51" d="M 3513 2113 
L 3513 0 
L 2938 0 
L 2938 2094 
Q 2938 2591 2744 2837 
Q 2550 3084 2163 3084 
Q 1697 3084 1428 2787 
Q 1159 2491 1159 1978 
L 1159 0 
L 581 0 
L 581 3500 
L 1159 3500 
L 1159 2956 
Q 1366 3272 1645 3428 
Q 1925 3584 2291 3584 
Q 2894 3584 3203 3211 
Q 3513 2838 3513 2113 
z
" transform="scale(0.015625)"/>
      <path id="DejaVuSans-47" d="M 2906 2969 
L 2906 4863 
L 3481 4863 
L 3481 0 
L 2906 0 
L 2906 525 
Q 2725 213 2448 61 
Q 2172 -91 1784 -91 
Q 1150 -91 751 415 
Q 353 922 353 1747 
Q 353 2572 751 3078 
Q 1150 3584 1784 3584 
Q 2172 3584 2448 3432 
Q 2725 3281 2906 2969 
z
M 947 1747 
Q 947 1113 1208 752 
Q 1469 391 1925 391 
Q 2381 391 2643 752 
Q 2906 1113 2906 1747 
Q 2906 2381 2643 2742 
Q 2381 3103 1925 3103 
Q 1469 3103 1208 2742 
Q 947 2381 947 1747 
z
" transform="scale(0.015625)"/>
      <path id="DejaVuSans-1d" d="M 750 794 
L 1409 794 
L 1409 0 
L 750 0 
L 750 794 
z
M 750 3309 
L 1409 3309 
L 1409 2516 
L 750 2516 
L 750 3309 
z
" transform="scale(0.015625)"/>
      <path id="DejaVuSans-13af" d="M 3431 3500 
L 3431 0 
L 2853 0 
L 2853 3053 
L 1275 3053 
L 1275 0 
L 697 0 
L 697 3053 
L 147 3053 
L 147 3500 
L 697 3500 
L 697 3744 
Q 697 4316 967 4589 
Q 1238 4863 1797 4863 
L 2375 4863 
L 2375 4384 
L 1825 4384 
Q 1516 4384 1395 4259 
Q 1275 4134 1275 3809 
L 1275 3500 
L 3431 3500 
z
M 2853 4856 
L 3431 4856 
L 3431 4128 
L 2853 4128 
L 2853 4856 
z
" transform="scale(0.015625)"/>
      <path id="DejaVuSans-44" d="M 2194 1759 
Q 1497 1759 1228 1600 
Q 959 1441 959 1056 
Q 959 750 1161 570 
Q 1363 391 1709 391 
Q 2188 391 2477 730 
Q 2766 1069 2766 1631 
L 2766 1759 
L 2194 1759 
z
M 3341 1997 
L 3341 0 
L 2766 0 
L 2766 531 
Q 2569 213 2275 61 
Q 1981 -91 1556 -91 
Q 1019 -91 701 211 
Q 384 513 384 1019 
Q 384 1609 779 1909 
Q 1175 2209 1959 2209 
L 2766 2209 
L 2766 2266 
Q 2766 2663 2505 2880 
Q 2244 3097 1772 3097 
Q 1472 3097 1187 3025 
Q 903 2953 641 2809 
L 641 3341 
Q 956 3463 1253 3523 
Q 1550 3584 1831 3584 
Q 2591 3584 2966 3190 
Q 3341 2797 3341 1997 
z
" transform="scale(0.015625)"/>
      <path id="DejaVuSans-4f" d="M 603 4863 
L 1178 4863 
L 1178 0 
L 603 0 
L 603 4863 
z
" transform="scale(0.015625)"/>
      <path id="DejaVuSans-59" d="M 191 3500 
L 800 3500 
L 1894 563 
L 2988 3500 
L 3597 3500 
L 2284 0 
L 1503 0 
L 191 3500 
z
" transform="scale(0.015625)"/>
      <path id="DejaVuSans-58" d="M 544 1381 
L 544 3500 
L 1119 3500 
L 1119 1403 
Q 1119 906 1312 657 
Q 1506 409 1894 409 
Q 2359 409 2629 706 
Q 2900 1003 2900 1516 
L 2900 3500 
L 3475 3500 
L 3475 0 
L 2900 0 
L 2900 538 
Q 2691 219 2414 64 
Q 2138 -91 1772 -91 
Q 1169 -91 856 284 
Q 544 659 544 1381 
z
M 1991 3584 
L 1991 3584 
z
" transform="scale(0.015625)"/>
     </defs>
     <use xlink:href="#DejaVuSans-36"/>
     <use xlink:href="#DejaVuSans-57" transform="translate(63.484375 0)"/>
     <use xlink:href="#DejaVuSans-48" transform="translate(102.6875 0)"/>
     <use xlink:href="#DejaVuSans-53" transform="translate(164.21875 0)"/>
     <use xlink:href="#DejaVuSans-3" transform="translate(227.703125 0)"/>
     <use xlink:href="#DejaVuSans-55" transform="translate(259.484375 0)"/>
     <use xlink:href="#DejaVuSans-48" transform="translate(298.390625 0)"/>
     <use xlink:href="#DejaVuSans-56" transform="translate(359.921875 0)"/>
     <use xlink:href="#DejaVuSans-53" transform="translate(412.015625 0)"/>
     <use xlink:href="#DejaVuSans-52" transform="translate(475.5 0)"/>
     <use xlink:href="#DejaVuSans-51" transform="translate(536.6875 0)"/>
     <use xlink:href="#DejaVuSans-56" transform="translate(600.0625 0)"/>
     <use xlink:href="#DejaVuSans-48" transform="translate(652.15625 0)"/>
     <use xlink:href="#DejaVuSans-56" transform="translate(713.6875 0)"/>
     <use xlink:href="#DejaVuSans-3" transform="translate(765.78125 0)"/>
     <use xlink:href="#DejaVuSans-b" transform="translate(797.5625 0)"/>
     <use xlink:href="#DejaVuSans-47" transform="translate(836.578125 0)"/>
     <use xlink:href="#DejaVuSans-52" transform="translate(900.0625 0)"/>
     <use xlink:href="#DejaVuSans-57" transform="translate(961.25 0)"/>
     <use xlink:href="#DejaVuSans-57" transform="translate(1000.453125 0)"/>
     <use xlink:href="#DejaVuSans-48" transform="translate(1039.65625 0)"/>
     <use xlink:href="#DejaVuSans-47" transform="translate(1101.1875 0)"/>
     <use xlink:href="#DejaVuSans-1d" transform="translate(1164.671875 0)"/>
     <use xlink:href="#DejaVuSans-3" transform="translate(1198.359375 0)"/>
     <use xlink:href="#DejaVuSans-13af" transform="translate(1230.140625 0)"/>
     <use xlink:href="#DejaVuSans-51" transform="translate(1293.125 0)"/>
     <use xlink:href="#DejaVuSans-44" transform="translate(1356.5 0)"/>
     <use xlink:href="#DejaVuSans-4f" transform="translate(1417.78125 0)"/>
     <use xlink:href="#DejaVuSans-3" transform="translate(1445.5625 0)"/>
     <use xlink:href="#DejaVuSans-59" transform="translate(1477.34375 0)"/>
     <use xlink:href="#DejaVuSans-44" transform="translate(1536.53125 0)"/>
     <use xlink:href="#DejaVuSans-4f" transform="translate(1597.8125 0)"/>
     <use xlink:href="#DejaVuSans-58" transform="translate(1625.59375 0)"/>
     <use xlink:href="#DejaVuSans-48" transform="translate(1688.96875 0)"/>
     <use xlink:href="#DejaVuSans-56" transform="translate(1750.5 0)"/>
     <use xlink:href="#DejaVuSans-c" transform="translate(1802.59375 0)"/>
    </g>
   </g>
   <g id="legend_1">
    <g id="line2d_40">
     <path d="M 393.555586 272.044562 
L 404.055586 272.044562 
L 414.555586 272.044562 
" style="fill: none; stroke: #56b4e9; stroke-width: 2.2; stroke-linecap: square"/>
    </g>
    <g id="text_19">
     <!-- $k_P$ = 0.5 -->
     <g transform="translate(422.955586 275.719562) scale(0.105 -0.105)">
      <defs>
       <path id="DejaVuSans-Oblique-4e" d="M 1172 4863 
L 1747 4863 
L 1197 2028 
L 3169 3500 
L 3916 3500 
L 1716 1825 
L 3322 0 
L 2625 0 
L 1131 1709 
L 800 0 
L 225 0 
L 1172 4863 
z
" transform="scale(0.015625)"/>
       <path id="DejaVuSans-Oblique-33" d="M 1081 4666 
L 2541 4666 
Q 3178 4666 3512 4369 
Q 3847 4072 3847 3500 
Q 3847 2731 3353 2303 
Q 2859 1875 1966 1875 
L 1172 1875 
L 806 0 
L 172 0 
L 1081 4666 
z
M 1613 4147 
L 1275 2394 
L 2069 2394 
Q 2606 2394 2893 2669 
Q 3181 2944 3181 3456 
Q 3181 3784 2986 3965 
Q 2791 4147 2438 4147 
L 1613 4147 
z
" transform="scale(0.015625)"/>
       <path id="DejaVuSans-20" d="M 678 2906 
L 4684 2906 
L 4684 2381 
L 678 2381 
L 678 2906 
z
M 678 1631 
L 4684 1631 
L 4684 1100 
L 678 1100 
L 678 1631 
z
" transform="scale(0.015625)"/>
       <path id="DejaVuSans-18" d="M 691 4666 
L 3169 4666 
L 3169 4134 
L 1269 4134 
L 1269 2991 
Q 1406 3038 1543 3061 
Q 1681 3084 1819 3084 
Q 2600 3084 3056 2656 
Q 3513 2228 3513 1497 
Q 3513 744 3044 326 
Q 2575 -91 1722 -91 
Q 1428 -91 1123 -41 
Q 819 9 494 109 
L 494 744 
Q 775 591 1075 516 
Q 1375 441 1709 441 
Q 2250 441 2565 725 
Q 2881 1009 2881 1497 
Q 2881 1984 2565 2268 
Q 2250 2553 1709 2553 
Q 1456 2553 1204 2497 
Q 953 2441 691 2322 
L 691 4666 
z
" transform="scale(0.015625)"/>
      </defs>
      <use xlink:href="#DejaVuSans-Oblique-4e" transform="translate(0 0.015625)"/>
      <use xlink:href="#DejaVuSans-Oblique-33" transform="translate(57.910156 -14.984326) scale(0.7)"/>
      <use xlink:href="#DejaVuSans-3" transform="translate(102.856445 0.015625)"/>
      <use xlink:href="#DejaVuSans-20" transform="translate(134.643555 0.015625)"/>
      <use xlink:href="#DejaVuSans-3" transform="translate(218.432617 0.015625)"/>
      <use xlink:href="#DejaVuSans-13" transform="translate(250.219727 0.015625)"/>
      <use xlink:href="#DejaVuSans-11" transform="translate(313.842773 0.015625)"/>
      <use xlink:href="#DejaVuSans-18" transform="translate(345.629883 0.015625)"/>
     </g>
    </g>
    <g id="line2d_41">
     <path d="M 393.555586 287.797023 
L 404.055586 287.797023 
L 414.555586 287.797023 
" style="fill: none; stroke: #0072b2; stroke-width: 2.2; stroke-linecap: square"/>
    </g>
    <g id="text_20">
     <!-- $k_P$ = 1.5 -->
     <g transform="translate(422.955586 291.472023) scale(0.105 -0.105)">
      <use xlink:href="#DejaVuSans-Oblique-4e" transform="translate(0 0.015625)"/>
      <use xlink:href="#DejaVuSans-Oblique-33" transform="translate(57.910156 -14.984326) scale(0.7)"/>
      <use xlink:href="#DejaVuSans-3" transform="translate(102.856445 0.015625)"/>
      <use xlink:href="#DejaVuSans-20" transform="translate(134.643555 0.015625)"/>
      <use xlink:href="#DejaVuSans-3" transform="translate(218.432617 0.015625)"/>
      <use xlink:href="#DejaVuSans-14" transform="translate(250.219727 0.015625)"/>
      <use xlink:href="#DejaVuSans-11" transform="translate(313.842773 0.015625)"/>
      <use xlink:href="#DejaVuSans-18" transform="translate(345.629883 0.015625)"/>
     </g>
    </g>
    <g id="line2d_42">
     <path d="M 393.555586 303.549484 
L 404.055586 303.549484 
L 414.555586 303.549484 
" style="fill: none; stroke: #e69f00; stroke-width: 2.2; stroke-linecap: square"/>
    </g>
    <g id="text_21">
     <!-- $k_P$ = 6 -->
     <g transform="translate(422.955586 307.224484) scale(0.105 -0.105)">
      <use xlink:href="#DejaVuSans-Oblique-4e" transform="translate(0 0.015625)"/>
      <use xlink:href="#DejaVuSans-Oblique-33" transform="translate(57.910156 -14.984326) scale(0.7)"/>
      <use xlink:href="#DejaVuSans-3" transform="translate(102.856445 0.015625)"/>
      <use xlink:href="#DejaVuSans-20" transform="translate(134.643555 0.015625)"/>
      <use xlink:href="#DejaVuSans-3" transform="translate(218.432617 0.015625)"/>
      <use xlink:href="#DejaVuSans-19" transform="translate(250.219727 0.015625)"/>
     </g>
    </g>
    <g id="line2d_43">
     <path d="M 393.555586 319.301945 
L 404.055586 319.301945 
L 414.555586 319.301945 
" style="fill: none; stroke: #d55e00; stroke-width: 2.2; stroke-linecap: square"/>
    </g>
    <g id="text_22">
     <!-- $k_P$ = 20 -->
     <g transform="translate(422.955586 322.976945) scale(0.105 -0.105)">
      <use xlink:href="#DejaVuSans-Oblique-4e" transform="translate(0 0.015625)"/>
      <use xlink:href="#DejaVuSans-Oblique-33" transform="translate(57.910156 -14.984326) scale(0.7)"/>
      <use xlink:href="#DejaVuSans-3" transform="translate(102.856445 0.015625)"/>
      <use xlink:href="#DejaVuSans-20" transform="translate(134.643555 0.015625)"/>
      <use xlink:href="#DejaVuSans-3" transform="translate(218.432617 0.015625)"/>
      <use xlink:href="#DejaVuSans-15" transform="translate(250.219727 0.015625)"/>
      <use xlink:href="#DejaVuSans-13" transform="translate(313.842773 0.015625)"/>
     </g>
    </g>
    <g id="line2d_44">
     <path d="M 393.555586 335.052765 
L 404.055586 335.052765 
L 414.555586 335.052765 
" style="fill: none; stroke-dasharray: 3.7,1.6; stroke-dashoffset: 0; stroke: #000000"/>
    </g>
    <g id="text_23">
     <!-- $r$ = 1 -->
     <g transform="translate(422.955586 338.727765) scale(0.105 -0.105)">
      <defs>
       <path id="DejaVuSans-Oblique-55" d="M 2853 2969 
Q 2766 3016 2653 3041 
Q 2541 3066 2413 3066 
Q 1953 3066 1609 2717 
Q 1266 2369 1153 1784 
L 800 0 
L 225 0 
L 909 3500 
L 1484 3500 
L 1375 2956 
Q 1603 3259 1920 3421 
Q 2238 3584 2597 3584 
Q 2691 3584 2781 3573 
Q 2872 3563 2963 3538 
L 2853 2969 
z
" transform="scale(0.015625)"/>
      </defs>
      <use xlink:href="#DejaVuSans-Oblique-55" transform="translate(0 0.09375)"/>
      <use xlink:href="#DejaVuSans-3" transform="translate(41.113281 0.09375)"/>
      <use xlink:href="#DejaVuSans-20" transform="translate(72.900391 0.09375)"/>
      <use xlink:href="#DejaVuSans-3" transform="translate(156.689453 0.09375)"/>
      <use xlink:href="#DejaVuSans-14" transform="translate(188.476562 0.09375)"/>
     </g>
    </g>
   </g>
  </g>
  <g id="axes_2">
   <g id="patch_5">
    <path d="M 533.727724 350.700226 
L 957.3062 350.700226 
L 957.3062 59.997818 
L 533.727724 59.997818 
z
" style="fill: #ffffff"/>
   </g>
   <g id="patch_6">
    <path d="M 533.727724 350.700226 
L 859.557321 350.700226 
L 859.557321 59.997818 
L 533.727724 59.997818 
z
" clip-path="url(#pdf901ed479)" style="fill: #009e73; opacity: 0.06; stroke: #009e73; stroke-linejoin: miter"/>
   </g>
   <g id="line2d_45">
    <path d="M 533.727724 205.349022 
L 957.3062 205.349022 
" clip-path="url(#pdf901ed479)" style="fill: none; stroke: #000000; stroke-linecap: square"/>
   </g>
   <g id="line2d_46">
    <path d="M 859.557321 350.700226 
L 859.557321 59.997818 
" clip-path="url(#pdf901ed479)" style="fill: none; stroke: #000000; stroke-width: 1.6; stroke-linecap: square"/>
   </g>
   <g id="matplotlib.axis_3">
    <g id="xtick_7">
     <g id="line2d_47">
      <path d="M 533.727724 350.700226 
L 533.727724 59.997818 
" clip-path="url(#pdf901ed479)" style="fill: none; stroke: #b0b0b0; stroke-opacity: 0.25; stroke-width: 0.8; stroke-linecap: square"/>
     </g>
     <g id="line2d_48">
      <g>
       <use xlink:href="#m92cbe0a989" x="533.727724" y="350.700226" style="stroke: #000000; stroke-width: 0.8"/>
      </g>
     </g>
     <g id="text_24">
      <!-- −2.0 -->
      <g transform="translate(517.943896 367.577179) scale(0.13 -0.13)">
       <defs>
        <path id="DejaVuSans-c9c" d="M 678 2272 
L 4684 2272 
L 4684 1741 
L 678 1741 
L 678 2272 
z
" transform="scale(0.015625)"/>
       </defs>
       <use xlink:href="#DejaVuSans-c9c"/>
       <use xlink:href="#DejaVuSans-15" transform="translate(83.796875 0)"/>
       <use xlink:href="#DejaVuSans-11" transform="translate(147.421875 0)"/>
       <use xlink:href="#DejaVuSans-13" transform="translate(179.203125 0)"/>
      </g>
     </g>
    </g>
    <g id="xtick_8">
     <g id="line2d_49">
      <path d="M 615.185123 350.700226 
L 615.185123 59.997818 
" clip-path="url(#pdf901ed479)" style="fill: none; stroke: #b0b0b0; stroke-opacity: 0.25; stroke-width: 0.8; stroke-linecap: square"/>
     </g>
     <g id="line2d_50">
      <g>
       <use xlink:href="#m92cbe0a989" x="615.185123" y="350.700226" style="stroke: #000000; stroke-width: 0.8"/>
      </g>
     </g>
     <g id="text_25">
      <!-- −1.5 -->
      <g transform="translate(599.401295 367.577179) scale(0.13 -0.13)">
       <use xlink:href="#DejaVuSans-c9c"/>
       <use xlink:href="#DejaVuSans-14" transform="translate(83.796875 0)"/>
       <use xlink:href="#DejaVuSans-11" transform="translate(147.421875 0)"/>
       <use xlink:href="#DejaVuSans-18" transform="translate(179.203125 0)"/>
      </g>
     </g>
    </g>
    <g id="xtick_9">
     <g id="line2d_51">
      <path d="M 696.642522 350.700226 
L 696.642522 59.997818 
" clip-path="url(#pdf901ed479)" style="fill: none; stroke: #b0b0b0; stroke-opacity: 0.25; stroke-width: 0.8; stroke-linecap: square"/>
     </g>
     <g id="line2d_52">
      <g>
       <use xlink:href="#m92cbe0a989" x="696.642522" y="350.700226" style="stroke: #000000; stroke-width: 0.8"/>
      </g>
     </g>
     <g id="text_26">
      <!-- −1.0 -->
      <g transform="translate(680.858694 367.577179) scale(0.13 -0.13)">
       <use xlink:href="#DejaVuSans-c9c"/>
       <use xlink:href="#DejaVuSans-14" transform="translate(83.796875 0)"/>
       <use xlink:href="#DejaVuSans-11" transform="translate(147.421875 0)"/>
       <use xlink:href="#DejaVuSans-13" transform="translate(179.203125 0)"/>
      </g>
     </g>
    </g>
    <g id="xtick_10">
     <g id="line2d_53">
      <path d="M 778.099922 350.700226 
L 778.099922 59.997818 
" clip-path="url(#pdf901ed479)" style="fill: none; stroke: #b0b0b0; stroke-opacity: 0.25; stroke-width: 0.8; stroke-linecap: square"/>
     </g>
     <g id="line2d_54">
      <g>
       <use xlink:href="#m92cbe0a989" x="778.099922" y="350.700226" style="stroke: #000000; stroke-width: 0.8"/>
      </g>
     </g>
     <g id="text_27">
      <!-- −0.5 -->
      <g transform="translate(762.316094 367.577179) scale(0.13 -0.13)">
       <use xlink:href="#DejaVuSans-c9c"/>
       <use xlink:href="#DejaVuSans-13" transform="translate(83.796875 0)"/>
       <use xlink:href="#DejaVuSans-11" transform="translate(147.421875 0)"/>
       <use xlink:href="#DejaVuSans-18" transform="translate(179.203125 0)"/>
      </g>
     </g>
    </g>
    <g id="xtick_11">
     <g id="line2d_55">
      <path d="M 859.557321 350.700226 
L 859.557321 59.997818 
" clip-path="url(#pdf901ed479)" style="fill: none; stroke: #b0b0b0; stroke-opacity: 0.25; stroke-width: 0.8; stroke-linecap: square"/>
     </g>
     <g id="line2d_56">
      <g>
       <use xlink:href="#m92cbe0a989" x="859.557321" y="350.700226" style="stroke: #000000; stroke-width: 0.8"/>
      </g>
     </g>
     <g id="text_28">
      <!-- 0.0 -->
      <g transform="translate(849.22029 367.577179) scale(0.13 -0.13)">
       <use xlink:href="#DejaVuSans-13"/>
       <use xlink:href="#DejaVuSans-11" transform="translate(63.625 0)"/>
       <use xlink:href="#DejaVuSans-13" transform="translate(95.40625 0)"/>
      </g>
     </g>
    </g>
    <g id="xtick_12">
     <g id="line2d_57">
      <path d="M 941.01472 350.700226 
L 941.01472 59.997818 
" clip-path="url(#pdf901ed479)" style="fill: none; stroke: #b0b0b0; stroke-opacity: 0.25; stroke-width: 0.8; stroke-linecap: square"/>
     </g>
     <g id="line2d_58">
      <g>
       <use xlink:href="#m92cbe0a989" x="941.01472" y="350.700226" style="stroke: #000000; stroke-width: 0.8"/>
      </g>
     </g>
     <g id="text_29">
      <!-- 0.5 -->
      <g transform="translate(930.677689 367.577179) scale(0.13 -0.13)">
       <use xlink:href="#DejaVuSans-13"/>
       <use xlink:href="#DejaVuSans-11" transform="translate(63.625 0)"/>
       <use xlink:href="#DejaVuSans-18" transform="translate(95.40625 0)"/>
      </g>
     </g>
    </g>
    <g id="text_30">
     <!-- $\Re(s)$   [1/s] -->
     <g transform="translate(710.741962 384.580226) scale(0.13 -0.13)">
      <defs>
       <path id="DejaVuSans-Oblique-abb" d="M 4006 -91 
Q 3750 481 3750 978 
Q 3750 1416 3681 1700 
Q 3556 2219 3309 2219 
Q 3178 2219 2891 2084 
L 2516 1909 
L 2516 1288 
Q 2516 644 2194 275 
Q 1872 -91 1434 -91 
Q 994 -91 675 275 
Q 353 644 353 1194 
Q 494 1156 638 1119 
Q 638 738 838 469 
Q 1038 197 1263 197 
Q 1488 197 1684 469 
Q 1884 741 1884 1209 
L 1884 3294 
Q 1884 3759 1684 4034 
Q 1488 4306 1200 4306 
Q 947 4306 744 4034 
Q 544 3766 544 3450 
Q 544 3134 744 2866 
Q 944 2594 1203 2594 
L 1372 2306 
Q 900 2306 581 2672 
Q 259 3041 259 3528 
Q 259 4019 581 4384 
Q 900 4750 1372 4750 
Q 1878 4750 2194 4384 
Q 2288 4275 2338 4175 
L 2997 4481 
Q 3581 4753 3931 4753 
Q 4078 4753 4191 4709 
Q 4584 4556 4584 4003 
Q 4584 3731 4381 3347 
Q 4175 2959 3784 2666 
Q 3966 2666 4119 2513 
Q 4231 2400 4316 2075 
Q 4416 1691 4416 1281 
Q 4416 881 4556 513 
L 5006 722 
L 5138 438 
L 4006 -91 
z
M 2450 3897 
Q 2516 3663 2516 3375 
L 2516 2241 
L 2997 2463 
Q 3447 2672 3688 2997 
Q 3919 3316 3919 3694 
Q 3919 4166 3688 4266 
Q 3613 4297 3516 4297 
Q 3316 4297 2997 4150 
L 2450 3897 
z
" transform="scale(0.015625)"/>
       <path id="DejaVuSans-Oblique-56" d="M 3200 3397 
L 3091 2853 
Q 2863 2978 2609 3040 
Q 2356 3103 2088 3103 
Q 1634 3103 1373 2948 
Q 1113 2794 1113 2528 
Q 1113 2219 1719 2053 
Q 1766 2041 1788 2034 
L 1972 1978 
Q 2547 1819 2739 1644 
Q 2931 1469 2931 1166 
Q 2931 609 2489 259 
Q 2047 -91 1331 -91 
Q 1053 -91 747 -37 
Q 441 16 72 128 
L 184 722 
Q 500 559 806 475 
Q 1113 391 1394 391 
Q 1816 391 2080 572 
Q 2344 753 2344 1031 
Q 2344 1331 1650 1516 
L 1591 1531 
L 1394 1581 
Q 956 1697 753 1886 
Q 550 2075 550 2369 
Q 550 2928 970 3256 
Q 1391 3584 2113 3584 
Q 2397 3584 2667 3537 
Q 2938 3491 3200 3397 
z
" transform="scale(0.015625)"/>
       <path id="DejaVuSans-12" d="M 1625 4666 
L 2156 4666 
L 531 -594 
L 0 -594 
L 1625 4666 
z
" transform="scale(0.015625)"/>
      </defs>
      <use xlink:href="#DejaVuSans-Oblique-abb" transform="translate(0 0.015625)"/>
      <use xlink:href="#DejaVuSans-b" transform="translate(81.396484 0.015625)"/>
      <use xlink:href="#DejaVuSans-Oblique-56" transform="translate(120.410156 0.015625)"/>
      <use xlink:href="#DejaVuSans-c" transform="translate(172.509766 0.015625)"/>
      <use xlink:href="#DejaVuSans-3" transform="translate(211.523438 0.015625)"/>
      <use xlink:href="#DejaVuSans-3" transform="translate(243.310547 0.015625)"/>
      <use xlink:href="#DejaVuSans-3" transform="translate(275.097656 0.015625)"/>
      <use xlink:href="#DejaVuSans-3e" transform="translate(306.884766 0.015625)"/>
      <use xlink:href="#DejaVuSans-14" transform="translate(345.898438 0.015625)"/>
      <use xlink:href="#DejaVuSans-12" transform="translate(409.521484 0.015625)"/>
      <use xlink:href="#DejaVuSans-56" transform="translate(443.212891 0.015625)"/>
      <use xlink:href="#DejaVuSans-40" transform="translate(495.3125 0.015625)"/>
     </g>
    </g>
   </g>
   <g id="matplotlib.axis_4">
    <g id="ytick_10">
     <g id="line2d_59">
      <path d="M 533.727724 317.15764 
L 957.3062 317.15764 
" clip-path="url(#pdf901ed479)" style="fill: none; stroke: #b0b0b0; stroke-opacity: 0.25; stroke-width: 0.8; stroke-linecap: square"/>
     </g>
     <g id="line2d_60">
      <g>
       <use xlink:href="#m4d7bb9c083" x="533.727724" y="317.15764" style="stroke: #000000; stroke-width: 0.8"/>
      </g>
     </g>
     <g id="text_31">
      <!-- −4 -->
      <g transform="translate(507.56288 322.096117) scale(0.13 -0.13)">
       <use xlink:href="#DejaVuSans-c9c"/>
       <use xlink:href="#DejaVuSans-17" transform="translate(83.796875 0)"/>
      </g>
     </g>
    </g>
    <g id="ytick_11">
     <g id="line2d_61">
      <path d="M 533.727724 261.253331 
L 957.3062 261.253331 
" clip-path="url(#pdf901ed479)" style="fill: none; stroke: #b0b0b0; stroke-opacity: 0.25; stroke-width: 0.8; stroke-linecap: square"/>
     </g>
     <g id="line2d_62">
      <g>
       <use xlink:href="#m4d7bb9c083" x="533.727724" y="261.253331" style="stroke: #000000; stroke-width: 0.8"/>
      </g>
     </g>
     <g id="text_32">
      <!-- −2 -->
      <g transform="translate(507.56288 266.191808) scale(0.13 -0.13)">
       <use xlink:href="#DejaVuSans-c9c"/>
       <use xlink:href="#DejaVuSans-15" transform="translate(83.796875 0)"/>
      </g>
     </g>
    </g>
    <g id="ytick_12">
     <g id="line2d_63">
      <path d="M 533.727724 205.349022 
L 957.3062 205.349022 
" clip-path="url(#pdf901ed479)" style="fill: none; stroke: #b0b0b0; stroke-opacity: 0.25; stroke-width: 0.8; stroke-linecap: square"/>
     </g>
     <g id="line2d_64">
      <g>
       <use xlink:href="#m4d7bb9c083" x="533.727724" y="205.349022" style="stroke: #000000; stroke-width: 0.8"/>
      </g>
     </g>
     <g id="text_33">
      <!-- 0 -->
      <g transform="translate(518.456474 210.287499) scale(0.13 -0.13)">
       <use xlink:href="#DejaVuSans-13"/>
      </g>
     </g>
    </g>
    <g id="ytick_13">
     <g id="line2d_65">
      <path d="M 533.727724 149.444713 
L 957.3062 149.444713 
" clip-path="url(#pdf901ed479)" style="fill: none; stroke: #b0b0b0; stroke-opacity: 0.25; stroke-width: 0.8; stroke-linecap: square"/>
     </g>
     <g id="line2d_66">
      <g>
       <use xlink:href="#m4d7bb9c083" x="533.727724" y="149.444713" style="stroke: #000000; stroke-width: 0.8"/>
      </g>
     </g>
     <g id="text_34">
      <!-- 2 -->
      <g transform="translate(518.456474 154.383189) scale(0.13 -0.13)">
       <use xlink:href="#DejaVuSans-15"/>
      </g>
     </g>
    </g>
    <g id="ytick_14">
     <g id="line2d_67">
      <path d="M 533.727724 93.540404 
L 957.3062 93.540404 
" clip-path="url(#pdf901ed479)" style="fill: none; stroke: #b0b0b0; stroke-opacity: 0.25; stroke-width: 0.8; stroke-linecap: square"/>
     </g>
     <g id="line2d_68">
      <g>
       <use xlink:href="#m4d7bb9c083" x="533.727724" y="93.540404" style="stroke: #000000; stroke-width: 0.8"/>
      </g>
     </g>
     <g id="text_35">
      <!-- 4 -->
      <g transform="translate(518.456474 98.47888) scale(0.13 -0.13)">
       <use xlink:href="#DejaVuSans-17"/>
      </g>
     </g>
    </g>
    <g id="text_36">
     <!-- $\omega = \Im(s)$   [rad/s] -->
     <g transform="translate(500.439833 259.429022) rotate(-90) scale(0.13 -0.13)">
      <defs>
       <path id="DejaVuSans-Oblique-35d" d="M 1369 -91 
Q 72 -91 434 1766 
Q 575 2500 1256 3500 
L 1875 3500 
Q 1231 2500 1088 1750 
Q 819 397 1519 397 
Q 2166 397 2478 2078 
L 3009 2078 
Q 2669 388 3316 397 
Q 4013 403 4275 1750 
Q 4419 2500 4169 3500 
L 4788 3500 
Q 5075 2500 4934 1766 
Q 4578 -94 3278 -91 
Q 2428 -88 2503 844 
Q 2194 -91 1369 -91 
z
" transform="scale(0.015625)"/>
       <path id="DejaVuSans-Oblique-ab0" d="M 331 281 
L 769 797 
Q 1116 919 1481 919 
Q 1659 919 2072 669 
Q 2522 400 2625 400 
Q 3003 400 3316 828 
Q 3538 1131 3538 1366 
Q 3538 1759 3344 2109 
Q 3094 2566 3094 2906 
Q 3094 3219 3344 3719 
L 4009 4156 
Q 3759 3722 3759 3344 
Q 3759 3009 4009 2547 
Q 4175 2241 4175 1653 
Q 4175 1359 3544 603 
Q 2963 -91 2206 -91 
Q 2038 -91 1634 156 
Q 1219 406 1044 406 
Q 750 406 331 281 
z
M 1094 4575 
Q 1434 4750 1875 4750 
Q 2259 4750 2656 4597 
Q 3038 4450 3438 4450 
Q 3828 4450 4219 4631 
L 3594 4100 
Q 3159 3919 2813 3919 
Q 2366 3919 2031 4072 
Q 1697 4225 1250 4225 
Q 869 4225 469 4044 
L 1094 4575 
z
" transform="scale(0.015625)"/>
      </defs>
      <use xlink:href="#DejaVuSans-Oblique-35d" transform="translate(0 0.015625)"/>
      <use xlink:href="#DejaVuSans-20" transform="translate(103.222656 0.015625)"/>
      <use xlink:href="#DejaVuSans-Oblique-ab0" transform="translate(206.494141 0.015625)"/>
      <use xlink:href="#DejaVuSans-b" transform="translate(276.220703 0.015625)"/>
      <use xlink:href="#DejaVuSans-Oblique-56" transform="translate(315.234375 0.015625)"/>
      <use xlink:href="#DejaVuSans-c" transform="translate(367.333984 0.015625)"/>
      <use xlink:href="#DejaVuSans-3" transform="translate(406.347656 0.015625)"/>
      <use xlink:href="#DejaVuSans-3" transform="translate(438.134766 0.015625)"/>
      <use xlink:href="#DejaVuSans-3" transform="translate(469.921875 0.015625)"/>
      <use xlink:href="#DejaVuSans-3e" transform="translate(501.708984 0.015625)"/>
      <use xlink:href="#DejaVuSans-55" transform="translate(540.722656 0.015625)"/>
      <use xlink:href="#DejaVuSans-44" transform="translate(581.835938 0.015625)"/>
      <use xlink:href="#DejaVuSans-47" transform="translate(643.115234 0.015625)"/>
      <use xlink:href="#DejaVuSans-12" transform="translate(706.591797 0.015625)"/>
      <use xlink:href="#DejaVuSans-56" transform="translate(740.283203 0.015625)"/>
      <use xlink:href="#DejaVuSans-40" transform="translate(792.382812 0.015625)"/>
     </g>
    </g>
   </g>
   <g id="line2d_69">
    <path d="M 745.516962 185.387191 
L 745.516962 64.169886 
L 745.516962 64.169886 
" clip-path="url(#pdf901ed479)" style="fill: none; stroke: #666666; stroke-width: 1.2; stroke-linecap: square"/>
   </g>
   <g id="line2d_70">
    <path d="M 745.516962 225.310853 
L 745.516962 346.528158 
L 745.516962 346.528158 
" clip-path="url(#pdf901ed479)" style="fill: none; stroke: #666666; stroke-width: 1.2; stroke-linecap: square"/>
   </g>
   <g id="line2d_71">
    <defs>
     <path id="mfe75a65169" d="M -6 6 
L 6 -6 
M -6 -6 
L 6 6 
" style="stroke: #56b4e9; stroke-width: 3"/>
    </defs>
    <g clip-path="url(#pdf901ed479)">
     <use xlink:href="#mfe75a65169" x="745.516962" y="177.257454" style="fill: #56b4e9; stroke: #56b4e9; stroke-width: 3"/>
     <use xlink:href="#mfe75a65169" x="745.516962" y="233.44059" style="fill: #56b4e9; stroke: #56b4e9; stroke-width: 3"/>
    </g>
   </g>
   <g id="line2d_72">
    <defs>
     <path id="m19c5e6cae3" d="M -6 6 
L 6 -6 
M -6 -6 
L 6 6 
" style="stroke: #0072b2; stroke-width: 3"/>
    </defs>
    <g clip-path="url(#pdf901ed479)">
     <use xlink:href="#m19c5e6cae3" x="745.516962" y="165.720003" style="fill: #0072b2; stroke: #0072b2; stroke-width: 3"/>
     <use xlink:href="#m19c5e6cae3" x="745.516962" y="244.978041" style="fill: #0072b2; stroke: #0072b2; stroke-width: 3"/>
    </g>
   </g>
   <g id="line2d_73">
    <defs>
     <path id="ma4261ab1ef" d="M -6 6 
L 6 -6 
M -6 -6 
L 6 6 
" style="stroke: #e69f00; stroke-width: 3"/>
    </defs>
    <g clip-path="url(#pdf901ed479)">
     <use xlink:href="#ma4261ab1ef" x="745.516962" y="134.029934" style="fill: #e69f00; stroke: #e69f00; stroke-width: 3"/>
     <use xlink:href="#ma4261ab1ef" x="745.516962" y="276.66811" style="fill: #e69f00; stroke: #e69f00; stroke-width: 3"/>
    </g>
   </g>
   <g id="line2d_74">
    <defs>
     <path id="mb297b1208f" d="M -6 6 
L 6 -6 
M -6 -6 
L 6 6 
" style="stroke: #d55e00; stroke-width: 3"/>
    </defs>
    <g clip-path="url(#pdf901ed479)">
     <use xlink:href="#mb297b1208f" x="745.516962" y="78.759395" style="fill: #d55e00; stroke: #d55e00; stroke-width: 3"/>
     <use xlink:href="#mb297b1208f" x="745.516962" y="331.938649" style="fill: #d55e00; stroke: #d55e00; stroke-width: 3"/>
    </g>
   </g>
   <g id="line2d_75">
    <path d="M 745.516962 350.700226 
L 745.516962 59.997818 
" clip-path="url(#pdf901ed479)" style="fill: none; stroke-dasharray: 1.2,1.98; stroke-dashoffset: 0; stroke: #d55e00; stroke-width: 1.2"/>
   </g>
   <g id="patch_7">
    <path d="M 533.727724 350.700226 
L 533.727724 59.997818 
" style="fill: none; stroke: #000000; stroke-width: 0.8; stroke-linejoin: miter; stroke-linecap: square"/>
   </g>
   <g id="patch_8">
    <path d="M 533.727724 350.700226 
L 957.3062 350.700226 
" style="fill: none; stroke: #000000; stroke-width: 0.8; stroke-linejoin: miter; stroke-linecap: square"/>
   </g>
   <g id="text_37">
    <!-- LHP: decay -->
    <g style="fill: #666666" transform="translate(542.199293 75.243738) scale(0.105 -0.105)">
     <defs>
      <path id="DejaVuSans-2f" d="M 628 4666 
L 1259 4666 
L 1259 531 
L 3531 531 
L 3531 0 
L 628 0 
L 628 4666 
z
" transform="scale(0.015625)"/>
      <path id="DejaVuSans-2b" d="M 628 4666 
L 1259 4666 
L 1259 2753 
L 3553 2753 
L 3553 4666 
L 4184 4666 
L 4184 0 
L 3553 0 
L 3553 2222 
L 1259 2222 
L 1259 0 
L 628 0 
L 628 4666 
z
" transform="scale(0.015625)"/>
      <path id="DejaVuSans-33" d="M 1259 4147 
L 1259 2394 
L 2053 2394 
Q 2494 2394 2734 2622 
Q 2975 2850 2975 3272 
Q 2975 3691 2734 3919 
Q 2494 4147 2053 4147 
L 1259 4147 
z
M 628 4666 
L 2053 4666 
Q 2838 4666 3239 4311 
Q 3641 3956 3641 3272 
Q 3641 2581 3239 2228 
Q 2838 1875 2053 1875 
L 1259 1875 
L 1259 0 
L 628 0 
L 628 4666 
z
" transform="scale(0.015625)"/>
      <path id="DejaVuSans-46" d="M 3122 3366 
L 3122 2828 
Q 2878 2963 2633 3030 
Q 2388 3097 2138 3097 
Q 1578 3097 1268 2742 
Q 959 2388 959 1747 
Q 959 1106 1268 751 
Q 1578 397 2138 397 
Q 2388 397 2633 464 
Q 2878 531 3122 666 
L 3122 134 
Q 2881 22 2623 -34 
Q 2366 -91 2075 -91 
Q 1284 -91 818 406 
Q 353 903 353 1747 
Q 353 2603 823 3093 
Q 1294 3584 2113 3584 
Q 2378 3584 2631 3529 
Q 2884 3475 3122 3366 
z
" transform="scale(0.015625)"/>
      <path id="DejaVuSans-5c" d="M 2059 -325 
Q 1816 -950 1584 -1140 
Q 1353 -1331 966 -1331 
L 506 -1331 
L 506 -850 
L 844 -850 
Q 1081 -850 1212 -737 
Q 1344 -625 1503 -206 
L 1606 56 
L 191 3500 
L 800 3500 
L 1894 763 
L 2988 3500 
L 3597 3500 
L 2059 -325 
z
" transform="scale(0.015625)"/>
     </defs>
     <use xlink:href="#DejaVuSans-2f"/>
     <use xlink:href="#DejaVuSans-2b" transform="translate(55.71875 0)"/>
     <use xlink:href="#DejaVuSans-33" transform="translate(130.921875 0)"/>
     <use xlink:href="#DejaVuSans-1d" transform="translate(191.21875 0)"/>
     <use xlink:href="#DejaVuSans-3" transform="translate(224.90625 0)"/>
     <use xlink:href="#DejaVuSans-47" transform="translate(256.6875 0)"/>
     <use xlink:href="#DejaVuSans-48" transform="translate(320.171875 0)"/>
     <use xlink:href="#DejaVuSans-46" transform="translate(381.703125 0)"/>
     <use xlink:href="#DejaVuSans-44" transform="translate(436.6875 0)"/>
     <use xlink:href="#DejaVuSans-5c" transform="translate(497.96875 0)"/>
    </g>
   </g>
   <g id="text_38">
    <!-- RHP: growth -->
    <g style="fill: #666666" transform="translate(883.903615 75.243738) scale(0.105 -0.105)">
     <defs>
      <path id="DejaVuSans-35" d="M 2841 2188 
Q 3044 2119 3236 1894 
Q 3428 1669 3622 1275 
L 4263 0 
L 3584 0 
L 2988 1197 
Q 2756 1666 2539 1819 
Q 2322 1972 1947 1972 
L 1259 1972 
L 1259 0 
L 628 0 
L 628 4666 
L 2053 4666 
Q 2853 4666 3247 4331 
Q 3641 3997 3641 3322 
Q 3641 2881 3436 2590 
Q 3231 2300 2841 2188 
z
M 1259 4147 
L 1259 2491 
L 2053 2491 
Q 2509 2491 2742 2702 
Q 2975 2913 2975 3322 
Q 2975 3731 2742 3939 
Q 2509 4147 2053 4147 
L 1259 4147 
z
" transform="scale(0.015625)"/>
      <path id="DejaVuSans-4a" d="M 2906 1791 
Q 2906 2416 2648 2759 
Q 2391 3103 1925 3103 
Q 1463 3103 1205 2759 
Q 947 2416 947 1791 
Q 947 1169 1205 825 
Q 1463 481 1925 481 
Q 2391 481 2648 825 
Q 2906 1169 2906 1791 
z
M 3481 434 
Q 3481 -459 3084 -895 
Q 2688 -1331 1869 -1331 
Q 1566 -1331 1297 -1286 
Q 1028 -1241 775 -1147 
L 775 -588 
Q 1028 -725 1275 -790 
Q 1522 -856 1778 -856 
Q 2344 -856 2625 -561 
Q 2906 -266 2906 331 
L 2906 616 
Q 2728 306 2450 153 
Q 2172 0 1784 0 
Q 1141 0 747 490 
Q 353 981 353 1791 
Q 353 2603 747 3093 
Q 1141 3584 1784 3584 
Q 2172 3584 2450 3431 
Q 2728 3278 2906 2969 
L 2906 3500 
L 3481 3500 
L 3481 434 
z
" transform="scale(0.015625)"/>
      <path id="DejaVuSans-5a" d="M 269 3500 
L 844 3500 
L 1563 769 
L 2278 3500 
L 2956 3500 
L 3675 769 
L 4391 3500 
L 4966 3500 
L 4050 0 
L 3372 0 
L 2619 2869 
L 1863 0 
L 1184 0 
L 269 3500 
z
" transform="scale(0.015625)"/>
      <path id="DejaVuSans-4b" d="M 3513 2113 
L 3513 0 
L 2938 0 
L 2938 2094 
Q 2938 2591 2744 2837 
Q 2550 3084 2163 3084 
Q 1697 3084 1428 2787 
Q 1159 2491 1159 1978 
L 1159 0 
L 581 0 
L 581 4863 
L 1159 4863 
L 1159 2956 
Q 1366 3272 1645 3428 
Q 1925 3584 2291 3584 
Q 2894 3584 3203 3211 
Q 3513 2838 3513 2113 
z
" transform="scale(0.015625)"/>
     </defs>
     <use xlink:href="#DejaVuSans-35"/>
     <use xlink:href="#DejaVuSans-2b" transform="translate(69.484375 0)"/>
     <use xlink:href="#DejaVuSans-33" transform="translate(144.6875 0)"/>
     <use xlink:href="#DejaVuSans-1d" transform="translate(204.984375 0)"/>
     <use xlink:href="#DejaVuSans-3" transform="translate(238.671875 0)"/>
     <use xlink:href="#DejaVuSans-4a" transform="translate(270.453125 0)"/>
     <use xlink:href="#DejaVuSans-55" transform="translate(333.9375 0)"/>
     <use xlink:href="#DejaVuSans-52" transform="translate(372.84375 0)"/>
     <use xlink:href="#DejaVuSans-5a" transform="translate(434.03125 0)"/>
     <use xlink:href="#DejaVuSans-57" transform="translate(515.8125 0)"/>
     <use xlink:href="#DejaVuSans-4b" transform="translate(555.015625 0)"/>
    </g>
   </g>
   <g id="text_39">
    <!-- $\Re(s)=-a_1/2$ -->
    <g style="fill: #d55e00" transform="translate(748.775258 339.519364) scale(0.105 -0.105)">
     <defs>
      <path id="DejaVuSans-Oblique-44" d="M 3438 1997 
L 3047 0 
L 2472 0 
L 2578 531 
Q 2325 219 2001 64 
Q 1678 -91 1281 -91 
Q 834 -91 548 182 
Q 263 456 263 884 
Q 263 1497 752 1853 
Q 1241 2209 2100 2209 
L 2900 2209 
L 2931 2363 
Q 2938 2388 2941 2417 
Q 2944 2447 2944 2509 
Q 2944 2788 2717 2942 
Q 2491 3097 2081 3097 
Q 1800 3097 1504 3025 
Q 1209 2953 897 2809 
L 997 3341 
Q 1322 3463 1633 3523 
Q 1944 3584 2234 3584 
Q 2853 3584 3176 3315 
Q 3500 3047 3500 2534 
Q 3500 2431 3484 2292 
Q 3469 2153 3438 1997 
z
M 2816 1759 
L 2241 1759 
Q 1534 1759 1195 1570 
Q 856 1381 856 984 
Q 856 709 1029 553 
Q 1203 397 1509 397 
Q 1978 397 2328 733 
Q 2678 1069 2791 1631 
L 2816 1759 
z
" transform="scale(0.015625)"/>
     </defs>
     <use xlink:href="#DejaVuSans-Oblique-abb" transform="translate(0 0.125)"/>
     <use xlink:href="#DejaVuSans-b" transform="translate(81.396484 0.125)"/>
     <use xlink:href="#DejaVuSans-Oblique-56" transform="translate(120.410156 0.125)"/>
     <use xlink:href="#DejaVuSans-c" transform="translate(172.509766 0.125)"/>
     <use xlink:href="#DejaVuSans-20" transform="translate(231.005859 0.125)"/>
     <use xlink:href="#DejaVuSans-c9c" transform="translate(334.277344 0.125)"/>
     <use xlink:href="#DejaVuSans-Oblique-44" transform="translate(418.066406 0.125)"/>
     <use xlink:href="#DejaVuSans-14" transform="translate(479.345703 -14.874951) scale(0.7)"/>
     <use xlink:href="#DejaVuSans-12" transform="translate(526.616211 0.125)"/>
     <use xlink:href="#DejaVuSans-15" transform="translate(560.307617 0.125)"/>
    </g>
   </g>
   <g id="text_40">
    <!-- Closed-loop poles as $k_P$ rises -->
    <g transform="translate(638.266962 53.997818) scale(0.15 -0.15)">
     <defs>
      <path id="DejaVuSans-26" d="M 4122 4306 
L 4122 3641 
Q 3803 3938 3442 4084 
Q 3081 4231 2675 4231 
Q 1875 4231 1450 3742 
Q 1025 3253 1025 2328 
Q 1025 1406 1450 917 
Q 1875 428 2675 428 
Q 3081 428 3442 575 
Q 3803 722 4122 1019 
L 4122 359 
Q 3791 134 3420 21 
Q 3050 -91 2638 -91 
Q 1578 -91 968 557 
Q 359 1206 359 2328 
Q 359 3453 968 4101 
Q 1578 4750 2638 4750 
Q 3056 4750 3426 4639 
Q 3797 4528 4122 4306 
z
" transform="scale(0.015625)"/>
      <path id="DejaVuSans-10" d="M 313 2009 
L 1997 2009 
L 1997 1497 
L 313 1497 
L 313 2009 
z
" transform="scale(0.015625)"/>
     </defs>
     <use xlink:href="#DejaVuSans-26" transform="translate(0 0.015625)"/>
     <use xlink:href="#DejaVuSans-4f" transform="translate(69.824219 0.015625)"/>
     <use xlink:href="#DejaVuSans-52" transform="translate(97.607422 0.015625)"/>
     <use xlink:href="#DejaVuSans-56" transform="translate(158.789062 0.015625)"/>
     <use xlink:href="#DejaVuSans-48" transform="translate(210.888672 0.015625)"/>
     <use xlink:href="#DejaVuSans-47" transform="translate(272.412109 0.015625)"/>
     <use xlink:href="#DejaVuSans-10" transform="translate(335.888672 0.015625)"/>
     <use xlink:href="#DejaVuSans-4f" transform="translate(371.972656 0.015625)"/>
     <use xlink:href="#DejaVuSans-52" transform="translate(399.755859 0.015625)"/>
     <use xlink:href="#DejaVuSans-52" transform="translate(460.9375 0.015625)"/>
     <use xlink:href="#DejaVuSans-53" transform="translate(522.119141 0.015625)"/>
     <use xlink:href="#DejaVuSans-3" transform="translate(585.595703 0.015625)"/>
     <use xlink:href="#DejaVuSans-53" transform="translate(617.382812 0.015625)"/>
     <use xlink:href="#DejaVuSans-52" transform="translate(680.859375 0.015625)"/>
     <use xlink:href="#DejaVuSans-4f" transform="translate(742.041016 0.015625)"/>
     <use xlink:href="#DejaVuSans-48" transform="translate(769.824219 0.015625)"/>
     <use xlink:href="#DejaVuSans-56" transform="translate(831.347656 0.015625)"/>
     <use xlink:href="#DejaVuSans-3" transform="translate(883.447266 0.015625)"/>
     <use xlink:href="#DejaVuSans-44" transform="translate(915.234375 0.015625)"/>
     <use xlink:href="#DejaVuSans-56" transform="translate(976.513672 0.015625)"/>
     <use xlink:href="#DejaVuSans-3" transform="translate(1028.613281 0.015625)"/>
     <use xlink:href="#DejaVuSans-Oblique-4e" transform="translate(1060.400391 0.015625)"/>
     <use xlink:href="#DejaVuSans-Oblique-33" transform="translate(1118.310547 -14.984326) scale(0.7)"/>
     <use xlink:href="#DejaVuSans-3" transform="translate(1163.256836 0.015625)"/>
     <use xlink:href="#DejaVuSans-55" transform="translate(1195.043945 0.015625)"/>
     <use xlink:href="#DejaVuSans-4c" transform="translate(1236.157227 0.015625)"/>
     <use xlink:href="#DejaVuSans-56" transform="translate(1263.94043 0.015625)"/>
     <use xlink:href="#DejaVuSans-48" transform="translate(1316.040039 0.015625)"/>
     <use xlink:href="#DejaVuSans-56" transform="translate(1377.563477 0.015625)"/>
    </g>
   </g>
  </g>
  <g id="text_41">
   <!-- Proportional control: less error, less damping -->
   <g transform="translate(313.33956 18.597656) scale(0.15 -0.15)">
    <defs>
     <path id="DejaVuSans-f" d="M 750 794 
L 1409 794 
L 1409 256 
L 897 -744 
L 494 -744 
L 750 256 
L 750 794 
z
" transform="scale(0.015625)"/>
    </defs>
    <use xlink:href="#DejaVuSans-33"/>
    <use xlink:href="#DejaVuSans-55" transform="translate(58.546875 0)"/>
    <use xlink:href="#DejaVuSans-52" transform="translate(97.453125 0)"/>
    <use xlink:href="#DejaVuSans-53" transform="translate(158.640625 0)"/>
    <use xlink:href="#DejaVuSans-52" transform="translate(222.125 0)"/>
    <use xlink:href="#DejaVuSans-55" transform="translate(283.3125 0)"/>
    <use xlink:href="#DejaVuSans-57" transform="translate(324.421875 0)"/>
    <use xlink:href="#DejaVuSans-4c" transform="translate(363.625 0)"/>
    <use xlink:href="#DejaVuSans-52" transform="translate(391.40625 0)"/>
    <use xlink:href="#DejaVuSans-51" transform="translate(452.59375 0)"/>
    <use xlink:href="#DejaVuSans-44" transform="translate(515.96875 0)"/>
    <use xlink:href="#DejaVuSans-4f" transform="translate(577.25 0)"/>
    <use xlink:href="#DejaVuSans-3" transform="translate(605.03125 0)"/>
    <use xlink:href="#DejaVuSans-46" transform="translate(636.8125 0)"/>
    <use xlink:href="#DejaVuSans-52" transform="translate(691.796875 0)"/>
    <use xlink:href="#DejaVuSans-51" transform="translate(752.984375 0)"/>
    <use xlink:href="#DejaVuSans-57" transform="translate(816.359375 0)"/>
    <use xlink:href="#DejaVuSans-55" transform="translate(855.5625 0)"/>
    <use xlink:href="#DejaVuSans-52" transform="translate(894.46875 0)"/>
    <use xlink:href="#DejaVuSans-4f" transform="translate(955.65625 0)"/>
    <use xlink:href="#DejaVuSans-1d" transform="translate(983.4375 0)"/>
    <use xlink:href="#DejaVuSans-3" transform="translate(1017.125 0)"/>
    <use xlink:href="#DejaVuSans-4f" transform="translate(1048.90625 0)"/>
    <use xlink:href="#DejaVuSans-48" transform="translate(1076.6875 0)"/>
    <use xlink:href="#DejaVuSans-56" transform="translate(1138.21875 0)"/>
    <use xlink:href="#DejaVuSans-56" transform="translate(1190.3125 0)"/>
    <use xlink:href="#DejaVuSans-3" transform="translate(1242.40625 0)"/>
    <use xlink:href="#DejaVuSans-48" transform="translate(1274.1875 0)"/>
    <use xlink:href="#DejaVuSans-55" transform="translate(1335.71875 0)"/>
    <use xlink:href="#DejaVuSans-55" transform="translate(1375.078125 0)"/>
    <use xlink:href="#DejaVuSans-52" transform="translate(1413.984375 0)"/>
    <use xlink:href="#DejaVuSans-55" transform="translate(1475.171875 0)"/>
    <use xlink:href="#DejaVuSans-f" transform="translate(1516.28125 0)"/>
    <use xlink:href="#DejaVuSans-3" transform="translate(1548.0625 0)"/>
    <use xlink:href="#DejaVuSans-4f" transform="translate(1579.84375 0)"/>
    <use xlink:href="#DejaVuSans-48" transform="translate(1607.625 0)"/>
    <use xlink:href="#DejaVuSans-56" transform="translate(1669.15625 0)"/>
    <use xlink:href="#DejaVuSans-56" transform="translate(1721.25 0)"/>
    <use xlink:href="#DejaVuSans-3" transform="translate(1773.34375 0)"/>
    <use xlink:href="#DejaVuSans-47" transform="translate(1805.125 0)"/>
    <use xlink:href="#DejaVuSans-44" transform="translate(1868.609375 0)"/>
    <use xlink:href="#DejaVuSans-50" transform="translate(1929.890625 0)"/>
    <use xlink:href="#DejaVuSans-53" transform="translate(2027.296875 0)"/>
    <use xlink:href="#DejaVuSans-4c" transform="translate(2090.78125 0)"/>
    <use xlink:href="#DejaVuSans-51" transform="translate(2118.5625 0)"/>
    <use xlink:href="#DejaVuSans-4a" transform="translate(2181.9375 0)"/>
   </g>
  </g>
 </g>
 <defs>
  <clipPath id="pf21609a99f">
   <rect x="51.877109" y="59.997818" width="423.578477" height="290.702408"/>
  </clipPath>
  <clipPath id="pdf901ed479">
   <rect x="533.727724" y="59.997818" width="423.578477" height="290.702408"/>
  </clipPath>
 </defs>
</svg>
