<?xml version="1.0" encoding="utf-8" standalone="no"?>
<!DOCTYPE svg PUBLIC "-//W3C//DTD SVG 1.1//EN"
  "http://www.w3.org/Graphics/SVG/1.1/DTD/svg11.dtd">
<svg xmlns:xlink="http://www.w3.org/1999/xlink" width="965.04848pt" height="409.609016pt" viewBox="0 0 965.04848 409.609016" xmlns="http://www.w3.org/2000/svg" version="1.1">
 <metadata>
  <rdf:RDF xmlns:dc="http://purl.org/dc/elements/1.1/" xmlns:cc="http://creativecommons.org/ns#" xmlns:rdf="http://www.w3.org/1999/02/22-rdf-syntax-ns#">
   <cc:Work>
    <dc:type rdf:resource="http://purl.org/dc/dcmitype/StillImage"/>
    <dc:date>2026-09-17T04:48:45.029065</dc:date>
    <dc:format>image/svg+xml</dc:format>
    <dc:creator>
     <cc:Agent>
      <dc:title>Matplotlib v3.11.2, https://matplotlib.org/</dc:title>
     </cc:Agent>
    </dc:creator>
   </cc:Work>
  </rdf:RDF>
 </metadata>
 <defs>
  <style type="text/css">*{stroke-linejoin: round; stroke-linecap: butt}</style>
 </defs>
 <g id="figure_1">
  <g id="patch_1">
   <path d="M 0 409.609016 
L 965.04848 409.609016 
L 965.04848 0 
L 0 0 
z
" style="fill: #ffffff"/>
  </g>
  <g id="axes_1">
   <g id="patch_2">
    <path d="M 50.364844 365.408 
L 470.359389 365.408 
L 470.359389 59.709818 
L 50.364844 59.709818 
z
" style="fill: #ffffff"/>
   </g>
   <g id="QuadContourSet_1">
    <path d="M 65.945287 343.244882 
L 67.977518 343.244882 
L 68.993634 342.480636 
L 70.00975 341.716391 
L 71.025866 340.952145 
L 72.041982 340.1879 
L 74.074213 340.1879 
L 75.090329 339.423655 
L 76.106445 338.659409 
L 77.122561 337.895164 
L 78.138677 337.130918 
L 80.170908 337.130918 
L 81.187024 336.366673 
L 82.20314 335.602427 
L 83.219256 334.838182 
L 84.235372 334.073936 
L 86.267603 334.073936 
L 87.283719 333.309691 
L 88.299835 332.545445 
L 89.315951 331.7812 
L 90.332067 331.016955 
L 92.364298 331.016955 
L 93.380414 330.252709 
L 94.39653 329.488464 
L 95.412646 328.724218 
L 96.428762 327.959973 
L 98.460993 327.959973 
L 99.477109 327.195727 
L 100.493225 326.431482 
L 101.509341 325.667236 
L 102.525457 324.902991 
L 104.557688 324.902991 
L 105.573804 324.138745 
L 106.58992 323.3745 
L 107.606036 322.610255 
L 108.622152 321.846009 
L 110.654383 321.846009 
L 111.670499 321.081764 
L 112.686615 320.317518 
L 113.702731 319.553273 
L 114.718847 318.789027 
L 116.751078 318.789027 
L 117.767194 318.024782 
L 118.78331 317.260536 
L 119.799426 316.496291 
L 120.815542 315.732045 
L 122.847773 315.732045 
L 123.863889 314.9678 
L 124.880005 314.203555 
L 125.896121 313.439309 
L 126.912237 312.675064 
L 128.944468 312.675064 
L 129.960584 311.910818 
L 130.9767 311.146573 
L 131.992816 310.382327 
L 133.008932 309.618082 
L 135.041163 309.618082 
L 136.057279 308.853836 
L 137.073395 308.089591 
L 138.089511 307.325345 
L 139.105627 306.5611 
L 141.137858 306.5611 
L 142.153974 305.796855 
L 143.17009 305.032609 
L 144.186206 304.268364 
L 145.202322 303.504118 
L 147.234553 303.504118 
L 148.250669 302.739873 
L 149.266785 301.975627 
L 150.282901 301.211382 
L 151.299017 300.447136 
L 153.331248 300.447136 
L 154.347364 299.682891 
L 155.36348 298.918645 
L 156.379596 298.1544 
L 157.395712 297.390155 
L 159.427943 297.390155 
L 160.444059 296.625909 
L 161.460175 295.861664 
L 162.476291 295.097418 
L 163.492407 294.333173 
L 165.524638 294.333173 
L 166.540754 293.568927 
L 167.55687 292.804682 
L 168.572986 292.040436 
L 169.589102 291.276191 
L 171.621333 291.276191 
L 172.637449 290.511945 
L 173.653565 289.7477 
L 174.669681 288.983455 
L 175.685797 288.219209 
L 177.718029 288.219209 
L 178.734144 287.454964 
L 179.75026 286.690718 
L 180.766376 285.926473 
L 181.782492 285.162227 
L 183.814724 285.162227 
L 184.830839 284.397982 
L 185.846955 283.633736 
L 186.863071 282.869491 
L 187.879187 282.105245 
L 189.911419 282.105245 
L 190.927534 281.341 
L 191.94365 280.576755 
L 192.959766 279.812509 
L 193.975882 279.048264 
L 196.008114 279.048264 
L 197.024229 278.284018 
L 198.040345 277.519773 
L 199.056461 276.755527 
L 200.072577 275.991282 
L 202.104809 275.991282 
L 203.120924 275.227036 
L 204.13704 274.462791 
L 205.153156 273.698545 
L 206.169272 272.9343 
L 208.201504 272.9343 
L 209.217619 272.170055 
L 210.233735 271.405809 
L 211.249851 270.641564 
L 212.265967 269.877318 
L 214.298199 269.877318 
L 215.314314 269.113073 
L 216.33043 268.348827 
L 217.346546 267.584582 
L 218.362662 266.820336 
L 220.394894 266.820336 
L 221.411009 266.056091 
L 222.427125 265.291845 
L 223.443241 264.5276 
L 224.459357 263.763355 
L 226.491589 263.763355 
L 227.507704 262.999109 
L 228.52382 262.234864 
L 229.539936 261.470618 
L 230.556052 260.706373 
L 232.588284 260.706373 
L 233.604399 259.942127 
L 234.620515 259.177882 
L 235.636631 258.413636 
L 236.652747 257.649391 
L 238.684979 257.649391 
L 239.701094 256.885145 
L 240.71721 256.1209 
L 241.733326 255.356655 
L 242.749442 254.592409 
L 244.781674 254.592409 
L 245.797789 253.828164 
L 246.813905 253.063918 
L 247.830021 252.299673 
L 248.846137 251.535427 
L 250.878369 251.535427 
L 251.894485 250.771182 
L 252.9106 250.006936 
L 253.926716 249.242691 
L 254.942832 248.478445 
L 256.975064 248.478445 
L 257.99118 247.7142 
L 259.007295 246.949955 
L 260.023411 246.185709 
L 261.039527 245.421464 
L 263.071759 245.421464 
L 264.087875 244.657218 
L 265.10399 243.892973 
L 266.120106 243.128727 
L 267.136222 242.364482 
L 269.168454 242.364482 
L 270.18457 241.600236 
L 271.200685 240.835991 
L 272.216801 240.071745 
L 273.232917 239.3075 
L 275.265149 239.3075 
L 276.281265 238.543255 
L 277.29738 237.779009 
L 278.313496 237.014764 
L 279.329612 236.250518 
L 281.361844 236.250518 
L 282.37796 235.486273 
L 283.394075 234.722027 
L 284.410191 233.957782 
L 285.426307 233.193536 
L 287.458539 233.193536 
L 288.474655 232.429291 
L 289.49077 231.665045 
L 290.506886 230.9008 
L 291.523002 230.136555 
L 293.555234 230.136555 
L 294.57135 229.372309 
L 295.587465 228.608064 
L 296.603581 227.843818 
L 297.619697 227.079573 
L 299.651929 227.079573 
L 300.668045 226.315327 
L 301.68416 225.551082 
L 302.700276 224.786836 
L 303.716392 224.022591 
L 305.748624 224.022591 
L 306.76474 223.258345 
L 307.780855 222.4941 
L 308.796971 221.729855 
L 309.813087 220.965609 
L 311.845319 220.965609 
L 312.861435 220.201364 
L 313.87755 219.437118 
L 314.893666 218.672873 
L 315.909782 217.908627 
L 317.942014 217.908627 
L 318.95813 217.144382 
L 319.974246 216.380136 
L 320.990361 215.615891 
L 322.006477 214.851645 
L 324.038709 214.851645 
L 325.054825 214.0874 
L 326.070941 213.323155 
L 327.087056 212.558909 
L 328.103172 211.794664 
L 330.135404 211.794664 
L 331.15152 211.030418 
L 332.167636 210.266173 
L 333.183751 209.501927 
L 334.199867 208.737682 
L 336.232099 208.737682 
L 337.248215 207.973436 
L 338.264331 207.209191 
L 339.280446 206.444945 
L 340.296562 205.6807 
L 342.328794 205.6807 
L 343.34491 204.916455 
L 344.361026 204.152209 
L 345.377141 203.387964 
L 346.393257 202.623718 
L 348.425489 202.623718 
L 349.441605 201.859473 
L 350.457721 201.095227 
L 351.473836 200.330982 
L 352.489952 199.566736 
L 354.522184 199.566736 
L 355.5383 198.802491 
L 356.554416 198.038245 
L 357.570531 197.274 
L 358.586647 196.509755 
L 360.618879 196.509755 
L 361.634995 195.745509 
L 362.651111 194.981264 
L 363.667226 194.217018 
L 364.683342 193.452773 
L 366.715574 193.452773 
L 367.73169 192.688527 
L 368.747806 191.924282 
L 369.763921 191.160036 
L 370.780037 190.395791 
L 372.812269 190.395791 
L 373.828385 189.631545 
L 374.844501 188.8673 
L 375.860616 188.103055 
L 376.876732 187.338809 
L 378.908964 187.338809 
L 379.92508 186.574564 
L 380.941196 185.810318 
L 381.957311 185.046073 
L 382.973427 184.281827 
L 385.005659 184.281827 
L 386.021775 183.517582 
L 387.037891 182.753336 
L 388.054007 181.989091 
L 389.070122 181.224845 
L 391.102354 181.224845 
L 392.11847 180.4606 
L 393.134586 179.696355 
L 394.150702 178.932109 
L 395.166817 178.167864 
L 397.199049 178.167864 
L 398.215165 177.403618 
L 399.231281 176.639373 
L 400.247397 175.875127 
L 401.263512 175.110882 
L 403.295744 175.110882 
L 404.31186 174.346636 
L 405.327976 173.582391 
L 406.344092 172.818145 
L 407.360207 172.0539 
L 409.392439 172.0539 
L 410.408555 171.289655 
L 411.424671 170.525409 
L 412.440787 169.761164 
L 413.456902 168.996918 
L 415.489134 168.996918 
L 416.50525 168.232673 
L 417.521366 167.468427 
L 418.537482 166.704182 
L 419.553597 165.939936 
L 421.585829 165.939936 
L 422.601945 165.175691 
L 423.618061 164.411445 
L 424.634177 163.6472 
L 425.650292 162.882955 
L 427.682524 162.882955 
L 428.69864 162.118709 
L 429.714756 161.354464 
L 430.730872 160.590218 
L 431.746987 159.825973 
L 433.779219 159.825973 
L 434.795335 159.061727 
L 435.811451 158.297482 
L 436.827567 157.533236 
L 437.843682 156.768991 
L 439.875914 156.768991 
L 440.89203 156.004745 
L 441.908146 155.2405 
L 442.924262 154.476255 
L 443.940377 153.712009 
L 445.972609 153.712009 
L 446.988725 152.947764 
L 448.004841 152.183518 
L 449.020957 151.419273 
L 450.037072 150.655027 
L 452.069304 150.655027 
L 453.08542 149.890782 
L 454.101536 149.126536 
L 455.117652 148.362291 
L 456.133768 147.598045 
L 458.165999 147.598045 
L 459.182115 146.8338 
L 460.198231 146.069555 
L 461.214347 145.305309 
L 462.230463 144.541064 
L 464.262694 144.541064 
L 465.27881 143.776818 
L 466.294926 143.012573 
L 467.311042 142.248327 
L 468.327158 141.484082 
L 470.359389 141.484082 
L 470.359389 140.719836 
L 470.359389 139.191345 
L 470.359389 137.662855 
L 470.359389 136.134364 
L 470.359389 134.605873 
L 470.359389 133.077382 
L 470.359389 131.548891 
L 470.359389 130.0204 
L 470.359389 128.491909 
L 470.359389 126.963418 
L 470.359389 125.434927 
L 470.359389 123.906436 
L 470.359389 122.377945 
L 470.359389 120.849455 
L 470.359389 119.320964 
L 470.359389 117.792473 
L 470.359389 116.263982 
L 470.359389 114.735491 
L 470.359389 113.207 
L 470.359389 111.678509 
L 470.359389 110.150018 
L 470.359389 108.621527 
L 470.359389 107.093036 
L 470.359389 105.564545 
L 470.359389 104.036055 
L 470.359389 102.507564 
L 470.359389 100.979073 
L 470.359389 99.450582 
L 470.359389 97.922091 
L 470.359389 96.3936 
L 470.359389 94.865109 
L 470.359389 93.336618 
L 470.359389 91.808127 
L 470.359389 90.279636 
L 470.359389 88.751145 
L 470.359389 87.222655 
L 470.359389 85.694164 
L 470.359389 84.165673 
L 470.359389 82.637182 
L 470.359389 81.108691 
L 470.359389 79.5802 
L 470.359389 78.051709 
L 470.359389 76.523218 
L 470.359389 74.994727 
L 470.359389 73.466236 
L 470.359389 71.937745 
L 470.359389 70.409255 
L 470.359389 68.880764 
L 470.359389 67.352273 
L 470.359389 65.823782 
L 470.359389 64.295291 
L 470.359389 62.7668 
L 470.359389 61.238309 
L 470.359389 59.709818 
L 468.327158 59.709818 
L 466.294926 59.709818 
L 464.262694 59.709818 
L 462.230463 59.709818 
L 460.198231 59.709818 
L 458.165999 59.709818 
L 456.133768 59.709818 
L 454.101536 59.709818 
L 452.069304 59.709818 
L 450.037072 59.709818 
L 448.004841 59.709818 
L 445.972609 59.709818 
L 443.940377 59.709818 
L 441.908146 59.709818 
L 439.875914 59.709818 
L 437.843682 59.709818 
L 435.811451 59.709818 
L 433.779219 59.709818 
L 431.746987 59.709818 
L 429.714756 59.709818 
L 427.682524 59.709818 
L 425.650292 59.709818 
L 423.618061 59.709818 
L 421.585829 59.709818 
L 419.553597 59.709818 
L 417.521366 59.709818 
L 415.489134 59.709818 
L 413.456902 59.709818 
L 411.424671 59.709818 
L 409.392439 59.709818 
L 407.360207 59.709818 
L 405.327976 59.709818 
L 403.295744 59.709818 
L 401.263512 59.709818 
L 399.231281 59.709818 
L 397.199049 59.709818 
L 395.166817 59.709818 
L 393.134586 59.709818 
L 391.102354 59.709818 
L 389.070122 59.709818 
L 387.037891 59.709818 
L 385.005659 59.709818 
L 382.973427 59.709818 
L 380.941196 59.709818 
L 378.908964 59.709818 
L 376.876732 59.709818 
L 374.844501 59.709818 
L 372.812269 59.709818 
L 370.780037 59.709818 
L 368.747806 59.709818 
L 366.715574 59.709818 
L 364.683342 59.709818 
L 362.651111 59.709818 
L 360.618879 59.709818 
L 358.586647 59.709818 
L 356.554416 59.709818 
L 354.522184 59.709818 
L 352.489952 59.709818 
L 350.457721 59.709818 
L 348.425489 59.709818 
L 346.393257 59.709818 
L 344.361026 59.709818 
L 342.328794 59.709818 
L 340.296562 59.709818 
L 338.264331 59.709818 
L 336.232099 59.709818 
L 334.199867 59.709818 
L 332.167636 59.709818 
L 330.135404 59.709818 
L 328.103172 59.709818 
L 326.070941 59.709818 
L 324.038709 59.709818 
L 322.006477 59.709818 
L 319.974246 59.709818 
L 317.942014 59.709818 
L 315.909782 59.709818 
L 313.87755 59.709818 
L 311.845319 59.709818 
L 309.813087 59.709818 
L 307.780855 59.709818 
L 305.748624 59.709818 
L 303.716392 59.709818 
L 301.68416 59.709818 
L 299.651929 59.709818 
L 297.619697 59.709818 
L 295.587465 59.709818 
L 293.555234 59.709818 
L 291.523002 59.709818 
L 289.49077 59.709818 
L 287.458539 59.709818 
L 285.426307 59.709818 
L 283.394075 59.709818 
L 281.361844 59.709818 
L 279.329612 59.709818 
L 277.29738 59.709818 
L 275.265149 59.709818 
L 273.232917 59.709818 
L 271.200685 59.709818 
L 269.168454 59.709818 
L 267.136222 59.709818 
L 265.10399 59.709818 
L 263.071759 59.709818 
L 261.039527 59.709818 
L 259.007295 59.709818 
L 256.975064 59.709818 
L 254.942832 59.709818 
L 252.9106 59.709818 
L 250.878369 59.709818 
L 248.846137 59.709818 
L 246.813905 59.709818 
L 244.781674 59.709818 
L 242.749442 59.709818 
L 240.71721 59.709818 
L 238.684979 59.709818 
L 236.652747 59.709818 
L 234.620515 59.709818 
L 232.588284 59.709818 
L 230.556052 59.709818 
L 228.52382 59.709818 
L 226.491589 59.709818 
L 224.459357 59.709818 
L 222.427125 59.709818 
L 220.394894 59.709818 
L 218.362662 59.709818 
L 216.33043 59.709818 
L 214.298199 59.709818 
L 212.265967 59.709818 
L 210.233735 59.709818 
L 208.201504 59.709818 
L 206.169272 59.709818 
L 204.13704 59.709818 
L 202.104809 59.709818 
L 200.072577 59.709818 
L 198.040345 59.709818 
L 196.008114 59.709818 
L 193.975882 59.709818 
L 191.94365 59.709818 
L 189.911419 59.709818 
L 187.879187 59.709818 
L 185.846955 59.709818 
L 183.814724 59.709818 
L 181.782492 59.709818 
L 179.75026 59.709818 
L 177.718029 59.709818 
L 175.685797 59.709818 
L 173.653565 59.709818 
L 171.621333 59.709818 
L 169.589102 59.709818 
L 167.55687 59.709818 
L 165.524638 59.709818 
L 163.492407 59.709818 
L 161.460175 59.709818 
L 159.427943 59.709818 
L 157.395712 59.709818 
L 155.36348 59.709818 
L 153.331248 59.709818 
L 151.299017 59.709818 
L 149.266785 59.709818 
L 147.234553 59.709818 
L 145.202322 59.709818 
L 143.17009 59.709818 
L 141.137858 59.709818 
L 139.105627 59.709818 
L 137.073395 59.709818 
L 135.041163 59.709818 
L 133.008932 59.709818 
L 130.9767 59.709818 
L 128.944468 59.709818 
L 126.912237 59.709818 
L 124.880005 59.709818 
L 122.847773 59.709818 
L 120.815542 59.709818 
L 118.78331 59.709818 
L 116.751078 59.709818 
L 114.718847 59.709818 
L 112.686615 59.709818 
L 110.654383 59.709818 
L 108.622152 59.709818 
L 106.58992 59.709818 
L 104.557688 59.709818 
L 102.525457 59.709818 
L 100.493225 59.709818 
L 98.460993 59.709818 
L 96.428762 59.709818 
L 94.39653 59.709818 
L 92.364298 59.709818 
L 90.332067 59.709818 
L 88.299835 59.709818 
L 86.267603 59.709818 
L 84.235372 59.709818 
L 82.20314 59.709818 
L 80.170908 59.709818 
L 78.138677 59.709818 
L 76.106445 59.709818 
L 74.074213 59.709818 
L 72.041982 59.709818 
L 70.00975 59.709818 
L 67.977518 59.709818 
L 65.945287 59.709818 
L 64.929171 59.709818 
L 64.929171 61.238309 
L 64.929171 62.7668 
L 64.929171 64.295291 
L 64.929171 65.823782 
L 64.929171 67.352273 
L 64.929171 68.880764 
L 64.929171 70.409255 
L 64.929171 71.937745 
L 64.929171 73.466236 
L 64.929171 74.994727 
L 64.929171 76.523218 
L 64.929171 78.051709 
L 64.929171 79.5802 
L 64.929171 81.108691 
L 64.929171 82.637182 
L 64.929171 84.165673 
L 64.929171 85.694164 
L 64.929171 87.222655 
L 64.929171 88.751145 
L 64.929171 90.279636 
L 64.929171 91.808127 
L 64.929171 93.336618 
L 64.929171 94.865109 
L 64.929171 96.3936 
L 64.929171 97.922091 
L 64.929171 99.450582 
L 64.929171 100.979073 
L 64.929171 102.507564 
L 64.929171 104.036055 
L 64.929171 105.564545 
L 64.929171 107.093036 
L 64.929171 108.621527 
L 64.929171 110.150018 
L 64.929171 111.678509 
L 64.929171 113.207 
L 64.929171 114.735491 
L 64.929171 116.263982 
L 64.929171 117.792473 
L 64.929171 119.320964 
L 64.929171 120.849455 
L 64.929171 122.377945 
L 64.929171 123.906436 
L 64.929171 125.434927 
L 64.929171 126.963418 
L 64.929171 128.491909 
L 64.929171 130.0204 
L 64.929171 131.548891 
L 64.929171 133.077382 
L 64.929171 134.605873 
L 64.929171 136.134364 
L 64.929171 137.662855 
L 64.929171 139.191345 
L 64.929171 140.719836 
L 64.929171 142.248327 
L 64.929171 143.776818 
L 64.929171 145.305309 
L 64.929171 146.8338 
L 64.929171 148.362291 
L 64.929171 149.890782 
L 64.929171 151.419273 
L 64.929171 152.947764 
L 64.929171 154.476255 
L 64.929171 156.004745 
L 64.929171 157.533236 
L 64.929171 159.061727 
L 64.929171 160.590218 
L 64.929171 162.118709 
L 64.929171 163.6472 
L 64.929171 165.175691 
L 64.929171 166.704182 
L 64.929171 168.232673 
L 64.929171 169.761164 
L 64.929171 171.289655 
L 64.929171 172.818145 
L 64.929171 174.346636 
L 64.929171 175.875127 
L 64.929171 177.403618 
L 64.929171 178.932109 
L 64.929171 180.4606 
L 64.929171 181.989091 
L 64.929171 183.517582 
L 64.929171 185.046073 
L 64.929171 186.574564 
L 64.929171 188.103055 
L 64.929171 189.631545 
L 64.929171 191.160036 
L 64.929171 192.688527 
L 64.929171 194.217018 
L 64.929171 195.745509 
L 64.929171 197.274 
L 64.929171 198.802491 
L 64.929171 200.330982 
L 64.929171 201.859473 
L 64.929171 203.387964 
L 64.929171 204.916455 
L 64.929171 206.444945 
L 64.929171 207.973436 
L 64.929171 209.501927 
L 64.929171 211.030418 
L 64.929171 212.558909 
L 64.929171 214.0874 
L 64.929171 215.615891 
L 64.929171 217.144382 
L 64.929171 218.672873 
L 64.929171 220.201364 
L 64.929171 221.729855 
L 64.929171 223.258345 
L 64.929171 224.786836 
L 64.929171 226.315327 
L 64.929171 227.843818 
L 64.929171 229.372309 
L 64.929171 230.9008 
L 64.929171 232.429291 
L 64.929171 233.957782 
L 64.929171 235.486273 
L 64.929171 237.014764 
L 64.929171 238.543255 
L 64.929171 240.071745 
L 64.929171 241.600236 
L 64.929171 243.128727 
L 64.929171 244.657218 
L 64.929171 246.185709 
L 64.929171 247.7142 
L 64.929171 249.242691 
L 64.929171 250.771182 
L 64.929171 252.299673 
L 64.929171 253.828164 
L 64.929171 255.356655 
L 64.929171 256.885145 
L 64.929171 258.413636 
L 64.929171 259.942127 
L 64.929171 261.470618 
L 64.929171 262.999109 
L 64.929171 264.5276 
L 64.929171 266.056091 
L 64.929171 267.584582 
L 64.929171 269.113073 
L 64.929171 270.641564 
L 64.929171 272.170055 
L 64.929171 273.698545 
L 64.929171 275.227036 
L 64.929171 276.755527 
L 64.929171 278.284018 
L 64.929171 279.812509 
L 64.929171 281.341 
L 64.929171 282.869491 
L 64.929171 284.397982 
L 64.929171 285.926473 
L 64.929171 287.454964 
L 64.929171 288.983455 
L 64.929171 290.511945 
L 64.929171 292.040436 
L 64.929171 293.568927 
L 64.929171 295.097418 
L 64.929171 296.625909 
L 64.929171 298.1544 
L 64.929171 299.682891 
L 64.929171 301.211382 
L 64.929171 302.739873 
L 64.929171 304.268364 
L 64.929171 305.796855 
L 64.929171 307.325345 
L 64.929171 308.853836 
L 64.929171 310.382327 
L 64.929171 311.910818 
L 64.929171 313.439309 
L 64.929171 314.9678 
L 64.929171 316.496291 
L 64.929171 318.024782 
L 64.929171 319.553273 
L 64.929171 321.081764 
L 64.929171 322.610255 
L 64.929171 324.138745 
L 64.929171 325.667236 
L 64.929171 327.195727 
L 64.929171 328.724218 
L 64.929171 330.252709 
L 64.929171 331.7812 
L 64.929171 333.309691 
L 64.929171 334.838182 
L 64.929171 336.366673 
L 64.929171 337.895164 
L 64.929171 339.423655 
L 64.929171 340.952145 
L 64.929171 342.480636 
z
" clip-path="url(#p5756368bf5)" style="fill: #009e73; fill-opacity: 0.22"/>
   </g>
   <g id="matplotlib.axis_1">
    <g id="xtick_1">
     <g id="line2d_1">
      <path d="M 63.913055 365.408 
L 63.913055 59.709818 
" clip-path="url(#p5756368bf5)" style="fill: none; stroke: #b0b0b0; stroke-opacity: 0.25; stroke-width: 0.8; stroke-linecap: square"/>
     </g>
     <g id="line2d_2">
      <defs>
       <path id="ma8ca99515b" d="M 0 0 
L 0 3.5 
" style="stroke: #000000; stroke-width: 0.8"/>
      </defs>
      <g>
       <use xlink:href="#ma8ca99515b" x="63.913055" y="365.408" style="stroke: #000000; stroke-width: 0.8"/>
      </g>
     </g>
     <g id="text_1">
      <!-- 0 -->
      <g transform="translate(59.77743 382.284953) scale(0.13 -0.13)">
       <defs>
        <path id="DejaVuSans-13" d="M 2034 4250 
Q 1547 4250 1301 3770 
Q 1056 3291 1056 2328 
Q 1056 1369 1301 889 
Q 1547 409 2034 409 
Q 2525 409 2770 889 
Q 3016 1369 3016 2328 
Q 3016 3291 2770 3770 
Q 2525 4250 2034 4250 
z
M 2034 4750 
Q 2819 4750 3233 4129 
Q 3647 3509 3647 2328 
Q 3647 1150 3233 529 
Q 2819 -91 2034 -91 
Q 1250 -91 836 529 
Q 422 1150 422 2328 
Q 422 3509 836 4129 
Q 1250 4750 2034 4750 
z
" transform="scale(0.015625)"/>
       </defs>
       <use xlink:href="#DejaVuSans-13"/>
      </g>
     </g>
    </g>
    <g id="xtick_2">
     <g id="line2d_3">
      <path d="M 131.654111 365.408 
L 131.654111 59.709818 
" clip-path="url(#p5756368bf5)" style="fill: none; stroke: #b0b0b0; stroke-opacity: 0.25; stroke-width: 0.8; stroke-linecap: square"/>
     </g>
     <g id="line2d_4">
      <g>
       <use xlink:href="#ma8ca99515b" x="131.654111" y="365.408" style="stroke: #000000; stroke-width: 0.8"/>
      </g>
     </g>
     <g id="text_2">
      <!-- 5 -->
      <g transform="translate(127.518486 382.284953) scale(0.13 -0.13)">
       <defs>
        <path id="DejaVuSans-18" d="M 691 4666 
L 3169 4666 
L 3169 4134 
L 1269 4134 
L 1269 2991 
Q 1406 3038 1543 3061 
Q 1681 3084 1819 3084 
Q 2600 3084 3056 2656 
Q 3513 2228 3513 1497 
Q 3513 744 3044 326 
Q 2575 -91 1722 -91 
Q 1428 -91 1123 -41 
Q 819 9 494 109 
L 494 744 
Q 775 591 1075 516 
Q 1375 441 1709 441 
Q 2250 441 2565 725 
Q 2881 1009 2881 1497 
Q 2881 1984 2565 2268 
Q 2250 2553 1709 2553 
Q 1456 2553 1204 2497 
Q 953 2441 691 2322 
L 691 4666 
z
" transform="scale(0.015625)"/>
       </defs>
       <use xlink:href="#DejaVuSans-18"/>
      </g>
     </g>
    </g>
    <g id="xtick_3">
     <g id="line2d_5">
      <path d="M 199.395166 365.408 
L 199.395166 59.709818 
" clip-path="url(#p5756368bf5)" style="fill: none; stroke: #b0b0b0; stroke-opacity: 0.25; stroke-width: 0.8; stroke-linecap: square"/>
     </g>
     <g id="line2d_6">
      <g>
       <use xlink:href="#ma8ca99515b" x="199.395166" y="365.408" style="stroke: #000000; stroke-width: 0.8"/>
      </g>
     </g>
     <g id="text_3">
      <!-- 10 -->
      <g transform="translate(191.123916 382.284953) scale(0.13 -0.13)">
       <defs>
        <path id="DejaVuSans-14" d="M 794 531 
L 1825 531 
L 1825 4091 
L 703 3866 
L 703 4441 
L 1819 4666 
L 2450 4666 
L 2450 531 
L 3481 531 
L 3481 0 
L 794 0 
L 794 531 
z
" transform="scale(0.015625)"/>
       </defs>
       <use xlink:href="#DejaVuSans-14"/>
       <use xlink:href="#DejaVuSans-13" transform="translate(63.625 0)"/>
      </g>
     </g>
    </g>
    <g id="xtick_4">
     <g id="line2d_7">
      <path d="M 267.136222 365.408 
L 267.136222 59.709818 
" clip-path="url(#p5756368bf5)" style="fill: none; stroke: #b0b0b0; stroke-opacity: 0.25; stroke-width: 0.8; stroke-linecap: square"/>
     </g>
     <g id="line2d_8">
      <g>
       <use xlink:href="#ma8ca99515b" x="267.136222" y="365.408" style="stroke: #000000; stroke-width: 0.8"/>
      </g>
     </g>
     <g id="text_4">
      <!-- 15 -->
      <g transform="translate(258.864972 382.284953) scale(0.13 -0.13)">
       <use xlink:href="#DejaVuSans-14"/>
       <use xlink:href="#DejaVuSans-18" transform="translate(63.625 0)"/>
      </g>
     </g>
    </g>
    <g id="xtick_5">
     <g id="line2d_9">
      <path d="M 334.877278 365.408 
L 334.877278 59.709818 
" clip-path="url(#p5756368bf5)" style="fill: none; stroke: #b0b0b0; stroke-opacity: 0.25; stroke-width: 0.8; stroke-linecap: square"/>
     </g>
     <g id="line2d_10">
      <g>
       <use xlink:href="#ma8ca99515b" x="334.877278" y="365.408" style="stroke: #000000; stroke-width: 0.8"/>
      </g>
     </g>
     <g id="text_5">
      <!-- 20 -->
      <g transform="translate(326.606028 382.284953) scale(0.13 -0.13)">
       <defs>
        <path id="DejaVuSans-15" d="M 1228 531 
L 3431 531 
L 3431 0 
L 469 0 
L 469 531 
Q 828 903 1448 1529 
Q 2069 2156 2228 2338 
Q 2531 2678 2651 2914 
Q 2772 3150 2772 3378 
Q 2772 3750 2511 3984 
Q 2250 4219 1831 4219 
Q 1534 4219 1204 4116 
Q 875 4013 500 3803 
L 500 4441 
Q 881 4594 1212 4672 
Q 1544 4750 1819 4750 
Q 2544 4750 2975 4387 
Q 3406 4025 3406 3419 
Q 3406 3131 3298 2873 
Q 3191 2616 2906 2266 
Q 2828 2175 2409 1742 
Q 1991 1309 1228 531 
z
" transform="scale(0.015625)"/>
       </defs>
       <use xlink:href="#DejaVuSans-15"/>
       <use xlink:href="#DejaVuSans-13" transform="translate(63.625 0)"/>
      </g>
     </g>
    </g>
    <g id="xtick_6">
     <g id="line2d_11">
      <path d="M 402.618333 365.408 
L 402.618333 59.709818 
" clip-path="url(#p5756368bf5)" style="fill: none; stroke: #b0b0b0; stroke-opacity: 0.25; stroke-width: 0.8; stroke-linecap: square"/>
     </g>
     <g id="line2d_12">
      <g>
       <use xlink:href="#ma8ca99515b" x="402.618333" y="365.408" style="stroke: #000000; stroke-width: 0.8"/>
      </g>
     </g>
     <g id="text_6">
      <!-- 25 -->
      <g transform="translate(394.347083 382.284953) scale(0.13 -0.13)">
       <use xlink:href="#DejaVuSans-15"/>
       <use xlink:href="#DejaVuSans-18" transform="translate(63.625 0)"/>
      </g>
     </g>
    </g>
    <g id="xtick_7">
     <g id="line2d_13">
      <path d="M 470.359389 365.408 
L 470.359389 59.709818 
" clip-path="url(#p5756368bf5)" style="fill: none; stroke: #b0b0b0; stroke-opacity: 0.25; stroke-width: 0.8; stroke-linecap: square"/>
     </g>
     <g id="line2d_14">
      <g>
       <use xlink:href="#ma8ca99515b" x="470.359389" y="365.408" style="stroke: #000000; stroke-width: 0.8"/>
      </g>
     </g>
     <g id="text_7">
      <!-- 30 -->
      <g transform="translate(462.088139 382.284953) scale(0.13 -0.13)">
       <defs>
        <path id="DejaVuSans-16" d="M 2597 2516 
Q 3050 2419 3304 2112 
Q 3559 1806 3559 1356 
Q 3559 666 3084 287 
Q 2609 -91 1734 -91 
Q 1441 -91 1130 -33 
Q 819 25 488 141 
L 488 750 
Q 750 597 1062 519 
Q 1375 441 1716 441 
Q 2309 441 2620 675 
Q 2931 909 2931 1356 
Q 2931 1769 2642 2001 
Q 2353 2234 1838 2234 
L 1294 2234 
L 1294 2753 
L 1863 2753 
Q 2328 2753 2575 2939 
Q 2822 3125 2822 3475 
Q 2822 3834 2567 4026 
Q 2313 4219 1838 4219 
Q 1578 4219 1281 4162 
Q 984 4106 628 3988 
L 628 4550 
Q 988 4650 1302 4700 
Q 1616 4750 1894 4750 
Q 2613 4750 3031 4423 
Q 3450 4097 3450 3541 
Q 3450 3153 3228 2886 
Q 3006 2619 2597 2516 
z
" transform="scale(0.015625)"/>
       </defs>
       <use xlink:href="#DejaVuSans-16"/>
       <use xlink:href="#DejaVuSans-13" transform="translate(63.625 0)"/>
      </g>
     </g>
    </g>
    <g id="text_8">
     <!-- $K_I$ -->
     <g transform="translate(254.577116 399.284953) scale(0.13 -0.13)">
      <defs>
       <path id="DejaVuSans-Oblique-2e" d="M 1081 4666 
L 1716 4666 
L 1331 2700 
L 3781 4666 
L 4622 4666 
L 1850 2438 
L 3878 0 
L 3109 0 
L 1247 2272 
L 806 0 
L 172 0 
L 1081 4666 
z
" transform="scale(0.015625)"/>
       <path id="DejaVuSans-Oblique-2c" d="M 1081 4666 
L 1716 4666 
L 806 0 
L 172 0 
L 1081 4666 
z
" transform="scale(0.015625)"/>
      </defs>
      <use xlink:href="#DejaVuSans-Oblique-2e" transform="translate(0 0.09375)"/>
      <use xlink:href="#DejaVuSans-Oblique-2c" transform="translate(65.576172 -14.906201) scale(0.7)"/>
     </g>
    </g>
   </g>
   <g id="matplotlib.axis_2">
    <g id="ytick_1">
     <g id="line2d_15">
      <path d="M 50.364844 345.028121 
L 470.359389 345.028121 
" clip-path="url(#p5756368bf5)" style="fill: none; stroke: #b0b0b0; stroke-opacity: 0.25; stroke-width: 0.8; stroke-linecap: square"/>
     </g>
     <g id="line2d_16">
      <defs>
       <path id="mfffc74a7f1" d="M 0 0 
L -3.5 0 
" style="stroke: #000000; stroke-width: 0.8"/>
      </defs>
      <g>
       <use xlink:href="#mfffc74a7f1" x="50.364844" y="345.028121" style="stroke: #000000; stroke-width: 0.8"/>
      </g>
     </g>
     <g id="text_9">
      <!-- −2 -->
      <g transform="translate(24.2 349.966598) scale(0.13 -0.13)">
       <defs>
        <path id="DejaVuSans-c9c" d="M 678 2272 
L 4684 2272 
L 4684 1741 
L 678 1741 
L 678 2272 
z
" transform="scale(0.015625)"/>
       </defs>
       <use xlink:href="#DejaVuSans-c9c"/>
       <use xlink:href="#DejaVuSans-15" transform="translate(83.796875 0)"/>
      </g>
     </g>
    </g>
    <g id="ytick_2">
     <g id="line2d_17">
      <path d="M 50.364844 304.268364 
L 470.359389 304.268364 
" clip-path="url(#p5756368bf5)" style="fill: none; stroke: #b0b0b0; stroke-opacity: 0.25; stroke-width: 0.8; stroke-linecap: square"/>
     </g>
     <g id="line2d_18">
      <g>
       <use xlink:href="#mfffc74a7f1" x="50.364844" y="304.268364" style="stroke: #000000; stroke-width: 0.8"/>
      </g>
     </g>
     <g id="text_10">
      <!-- 0 -->
      <g transform="translate(35.093594 309.20684) scale(0.13 -0.13)">
       <use xlink:href="#DejaVuSans-13"/>
      </g>
     </g>
    </g>
    <g id="ytick_3">
     <g id="line2d_19">
      <path d="M 50.364844 263.508606 
L 470.359389 263.508606 
" clip-path="url(#p5756368bf5)" style="fill: none; stroke: #b0b0b0; stroke-opacity: 0.25; stroke-width: 0.8; stroke-linecap: square"/>
     </g>
     <g id="line2d_20">
      <g>
       <use xlink:href="#mfffc74a7f1" x="50.364844" y="263.508606" style="stroke: #000000; stroke-width: 0.8"/>
      </g>
     </g>
     <g id="text_11">
      <!-- 2 -->
      <g transform="translate(35.093594 268.447083) scale(0.13 -0.13)">
       <use xlink:href="#DejaVuSans-15"/>
      </g>
     </g>
    </g>
    <g id="ytick_4">
     <g id="line2d_21">
      <path d="M 50.364844 222.748848 
L 470.359389 222.748848 
" clip-path="url(#p5756368bf5)" style="fill: none; stroke: #b0b0b0; stroke-opacity: 0.25; stroke-width: 0.8; stroke-linecap: square"/>
     </g>
     <g id="line2d_22">
      <g>
       <use xlink:href="#mfffc74a7f1" x="50.364844" y="222.748848" style="stroke: #000000; stroke-width: 0.8"/>
      </g>
     </g>
     <g id="text_12">
      <!-- 4 -->
      <g transform="translate(35.093594 227.687325) scale(0.13 -0.13)">
       <defs>
        <path id="DejaVuSans-17" d="M 2419 4116 
L 825 1625 
L 2419 1625 
L 2419 4116 
z
M 2253 4666 
L 3047 4666 
L 3047 1625 
L 3713 1625 
L 3713 1100 
L 3047 1100 
L 3047 0 
L 2419 0 
L 2419 1100 
L 313 1100 
L 313 1709 
L 2253 4666 
z
" transform="scale(0.015625)"/>
       </defs>
       <use xlink:href="#DejaVuSans-17"/>
      </g>
     </g>
    </g>
    <g id="ytick_5">
     <g id="line2d_23">
      <path d="M 50.364844 181.989091 
L 470.359389 181.989091 
" clip-path="url(#p5756368bf5)" style="fill: none; stroke: #b0b0b0; stroke-opacity: 0.25; stroke-width: 0.8; stroke-linecap: square"/>
     </g>
     <g id="line2d_24">
      <g>
       <use xlink:href="#mfffc74a7f1" x="50.364844" y="181.989091" style="stroke: #000000; stroke-width: 0.8"/>
      </g>
     </g>
     <g id="text_13">
      <!-- 6 -->
      <g transform="translate(35.093594 186.927567) scale(0.13 -0.13)">
       <defs>
        <path id="DejaVuSans-19" d="M 2113 2584 
Q 1688 2584 1439 2293 
Q 1191 2003 1191 1497 
Q 1191 994 1439 701 
Q 1688 409 2113 409 
Q 2538 409 2786 701 
Q 3034 994 3034 1497 
Q 3034 2003 2786 2293 
Q 2538 2584 2113 2584 
z
M 3366 4563 
L 3366 3988 
Q 3128 4100 2886 4159 
Q 2644 4219 2406 4219 
Q 1781 4219 1451 3797 
Q 1122 3375 1075 2522 
Q 1259 2794 1537 2939 
Q 1816 3084 2150 3084 
Q 2853 3084 3261 2657 
Q 3669 2231 3669 1497 
Q 3669 778 3244 343 
Q 2819 -91 2113 -91 
Q 1303 -91 875 529 
Q 447 1150 447 2328 
Q 447 3434 972 4092 
Q 1497 4750 2381 4750 
Q 2619 4750 2861 4703 
Q 3103 4656 3366 4563 
z
" transform="scale(0.015625)"/>
       </defs>
       <use xlink:href="#DejaVuSans-19"/>
      </g>
     </g>
    </g>
    <g id="ytick_6">
     <g id="line2d_25">
      <path d="M 50.364844 141.229333 
L 470.359389 141.229333 
" clip-path="url(#p5756368bf5)" style="fill: none; stroke: #b0b0b0; stroke-opacity: 0.25; stroke-width: 0.8; stroke-linecap: square"/>
     </g>
     <g id="line2d_26">
      <g>
       <use xlink:href="#mfffc74a7f1" x="50.364844" y="141.229333" style="stroke: #000000; stroke-width: 0.8"/>
      </g>
     </g>
     <g id="text_14">
      <!-- 8 -->
      <g transform="translate(35.093594 146.16781) scale(0.13 -0.13)">
       <defs>
        <path id="DejaVuSans-1b" d="M 2034 2216 
Q 1584 2216 1326 1975 
Q 1069 1734 1069 1313 
Q 1069 891 1326 650 
Q 1584 409 2034 409 
Q 2484 409 2743 651 
Q 3003 894 3003 1313 
Q 3003 1734 2745 1975 
Q 2488 2216 2034 2216 
z
M 1403 2484 
Q 997 2584 770 2862 
Q 544 3141 544 3541 
Q 544 4100 942 4425 
Q 1341 4750 2034 4750 
Q 2731 4750 3128 4425 
Q 3525 4100 3525 3541 
Q 3525 3141 3298 2862 
Q 3072 2584 2669 2484 
Q 3125 2378 3379 2068 
Q 3634 1759 3634 1313 
Q 3634 634 3220 271 
Q 2806 -91 2034 -91 
Q 1263 -91 848 271 
Q 434 634 434 1313 
Q 434 1759 690 2068 
Q 947 2378 1403 2484 
z
M 1172 3481 
Q 1172 3119 1398 2916 
Q 1625 2713 2034 2713 
Q 2441 2713 2670 2916 
Q 2900 3119 2900 3481 
Q 2900 3844 2670 4047 
Q 2441 4250 2034 4250 
Q 1625 4250 1398 4047 
Q 1172 3844 1172 3481 
z
" transform="scale(0.015625)"/>
       </defs>
       <use xlink:href="#DejaVuSans-1b"/>
      </g>
     </g>
    </g>
    <g id="ytick_7">
     <g id="line2d_27">
      <path d="M 50.364844 100.469576 
L 470.359389 100.469576 
" clip-path="url(#p5756368bf5)" style="fill: none; stroke: #b0b0b0; stroke-opacity: 0.25; stroke-width: 0.8; stroke-linecap: square"/>
     </g>
     <g id="line2d_28">
      <g>
       <use xlink:href="#mfffc74a7f1" x="50.364844" y="100.469576" style="stroke: #000000; stroke-width: 0.8"/>
      </g>
     </g>
     <g id="text_15">
      <!-- 10 -->
      <g transform="translate(26.822344 105.408052) scale(0.13 -0.13)">
       <use xlink:href="#DejaVuSans-14"/>
       <use xlink:href="#DejaVuSans-13" transform="translate(63.625 0)"/>
      </g>
     </g>
    </g>
    <g id="ytick_8">
     <g id="line2d_29">
      <path d="M 50.364844 59.709818 
L 470.359389 59.709818 
" clip-path="url(#p5756368bf5)" style="fill: none; stroke: #b0b0b0; stroke-opacity: 0.25; stroke-width: 0.8; stroke-linecap: square"/>
     </g>
     <g id="line2d_30">
      <g>
       <use xlink:href="#mfffc74a7f1" x="50.364844" y="59.709818" style="stroke: #000000; stroke-width: 0.8"/>
      </g>
     </g>
     <g id="text_16">
      <!-- 12 -->
      <g transform="translate(26.822344 64.648295) scale(0.13 -0.13)">
       <use xlink:href="#DejaVuSans-14"/>
       <use xlink:href="#DejaVuSans-15" transform="translate(63.625 0)"/>
      </g>
     </g>
    </g>
    <g id="text_17">
     <!-- $K$ -->
     <g transform="translate(17.076953 216.848909) rotate(-90) scale(0.13 -0.13)">
      <use xlink:href="#DejaVuSans-Oblique-2e" transform="translate(0 0.09375)"/>
     </g>
    </g>
   </g>
   <g id="line2d_31">
    <path d="M 63.913055 345.028121 
L 470.359389 141.229333 
L 470.359389 141.229333 
" clip-path="url(#p5756368bf5)" style="fill: none; stroke: #0072b2; stroke-width: 2.4; stroke-linecap: square"/>
   </g>
   <g id="line2d_32">
    <path d="M 63.913055 365.408 
L 63.913055 59.709818 
" clip-path="url(#p5756368bf5)" style="fill: none; stroke: #d55e00; stroke-width: 2.4; stroke-linecap: square"/>
   </g>
   <g id="line2d_33">
    <defs>
     <path id="ma32353f640" d="M 0 4.5 
C 1.193414 4.5 2.338109 4.025852 3.181981 3.181981 
C 4.025852 2.338109 4.5 1.193414 4.5 0 
C 4.5 -1.193414 4.025852 -2.338109 3.181981 -3.181981 
C 2.338109 -4.025852 1.193414 -4.5 0 -4.5 
C -1.193414 -4.5 -2.338109 -4.025852 -3.181981 -3.181981 
C -4.025852 -2.338109 -4.5 -1.193414 -4.5 0 
C -4.5 1.193414 -4.025852 2.338109 -3.181981 3.181981 
C -2.338109 4.025852 -1.193414 4.5 0 4.5 
z
" style="stroke: #d55e00"/>
    </defs>
    <g clip-path="url(#p5756368bf5)">
     <use xlink:href="#ma32353f640" x="63.913055" y="283.888485" style="fill: #d55e00; stroke: #d55e00"/>
    </g>
   </g>
   <g id="line2d_34">
    <defs>
     <path id="m333d444f60" d="M 0 4.5 
C 1.193414 4.5 2.338109 4.025852 3.181981 3.181981 
C 4.025852 2.338109 4.5 1.193414 4.5 0 
C 4.5 -1.193414 4.025852 -2.338109 3.181981 -3.181981 
C 2.338109 -4.025852 1.193414 -4.5 0 -4.5 
C -1.193414 -4.5 -2.338109 -4.025852 -3.181981 -3.181981 
C -4.025852 -2.338109 -4.5 -1.193414 -4.5 0 
C -4.5 1.193414 -4.025852 2.338109 -3.181981 3.181981 
C -2.338109 4.025852 -1.193414 4.5 0 4.5 
z
" style="stroke: #009e73"/>
    </defs>
    <g clip-path="url(#p5756368bf5)">
     <use xlink:href="#m333d444f60" x="77.461266" y="283.888485" style="fill: #009e73; stroke: #009e73"/>
    </g>
   </g>
   <g id="line2d_35">
    <g clip-path="url(#p5756368bf5)">
     <use xlink:href="#m333d444f60" x="131.654111" y="100.469576" style="fill: #009e73; stroke: #009e73"/>
    </g>
   </g>
   <g id="line2d_36">
    <g clip-path="url(#p5756368bf5)">
     <use xlink:href="#ma32353f640" x="158.750533" y="304.268364" style="fill: #d55e00; stroke: #d55e00"/>
    </g>
   </g>
   <g id="patch_3">
    <path d="M 50.364844 365.408 
L 50.364844 59.709818 
" style="fill: none; stroke: #000000; stroke-width: 0.8; stroke-linejoin: miter; stroke-linecap: square"/>
   </g>
   <g id="patch_4">
    <path d="M 50.364844 365.408 
L 470.359389 365.408 
" style="fill: none; stroke: #000000; stroke-width: 0.8; stroke-linejoin: miter; stroke-linecap: square"/>
   </g>
   <g id="text_18">
    <!-- (1, 0) -->
    <g transform="translate(71.913055 305.888485) scale(0.095 -0.095)">
     <defs>
      <path id="DejaVuSans-b" d="M 1984 4856 
Q 1566 4138 1362 3434 
Q 1159 2731 1159 2009 
Q 1159 1288 1364 580 
Q 1569 -128 1984 -844 
L 1484 -844 
Q 1016 -109 783 600 
Q 550 1309 550 2009 
Q 550 2706 781 3412 
Q 1013 4119 1484 4856 
L 1984 4856 
z
" transform="scale(0.015625)"/>
      <path id="DejaVuSans-f" d="M 750 794 
L 1409 794 
L 1409 256 
L 897 -744 
L 494 -744 
L 750 256 
L 750 794 
z
" transform="scale(0.015625)"/>
      <path id="DejaVuSans-3" transform="scale(0.015625)"/>
      <path id="DejaVuSans-c" d="M 513 4856 
L 1013 4856 
Q 1481 4119 1714 3412 
Q 1947 2706 1947 2009 
Q 1947 1309 1714 600 
Q 1481 -109 1013 -844 
L 513 -844 
Q 928 -128 1133 580 
Q 1338 1288 1338 2009 
Q 1338 2731 1133 3434 
Q 928 4138 513 4856 
z
" transform="scale(0.015625)"/>
     </defs>
     <use xlink:href="#DejaVuSans-b"/>
     <use xlink:href="#DejaVuSans-14" transform="translate(39.015625 0)"/>
     <use xlink:href="#DejaVuSans-f" transform="translate(102.640625 0)"/>
     <use xlink:href="#DejaVuSans-3" transform="translate(134.421875 0)"/>
     <use xlink:href="#DejaVuSans-13" transform="translate(166.203125 0)"/>
     <use xlink:href="#DejaVuSans-c" transform="translate(229.828125 0)"/>
    </g>
   </g>
   <g id="text_19">
    <!-- (1, 1) -->
    <g transform="translate(85.461266 275.888485) scale(0.095 -0.095)">
     <use xlink:href="#DejaVuSans-b"/>
     <use xlink:href="#DejaVuSans-14" transform="translate(39.015625 0)"/>
     <use xlink:href="#DejaVuSans-f" transform="translate(102.640625 0)"/>
     <use xlink:href="#DejaVuSans-3" transform="translate(134.421875 0)"/>
     <use xlink:href="#DejaVuSans-14" transform="translate(166.203125 0)"/>
     <use xlink:href="#DejaVuSans-c" transform="translate(229.828125 0)"/>
    </g>
   </g>
   <g id="text_20">
    <!-- (10, 5) -->
    <g transform="translate(139.654111 92.469576) scale(0.095 -0.095)">
     <use xlink:href="#DejaVuSans-b"/>
     <use xlink:href="#DejaVuSans-14" transform="translate(39.015625 0)"/>
     <use xlink:href="#DejaVuSans-13" transform="translate(102.640625 0)"/>
     <use xlink:href="#DejaVuSans-f" transform="translate(166.265625 0)"/>
     <use xlink:href="#DejaVuSans-3" transform="translate(198.046875 0)"/>
     <use xlink:href="#DejaVuSans-18" transform="translate(229.828125 0)"/>
     <use xlink:href="#DejaVuSans-c" transform="translate(293.453125 0)"/>
    </g>
   </g>
   <g id="text_21">
    <!-- (0, 7) -->
    <g transform="translate(166.750533 296.268364) scale(0.095 -0.095)">
     <defs>
      <path id="DejaVuSans-1a" d="M 525 4666 
L 3525 4666 
L 3525 4397 
L 1831 0 
L 1172 0 
L 2766 4134 
L 525 4134 
L 525 4666 
z
" transform="scale(0.015625)"/>
     </defs>
     <use xlink:href="#DejaVuSans-b"/>
     <use xlink:href="#DejaVuSans-13" transform="translate(39.015625 0)"/>
     <use xlink:href="#DejaVuSans-f" transform="translate(102.640625 0)"/>
     <use xlink:href="#DejaVuSans-3" transform="translate(134.421875 0)"/>
     <use xlink:href="#DejaVuSans-1a" transform="translate(166.203125 0)"/>
     <use xlink:href="#DejaVuSans-c" transform="translate(229.828125 0)"/>
    </g>
   </g>
   <g id="text_22">
    <!-- Fig. 3.43: cubic stability; labels $(K, K_I)$ -->
    <g transform="translate(120.637116 53.709818) scale(0.15 -0.15)">
     <defs>
      <path id="DejaVuSans-29" d="M 628 4666 
L 3309 4666 
L 3309 4134 
L 1259 4134 
L 1259 2759 
L 3109 2759 
L 3109 2228 
L 1259 2228 
L 1259 0 
L 628 0 
L 628 4666 
z
" transform="scale(0.015625)"/>
      <path id="DejaVuSans-4c" d="M 603 3500 
L 1178 3500 
L 1178 0 
L 603 0 
L 603 3500 
z
M 603 4863 
L 1178 4863 
L 1178 4134 
L 603 4134 
L 603 4863 
z
" transform="scale(0.015625)"/>
      <path id="DejaVuSans-4a" d="M 2906 1791 
Q 2906 2416 2648 2759 
Q 2391 3103 1925 3103 
Q 1463 3103 1205 2759 
Q 947 2416 947 1791 
Q 947 1169 1205 825 
Q 1463 481 1925 481 
Q 2391 481 2648 825 
Q 2906 1169 2906 1791 
z
M 3481 434 
Q 3481 -459 3084 -895 
Q 2688 -1331 1869 -1331 
Q 1566 -1331 1297 -1286 
Q 1028 -1241 775 -1147 
L 775 -588 
Q 1028 -725 1275 -790 
Q 1522 -856 1778 -856 
Q 2344 -856 2625 -561 
Q 2906 -266 2906 331 
L 2906 616 
Q 2728 306 2450 153 
Q 2172 0 1784 0 
Q 1141 0 747 490 
Q 353 981 353 1791 
Q 353 2603 747 3093 
Q 1141 3584 1784 3584 
Q 2172 3584 2450 3431 
Q 2728 3278 2906 2969 
L 2906 3500 
L 3481 3500 
L 3481 434 
z
" transform="scale(0.015625)"/>
      <path id="DejaVuSans-11" d="M 684 794 
L 1344 794 
L 1344 0 
L 684 0 
L 684 794 
z
" transform="scale(0.015625)"/>
      <path id="DejaVuSans-1d" d="M 750 794 
L 1409 794 
L 1409 0 
L 750 0 
L 750 794 
z
M 750 3309 
L 1409 3309 
L 1409 2516 
L 750 2516 
L 750 3309 
z
" transform="scale(0.015625)"/>
      <path id="DejaVuSans-46" d="M 3122 3366 
L 3122 2828 
Q 2878 2963 2633 3030 
Q 2388 3097 2138 3097 
Q 1578 3097 1268 2742 
Q 959 2388 959 1747 
Q 959 1106 1268 751 
Q 1578 397 2138 397 
Q 2388 397 2633 464 
Q 2878 531 3122 666 
L 3122 134 
Q 2881 22 2623 -34 
Q 2366 -91 2075 -91 
Q 1284 -91 818 406 
Q 353 903 353 1747 
Q 353 2603 823 3093 
Q 1294 3584 2113 3584 
Q 2378 3584 2631 3529 
Q 2884 3475 3122 3366 
z
" transform="scale(0.015625)"/>
      <path id="DejaVuSans-58" d="M 544 1381 
L 544 3500 
L 1119 3500 
L 1119 1403 
Q 1119 906 1312 657 
Q 1506 409 1894 409 
Q 2359 409 2629 706 
Q 2900 1003 2900 1516 
L 2900 3500 
L 3475 3500 
L 3475 0 
L 2900 0 
L 2900 538 
Q 2691 219 2414 64 
Q 2138 -91 1772 -91 
Q 1169 -91 856 284 
Q 544 659 544 1381 
z
M 1991 3584 
L 1991 3584 
z
" transform="scale(0.015625)"/>
      <path id="DejaVuSans-45" d="M 3116 1747 
Q 3116 2381 2855 2742 
Q 2594 3103 2138 3103 
Q 1681 3103 1420 2742 
Q 1159 2381 1159 1747 
Q 1159 1113 1420 752 
Q 1681 391 2138 391 
Q 2594 391 2855 752 
Q 3116 1113 3116 1747 
z
M 1159 2969 
Q 1341 3281 1617 3432 
Q 1894 3584 2278 3584 
Q 2916 3584 3314 3078 
Q 3713 2572 3713 1747 
Q 3713 922 3314 415 
Q 2916 -91 2278 -91 
Q 1894 -91 1617 61 
Q 1341 213 1159 525 
L 1159 0 
L 581 0 
L 581 4863 
L 1159 4863 
L 1159 2969 
z
" transform="scale(0.015625)"/>
      <path id="DejaVuSans-56" d="M 2834 3397 
L 2834 2853 
Q 2591 2978 2328 3040 
Q 2066 3103 1784 3103 
Q 1356 3103 1142 2972 
Q 928 2841 928 2578 
Q 928 2378 1081 2264 
Q 1234 2150 1697 2047 
L 1894 2003 
Q 2506 1872 2764 1633 
Q 3022 1394 3022 966 
Q 3022 478 2636 193 
Q 2250 -91 1575 -91 
Q 1294 -91 989 -36 
Q 684 19 347 128 
L 347 722 
Q 666 556 975 473 
Q 1284 391 1588 391 
Q 1994 391 2212 530 
Q 2431 669 2431 922 
Q 2431 1156 2273 1281 
Q 2116 1406 1581 1522 
L 1381 1569 
Q 847 1681 609 1914 
Q 372 2147 372 2553 
Q 372 3047 722 3315 
Q 1072 3584 1716 3584 
Q 2034 3584 2315 3537 
Q 2597 3491 2834 3397 
z
" transform="scale(0.015625)"/>
      <path id="DejaVuSans-57" d="M 1172 4494 
L 1172 3500 
L 2356 3500 
L 2356 3053 
L 1172 3053 
L 1172 1153 
Q 1172 725 1289 603 
Q 1406 481 1766 481 
L 2356 481 
L 2356 0 
L 1766 0 
Q 1100 0 847 248 
Q 594 497 594 1153 
L 594 3053 
L 172 3053 
L 172 3500 
L 594 3500 
L 594 4494 
L 1172 4494 
z
" transform="scale(0.015625)"/>
      <path id="DejaVuSans-44" d="M 2194 1759 
Q 1497 1759 1228 1600 
Q 959 1441 959 1056 
Q 959 750 1161 570 
Q 1363 391 1709 391 
Q 2188 391 2477 730 
Q 2766 1069 2766 1631 
L 2766 1759 
L 2194 1759 
z
M 3341 1997 
L 3341 0 
L 2766 0 
L 2766 531 
Q 2569 213 2275 61 
Q 1981 -91 1556 -91 
Q 1019 -91 701 211 
Q 384 513 384 1019 
Q 384 1609 779 1909 
Q 1175 2209 1959 2209 
L 2766 2209 
L 2766 2266 
Q 2766 2663 2505 2880 
Q 2244 3097 1772 3097 
Q 1472 3097 1187 3025 
Q 903 2953 641 2809 
L 641 3341 
Q 956 3463 1253 3523 
Q 1550 3584 1831 3584 
Q 2591 3584 2966 3190 
Q 3341 2797 3341 1997 
z
" transform="scale(0.015625)"/>
      <path id="DejaVuSans-4f" d="M 603 4863 
L 1178 4863 
L 1178 0 
L 603 0 
L 603 4863 
z
" transform="scale(0.015625)"/>
      <path id="DejaVuSans-5c" d="M 2059 -325 
Q 1816 -950 1584 -1140 
Q 1353 -1331 966 -1331 
L 506 -1331 
L 506 -850 
L 844 -850 
Q 1081 -850 1212 -737 
Q 1344 -625 1503 -206 
L 1606 56 
L 191 3500 
L 800 3500 
L 1894 763 
L 2988 3500 
L 3597 3500 
L 2059 -325 
z
" transform="scale(0.015625)"/>
      <path id="DejaVuSans-1e" d="M 750 3309 
L 1409 3309 
L 1409 2516 
L 750 2516 
L 750 3309 
z
M 750 794 
L 1409 794 
L 1409 256 
L 897 -744 
L 494 -744 
L 750 256 
L 750 794 
z
" transform="scale(0.015625)"/>
      <path id="DejaVuSans-48" d="M 3597 1894 
L 3597 1613 
L 953 1613 
Q 991 1019 1311 708 
Q 1631 397 2203 397 
Q 2534 397 2845 478 
Q 3156 559 3463 722 
L 3463 178 
Q 3153 47 2828 -22 
Q 2503 -91 2169 -91 
Q 1331 -91 842 396 
Q 353 884 353 1716 
Q 353 2575 817 3079 
Q 1281 3584 2069 3584 
Q 2775 3584 3186 3129 
Q 3597 2675 3597 1894 
z
M 3022 2063 
Q 3016 2534 2758 2815 
Q 2500 3097 2075 3097 
Q 1594 3097 1305 2825 
Q 1016 2553 972 2059 
L 3022 2063 
z
" transform="scale(0.015625)"/>
     </defs>
     <use xlink:href="#DejaVuSans-29" transform="translate(0 0.015625)"/>
     <use xlink:href="#DejaVuSans-4c" transform="translate(50.519531 0.015625)"/>
     <use xlink:href="#DejaVuSans-4a" transform="translate(78.302734 0.015625)"/>
     <use xlink:href="#DejaVuSans-11" transform="translate(141.779297 0.015625)"/>
     <use xlink:href="#DejaVuSans-3" transform="translate(173.566406 0.015625)"/>
     <use xlink:href="#DejaVuSans-16" transform="translate(205.353516 0.015625)"/>
     <use xlink:href="#DejaVuSans-11" transform="translate(268.976562 0.015625)"/>
     <use xlink:href="#DejaVuSans-17" transform="translate(300.763672 0.015625)"/>
     <use xlink:href="#DejaVuSans-16" transform="translate(364.386719 0.015625)"/>
     <use xlink:href="#DejaVuSans-1d" transform="translate(428.009766 0.015625)"/>
     <use xlink:href="#DejaVuSans-3" transform="translate(461.701172 0.015625)"/>
     <use xlink:href="#DejaVuSans-46" transform="translate(493.488281 0.015625)"/>
     <use xlink:href="#DejaVuSans-58" transform="translate(548.46875 0.015625)"/>
     <use xlink:href="#DejaVuSans-45" transform="translate(611.847656 0.015625)"/>
     <use xlink:href="#DejaVuSans-4c" transform="translate(675.324219 0.015625)"/>
     <use xlink:href="#DejaVuSans-46" transform="translate(703.107422 0.015625)"/>
     <use xlink:href="#DejaVuSans-3" transform="translate(758.087891 0.015625)"/>
     <use xlink:href="#DejaVuSans-56" transform="translate(789.875 0.015625)"/>
     <use xlink:href="#DejaVuSans-57" transform="translate(841.974609 0.015625)"/>
     <use xlink:href="#DejaVuSans-44" transform="translate(881.183594 0.015625)"/>
     <use xlink:href="#DejaVuSans-45" transform="translate(942.462891 0.015625)"/>
     <use xlink:href="#DejaVuSans-4c" transform="translate(1005.939453 0.015625)"/>
     <use xlink:href="#DejaVuSans-4f" transform="translate(1033.722656 0.015625)"/>
     <use xlink:href="#DejaVuSans-4c" transform="translate(1061.505859 0.015625)"/>
     <use xlink:href="#DejaVuSans-57" transform="translate(1089.289062 0.015625)"/>
     <use xlink:href="#DejaVuSans-5c" transform="translate(1128.498047 0.015625)"/>
     <use xlink:href="#DejaVuSans-1e" transform="translate(1187.677734 0.015625)"/>
     <use xlink:href="#DejaVuSans-3" transform="translate(1221.369141 0.015625)"/>
     <use xlink:href="#DejaVuSans-4f" transform="translate(1253.15625 0.015625)"/>
     <use xlink:href="#DejaVuSans-44" transform="translate(1280.939453 0.015625)"/>
     <use xlink:href="#DejaVuSans-45" transform="translate(1342.21875 0.015625)"/>
     <use xlink:href="#DejaVuSans-48" transform="translate(1405.695312 0.015625)"/>
     <use xlink:href="#DejaVuSans-4f" transform="translate(1467.21875 0.015625)"/>
     <use xlink:href="#DejaVuSans-56" transform="translate(1495.001953 0.015625)"/>
     <use xlink:href="#DejaVuSans-3" transform="translate(1547.101562 0.015625)"/>
     <use xlink:href="#DejaVuSans-b" transform="translate(1578.888672 0.015625)"/>
     <use xlink:href="#DejaVuSans-Oblique-2e" transform="translate(1617.902344 0.015625)"/>
     <use xlink:href="#DejaVuSans-f" transform="translate(1683.478516 0.015625)"/>
     <use xlink:href="#DejaVuSans-Oblique-2e" transform="translate(1734.748047 0.015625)"/>
     <use xlink:href="#DejaVuSans-Oblique-2c" transform="translate(1800.324219 -14.984326) scale(0.7)"/>
     <use xlink:href="#DejaVuSans-c" transform="translate(1823.703125 0.015625)"/>
    </g>
   </g>
   <g id="legend_1">
    <g id="line2d_37">
     <path d="M 372.604389 334.009719 
L 383.104389 334.009719 
L 393.604389 334.009719 
" style="fill: none; stroke: #0072b2; stroke-width: 2.4; stroke-linecap: square"/>
    </g>
    <g id="text_23">
     <!-- $K = K_I/3 - 2$ -->
     <g transform="translate(402.004389 337.684719) scale(0.105 -0.105)">
      <defs>
       <path id="DejaVuSans-20" d="M 678 2906 
L 4684 2906 
L 4684 2381 
L 678 2381 
L 678 2906 
z
M 678 1631 
L 4684 1631 
L 4684 1100 
L 678 1100 
L 678 1631 
z
" transform="scale(0.015625)"/>
       <path id="DejaVuSans-12" d="M 1625 4666 
L 2156 4666 
L 531 -594 
L 0 -594 
L 1625 4666 
z
" transform="scale(0.015625)"/>
      </defs>
      <use xlink:href="#DejaVuSans-Oblique-2e" transform="translate(0 0.78125)"/>
      <use xlink:href="#DejaVuSans-20" transform="translate(85.058594 0.78125)"/>
      <use xlink:href="#DejaVuSans-Oblique-2e" transform="translate(188.330078 0.78125)"/>
      <use xlink:href="#DejaVuSans-Oblique-2c" transform="translate(253.90625 -14.218701) scale(0.7)"/>
      <use xlink:href="#DejaVuSans-12" transform="translate(277.285156 0.78125)"/>
      <use xlink:href="#DejaVuSans-16" transform="translate(310.976562 0.78125)"/>
      <use xlink:href="#DejaVuSans-c9c" transform="translate(394.082031 0.78125)"/>
      <use xlink:href="#DejaVuSans-15" transform="translate(497.353516 0.78125)"/>
     </g>
    </g>
    <g id="line2d_38">
     <path d="M 372.604389 349.760539 
L 383.104389 349.760539 
L 393.604389 349.760539 
" style="fill: none; stroke: #d55e00; stroke-width: 2.4; stroke-linecap: square"/>
    </g>
    <g id="text_24">
     <!-- $K_I = 0$ -->
     <g transform="translate(402.004389 353.435539) scale(0.105 -0.105)">
      <use xlink:href="#DejaVuSans-Oblique-2e" transform="translate(0 0.78125)"/>
      <use xlink:href="#DejaVuSans-Oblique-2c" transform="translate(65.576172 -14.218701) scale(0.7)"/>
      <use xlink:href="#DejaVuSans-20" transform="translate(108.4375 0.78125)"/>
      <use xlink:href="#DejaVuSans-13" transform="translate(211.708984 0.78125)"/>
     </g>
    </g>
   </g>
  </g>
  <g id="axes_2">
   <g id="patch_5">
    <path d="M 537.853935 365.408 
L 957.84848 365.408 
L 957.84848 59.709818 
L 537.853935 59.709818 
z
" style="fill: #ffffff"/>
   </g>
   <g id="matplotlib.axis_3">
    <g id="xtick_8">
     <g id="line2d_39">
      <path d="M 556.944596 365.408 
L 556.944596 59.709818 
" clip-path="url(#pa8d52f950a)" style="fill: none; stroke: #b0b0b0; stroke-opacity: 0.25; stroke-width: 0.8; stroke-linecap: square"/>
     </g>
     <g id="line2d_40">
      <g>
       <use xlink:href="#ma8ca99515b" x="556.944596" y="365.408" style="stroke: #000000; stroke-width: 0.8"/>
      </g>
     </g>
     <g id="text_25">
      <!-- 0 -->
      <g transform="translate(552.808971 382.284953) scale(0.13 -0.13)">
       <use xlink:href="#DejaVuSans-13"/>
      </g>
     </g>
    </g>
    <g id="xtick_9">
     <g id="line2d_41">
      <path d="M 633.30724 365.408 
L 633.30724 59.709818 
" clip-path="url(#pa8d52f950a)" style="fill: none; stroke: #b0b0b0; stroke-opacity: 0.25; stroke-width: 0.8; stroke-linecap: square"/>
     </g>
     <g id="line2d_42">
      <g>
       <use xlink:href="#ma8ca99515b" x="633.30724" y="365.408" style="stroke: #000000; stroke-width: 0.8"/>
      </g>
     </g>
     <g id="text_26">
      <!-- 2 -->
      <g transform="translate(629.171615 382.284953) scale(0.13 -0.13)">
       <use xlink:href="#DejaVuSans-15"/>
      </g>
     </g>
    </g>
    <g id="xtick_10">
     <g id="line2d_43">
      <path d="M 709.669885 365.408 
L 709.669885 59.709818 
" clip-path="url(#pa8d52f950a)" style="fill: none; stroke: #b0b0b0; stroke-opacity: 0.25; stroke-width: 0.8; stroke-linecap: square"/>
     </g>
     <g id="line2d_44">
      <g>
       <use xlink:href="#ma8ca99515b" x="709.669885" y="365.408" style="stroke: #000000; stroke-width: 0.8"/>
      </g>
     </g>
     <g id="text_27">
      <!-- 4 -->
      <g transform="translate(705.53426 382.284953) scale(0.13 -0.13)">
       <use xlink:href="#DejaVuSans-17"/>
      </g>
     </g>
    </g>
    <g id="xtick_11">
     <g id="line2d_45">
      <path d="M 786.03253 365.408 
L 786.03253 59.709818 
" clip-path="url(#pa8d52f950a)" style="fill: none; stroke: #b0b0b0; stroke-opacity: 0.25; stroke-width: 0.8; stroke-linecap: square"/>
     </g>
     <g id="line2d_46">
      <g>
       <use xlink:href="#ma8ca99515b" x="786.03253" y="365.408" style="stroke: #000000; stroke-width: 0.8"/>
      </g>
     </g>
     <g id="text_28">
      <!-- 6 -->
      <g transform="translate(781.896905 382.284953) scale(0.13 -0.13)">
       <use xlink:href="#DejaVuSans-19"/>
      </g>
     </g>
    </g>
    <g id="xtick_12">
     <g id="line2d_47">
      <path d="M 862.395174 365.408 
L 862.395174 59.709818 
" clip-path="url(#pa8d52f950a)" style="fill: none; stroke: #b0b0b0; stroke-opacity: 0.25; stroke-width: 0.8; stroke-linecap: square"/>
     </g>
     <g id="line2d_48">
      <g>
       <use xlink:href="#ma8ca99515b" x="862.395174" y="365.408" style="stroke: #000000; stroke-width: 0.8"/>
      </g>
     </g>
     <g id="text_29">
      <!-- 8 -->
      <g transform="translate(858.259549 382.284953) scale(0.13 -0.13)">
       <use xlink:href="#DejaVuSans-1b"/>
      </g>
     </g>
    </g>
    <g id="xtick_13">
     <g id="line2d_49">
      <path d="M 938.757819 365.408 
L 938.757819 59.709818 
" clip-path="url(#pa8d52f950a)" style="fill: none; stroke: #b0b0b0; stroke-opacity: 0.25; stroke-width: 0.8; stroke-linecap: square"/>
     </g>
     <g id="line2d_50">
      <g>
       <use xlink:href="#ma8ca99515b" x="938.757819" y="365.408" style="stroke: #000000; stroke-width: 0.8"/>
      </g>
     </g>
     <g id="text_30">
      <!-- 10 -->
      <g transform="translate(930.486569 382.284953) scale(0.13 -0.13)">
       <use xlink:href="#DejaVuSans-14"/>
       <use xlink:href="#DejaVuSans-13" transform="translate(63.625 0)"/>
      </g>
     </g>
    </g>
    <g id="text_31">
     <!-- time [s] -->
     <g transform="translate(722.642379 399.285969) scale(0.13 -0.13)">
      <defs>
       <path id="DejaVuSans-50" d="M 3328 2828 
Q 3544 3216 3844 3400 
Q 4144 3584 4550 3584 
Q 5097 3584 5394 3201 
Q 5691 2819 5691 2113 
L 5691 0 
L 5113 0 
L 5113 2094 
Q 5113 2597 4934 2840 
Q 4756 3084 4391 3084 
Q 3944 3084 3684 2787 
Q 3425 2491 3425 1978 
L 3425 0 
L 2847 0 
L 2847 2094 
Q 2847 2600 2669 2842 
Q 2491 3084 2119 3084 
Q 1678 3084 1418 2786 
Q 1159 2488 1159 1978 
L 1159 0 
L 581 0 
L 581 3500 
L 1159 3500 
L 1159 2956 
Q 1356 3278 1631 3431 
Q 1906 3584 2284 3584 
Q 2666 3584 2933 3390 
Q 3200 3197 3328 2828 
z
" transform="scale(0.015625)"/>
       <path id="DejaVuSans-3e" d="M 550 4863 
L 1875 4863 
L 1875 4416 
L 1125 4416 
L 1125 -397 
L 1875 -397 
L 1875 -844 
L 550 -844 
L 550 4863 
z
" transform="scale(0.015625)"/>
       <path id="DejaVuSans-40" d="M 1947 4863 
L 1947 -844 
L 622 -844 
L 622 -397 
L 1369 -397 
L 1369 4416 
L 622 4416 
L 622 4863 
L 1947 4863 
z
" transform="scale(0.015625)"/>
      </defs>
      <use xlink:href="#DejaVuSans-57"/>
      <use xlink:href="#DejaVuSans-4c" transform="translate(39.203125 0)"/>
      <use xlink:href="#DejaVuSans-50" transform="translate(66.984375 0)"/>
      <use xlink:href="#DejaVuSans-48" transform="translate(164.390625 0)"/>
      <use xlink:href="#DejaVuSans-3" transform="translate(225.921875 0)"/>
      <use xlink:href="#DejaVuSans-3e" transform="translate(257.703125 0)"/>
      <use xlink:href="#DejaVuSans-56" transform="translate(296.71875 0)"/>
      <use xlink:href="#DejaVuSans-40" transform="translate(348.8125 0)"/>
     </g>
    </g>
   </g>
   <g id="matplotlib.axis_4">
    <g id="ytick_9">
     <g id="line2d_51">
      <path d="M 537.853935 351.512628 
L 957.84848 351.512628 
" clip-path="url(#pa8d52f950a)" style="fill: none; stroke: #b0b0b0; stroke-opacity: 0.25; stroke-width: 0.8; stroke-linecap: square"/>
     </g>
     <g id="line2d_52">
      <g>
       <use xlink:href="#mfffc74a7f1" x="537.853935" y="351.512628" style="stroke: #000000; stroke-width: 0.8"/>
      </g>
     </g>
     <g id="text_32">
      <!-- 0.0 -->
      <g transform="translate(510.179872 356.451105) scale(0.13 -0.13)">
       <use xlink:href="#DejaVuSans-13"/>
       <use xlink:href="#DejaVuSans-11" transform="translate(63.625 0)"/>
       <use xlink:href="#DejaVuSans-13" transform="translate(95.40625 0)"/>
      </g>
     </g>
    </g>
    <g id="ytick_10">
     <g id="line2d_53">
      <path d="M 537.853935 304.98455 
L 957.84848 304.98455 
" clip-path="url(#pa8d52f950a)" style="fill: none; stroke: #b0b0b0; stroke-opacity: 0.25; stroke-width: 0.8; stroke-linecap: square"/>
     </g>
     <g id="line2d_54">
      <g>
       <use xlink:href="#mfffc74a7f1" x="537.853935" y="304.98455" style="stroke: #000000; stroke-width: 0.8"/>
      </g>
     </g>
     <g id="text_33">
      <!-- 0.2 -->
      <g transform="translate(510.179872 309.923027) scale(0.13 -0.13)">
       <use xlink:href="#DejaVuSans-13"/>
       <use xlink:href="#DejaVuSans-11" transform="translate(63.625 0)"/>
       <use xlink:href="#DejaVuSans-15" transform="translate(95.40625 0)"/>
      </g>
     </g>
    </g>
    <g id="ytick_11">
     <g id="line2d_55">
      <path d="M 537.853935 258.456473 
L 957.84848 258.456473 
" clip-path="url(#pa8d52f950a)" style="fill: none; stroke: #b0b0b0; stroke-opacity: 0.25; stroke-width: 0.8; stroke-linecap: square"/>
     </g>
     <g id="line2d_56">
      <g>
       <use xlink:href="#mfffc74a7f1" x="537.853935" y="258.456473" style="stroke: #000000; stroke-width: 0.8"/>
      </g>
     </g>
     <g id="text_34">
      <!-- 0.4 -->
      <g transform="translate(510.179872 263.394949) scale(0.13 -0.13)">
       <use xlink:href="#DejaVuSans-13"/>
       <use xlink:href="#DejaVuSans-11" transform="translate(63.625 0)"/>
       <use xlink:href="#DejaVuSans-17" transform="translate(95.40625 0)"/>
      </g>
     </g>
    </g>
    <g id="ytick_12">
     <g id="line2d_57">
      <path d="M 537.853935 211.928395 
L 957.84848 211.928395 
" clip-path="url(#pa8d52f950a)" style="fill: none; stroke: #b0b0b0; stroke-opacity: 0.25; stroke-width: 0.8; stroke-linecap: square"/>
     </g>
     <g id="line2d_58">
      <g>
       <use xlink:href="#mfffc74a7f1" x="537.853935" y="211.928395" style="stroke: #000000; stroke-width: 0.8"/>
      </g>
     </g>
     <g id="text_35">
      <!-- 0.6 -->
      <g transform="translate(510.179872 216.866871) scale(0.13 -0.13)">
       <use xlink:href="#DejaVuSans-13"/>
       <use xlink:href="#DejaVuSans-11" transform="translate(63.625 0)"/>
       <use xlink:href="#DejaVuSans-19" transform="translate(95.40625 0)"/>
      </g>
     </g>
    </g>
    <g id="ytick_13">
     <g id="line2d_59">
      <path d="M 537.853935 165.400317 
L 957.84848 165.400317 
" clip-path="url(#pa8d52f950a)" style="fill: none; stroke: #b0b0b0; stroke-opacity: 0.25; stroke-width: 0.8; stroke-linecap: square"/>
     </g>
     <g id="line2d_60">
      <g>
       <use xlink:href="#mfffc74a7f1" x="537.853935" y="165.400317" style="stroke: #000000; stroke-width: 0.8"/>
      </g>
     </g>
     <g id="text_36">
      <!-- 0.8 -->
      <g transform="translate(510.179872 170.338794) scale(0.13 -0.13)">
       <use xlink:href="#DejaVuSans-13"/>
       <use xlink:href="#DejaVuSans-11" transform="translate(63.625 0)"/>
       <use xlink:href="#DejaVuSans-1b" transform="translate(95.40625 0)"/>
      </g>
     </g>
    </g>
    <g id="ytick_14">
     <g id="line2d_61">
      <path d="M 537.853935 118.872239 
L 957.84848 118.872239 
" clip-path="url(#pa8d52f950a)" style="fill: none; stroke: #b0b0b0; stroke-opacity: 0.25; stroke-width: 0.8; stroke-linecap: square"/>
     </g>
     <g id="line2d_62">
      <g>
       <use xlink:href="#mfffc74a7f1" x="537.853935" y="118.872239" style="stroke: #000000; stroke-width: 0.8"/>
      </g>
     </g>
     <g id="text_37">
      <!-- 1.0 -->
      <g transform="translate(510.179872 123.810716) scale(0.13 -0.13)">
       <use xlink:href="#DejaVuSans-14"/>
       <use xlink:href="#DejaVuSans-11" transform="translate(63.625 0)"/>
       <use xlink:href="#DejaVuSans-13" transform="translate(95.40625 0)"/>
      </g>
     </g>
    </g>
    <g id="ytick_15">
     <g id="line2d_63">
      <path d="M 537.853935 72.344162 
L 957.84848 72.344162 
" clip-path="url(#pa8d52f950a)" style="fill: none; stroke: #b0b0b0; stroke-opacity: 0.25; stroke-width: 0.8; stroke-linecap: square"/>
     </g>
     <g id="line2d_64">
      <g>
       <use xlink:href="#mfffc74a7f1" x="537.853935" y="72.344162" style="stroke: #000000; stroke-width: 0.8"/>
      </g>
     </g>
     <g id="text_38">
      <!-- 1.2 -->
      <g transform="translate(510.179872 77.282638) scale(0.13 -0.13)">
       <use xlink:href="#DejaVuSans-14"/>
       <use xlink:href="#DejaVuSans-11" transform="translate(63.625 0)"/>
       <use xlink:href="#DejaVuSans-15" transform="translate(95.40625 0)"/>
      </g>
     </g>
    </g>
    <g id="text_39">
     <!-- step response -->
     <g transform="translate(503.056825 258.208206) rotate(-90) scale(0.13 -0.13)">
      <defs>
       <path id="DejaVuSans-53" d="M 1159 525 
L 1159 -1331 
L 581 -1331 
L 581 3500 
L 1159 3500 
L 1159 2969 
Q 1341 3281 1617 3432 
Q 1894 3584 2278 3584 
Q 2916 3584 3314 3078 
Q 3713 2572 3713 1747 
Q 3713 922 3314 415 
Q 2916 -91 2278 -91 
Q 1894 -91 1617 61 
Q 1341 213 1159 525 
z
M 3116 1747 
Q 3116 2381 2855 2742 
Q 2594 3103 2138 3103 
Q 1681 3103 1420 2742 
Q 1159 2381 1159 1747 
Q 1159 1113 1420 752 
Q 1681 391 2138 391 
Q 2594 391 2855 752 
Q 3116 1113 3116 1747 
z
" transform="scale(0.015625)"/>
       <path id="DejaVuSans-55" d="M 2631 2963 
Q 2534 3019 2420 3045 
Q 2306 3072 2169 3072 
Q 1681 3072 1420 2755 
Q 1159 2438 1159 1844 
L 1159 0 
L 581 0 
L 581 3500 
L 1159 3500 
L 1159 2956 
Q 1341 3275 1631 3429 
Q 1922 3584 2338 3584 
Q 2397 3584 2469 3576 
Q 2541 3569 2628 3553 
L 2631 2963 
z
" transform="scale(0.015625)"/>
       <path id="DejaVuSans-52" d="M 1959 3097 
Q 1497 3097 1228 2736 
Q 959 2375 959 1747 
Q 959 1119 1226 758 
Q 1494 397 1959 397 
Q 2419 397 2687 759 
Q 2956 1122 2956 1747 
Q 2956 2369 2687 2733 
Q 2419 3097 1959 3097 
z
M 1959 3584 
Q 2709 3584 3137 3096 
Q 3566 2609 3566 1747 
Q 3566 888 3137 398 
Q 2709 -91 1959 -91 
Q 1206 -91 779 398 
Q 353 888 353 1747 
Q 353 2609 779 3096 
Q 1206 3584 1959 3584 
z
" transform="scale(0.015625)"/>
       <path id="DejaVuSans-51" d="M 3513 2113 
L 3513 0 
L 2938 0 
L 2938 2094 
Q 2938 2591 2744 2837 
Q 2550 3084 2163 3084 
Q 1697 3084 1428 2787 
Q 1159 2491 1159 1978 
L 1159 0 
L 581 0 
L 581 3500 
L 1159 3500 
L 1159 2956 
Q 1366 3272 1645 3428 
Q 1925 3584 2291 3584 
Q 2894 3584 3203 3211 
Q 3513 2838 3513 2113 
z
" transform="scale(0.015625)"/>
      </defs>
      <use xlink:href="#DejaVuSans-56"/>
      <use xlink:href="#DejaVuSans-57" transform="translate(52.09375 0)"/>
      <use xlink:href="#DejaVuSans-48" transform="translate(91.296875 0)"/>
      <use xlink:href="#DejaVuSans-53" transform="translate(152.828125 0)"/>
      <use xlink:href="#DejaVuSans-3" transform="translate(216.3125 0)"/>
      <use xlink:href="#DejaVuSans-55" transform="translate(248.09375 0)"/>
      <use xlink:href="#DejaVuSans-48" transform="translate(287 0)"/>
      <use xlink:href="#DejaVuSans-56" transform="translate(348.53125 0)"/>
      <use xlink:href="#DejaVuSans-53" transform="translate(400.625 0)"/>
      <use xlink:href="#DejaVuSans-52" transform="translate(464.109375 0)"/>
      <use xlink:href="#DejaVuSans-51" transform="translate(525.296875 0)"/>
      <use xlink:href="#DejaVuSans-56" transform="translate(588.671875 0)"/>
      <use xlink:href="#DejaVuSans-48" transform="translate(640.765625 0)"/>
     </g>
    </g>
   </g>
   <g id="line2d_65">
    <path d="M 556.944596 351.512628 
L 558.185799 351.393635 
L 559.427002 351.051879 
L 560.763683 350.459602 
L 562.291318 349.529587 
L 564.009907 348.202102 
L 565.91945 346.430831 
L 568.115425 344.078289 
L 570.693309 340.982587 
L 574.03501 336.594586 
L 578.999823 329.660075 
L 587.879201 317.250487 
L 592.366628 311.393974 
L 596.281192 306.640054 
L 600.004802 302.464802 
L 603.537457 298.832416 
L 606.974636 295.609163 
L 610.411814 292.688568 
L 613.848992 290.0611 
L 617.28617 287.713251 
L 620.723349 285.628764 
L 624.256004 283.741865 
L 627.884137 282.052108 
L 631.703224 280.520347 
L 635.713265 279.156445 
L 639.914261 277.964892 
L 644.401688 276.925145 
L 649.271024 276.028843 
L 654.617746 275.275533 
L 660.632808 274.660008 
L 667.507165 274.187443 
L 675.718202 273.855015 
L 686.125214 273.668172 
L 701.306085 273.639958 
L 837.074627 273.967275 
L 938.757819 273.965843 
L 938.757819 273.965843 
" clip-path="url(#pa8d52f950a)" style="fill: none; stroke: #d55e00; stroke-width: 2; stroke-linecap: square"/>
   </g>
   <g id="line2d_66">
    <path d="M 556.944596 351.512628 
L 558.185799 351.392335 
L 559.427002 351.041731 
L 560.763683 350.423614 
L 562.19584 349.504058 
L 563.723475 348.252401 
L 565.442064 346.538703 
L 567.256131 344.411988 
L 569.261151 341.722057 
L 571.552604 338.264408 
L 574.130487 333.954916 
L 577.09028 328.551854 
L 580.527458 321.793223 
L 584.728454 313.014759 
L 590.361607 300.689189 
L 609.075133 259.353608 
L 614.803764 247.45059 
L 619.959531 237.240023 
L 624.828867 228.08093 
L 629.507249 219.748367 
L 634.090153 212.041032 
L 638.577581 204.93321 
L 642.969531 198.393761 
L 647.266003 192.388467 
L 651.562476 186.760703 
L 655.858949 181.498131 
L 660.155422 176.586763 
L 664.451895 172.011451 
L 668.748368 167.756295 
L 673.140318 163.720489 
L 677.532268 159.984571 
L 682.019695 156.458951 
L 686.6026 153.143447 
L 691.280981 150.036368 
L 696.05484 147.134637 
L 700.924176 144.433937 
L 705.984466 141.883008 
L 711.235711 139.488706 
L 716.67791 137.255442 
L 722.311063 135.18529 
L 728.230648 133.248724 
L 734.436664 131.454028 
L 741.024589 129.783506 
L 747.994423 128.247997 
L 755.441643 126.837183 
L 763.461726 125.546923 
L 772.150148 124.377234 
L 781.697866 123.320802 
L 792.200355 122.385971 
L 804.039525 121.56075 
L 817.501807 120.851078 
L 833.160063 120.254188 
L 851.969067 119.767157 
L 875.551929 119.388938 
L 907.154874 119.118065 
L 938.757819 118.98842 
L 938.757819 118.98842 
" clip-path="url(#pa8d52f950a)" style="fill: none; stroke: #e69f00; stroke-width: 2; stroke-linecap: square"/>
   </g>
   <g id="line2d_67">
    <path d="M 556.944596 351.512628 
L 557.326505 351.397224 
L 557.708413 351.054943 
L 558.185799 350.317142 
L 558.758662 348.992848 
L 559.427002 346.868985 
L 560.286297 343.274113 
L 561.241069 338.221516 
L 562.386795 330.825165 
L 563.723475 320.578492 
L 565.25111 307.072386 
L 567.160654 288.086438 
L 569.738537 259.999648 
L 577.75862 170.994305 
L 580.050072 148.799237 
L 582.055093 131.4507 
L 583.869159 117.628494 
L 585.492271 106.8647 
L 587.019906 98.155689 
L 588.452064 91.249468 
L 589.788744 85.890838 
L 591.029947 81.833999 
L 592.175673 78.850585 
L 593.225922 76.734252 
L 594.180694 75.302718 
L 595.039989 74.398035 
L 595.803806 73.885688 
L 596.567623 73.635671 
L 597.331441 73.635619 
L 598.095258 73.87273 
L 598.954553 74.406557 
L 599.813847 75.20469 
L 600.864096 76.510632 
L 602.009822 78.309969 
L 603.346503 80.842288 
L 604.969615 84.442301 
L 606.879158 89.248877 
L 609.552519 96.649976 
L 617.095216 117.89836 
L 619.482145 123.766366 
L 621.487166 128.138989 
L 623.301232 131.59935 
L 625.019822 134.414441 
L 626.642934 136.64718 
L 628.170568 138.368703 
L 629.602726 139.65239 
L 630.939407 140.569714 
L 632.276087 141.226019 
L 633.612767 141.633695 
L 634.949448 141.807256 
L 636.286128 141.762975 
L 637.718286 141.493898 
L 639.245921 140.979644 
L 640.96451 140.156349 
L 642.874053 138.987367 
L 645.165506 137.310477 
L 648.125298 134.851027 
L 657.959447 126.463232 
L 660.728285 124.503813 
L 663.306169 122.948748 
L 665.693098 121.760703 
L 668.080028 120.820468 
L 670.466957 120.12305 
L 672.853886 119.654869 
L 675.336293 119.389173 
L 678.105131 119.324053 
L 681.160401 119.482599 
L 684.88401 119.9125 
L 690.517164 120.821498 
L 698.632724 122.103893 
L 703.406582 122.62086 
L 707.89401 122.88403 
L 712.572391 122.930259 
L 717.728159 122.752913 
L 724.411561 122.283674 
L 744.652722 120.719849 
L 752.863759 120.401369 
L 762.888862 120.250402 
L 808.622429 119.841598 
L 837.170105 119.509939 
L 891.687572 119.214419 
L 938.757819 119.065051 
L 938.757819 119.065051 
" clip-path="url(#pa8d52f950a)" style="fill: none; stroke: #009e73; stroke-width: 2; stroke-linecap: square"/>
   </g>
   <g id="line2d_68">
    <path d="M 537.853935 118.872239 
L 957.84848 118.872239 
" clip-path="url(#pa8d52f950a)" style="fill: none; stroke-dasharray: 1,1.65; stroke-dashoffset: 0; stroke: #000000"/>
   </g>
   <g id="patch_6">
    <path d="M 537.853935 365.408 
L 537.853935 59.709818 
" style="fill: none; stroke: #000000; stroke-width: 0.8; stroke-linejoin: miter; stroke-linecap: square"/>
   </g>
   <g id="patch_7">
    <path d="M 537.853935 365.408 
L 957.84848 365.408 
" style="fill: none; stroke: #000000; stroke-width: 0.8; stroke-linejoin: miter; stroke-linecap: square"/>
   </g>
   <g id="text_40">
    <!-- Fig. 3.44: integral action removes the offset -->
    <g transform="translate(583.411364 53.709818) scale(0.15 -0.15)">
     <defs>
      <path id="DejaVuSans-59" d="M 191 3500 
L 800 3500 
L 1894 563 
L 2988 3500 
L 3597 3500 
L 2284 0 
L 1503 0 
L 191 3500 
z
" transform="scale(0.015625)"/>
      <path id="DejaVuSans-4b" d="M 3513 2113 
L 3513 0 
L 2938 0 
L 2938 2094 
Q 2938 2591 2744 2837 
Q 2550 3084 2163 3084 
Q 1697 3084 1428 2787 
Q 1159 2491 1159 1978 
L 1159 0 
L 581 0 
L 581 4863 
L 1159 4863 
L 1159 2956 
Q 1366 3272 1645 3428 
Q 1925 3584 2291 3584 
Q 2894 3584 3203 3211 
Q 3513 2838 3513 2113 
z
" transform="scale(0.015625)"/>
      <path id="DejaVuSans-13ae" d="M 4531 4863 
L 4531 4384 
L 3981 4384 
Q 3672 4384 3551 4259 
Q 3431 4134 3431 3809 
L 3431 3500 
L 4378 3500 
L 4378 3053 
L 3431 3053 
L 3431 0 
L 2853 0 
L 2853 3053 
L 1275 3053 
L 1275 0 
L 697 0 
L 697 3053 
L 147 3053 
L 147 3500 
L 697 3500 
L 697 3744 
Q 697 4328 969 4595 
Q 1241 4863 1831 4863 
L 2375 4863 
L 2375 4384 
L 1825 4384 
Q 1516 4384 1394 4259 
Q 1275 4134 1275 3809 
L 1275 3500 
L 2853 3500 
L 2853 3744 
Q 2853 4328 3125 4595 
Q 3397 4863 3988 4863 
L 4531 4863 
z
" transform="scale(0.015625)"/>
     </defs>
     <use xlink:href="#DejaVuSans-29"/>
     <use xlink:href="#DejaVuSans-4c" transform="translate(50.234375 0)"/>
     <use xlink:href="#DejaVuSans-4a" transform="translate(78.015625 0)"/>
     <use xlink:href="#DejaVuSans-11" transform="translate(141.5 0)"/>
     <use xlink:href="#DejaVuSans-3" transform="translate(173.28125 0)"/>
     <use xlink:href="#DejaVuSans-16" transform="translate(205.0625 0)"/>
     <use xlink:href="#DejaVuSans-11" transform="translate(268.6875 0)"/>
     <use xlink:href="#DejaVuSans-17" transform="translate(300.46875 0)"/>
     <use xlink:href="#DejaVuSans-17" transform="translate(364.09375 0)"/>
     <use xlink:href="#DejaVuSans-1d" transform="translate(427.71875 0)"/>
     <use xlink:href="#DejaVuSans-3" transform="translate(461.40625 0)"/>
     <use xlink:href="#DejaVuSans-4c" transform="translate(493.1875 0)"/>
     <use xlink:href="#DejaVuSans-51" transform="translate(520.96875 0)"/>
     <use xlink:href="#DejaVuSans-57" transform="translate(584.34375 0)"/>
     <use xlink:href="#DejaVuSans-48" transform="translate(623.546875 0)"/>
     <use xlink:href="#DejaVuSans-4a" transform="translate(685.078125 0)"/>
     <use xlink:href="#DejaVuSans-55" transform="translate(748.5625 0)"/>
     <use xlink:href="#DejaVuSans-44" transform="translate(789.671875 0)"/>
     <use xlink:href="#DejaVuSans-4f" transform="translate(850.953125 0)"/>
     <use xlink:href="#DejaVuSans-3" transform="translate(878.734375 0)"/>
     <use xlink:href="#DejaVuSans-44" transform="translate(910.515625 0)"/>
     <use xlink:href="#DejaVuSans-46" transform="translate(971.796875 0)"/>
     <use xlink:href="#DejaVuSans-57" transform="translate(1026.78125 0)"/>
     <use xlink:href="#DejaVuSans-4c" transform="translate(1065.984375 0)"/>
     <use xlink:href="#DejaVuSans-52" transform="translate(1093.765625 0)"/>
     <use xlink:href="#DejaVuSans-51" transform="translate(1154.953125 0)"/>
     <use xlink:href="#DejaVuSans-3" transform="translate(1218.328125 0)"/>
     <use xlink:href="#DejaVuSans-55" transform="translate(1250.109375 0)"/>
     <use xlink:href="#DejaVuSans-48" transform="translate(1289.015625 0)"/>
     <use xlink:href="#DejaVuSans-50" transform="translate(1350.546875 0)"/>
     <use xlink:href="#DejaVuSans-52" transform="translate(1447.953125 0)"/>
     <use xlink:href="#DejaVuSans-59" transform="translate(1509.140625 0)"/>
     <use xlink:href="#DejaVuSans-48" transform="translate(1568.328125 0)"/>
     <use xlink:href="#DejaVuSans-56" transform="translate(1629.859375 0)"/>
     <use xlink:href="#DejaVuSans-3" transform="translate(1681.953125 0)"/>
     <use xlink:href="#DejaVuSans-57" transform="translate(1713.734375 0)"/>
     <use xlink:href="#DejaVuSans-4b" transform="translate(1752.9375 0)"/>
     <use xlink:href="#DejaVuSans-48" transform="translate(1816.3125 0)"/>
     <use xlink:href="#DejaVuSans-3" transform="translate(1877.84375 0)"/>
     <use xlink:href="#DejaVuSans-52" transform="translate(1909.625 0)"/>
     <use xlink:href="#DejaVuSans-13ae" transform="translate(1970.8125 0)"/>
     <use xlink:href="#DejaVuSans-56" transform="translate(2039.703125 0)"/>
     <use xlink:href="#DejaVuSans-48" transform="translate(2091.796875 0)"/>
     <use xlink:href="#DejaVuSans-57" transform="translate(2153.328125 0)"/>
    </g>
   </g>
   <g id="legend_2">
    <g id="line2d_69">
     <path d="M 845.07848 73.463178 
L 855.57848 73.463178 
L 866.07848 73.463178 
" style="fill: none; stroke: #d55e00; stroke-width: 2; stroke-linecap: square"/>
    </g>
    <g id="text_41">
     <!-- $K$ = 1, $K_I$ = 0 -->
     <g transform="translate(874.47848 77.138178) scale(0.105 -0.105)">
      <use xlink:href="#DejaVuSans-Oblique-2e" transform="translate(0 0.78125)"/>
      <use xlink:href="#DejaVuSans-3" transform="translate(65.576172 0.78125)"/>
      <use xlink:href="#DejaVuSans-20" transform="translate(97.363281 0.78125)"/>
      <use xlink:href="#DejaVuSans-3" transform="translate(181.152344 0.78125)"/>
      <use xlink:href="#DejaVuSans-14" transform="translate(212.939453 0.78125)"/>
      <use xlink:href="#DejaVuSans-f" transform="translate(276.5625 0.78125)"/>
      <use xlink:href="#DejaVuSans-3" transform="translate(308.349609 0.78125)"/>
      <use xlink:href="#DejaVuSans-Oblique-2e" transform="translate(340.136719 0.78125)"/>
      <use xlink:href="#DejaVuSans-Oblique-2c" transform="translate(405.712891 -14.218701) scale(0.7)"/>
      <use xlink:href="#DejaVuSans-3" transform="translate(429.091797 0.78125)"/>
      <use xlink:href="#DejaVuSans-20" transform="translate(460.878906 0.78125)"/>
      <use xlink:href="#DejaVuSans-3" transform="translate(544.667969 0.78125)"/>
      <use xlink:href="#DejaVuSans-13" transform="translate(576.455078 0.78125)"/>
     </g>
    </g>
    <g id="line2d_70">
     <path d="M 845.07848 89.213998 
L 855.57848 89.213998 
L 866.07848 89.213998 
" style="fill: none; stroke: #e69f00; stroke-width: 2; stroke-linecap: square"/>
    </g>
    <g id="text_42">
     <!-- $K$ = 1, $K_I$ = 1 -->
     <g transform="translate(874.47848 92.888998) scale(0.105 -0.105)">
      <use xlink:href="#DejaVuSans-Oblique-2e" transform="translate(0 0.09375)"/>
      <use xlink:href="#DejaVuSans-3" transform="translate(65.576172 0.09375)"/>
      <use xlink:href="#DejaVuSans-20" transform="translate(97.363281 0.09375)"/>
      <use xlink:href="#DejaVuSans-3" transform="translate(181.152344 0.09375)"/>
      <use xlink:href="#DejaVuSans-14" transform="translate(212.939453 0.09375)"/>
      <use xlink:href="#DejaVuSans-f" transform="translate(276.5625 0.09375)"/>
      <use xlink:href="#DejaVuSans-3" transform="translate(308.349609 0.09375)"/>
      <use xlink:href="#DejaVuSans-Oblique-2e" transform="translate(340.136719 0.09375)"/>
      <use xlink:href="#DejaVuSans-Oblique-2c" transform="translate(405.712891 -14.906201) scale(0.7)"/>
      <use xlink:href="#DejaVuSans-3" transform="translate(429.091797 0.09375)"/>
      <use xlink:href="#DejaVuSans-20" transform="translate(460.878906 0.09375)"/>
      <use xlink:href="#DejaVuSans-3" transform="translate(544.667969 0.09375)"/>
      <use xlink:href="#DejaVuSans-14" transform="translate(576.455078 0.09375)"/>
     </g>
    </g>
    <g id="line2d_71">
     <path d="M 845.07848 104.964818 
L 855.57848 104.964818 
L 866.07848 104.964818 
" style="fill: none; stroke: #009e73; stroke-width: 2; stroke-linecap: square"/>
    </g>
    <g id="text_43">
     <!-- $K$ = 10, $K_I$ = 5 -->
     <g transform="translate(874.47848 108.639818) scale(0.105 -0.105)">
      <use xlink:href="#DejaVuSans-Oblique-2e" transform="translate(0 0.78125)"/>
      <use xlink:href="#DejaVuSans-3" transform="translate(65.576172 0.78125)"/>
      <use xlink:href="#DejaVuSans-20" transform="translate(97.363281 0.78125)"/>
      <use xlink:href="#DejaVuSans-3" transform="translate(181.152344 0.78125)"/>
      <use xlink:href="#DejaVuSans-14" transform="translate(212.939453 0.78125)"/>
      <use xlink:href="#DejaVuSans-13" transform="translate(276.5625 0.78125)"/>
      <use xlink:href="#DejaVuSans-f" transform="translate(340.185547 0.78125)"/>
      <use xlink:href="#DejaVuSans-3" transform="translate(371.972656 0.78125)"/>
      <use xlink:href="#DejaVuSans-Oblique-2e" transform="translate(403.759766 0.78125)"/>
      <use xlink:href="#DejaVuSans-Oblique-2c" transform="translate(469.335938 -14.218701) scale(0.7)"/>
      <use xlink:href="#DejaVuSans-3" transform="translate(492.714844 0.78125)"/>
      <use xlink:href="#DejaVuSans-20" transform="translate(524.501953 0.78125)"/>
      <use xlink:href="#DejaVuSans-3" transform="translate(608.291016 0.78125)"/>
      <use xlink:href="#DejaVuSans-18" transform="translate(640.078125 0.78125)"/>
     </g>
    </g>
   </g>
  </g>
  <g id="text_44">
   <!-- Example 3.34: stability as a region, not a number -->
   <g transform="translate(296.267386 18.597656) scale(0.15 -0.15)">
    <defs>
     <path id="DejaVuSans-28" d="M 628 4666 
L 3578 4666 
L 3578 4134 
L 1259 4134 
L 1259 2753 
L 3481 2753 
L 3481 2222 
L 1259 2222 
L 1259 531 
L 3634 531 
L 3634 0 
L 628 0 
L 628 4666 
z
" transform="scale(0.015625)"/>
     <path id="DejaVuSans-5b" d="M 3513 3500 
L 2247 1797 
L 3578 0 
L 2900 0 
L 1881 1375 
L 863 0 
L 184 0 
L 1544 1831 
L 300 3500 
L 978 3500 
L 1906 2253 
L 2834 3500 
L 3513 3500 
z
" transform="scale(0.015625)"/>
    </defs>
    <use xlink:href="#DejaVuSans-28"/>
    <use xlink:href="#DejaVuSans-5b" transform="translate(63.1875 0)"/>
    <use xlink:href="#DejaVuSans-44" transform="translate(122.375 0)"/>
    <use xlink:href="#DejaVuSans-50" transform="translate(183.65625 0)"/>
    <use xlink:href="#DejaVuSans-53" transform="translate(281.0625 0)"/>
    <use xlink:href="#DejaVuSans-4f" transform="translate(344.546875 0)"/>
    <use xlink:href="#DejaVuSans-48" transform="translate(372.328125 0)"/>
    <use xlink:href="#DejaVuSans-3" transform="translate(433.859375 0)"/>
    <use xlink:href="#DejaVuSans-16" transform="translate(465.640625 0)"/>
    <use xlink:href="#DejaVuSans-11" transform="translate(529.265625 0)"/>
    <use xlink:href="#DejaVuSans-16" transform="translate(561.046875 0)"/>
    <use xlink:href="#DejaVuSans-17" transform="translate(624.671875 0)"/>
    <use xlink:href="#DejaVuSans-1d" transform="translate(688.296875 0)"/>
    <use xlink:href="#DejaVuSans-3" transform="translate(721.984375 0)"/>
    <use xlink:href="#DejaVuSans-56" transform="translate(753.765625 0)"/>
    <use xlink:href="#DejaVuSans-57" transform="translate(805.859375 0)"/>
    <use xlink:href="#DejaVuSans-44" transform="translate(845.0625 0)"/>
    <use xlink:href="#DejaVuSans-45" transform="translate(906.34375 0)"/>
    <use xlink:href="#DejaVuSans-4c" transform="translate(969.828125 0)"/>
    <use xlink:href="#DejaVuSans-4f" transform="translate(997.609375 0)"/>
    <use xlink:href="#DejaVuSans-4c" transform="translate(1025.390625 0)"/>
    <use xlink:href="#DejaVuSans-57" transform="translate(1053.171875 0)"/>
    <use xlink:href="#DejaVuSans-5c" transform="translate(1092.375 0)"/>
    <use xlink:href="#DejaVuSans-3" transform="translate(1151.5625 0)"/>
    <use xlink:href="#DejaVuSans-44" transform="translate(1183.34375 0)"/>
    <use xlink:href="#DejaVuSans-56" transform="translate(1244.625 0)"/>
    <use xlink:href="#DejaVuSans-3" transform="translate(1296.71875 0)"/>
    <use xlink:href="#DejaVuSans-44" transform="translate(1328.5 0)"/>
    <use xlink:href="#DejaVuSans-3" transform="translate(1389.78125 0)"/>
    <use xlink:href="#DejaVuSans-55" transform="translate(1421.5625 0)"/>
    <use xlink:href="#DejaVuSans-48" transform="translate(1460.46875 0)"/>
    <use xlink:href="#DejaVuSans-4a" transform="translate(1522 0)"/>
    <use xlink:href="#DejaVuSans-4c" transform="translate(1585.484375 0)"/>
    <use xlink:href="#DejaVuSans-52" transform="translate(1613.265625 0)"/>
    <use xlink:href="#DejaVuSans-51" transform="translate(1674.453125 0)"/>
    <use xlink:href="#DejaVuSans-f" transform="translate(1737.828125 0)"/>
    <use xlink:href="#DejaVuSans-3" transform="translate(1769.609375 0)"/>
    <use xlink:href="#DejaVuSans-51" transform="translate(1801.390625 0)"/>
    <use xlink:href="#DejaVuSans-52" transform="translate(1864.765625 0)"/>
    <use xlink:href="#DejaVuSans-57" transform="translate(1925.953125 0)"/>
    <use xlink:href="#DejaVuSans-3" transform="translate(1965.15625 0)"/>
    <use xlink:href="#DejaVuSans-44" transform="translate(1996.9375 0)"/>
    <use xlink:href="#DejaVuSans-3" transform="translate(2058.21875 0)"/>
    <use xlink:href="#DejaVuSans-51" transform="translate(2090 0)"/>
    <use xlink:href="#DejaVuSans-58" transform="translate(2153.375 0)"/>
    <use xlink:href="#DejaVuSans-50" transform="translate(2216.75 0)"/>
    <use xlink:href="#DejaVuSans-45" transform="translate(2314.15625 0)"/>
    <use xlink:href="#DejaVuSans-48" transform="translate(2377.640625 0)"/>
    <use xlink:href="#DejaVuSans-55" transform="translate(2439.171875 0)"/>
   </g>
  </g>
 </g>
 <defs>
  <clipPath id="p5756368bf5">
   <rect x="50.364844" y="59.709818" width="419.994545" height="305.698182"/>
  </clipPath>
  <clipPath id="pa8d52f950a">
   <rect x="537.853935" y="59.709818" width="419.994545" height="305.698182"/>
  </clipPath>
 </defs>
</svg>
