<?xml version="1.0" encoding="utf-8" standalone="no"?>
<!DOCTYPE svg PUBLIC "-//W3C//DTD SVG 1.1//EN"
  "http://www.w3.org/Graphics/SVG/1.1/DTD/svg11.dtd">
<svg xmlns:xlink="http://www.w3.org/1999/xlink" width="1138.048608pt" height="346.322187pt" viewBox="0 0 1138.048608 346.322187" xmlns="http://www.w3.org/2000/svg" version="1.1">
 <metadata>
  <rdf:RDF xmlns:dc="http://purl.org/dc/elements/1.1/" xmlns:cc="http://creativecommons.org/ns#" xmlns:rdf="http://www.w3.org/1999/02/22-rdf-syntax-ns#">
   <cc:Work>
    <dc:type rdf:resource="http://purl.org/dc/dcmitype/StillImage"/>
    <dc:date>2026-10-01T03:32:50.309062</dc:date>
    <dc:format>image/svg+xml</dc:format>
    <dc:creator>
     <cc:Agent>
      <dc:title>Matplotlib v3.11.1, https://matplotlib.org/</dc:title>
     </cc:Agent>
    </dc:creator>
   </cc:Work>
  </rdf:RDF>
 </metadata>
 <defs>
  <style type="text/css">*{stroke-linejoin: round; stroke-linecap: butt}</style>
 </defs>
 <g id="figure_1">
  <g id="patch_1">
   <path d="M 0 346.322187 
L 1138.048608 346.322187 
L 1138.048608 0 
L 0 0 
z
" style="fill: #ffffff"/>
  </g>
  <g id="axes_1">
   <g id="patch_2">
    <path d="M 51.874063 302.121172 
L 365.22679 302.121172 
L 365.22679 24.597656 
L 51.874063 24.597656 
z
" style="fill: #ffffff"/>
   </g>
   <g id="matplotlib.axis_1">
    <g id="xtick_1">
     <g id="line2d_1">
      <path d="M 51.874063 302.121172 
L 51.874063 24.597656 
" clip-path="url(#pb949e5ed36)" style="fill: none; stroke: #b0b0b0; stroke-opacity: 0.25; stroke-width: 0.8; stroke-linecap: square"/>
     </g>
     <g id="line2d_2">
      <defs>
       <path id="mc7939f702a" d="M 0 0 
L 0 3.5 
" style="stroke: #000000; stroke-width: 0.8"/>
      </defs>
      <g>
       <use xlink:href="#mc7939f702a" x="51.874063" y="302.121172" style="stroke: #000000; stroke-width: 0.8"/>
      </g>
     </g>
     <g id="text_1">
      <!-- 0.0 -->
      <g transform="translate(41.537031 318.998125) scale(0.13 -0.13)">
       <defs>
        <path id="DejaVuSans-13" d="M 2034 4250 
Q 1547 4250 1301 3770 
Q 1056 3291 1056 2328 
Q 1056 1369 1301 889 
Q 1547 409 2034 409 
Q 2525 409 2770 889 
Q 3016 1369 3016 2328 
Q 3016 3291 2770 3770 
Q 2525 4250 2034 4250 
z
M 2034 4750 
Q 2819 4750 3233 4129 
Q 3647 3509 3647 2328 
Q 3647 1150 3233 529 
Q 2819 -91 2034 -91 
Q 1250 -91 836 529 
Q 422 1150 422 2328 
Q 422 3509 836 4129 
Q 1250 4750 2034 4750 
z
" transform="scale(0.015625)"/>
        <path id="DejaVuSans-11" d="M 684 794 
L 1344 794 
L 1344 0 
L 684 0 
L 684 794 
z
" transform="scale(0.015625)"/>
       </defs>
       <use xlink:href="#DejaVuSans-13"/>
       <use xlink:href="#DejaVuSans-11" transform="translate(63.625 0)"/>
       <use xlink:href="#DejaVuSans-13" transform="translate(95.40625 0)"/>
      </g>
     </g>
    </g>
    <g id="xtick_2">
     <g id="line2d_3">
      <path d="M 104.099517 302.121172 
L 104.099517 24.597656 
" clip-path="url(#pb949e5ed36)" style="fill: none; stroke: #b0b0b0; stroke-opacity: 0.25; stroke-width: 0.8; stroke-linecap: square"/>
     </g>
     <g id="line2d_4">
      <g>
       <use xlink:href="#mc7939f702a" x="104.099517" y="302.121172" style="stroke: #000000; stroke-width: 0.8"/>
      </g>
     </g>
     <g id="text_2">
      <!-- 0.5 -->
      <g transform="translate(93.762486 318.998125) scale(0.13 -0.13)">
       <defs>
        <path id="DejaVuSans-18" d="M 691 4666 
L 3169 4666 
L 3169 4134 
L 1269 4134 
L 1269 2991 
Q 1406 3038 1543 3061 
Q 1681 3084 1819 3084 
Q 2600 3084 3056 2656 
Q 3513 2228 3513 1497 
Q 3513 744 3044 326 
Q 2575 -91 1722 -91 
Q 1428 -91 1123 -41 
Q 819 9 494 109 
L 494 744 
Q 775 591 1075 516 
Q 1375 441 1709 441 
Q 2250 441 2565 725 
Q 2881 1009 2881 1497 
Q 2881 1984 2565 2268 
Q 2250 2553 1709 2553 
Q 1456 2553 1204 2497 
Q 953 2441 691 2322 
L 691 4666 
z
" transform="scale(0.015625)"/>
       </defs>
       <use xlink:href="#DejaVuSans-13"/>
       <use xlink:href="#DejaVuSans-11" transform="translate(63.625 0)"/>
       <use xlink:href="#DejaVuSans-18" transform="translate(95.40625 0)"/>
      </g>
     </g>
    </g>
    <g id="xtick_3">
     <g id="line2d_5">
      <path d="M 156.324972 302.121172 
L 156.324972 24.597656 
" clip-path="url(#pb949e5ed36)" style="fill: none; stroke: #b0b0b0; stroke-opacity: 0.25; stroke-width: 0.8; stroke-linecap: square"/>
     </g>
     <g id="line2d_6">
      <g>
       <use xlink:href="#mc7939f702a" x="156.324972" y="302.121172" style="stroke: #000000; stroke-width: 0.8"/>
      </g>
     </g>
     <g id="text_3">
      <!-- 1.0 -->
      <g transform="translate(145.98794 318.998125) scale(0.13 -0.13)">
       <defs>
        <path id="DejaVuSans-14" d="M 794 531 
L 1825 531 
L 1825 4091 
L 703 3866 
L 703 4441 
L 1819 4666 
L 2450 4666 
L 2450 531 
L 3481 531 
L 3481 0 
L 794 0 
L 794 531 
z
" transform="scale(0.015625)"/>
       </defs>
       <use xlink:href="#DejaVuSans-14"/>
       <use xlink:href="#DejaVuSans-11" transform="translate(63.625 0)"/>
       <use xlink:href="#DejaVuSans-13" transform="translate(95.40625 0)"/>
      </g>
     </g>
    </g>
    <g id="xtick_4">
     <g id="line2d_7">
      <path d="M 208.550426 302.121172 
L 208.550426 24.597656 
" clip-path="url(#pb949e5ed36)" style="fill: none; stroke: #b0b0b0; stroke-opacity: 0.25; stroke-width: 0.8; stroke-linecap: square"/>
     </g>
     <g id="line2d_8">
      <g>
       <use xlink:href="#mc7939f702a" x="208.550426" y="302.121172" style="stroke: #000000; stroke-width: 0.8"/>
      </g>
     </g>
     <g id="text_4">
      <!-- 1.5 -->
      <g transform="translate(198.213395 318.998125) scale(0.13 -0.13)">
       <use xlink:href="#DejaVuSans-14"/>
       <use xlink:href="#DejaVuSans-11" transform="translate(63.625 0)"/>
       <use xlink:href="#DejaVuSans-18" transform="translate(95.40625 0)"/>
      </g>
     </g>
    </g>
    <g id="xtick_5">
     <g id="line2d_9">
      <path d="M 260.775881 302.121172 
L 260.775881 24.597656 
" clip-path="url(#pb949e5ed36)" style="fill: none; stroke: #b0b0b0; stroke-opacity: 0.25; stroke-width: 0.8; stroke-linecap: square"/>
     </g>
     <g id="line2d_10">
      <g>
       <use xlink:href="#mc7939f702a" x="260.775881" y="302.121172" style="stroke: #000000; stroke-width: 0.8"/>
      </g>
     </g>
     <g id="text_5">
      <!-- 2.0 -->
      <g transform="translate(250.438849 318.998125) scale(0.13 -0.13)">
       <defs>
        <path id="DejaVuSans-15" d="M 1228 531 
L 3431 531 
L 3431 0 
L 469 0 
L 469 531 
Q 828 903 1448 1529 
Q 2069 2156 2228 2338 
Q 2531 2678 2651 2914 
Q 2772 3150 2772 3378 
Q 2772 3750 2511 3984 
Q 2250 4219 1831 4219 
Q 1534 4219 1204 4116 
Q 875 4013 500 3803 
L 500 4441 
Q 881 4594 1212 4672 
Q 1544 4750 1819 4750 
Q 2544 4750 2975 4387 
Q 3406 4025 3406 3419 
Q 3406 3131 3298 2873 
Q 3191 2616 2906 2266 
Q 2828 2175 2409 1742 
Q 1991 1309 1228 531 
z
" transform="scale(0.015625)"/>
       </defs>
       <use xlink:href="#DejaVuSans-15"/>
       <use xlink:href="#DejaVuSans-11" transform="translate(63.625 0)"/>
       <use xlink:href="#DejaVuSans-13" transform="translate(95.40625 0)"/>
      </g>
     </g>
    </g>
    <g id="xtick_6">
     <g id="line2d_11">
      <path d="M 313.001335 302.121172 
L 313.001335 24.597656 
" clip-path="url(#pb949e5ed36)" style="fill: none; stroke: #b0b0b0; stroke-opacity: 0.25; stroke-width: 0.8; stroke-linecap: square"/>
     </g>
     <g id="line2d_12">
      <g>
       <use xlink:href="#mc7939f702a" x="313.001335" y="302.121172" style="stroke: #000000; stroke-width: 0.8"/>
      </g>
     </g>
     <g id="text_6">
      <!-- 2.5 -->
      <g transform="translate(302.664304 318.998125) scale(0.13 -0.13)">
       <use xlink:href="#DejaVuSans-15"/>
       <use xlink:href="#DejaVuSans-11" transform="translate(63.625 0)"/>
       <use xlink:href="#DejaVuSans-18" transform="translate(95.40625 0)"/>
      </g>
     </g>
    </g>
    <g id="xtick_7">
     <g id="line2d_13">
      <path d="M 365.22679 302.121172 
L 365.22679 24.597656 
" clip-path="url(#pb949e5ed36)" style="fill: none; stroke: #b0b0b0; stroke-opacity: 0.25; stroke-width: 0.8; stroke-linecap: square"/>
     </g>
     <g id="line2d_14">
      <g>
       <use xlink:href="#mc7939f702a" x="365.22679" y="302.121172" style="stroke: #000000; stroke-width: 0.8"/>
      </g>
     </g>
     <g id="text_7">
      <!-- 3.0 -->
      <g transform="translate(354.889759 318.998125) scale(0.13 -0.13)">
       <defs>
        <path id="DejaVuSans-16" d="M 2597 2516 
Q 3050 2419 3304 2112 
Q 3559 1806 3559 1356 
Q 3559 666 3084 287 
Q 2609 -91 1734 -91 
Q 1441 -91 1130 -33 
Q 819 25 488 141 
L 488 750 
Q 750 597 1062 519 
Q 1375 441 1716 441 
Q 2309 441 2620 675 
Q 2931 909 2931 1356 
Q 2931 1769 2642 2001 
Q 2353 2234 1838 2234 
L 1294 2234 
L 1294 2753 
L 1863 2753 
Q 2328 2753 2575 2939 
Q 2822 3125 2822 3475 
Q 2822 3834 2567 4026 
Q 2313 4219 1838 4219 
Q 1578 4219 1281 4162 
Q 984 4106 628 3988 
L 628 4550 
Q 988 4650 1302 4700 
Q 1616 4750 1894 4750 
Q 2613 4750 3031 4423 
Q 3450 4097 3450 3541 
Q 3450 3153 3228 2886 
Q 3006 2619 2597 2516 
z
" transform="scale(0.015625)"/>
       </defs>
       <use xlink:href="#DejaVuSans-16"/>
       <use xlink:href="#DejaVuSans-11" transform="translate(63.625 0)"/>
       <use xlink:href="#DejaVuSans-13" transform="translate(95.40625 0)"/>
      </g>
     </g>
    </g>
    <g id="text_8">
     <!-- time [s] -->
     <g transform="translate(183.341598 335.999141) scale(0.13 -0.13)">
      <defs>
       <path id="DejaVuSans-57" d="M 1172 4494 
L 1172 3500 
L 2356 3500 
L 2356 3053 
L 1172 3053 
L 1172 1153 
Q 1172 725 1289 603 
Q 1406 481 1766 481 
L 2356 481 
L 2356 0 
L 1766 0 
Q 1100 0 847 248 
Q 594 497 594 1153 
L 594 3053 
L 172 3053 
L 172 3500 
L 594 3500 
L 594 4494 
L 1172 4494 
z
" transform="scale(0.015625)"/>
       <path id="DejaVuSans-4c" d="M 603 3500 
L 1178 3500 
L 1178 0 
L 603 0 
L 603 3500 
z
M 603 4863 
L 1178 4863 
L 1178 4134 
L 603 4134 
L 603 4863 
z
" transform="scale(0.015625)"/>
       <path id="DejaVuSans-50" d="M 3328 2828 
Q 3544 3216 3844 3400 
Q 4144 3584 4550 3584 
Q 5097 3584 5394 3201 
Q 5691 2819 5691 2113 
L 5691 0 
L 5113 0 
L 5113 2094 
Q 5113 2597 4934 2840 
Q 4756 3084 4391 3084 
Q 3944 3084 3684 2787 
Q 3425 2491 3425 1978 
L 3425 0 
L 2847 0 
L 2847 2094 
Q 2847 2600 2669 2842 
Q 2491 3084 2119 3084 
Q 1678 3084 1418 2786 
Q 1159 2488 1159 1978 
L 1159 0 
L 581 0 
L 581 3500 
L 1159 3500 
L 1159 2956 
Q 1356 3278 1631 3431 
Q 1906 3584 2284 3584 
Q 2666 3584 2933 3390 
Q 3200 3197 3328 2828 
z
" transform="scale(0.015625)"/>
       <path id="DejaVuSans-48" d="M 3597 1894 
L 3597 1613 
L 953 1613 
Q 991 1019 1311 708 
Q 1631 397 2203 397 
Q 2534 397 2845 478 
Q 3156 559 3463 722 
L 3463 178 
Q 3153 47 2828 -22 
Q 2503 -91 2169 -91 
Q 1331 -91 842 396 
Q 353 884 353 1716 
Q 353 2575 817 3079 
Q 1281 3584 2069 3584 
Q 2775 3584 3186 3129 
Q 3597 2675 3597 1894 
z
M 3022 2063 
Q 3016 2534 2758 2815 
Q 2500 3097 2075 3097 
Q 1594 3097 1305 2825 
Q 1016 2553 972 2059 
L 3022 2063 
z
" transform="scale(0.015625)"/>
       <path id="DejaVuSans-3" transform="scale(0.015625)"/>
       <path id="DejaVuSans-3e" d="M 550 4863 
L 1875 4863 
L 1875 4416 
L 1125 4416 
L 1125 -397 
L 1875 -397 
L 1875 -844 
L 550 -844 
L 550 4863 
z
" transform="scale(0.015625)"/>
       <path id="DejaVuSans-56" d="M 2834 3397 
L 2834 2853 
Q 2591 2978 2328 3040 
Q 2066 3103 1784 3103 
Q 1356 3103 1142 2972 
Q 928 2841 928 2578 
Q 928 2378 1081 2264 
Q 1234 2150 1697 2047 
L 1894 2003 
Q 2506 1872 2764 1633 
Q 3022 1394 3022 966 
Q 3022 478 2636 193 
Q 2250 -91 1575 -91 
Q 1294 -91 989 -36 
Q 684 19 347 128 
L 347 722 
Q 666 556 975 473 
Q 1284 391 1588 391 
Q 1994 391 2212 530 
Q 2431 669 2431 922 
Q 2431 1156 2273 1281 
Q 2116 1406 1581 1522 
L 1381 1569 
Q 847 1681 609 1914 
Q 372 2147 372 2553 
Q 372 3047 722 3315 
Q 1072 3584 1716 3584 
Q 2034 3584 2315 3537 
Q 2597 3491 2834 3397 
z
" transform="scale(0.015625)"/>
       <path id="DejaVuSans-40" d="M 1947 4863 
L 1947 -844 
L 622 -844 
L 622 -397 
L 1369 -397 
L 1369 4416 
L 622 4416 
L 622 4863 
L 1947 4863 
z
" transform="scale(0.015625)"/>
      </defs>
      <use xlink:href="#DejaVuSans-57"/>
      <use xlink:href="#DejaVuSans-4c" transform="translate(39.203125 0)"/>
      <use xlink:href="#DejaVuSans-50" transform="translate(66.984375 0)"/>
      <use xlink:href="#DejaVuSans-48" transform="translate(164.390625 0)"/>
      <use xlink:href="#DejaVuSans-3" transform="translate(225.921875 0)"/>
      <use xlink:href="#DejaVuSans-3e" transform="translate(257.703125 0)"/>
      <use xlink:href="#DejaVuSans-56" transform="translate(296.71875 0)"/>
      <use xlink:href="#DejaVuSans-40" transform="translate(348.8125 0)"/>
     </g>
    </g>
   </g>
   <g id="matplotlib.axis_2">
    <g id="ytick_1">
     <g id="line2d_15">
      <path d="M 51.874063 289.506467 
L 365.22679 289.506467 
" clip-path="url(#pb949e5ed36)" style="fill: none; stroke: #b0b0b0; stroke-opacity: 0.25; stroke-width: 0.8; stroke-linecap: square"/>
     </g>
     <g id="line2d_16">
      <defs>
       <path id="mbe4ab7c347" d="M 0 0 
L -3.5 0 
" style="stroke: #000000; stroke-width: 0.8"/>
      </defs>
      <g>
       <use xlink:href="#mbe4ab7c347" x="51.874063" y="289.506467" style="stroke: #000000; stroke-width: 0.8"/>
      </g>
     </g>
     <g id="text_9">
      <!-- 0.0 -->
      <g transform="translate(24.2 294.444943) scale(0.13 -0.13)">
       <use xlink:href="#DejaVuSans-13"/>
       <use xlink:href="#DejaVuSans-11" transform="translate(63.625 0)"/>
       <use xlink:href="#DejaVuSans-13" transform="translate(95.40625 0)"/>
      </g>
     </g>
    </g>
    <g id="ytick_2">
     <g id="line2d_17">
      <path d="M 51.874063 246.553216 
L 365.22679 246.553216 
" clip-path="url(#pb949e5ed36)" style="fill: none; stroke: #b0b0b0; stroke-opacity: 0.25; stroke-width: 0.8; stroke-linecap: square"/>
     </g>
     <g id="line2d_18">
      <g>
       <use xlink:href="#mbe4ab7c347" x="51.874063" y="246.553216" style="stroke: #000000; stroke-width: 0.8"/>
      </g>
     </g>
     <g id="text_10">
      <!-- 0.2 -->
      <g transform="translate(24.2 251.491693) scale(0.13 -0.13)">
       <use xlink:href="#DejaVuSans-13"/>
       <use xlink:href="#DejaVuSans-11" transform="translate(63.625 0)"/>
       <use xlink:href="#DejaVuSans-15" transform="translate(95.40625 0)"/>
      </g>
     </g>
    </g>
    <g id="ytick_3">
     <g id="line2d_19">
      <path d="M 51.874063 203.599966 
L 365.22679 203.599966 
" clip-path="url(#pb949e5ed36)" style="fill: none; stroke: #b0b0b0; stroke-opacity: 0.25; stroke-width: 0.8; stroke-linecap: square"/>
     </g>
     <g id="line2d_20">
      <g>
       <use xlink:href="#mbe4ab7c347" x="51.874063" y="203.599966" style="stroke: #000000; stroke-width: 0.8"/>
      </g>
     </g>
     <g id="text_11">
      <!-- 0.4 -->
      <g transform="translate(24.2 208.538443) scale(0.13 -0.13)">
       <defs>
        <path id="DejaVuSans-17" d="M 2419 4116 
L 825 1625 
L 2419 1625 
L 2419 4116 
z
M 2253 4666 
L 3047 4666 
L 3047 1625 
L 3713 1625 
L 3713 1100 
L 3047 1100 
L 3047 0 
L 2419 0 
L 2419 1100 
L 313 1100 
L 313 1709 
L 2253 4666 
z
" transform="scale(0.015625)"/>
       </defs>
       <use xlink:href="#DejaVuSans-13"/>
       <use xlink:href="#DejaVuSans-11" transform="translate(63.625 0)"/>
       <use xlink:href="#DejaVuSans-17" transform="translate(95.40625 0)"/>
      </g>
     </g>
    </g>
    <g id="ytick_4">
     <g id="line2d_21">
      <path d="M 51.874063 160.646716 
L 365.22679 160.646716 
" clip-path="url(#pb949e5ed36)" style="fill: none; stroke: #b0b0b0; stroke-opacity: 0.25; stroke-width: 0.8; stroke-linecap: square"/>
     </g>
     <g id="line2d_22">
      <g>
       <use xlink:href="#mbe4ab7c347" x="51.874063" y="160.646716" style="stroke: #000000; stroke-width: 0.8"/>
      </g>
     </g>
     <g id="text_12">
      <!-- 0.6 -->
      <g transform="translate(24.2 165.585192) scale(0.13 -0.13)">
       <defs>
        <path id="DejaVuSans-19" d="M 2113 2584 
Q 1688 2584 1439 2293 
Q 1191 2003 1191 1497 
Q 1191 994 1439 701 
Q 1688 409 2113 409 
Q 2538 409 2786 701 
Q 3034 994 3034 1497 
Q 3034 2003 2786 2293 
Q 2538 2584 2113 2584 
z
M 3366 4563 
L 3366 3988 
Q 3128 4100 2886 4159 
Q 2644 4219 2406 4219 
Q 1781 4219 1451 3797 
Q 1122 3375 1075 2522 
Q 1259 2794 1537 2939 
Q 1816 3084 2150 3084 
Q 2853 3084 3261 2657 
Q 3669 2231 3669 1497 
Q 3669 778 3244 343 
Q 2819 -91 2113 -91 
Q 1303 -91 875 529 
Q 447 1150 447 2328 
Q 447 3434 972 4092 
Q 1497 4750 2381 4750 
Q 2619 4750 2861 4703 
Q 3103 4656 3366 4563 
z
" transform="scale(0.015625)"/>
       </defs>
       <use xlink:href="#DejaVuSans-13"/>
       <use xlink:href="#DejaVuSans-11" transform="translate(63.625 0)"/>
       <use xlink:href="#DejaVuSans-19" transform="translate(95.40625 0)"/>
      </g>
     </g>
    </g>
    <g id="ytick_5">
     <g id="line2d_23">
      <path d="M 51.874063 117.693466 
L 365.22679 117.693466 
" clip-path="url(#pb949e5ed36)" style="fill: none; stroke: #b0b0b0; stroke-opacity: 0.25; stroke-width: 0.8; stroke-linecap: square"/>
     </g>
     <g id="line2d_24">
      <g>
       <use xlink:href="#mbe4ab7c347" x="51.874063" y="117.693466" style="stroke: #000000; stroke-width: 0.8"/>
      </g>
     </g>
     <g id="text_13">
      <!-- 0.8 -->
      <g transform="translate(24.2 122.631942) scale(0.13 -0.13)">
       <defs>
        <path id="DejaVuSans-1b" d="M 2034 2216 
Q 1584 2216 1326 1975 
Q 1069 1734 1069 1313 
Q 1069 891 1326 650 
Q 1584 409 2034 409 
Q 2484 409 2743 651 
Q 3003 894 3003 1313 
Q 3003 1734 2745 1975 
Q 2488 2216 2034 2216 
z
M 1403 2484 
Q 997 2584 770 2862 
Q 544 3141 544 3541 
Q 544 4100 942 4425 
Q 1341 4750 2034 4750 
Q 2731 4750 3128 4425 
Q 3525 4100 3525 3541 
Q 3525 3141 3298 2862 
Q 3072 2584 2669 2484 
Q 3125 2378 3379 2068 
Q 3634 1759 3634 1313 
Q 3634 634 3220 271 
Q 2806 -91 2034 -91 
Q 1263 -91 848 271 
Q 434 634 434 1313 
Q 434 1759 690 2068 
Q 947 2378 1403 2484 
z
M 1172 3481 
Q 1172 3119 1398 2916 
Q 1625 2713 2034 2713 
Q 2441 2713 2670 2916 
Q 2900 3119 2900 3481 
Q 2900 3844 2670 4047 
Q 2441 4250 2034 4250 
Q 1625 4250 1398 4047 
Q 1172 3844 1172 3481 
z
" transform="scale(0.015625)"/>
       </defs>
       <use xlink:href="#DejaVuSans-13"/>
       <use xlink:href="#DejaVuSans-11" transform="translate(63.625 0)"/>
       <use xlink:href="#DejaVuSans-1b" transform="translate(95.40625 0)"/>
      </g>
     </g>
    </g>
    <g id="ytick_6">
     <g id="line2d_25">
      <path d="M 51.874063 74.740215 
L 365.22679 74.740215 
" clip-path="url(#pb949e5ed36)" style="fill: none; stroke: #b0b0b0; stroke-opacity: 0.25; stroke-width: 0.8; stroke-linecap: square"/>
     </g>
     <g id="line2d_26">
      <g>
       <use xlink:href="#mbe4ab7c347" x="51.874063" y="74.740215" style="stroke: #000000; stroke-width: 0.8"/>
      </g>
     </g>
     <g id="text_14">
      <!-- 1.0 -->
      <g transform="translate(24.2 79.678692) scale(0.13 -0.13)">
       <use xlink:href="#DejaVuSans-14"/>
       <use xlink:href="#DejaVuSans-11" transform="translate(63.625 0)"/>
       <use xlink:href="#DejaVuSans-13" transform="translate(95.40625 0)"/>
      </g>
     </g>
    </g>
    <g id="ytick_7">
     <g id="line2d_27">
      <path d="M 51.874063 31.786965 
L 365.22679 31.786965 
" clip-path="url(#pb949e5ed36)" style="fill: none; stroke: #b0b0b0; stroke-opacity: 0.25; stroke-width: 0.8; stroke-linecap: square"/>
     </g>
     <g id="line2d_28">
      <g>
       <use xlink:href="#mbe4ab7c347" x="51.874063" y="31.786965" style="stroke: #000000; stroke-width: 0.8"/>
      </g>
     </g>
     <g id="text_15">
      <!-- 1.2 -->
      <g transform="translate(24.2 36.725442) scale(0.13 -0.13)">
       <use xlink:href="#DejaVuSans-14"/>
       <use xlink:href="#DejaVuSans-11" transform="translate(63.625 0)"/>
       <use xlink:href="#DejaVuSans-15" transform="translate(95.40625 0)"/>
      </g>
     </g>
    </g>
    <g id="text_16">
     <!-- output -->
     <g transform="translate(17.076953 184.798242) rotate(-90) scale(0.13 -0.13)">
      <defs>
       <path id="DejaVuSans-52" d="M 1959 3097 
Q 1497 3097 1228 2736 
Q 959 2375 959 1747 
Q 959 1119 1226 758 
Q 1494 397 1959 397 
Q 2419 397 2687 759 
Q 2956 1122 2956 1747 
Q 2956 2369 2687 2733 
Q 2419 3097 1959 3097 
z
M 1959 3584 
Q 2709 3584 3137 3096 
Q 3566 2609 3566 1747 
Q 3566 888 3137 398 
Q 2709 -91 1959 -91 
Q 1206 -91 779 398 
Q 353 888 353 1747 
Q 353 2609 779 3096 
Q 1206 3584 1959 3584 
z
" transform="scale(0.015625)"/>
       <path id="DejaVuSans-58" d="M 544 1381 
L 544 3500 
L 1119 3500 
L 1119 1403 
Q 1119 906 1312 657 
Q 1506 409 1894 409 
Q 2359 409 2629 706 
Q 2900 1003 2900 1516 
L 2900 3500 
L 3475 3500 
L 3475 0 
L 2900 0 
L 2900 538 
Q 2691 219 2414 64 
Q 2138 -91 1772 -91 
Q 1169 -91 856 284 
Q 544 659 544 1381 
z
M 1991 3584 
L 1991 3584 
z
" transform="scale(0.015625)"/>
       <path id="DejaVuSans-53" d="M 1159 525 
L 1159 -1331 
L 581 -1331 
L 581 3500 
L 1159 3500 
L 1159 2969 
Q 1341 3281 1617 3432 
Q 1894 3584 2278 3584 
Q 2916 3584 3314 3078 
Q 3713 2572 3713 1747 
Q 3713 922 3314 415 
Q 2916 -91 2278 -91 
Q 1894 -91 1617 61 
Q 1341 213 1159 525 
z
M 3116 1747 
Q 3116 2381 2855 2742 
Q 2594 3103 2138 3103 
Q 1681 3103 1420 2742 
Q 1159 2381 1159 1747 
Q 1159 1113 1420 752 
Q 1681 391 2138 391 
Q 2594 391 2855 752 
Q 3116 1113 3116 1747 
z
" transform="scale(0.015625)"/>
      </defs>
      <use xlink:href="#DejaVuSans-52"/>
      <use xlink:href="#DejaVuSans-58" transform="translate(61.1875 0)"/>
      <use xlink:href="#DejaVuSans-57" transform="translate(124.5625 0)"/>
      <use xlink:href="#DejaVuSans-53" transform="translate(163.765625 0)"/>
      <use xlink:href="#DejaVuSans-58" transform="translate(227.25 0)"/>
      <use xlink:href="#DejaVuSans-57" transform="translate(290.625 0)"/>
     </g>
    </g>
   </g>
   <g id="line2d_29">
    <path d="M 51.874063 289.506467 
L 52.396317 289.267023 
L 52.918572 288.567844 
L 53.440826 287.43706 
L 53.963081 285.902005 
L 55.00759 281.724393 
L 56.052099 276.237547 
L 57.096608 269.631066 
L 58.663372 258.005096 
L 60.75239 240.128184 
L 63.363663 215.49801 
L 70.152972 150.466811 
L 72.764244 128.032748 
L 74.853263 111.796243 
L 76.942281 97.253886 
L 79.031299 84.480499 
L 80.598063 76.069312 
L 82.164826 68.644232 
L 83.73159 62.176275 
L 85.298353 56.625618 
L 86.865117 51.943972 
L 88.431881 48.076708 
L 89.998644 44.964746 
L 91.043153 43.279231 
L 92.087663 41.883209 
L 93.132172 40.757855 
L 94.176681 39.884396 
L 95.22119 39.244233 
L 96.265699 38.819067 
L 97.310208 38.590992 
L 98.354717 38.542587 
L 99.399226 38.656987 
L 100.96599 39.098491 
L 102.532753 39.817943 
L 104.099517 40.767045 
L 106.188535 42.31348 
L 108.799808 44.567434 
L 112.977844 48.558746 
L 119.244899 54.549712 
L 122.900681 57.70518 
L 126.034208 60.111274 
L 129.167735 62.214793 
L 132.301263 64.013746 
L 135.43479 65.522194 
L 138.568317 66.764864 
L 141.701844 67.77272 
L 145.357626 68.696763 
L 149.535663 69.486022 
L 154.235953 70.121115 
L 159.980753 70.656402 
L 168.336826 71.185502 
L 190.793772 72.28074 
L 213.772972 73.254671 
L 231.529626 73.771714 
L 252.419808 74.147391 
L 281.666063 74.434739 
L 326.057699 74.629158 
L 365.749044 74.69539 
L 365.749044 74.69539 
" clip-path="url(#pb949e5ed36)" style="fill: none; stroke: #1f77b4; stroke-width: 2.2; stroke-linecap: square"/>
   </g>
   <g id="line2d_30">
    <path d="M 51.874063 289.506467 
L 52.396317 289.267007 
L 52.918572 288.567718 
L 53.440826 287.43664 
L 53.963081 285.901025 
L 55.00759 281.721194 
L 56.052099 276.230219 
L 57.096608 269.617243 
L 58.663372 257.976331 
L 60.75239 240.068551 
L 63.363663 215.381044 
L 70.152972 150.112297 
L 72.764244 127.562439 
L 74.853263 111.228464 
L 76.942281 96.587126 
L 79.031299 83.715723 
L 80.598063 75.233044 
L 82.164826 67.739178 
L 83.73159 61.205917 
L 85.298353 55.594111 
L 86.865117 50.856035 
L 88.431881 46.937513 
L 89.998644 43.77981 
L 91.043153 42.066988 
L 92.087663 40.646263 
L 93.132172 39.498838 
L 94.176681 38.605945 
L 95.22119 37.948977 
L 96.265699 37.50961 
L 97.310208 37.269897 
L 98.354717 37.212362 
L 99.399226 37.320073 
L 100.96599 37.755949 
L 102.532753 38.474788 
L 104.099517 39.427945 
L 106.188535 40.986399 
L 108.799808 43.264658 
L 112.45559 46.793363 
L 119.244899 53.410373 
L 122.900681 56.633904 
L 126.034208 59.097867 
L 129.167735 61.256932 
L 132.301263 63.107788 
L 135.43479 64.663598 
L 138.568317 65.948567 
L 141.701844 66.993458 
L 145.357626 67.954149 
L 149.013408 68.687897 
L 153.191444 69.313043 
L 158.41399 69.869068 
L 165.725553 70.400566 
L 179.826426 71.140182 
L 211.683953 72.595068 
L 229.440608 73.153758 
L 249.808535 73.555946 
L 277.488026 73.861796 
L 319.26839 74.080942 
L 365.749044 74.178174 
L 365.749044 74.178174 
" clip-path="url(#pb949e5ed36)" style="fill: none; stroke: #ff7f0e; stroke-width: 2.2; stroke-linecap: square"/>
   </g>
   <g id="patch_3">
    <path d="M 51.874063 302.121172 
L 51.874063 24.597656 
" style="fill: none; stroke: #000000; stroke-width: 0.8; stroke-linejoin: miter; stroke-linecap: square"/>
   </g>
   <g id="patch_4">
    <path d="M 51.874063 302.121172 
L 365.22679 302.121172 
" style="fill: none; stroke: #000000; stroke-width: 0.8; stroke-linejoin: miter; stroke-linecap: square"/>
   </g>
   <g id="text_17">
    <!-- FPE §5.4.2: Kv 14 → 70 -->
    <g transform="translate(122.968395 18.597656) scale(0.15 -0.15)">
     <defs>
      <path id="DejaVuSans-29" d="M 628 4666 
L 3309 4666 
L 3309 4134 
L 1259 4134 
L 1259 2759 
L 3109 2759 
L 3109 2228 
L 1259 2228 
L 1259 0 
L 628 0 
L 628 4666 
z
" transform="scale(0.015625)"/>
      <path id="DejaVuSans-33" d="M 1259 4147 
L 1259 2394 
L 2053 2394 
Q 2494 2394 2734 2622 
Q 2975 2850 2975 3272 
Q 2975 3691 2734 3919 
Q 2494 4147 2053 4147 
L 1259 4147 
z
M 628 4666 
L 2053 4666 
Q 2838 4666 3239 4311 
Q 3641 3956 3641 3272 
Q 3641 2581 3239 2228 
Q 2838 1875 2053 1875 
L 1259 1875 
L 1259 0 
L 628 0 
L 628 4666 
z
" transform="scale(0.015625)"/>
      <path id="DejaVuSans-28" d="M 628 4666 
L 3578 4666 
L 3578 4134 
L 1259 4134 
L 1259 2753 
L 3481 2753 
L 3481 2222 
L 1259 2222 
L 1259 531 
L 3634 531 
L 3634 0 
L 628 0 
L 628 4666 
z
" transform="scale(0.015625)"/>
      <path id="DejaVuSans-69" d="M 1184 2925 
Q 988 2781 891 2640 
Q 794 2500 794 2356 
Q 794 2119 1011 1911 
Q 1228 1703 2009 1281 
Q 2206 1422 2303 1564 
Q 2400 1706 2400 1850 
Q 2400 2084 2176 2296 
Q 1953 2509 1184 2925 
z
M 2591 4569 
L 2591 4056 
Q 2331 4178 2107 4239 
Q 1884 4300 1709 4300 
Q 1406 4300 1237 4175 
Q 1069 4050 1069 3828 
Q 1069 3547 1713 3188 
Q 1794 3141 1838 3116 
Q 2497 2744 2701 2503 
Q 2906 2263 2906 1947 
Q 2906 1666 2762 1447 
Q 2619 1228 2328 1063 
Q 2522 900 2611 729 
Q 2700 559 2700 359 
Q 2700 -84 2381 -346 
Q 2063 -609 1522 -609 
Q 1294 -609 1053 -564 
Q 813 -519 538 -428 
L 538 84 
Q 809 -38 1040 -98 
Q 1272 -159 1453 -159 
Q 1772 -159 1948 -28 
Q 2125 103 2125 341 
Q 2125 659 1434 1044 
L 1356 1088 
Q 688 1463 488 1702 
Q 288 1941 288 2259 
Q 288 2544 433 2767 
Q 578 2991 863 3144 
Q 678 3281 586 3456 
Q 494 3631 494 3847 
Q 494 4253 806 4501 
Q 1119 4750 1638 4750 
Q 1866 4750 2105 4704 
Q 2344 4659 2591 4569 
z
" transform="scale(0.015625)"/>
      <path id="DejaVuSans-1d" d="M 750 794 
L 1409 794 
L 1409 0 
L 750 0 
L 750 794 
z
M 750 3309 
L 1409 3309 
L 1409 2516 
L 750 2516 
L 750 3309 
z
" transform="scale(0.015625)"/>
      <path id="DejaVuSans-2e" d="M 628 4666 
L 1259 4666 
L 1259 2694 
L 3353 4666 
L 4166 4666 
L 1850 2491 
L 4331 0 
L 3500 0 
L 1259 2247 
L 1259 0 
L 628 0 
L 628 4666 
z
" transform="scale(0.015625)"/>
      <path id="DejaVuSans-59" d="M 191 3500 
L 800 3500 
L 1894 563 
L 2988 3500 
L 3597 3500 
L 2284 0 
L 1503 0 
L 191 3500 
z
" transform="scale(0.015625)"/>
      <path id="DejaVuSans-c1c" d="M 5050 2147 
L 5050 1866 
L 3822 638 
L 3447 1013 
L 4175 1741 
L 366 1741 
L 366 2272 
L 4175 2272 
L 3447 3000 
L 3822 3375 
L 5050 2147 
z
" transform="scale(0.015625)"/>
      <path id="DejaVuSans-1a" d="M 525 4666 
L 3525 4666 
L 3525 4397 
L 1831 0 
L 1172 0 
L 2766 4134 
L 525 4134 
L 525 4666 
z
" transform="scale(0.015625)"/>
     </defs>
     <use xlink:href="#DejaVuSans-29"/>
     <use xlink:href="#DejaVuSans-33" transform="translate(57.515625 0)"/>
     <use xlink:href="#DejaVuSans-28" transform="translate(117.8125 0)"/>
     <use xlink:href="#DejaVuSans-3" transform="translate(181 0)"/>
     <use xlink:href="#DejaVuSans-69" transform="translate(212.78125 0)"/>
     <use xlink:href="#DejaVuSans-18" transform="translate(262.78125 0)"/>
     <use xlink:href="#DejaVuSans-11" transform="translate(326.40625 0)"/>
     <use xlink:href="#DejaVuSans-17" transform="translate(358.1875 0)"/>
     <use xlink:href="#DejaVuSans-11" transform="translate(421.8125 0)"/>
     <use xlink:href="#DejaVuSans-15" transform="translate(453.59375 0)"/>
     <use xlink:href="#DejaVuSans-1d" transform="translate(517.21875 0)"/>
     <use xlink:href="#DejaVuSans-3" transform="translate(550.90625 0)"/>
     <use xlink:href="#DejaVuSans-2e" transform="translate(582.6875 0)"/>
     <use xlink:href="#DejaVuSans-59" transform="translate(648.265625 0)"/>
     <use xlink:href="#DejaVuSans-3" transform="translate(707.453125 0)"/>
     <use xlink:href="#DejaVuSans-14" transform="translate(739.234375 0)"/>
     <use xlink:href="#DejaVuSans-17" transform="translate(802.859375 0)"/>
     <use xlink:href="#DejaVuSans-3" transform="translate(866.484375 0)"/>
     <use xlink:href="#DejaVuSans-c1c" transform="translate(898.265625 0)"/>
     <use xlink:href="#DejaVuSans-3" transform="translate(982.0625 0)"/>
     <use xlink:href="#DejaVuSans-1a" transform="translate(1013.84375 0)"/>
     <use xlink:href="#DejaVuSans-13" transform="translate(1077.46875 0)"/>
    </g>
   </g>
   <g id="legend_1">
    <g id="line2d_31">
     <path d="M 287.956477 37.696094 
L 297.956477 37.696094 
L 307.956477 37.696094 
" style="fill: none; stroke: #1f77b4; stroke-width: 2.2; stroke-linecap: square"/>
    </g>
    <g id="text_18">
     <!-- lead -->
     <g transform="translate(315.956477 41.196094) scale(0.1 -0.1)">
      <defs>
       <path id="DejaVuSans-4f" d="M 603 4863 
L 1178 4863 
L 1178 0 
L 603 0 
L 603 4863 
z
" transform="scale(0.015625)"/>
       <path id="DejaVuSans-44" d="M 2194 1759 
Q 1497 1759 1228 1600 
Q 959 1441 959 1056 
Q 959 750 1161 570 
Q 1363 391 1709 391 
Q 2188 391 2477 730 
Q 2766 1069 2766 1631 
L 2766 1759 
L 2194 1759 
z
M 3341 1997 
L 3341 0 
L 2766 0 
L 2766 531 
Q 2569 213 2275 61 
Q 1981 -91 1556 -91 
Q 1019 -91 701 211 
Q 384 513 384 1019 
Q 384 1609 779 1909 
Q 1175 2209 1959 2209 
L 2766 2209 
L 2766 2266 
Q 2766 2663 2505 2880 
Q 2244 3097 1772 3097 
Q 1472 3097 1187 3025 
Q 903 2953 641 2809 
L 641 3341 
Q 956 3463 1253 3523 
Q 1550 3584 1831 3584 
Q 2591 3584 2966 3190 
Q 3341 2797 3341 1997 
z
" transform="scale(0.015625)"/>
       <path id="DejaVuSans-47" d="M 2906 2969 
L 2906 4863 
L 3481 4863 
L 3481 0 
L 2906 0 
L 2906 525 
Q 2725 213 2448 61 
Q 2172 -91 1784 -91 
Q 1150 -91 751 415 
Q 353 922 353 1747 
Q 353 2572 751 3078 
Q 1150 3584 1784 3584 
Q 2172 3584 2448 3432 
Q 2725 3281 2906 2969 
z
M 947 1747 
Q 947 1113 1208 752 
Q 1469 391 1925 391 
Q 2381 391 2643 752 
Q 2906 1113 2906 1747 
Q 2906 2381 2643 2742 
Q 2381 3103 1925 3103 
Q 1469 3103 1208 2742 
Q 947 2381 947 1747 
z
" transform="scale(0.015625)"/>
      </defs>
      <use xlink:href="#DejaVuSans-4f"/>
      <use xlink:href="#DejaVuSans-48" transform="translate(27.78125 0)"/>
      <use xlink:href="#DejaVuSans-44" transform="translate(89.3125 0)"/>
      <use xlink:href="#DejaVuSans-47" transform="translate(150.59375 0)"/>
     </g>
    </g>
    <g id="line2d_32">
     <path d="M 287.956477 52.696875 
L 297.956477 52.696875 
L 307.956477 52.696875 
" style="fill: none; stroke: #ff7f0e; stroke-width: 2.2; stroke-linecap: square"/>
    </g>
    <g id="text_19">
     <!-- lead-lag -->
     <g transform="translate(315.956477 56.196875) scale(0.1 -0.1)">
      <defs>
       <path id="DejaVuSans-10" d="M 313 2009 
L 1997 2009 
L 1997 1497 
L 313 1497 
L 313 2009 
z
" transform="scale(0.015625)"/>
       <path id="DejaVuSans-4a" d="M 2906 1791 
Q 2906 2416 2648 2759 
Q 2391 3103 1925 3103 
Q 1463 3103 1205 2759 
Q 947 2416 947 1791 
Q 947 1169 1205 825 
Q 1463 481 1925 481 
Q 2391 481 2648 825 
Q 2906 1169 2906 1791 
z
M 3481 434 
Q 3481 -459 3084 -895 
Q 2688 -1331 1869 -1331 
Q 1566 -1331 1297 -1286 
Q 1028 -1241 775 -1147 
L 775 -588 
Q 1028 -725 1275 -790 
Q 1522 -856 1778 -856 
Q 2344 -856 2625 -561 
Q 2906 -266 2906 331 
L 2906 616 
Q 2728 306 2450 153 
Q 2172 0 1784 0 
Q 1141 0 747 490 
Q 353 981 353 1791 
Q 353 2603 747 3093 
Q 1141 3584 1784 3584 
Q 2172 3584 2450 3431 
Q 2728 3278 2906 2969 
L 2906 3500 
L 3481 3500 
L 3481 434 
z
" transform="scale(0.015625)"/>
      </defs>
      <use xlink:href="#DejaVuSans-4f"/>
      <use xlink:href="#DejaVuSans-48" transform="translate(27.78125 0)"/>
      <use xlink:href="#DejaVuSans-44" transform="translate(89.3125 0)"/>
      <use xlink:href="#DejaVuSans-47" transform="translate(150.59375 0)"/>
      <use xlink:href="#DejaVuSans-10" transform="translate(214.078125 0)"/>
      <use xlink:href="#DejaVuSans-4f" transform="translate(250.15625 0)"/>
      <use xlink:href="#DejaVuSans-44" transform="translate(277.9375 0)"/>
      <use xlink:href="#DejaVuSans-4a" transform="translate(339.21875 0)"/>
     </g>
    </g>
   </g>
  </g>
  <g id="axes_2">
   <g id="patch_5">
    <path d="M 434.684972 302.121172 
L 748.037699 302.121172 
L 748.037699 24.597656 
L 434.684972 24.597656 
z
" style="fill: #ffffff"/>
   </g>
   <g id="matplotlib.axis_3">
    <g id="xtick_8">
     <g id="line2d_33">
      <path d="M 477.414889 302.121172 
L 477.414889 24.597656 
" clip-path="url(#pa94e1ea1fd)" style="fill: none; stroke: #b0b0b0; stroke-opacity: 0.25; stroke-width: 0.8; stroke-linecap: square"/>
     </g>
     <g id="line2d_34">
      <g>
       <use xlink:href="#mc7939f702a" x="477.414889" y="302.121172" style="stroke: #000000; stroke-width: 0.8"/>
      </g>
     </g>
     <g id="text_20">
      <!-- 6 -->
      <g transform="translate(473.279264 318.998125) scale(0.13 -0.13)">
       <use xlink:href="#DejaVuSans-19"/>
      </g>
     </g>
    </g>
    <g id="xtick_9">
     <g id="line2d_35">
      <path d="M 534.388112 302.121172 
L 534.388112 24.597656 
" clip-path="url(#pa94e1ea1fd)" style="fill: none; stroke: #b0b0b0; stroke-opacity: 0.25; stroke-width: 0.8; stroke-linecap: square"/>
     </g>
     <g id="line2d_36">
      <g>
       <use xlink:href="#mc7939f702a" x="534.388112" y="302.121172" style="stroke: #000000; stroke-width: 0.8"/>
      </g>
     </g>
     <g id="text_21">
      <!-- 8 -->
      <g transform="translate(530.252487 318.998125) scale(0.13 -0.13)">
       <use xlink:href="#DejaVuSans-1b"/>
      </g>
     </g>
    </g>
    <g id="xtick_10">
     <g id="line2d_37">
      <path d="M 591.361335 302.121172 
L 591.361335 24.597656 
" clip-path="url(#pa94e1ea1fd)" style="fill: none; stroke: #b0b0b0; stroke-opacity: 0.25; stroke-width: 0.8; stroke-linecap: square"/>
     </g>
     <g id="line2d_38">
      <g>
       <use xlink:href="#mc7939f702a" x="591.361335" y="302.121172" style="stroke: #000000; stroke-width: 0.8"/>
      </g>
     </g>
     <g id="text_22">
      <!-- 10 -->
      <g transform="translate(583.090085 318.998125) scale(0.13 -0.13)">
       <use xlink:href="#DejaVuSans-14"/>
       <use xlink:href="#DejaVuSans-13" transform="translate(63.625 0)"/>
      </g>
     </g>
    </g>
    <g id="xtick_11">
     <g id="line2d_39">
      <path d="M 648.334558 302.121172 
L 648.334558 24.597656 
" clip-path="url(#pa94e1ea1fd)" style="fill: none; stroke: #b0b0b0; stroke-opacity: 0.25; stroke-width: 0.8; stroke-linecap: square"/>
     </g>
     <g id="line2d_40">
      <g>
       <use xlink:href="#mc7939f702a" x="648.334558" y="302.121172" style="stroke: #000000; stroke-width: 0.8"/>
      </g>
     </g>
     <g id="text_23">
      <!-- 12 -->
      <g transform="translate(640.063308 318.998125) scale(0.13 -0.13)">
       <use xlink:href="#DejaVuSans-14"/>
       <use xlink:href="#DejaVuSans-15" transform="translate(63.625 0)"/>
      </g>
     </g>
    </g>
    <g id="xtick_12">
     <g id="line2d_41">
      <path d="M 705.307782 302.121172 
L 705.307782 24.597656 
" clip-path="url(#pa94e1ea1fd)" style="fill: none; stroke: #b0b0b0; stroke-opacity: 0.25; stroke-width: 0.8; stroke-linecap: square"/>
     </g>
     <g id="line2d_42">
      <g>
       <use xlink:href="#mc7939f702a" x="705.307782" y="302.121172" style="stroke: #000000; stroke-width: 0.8"/>
      </g>
     </g>
     <g id="text_24">
      <!-- 14 -->
      <g transform="translate(697.036532 318.998125) scale(0.13 -0.13)">
       <use xlink:href="#DejaVuSans-14"/>
       <use xlink:href="#DejaVuSans-17" transform="translate(63.625 0)"/>
      </g>
     </g>
    </g>
    <g id="text_25">
     <!-- sinusoidal frequency [rad/s] -->
     <g transform="translate(500.682273 335.999141) scale(0.13 -0.13)">
      <defs>
       <path id="DejaVuSans-51" d="M 3513 2113 
L 3513 0 
L 2938 0 
L 2938 2094 
Q 2938 2591 2744 2837 
Q 2550 3084 2163 3084 
Q 1697 3084 1428 2787 
Q 1159 2491 1159 1978 
L 1159 0 
L 581 0 
L 581 3500 
L 1159 3500 
L 1159 2956 
Q 1366 3272 1645 3428 
Q 1925 3584 2291 3584 
Q 2894 3584 3203 3211 
Q 3513 2838 3513 2113 
z
" transform="scale(0.015625)"/>
       <path id="DejaVuSans-49" d="M 2375 4863 
L 2375 4384 
L 1825 4384 
Q 1516 4384 1395 4259 
Q 1275 4134 1275 3809 
L 1275 3500 
L 2222 3500 
L 2222 3053 
L 1275 3053 
L 1275 0 
L 697 0 
L 697 3053 
L 147 3053 
L 147 3500 
L 697 3500 
L 697 3744 
Q 697 4328 969 4595 
Q 1241 4863 1831 4863 
L 2375 4863 
z
" transform="scale(0.015625)"/>
       <path id="DejaVuSans-55" d="M 2631 2963 
Q 2534 3019 2420 3045 
Q 2306 3072 2169 3072 
Q 1681 3072 1420 2755 
Q 1159 2438 1159 1844 
L 1159 0 
L 581 0 
L 581 3500 
L 1159 3500 
L 1159 2956 
Q 1341 3275 1631 3429 
Q 1922 3584 2338 3584 
Q 2397 3584 2469 3576 
Q 2541 3569 2628 3553 
L 2631 2963 
z
" transform="scale(0.015625)"/>
       <path id="DejaVuSans-54" d="M 947 1747 
Q 947 1113 1208 752 
Q 1469 391 1925 391 
Q 2381 391 2643 752 
Q 2906 1113 2906 1747 
Q 2906 2381 2643 2742 
Q 2381 3103 1925 3103 
Q 1469 3103 1208 2742 
Q 947 2381 947 1747 
z
M 2906 525 
Q 2725 213 2448 61 
Q 2172 -91 1784 -91 
Q 1150 -91 751 415 
Q 353 922 353 1747 
Q 353 2572 751 3078 
Q 1150 3584 1784 3584 
Q 2172 3584 2448 3432 
Q 2725 3281 2906 2969 
L 2906 3500 
L 3481 3500 
L 3481 -1331 
L 2906 -1331 
L 2906 525 
z
" transform="scale(0.015625)"/>
       <path id="DejaVuSans-46" d="M 3122 3366 
L 3122 2828 
Q 2878 2963 2633 3030 
Q 2388 3097 2138 3097 
Q 1578 3097 1268 2742 
Q 959 2388 959 1747 
Q 959 1106 1268 751 
Q 1578 397 2138 397 
Q 2388 397 2633 464 
Q 2878 531 3122 666 
L 3122 134 
Q 2881 22 2623 -34 
Q 2366 -91 2075 -91 
Q 1284 -91 818 406 
Q 353 903 353 1747 
Q 353 2603 823 3093 
Q 1294 3584 2113 3584 
Q 2378 3584 2631 3529 
Q 2884 3475 3122 3366 
z
" transform="scale(0.015625)"/>
       <path id="DejaVuSans-5c" d="M 2059 -325 
Q 1816 -950 1584 -1140 
Q 1353 -1331 966 -1331 
L 506 -1331 
L 506 -850 
L 844 -850 
Q 1081 -850 1212 -737 
Q 1344 -625 1503 -206 
L 1606 56 
L 191 3500 
L 800 3500 
L 1894 763 
L 2988 3500 
L 3597 3500 
L 2059 -325 
z
" transform="scale(0.015625)"/>
       <path id="DejaVuSans-12" d="M 1625 4666 
L 2156 4666 
L 531 -594 
L 0 -594 
L 1625 4666 
z
" transform="scale(0.015625)"/>
      </defs>
      <use xlink:href="#DejaVuSans-56"/>
      <use xlink:href="#DejaVuSans-4c" transform="translate(52.09375 0)"/>
      <use xlink:href="#DejaVuSans-51" transform="translate(79.875 0)"/>
      <use xlink:href="#DejaVuSans-58" transform="translate(143.25 0)"/>
      <use xlink:href="#DejaVuSans-56" transform="translate(206.625 0)"/>
      <use xlink:href="#DejaVuSans-52" transform="translate(258.71875 0)"/>
      <use xlink:href="#DejaVuSans-4c" transform="translate(319.90625 0)"/>
      <use xlink:href="#DejaVuSans-47" transform="translate(347.6875 0)"/>
      <use xlink:href="#DejaVuSans-44" transform="translate(411.171875 0)"/>
      <use xlink:href="#DejaVuSans-4f" transform="translate(472.453125 0)"/>
      <use xlink:href="#DejaVuSans-3" transform="translate(500.234375 0)"/>
      <use xlink:href="#DejaVuSans-49" transform="translate(532.015625 0)"/>
      <use xlink:href="#DejaVuSans-55" transform="translate(567.21875 0)"/>
      <use xlink:href="#DejaVuSans-48" transform="translate(606.125 0)"/>
      <use xlink:href="#DejaVuSans-54" transform="translate(667.65625 0)"/>
      <use xlink:href="#DejaVuSans-58" transform="translate(731.140625 0)"/>
      <use xlink:href="#DejaVuSans-48" transform="translate(794.515625 0)"/>
      <use xlink:href="#DejaVuSans-51" transform="translate(856.046875 0)"/>
      <use xlink:href="#DejaVuSans-46" transform="translate(919.421875 0)"/>
      <use xlink:href="#DejaVuSans-5c" transform="translate(974.40625 0)"/>
      <use xlink:href="#DejaVuSans-3" transform="translate(1033.59375 0)"/>
      <use xlink:href="#DejaVuSans-3e" transform="translate(1065.375 0)"/>
      <use xlink:href="#DejaVuSans-55" transform="translate(1104.390625 0)"/>
      <use xlink:href="#DejaVuSans-44" transform="translate(1145.5 0)"/>
      <use xlink:href="#DejaVuSans-47" transform="translate(1206.78125 0)"/>
      <use xlink:href="#DejaVuSans-12" transform="translate(1270.265625 0)"/>
      <use xlink:href="#DejaVuSans-56" transform="translate(1303.953125 0)"/>
      <use xlink:href="#DejaVuSans-40" transform="translate(1356.046875 0)"/>
     </g>
    </g>
   </g>
   <g id="matplotlib.axis_4">
    <g id="ytick_8">
     <g id="line2d_43">
      <path d="M 434.684972 259.080964 
L 748.037699 259.080964 
" clip-path="url(#pa94e1ea1fd)" style="fill: none; stroke: #b0b0b0; stroke-opacity: 0.25; stroke-width: 0.8; stroke-linecap: square"/>
     </g>
     <g id="line2d_44">
      <g>
       <use xlink:href="#mbe4ab7c347" x="434.684972" y="259.080964" style="stroke: #000000; stroke-width: 0.8"/>
      </g>
     </g>
     <g id="text_26">
      <!-- 0.2 -->
      <g transform="translate(407.010909 264.01944) scale(0.13 -0.13)">
       <use xlink:href="#DejaVuSans-13"/>
       <use xlink:href="#DejaVuSans-11" transform="translate(63.625 0)"/>
       <use xlink:href="#DejaVuSans-15" transform="translate(95.40625 0)"/>
      </g>
     </g>
    </g>
    <g id="ytick_9">
     <g id="line2d_45">
      <path d="M 434.684972 198.229958 
L 748.037699 198.229958 
" clip-path="url(#pa94e1ea1fd)" style="fill: none; stroke: #b0b0b0; stroke-opacity: 0.25; stroke-width: 0.8; stroke-linecap: square"/>
     </g>
     <g id="line2d_46">
      <g>
       <use xlink:href="#mbe4ab7c347" x="434.684972" y="198.229958" style="stroke: #000000; stroke-width: 0.8"/>
      </g>
     </g>
     <g id="text_27">
      <!-- 0.4 -->
      <g transform="translate(407.010909 203.168434) scale(0.13 -0.13)">
       <use xlink:href="#DejaVuSans-13"/>
       <use xlink:href="#DejaVuSans-11" transform="translate(63.625 0)"/>
       <use xlink:href="#DejaVuSans-17" transform="translate(95.40625 0)"/>
      </g>
     </g>
    </g>
    <g id="ytick_10">
     <g id="line2d_47">
      <path d="M 434.684972 137.378952 
L 748.037699 137.378952 
" clip-path="url(#pa94e1ea1fd)" style="fill: none; stroke: #b0b0b0; stroke-opacity: 0.25; stroke-width: 0.8; stroke-linecap: square"/>
     </g>
     <g id="line2d_48">
      <g>
       <use xlink:href="#mbe4ab7c347" x="434.684972" y="137.378952" style="stroke: #000000; stroke-width: 0.8"/>
      </g>
     </g>
     <g id="text_28">
      <!-- 0.6 -->
      <g transform="translate(407.010909 142.317428) scale(0.13 -0.13)">
       <use xlink:href="#DejaVuSans-13"/>
       <use xlink:href="#DejaVuSans-11" transform="translate(63.625 0)"/>
       <use xlink:href="#DejaVuSans-19" transform="translate(95.40625 0)"/>
      </g>
     </g>
    </g>
    <g id="ytick_11">
     <g id="line2d_49">
      <path d="M 434.684972 76.527946 
L 748.037699 76.527946 
" clip-path="url(#pa94e1ea1fd)" style="fill: none; stroke: #b0b0b0; stroke-opacity: 0.25; stroke-width: 0.8; stroke-linecap: square"/>
     </g>
     <g id="line2d_50">
      <g>
       <use xlink:href="#mbe4ab7c347" x="434.684972" y="76.527946" style="stroke: #000000; stroke-width: 0.8"/>
      </g>
     </g>
     <g id="text_29">
      <!-- 0.8 -->
      <g transform="translate(407.010909 81.466422) scale(0.13 -0.13)">
       <use xlink:href="#DejaVuSans-13"/>
       <use xlink:href="#DejaVuSans-11" transform="translate(63.625 0)"/>
       <use xlink:href="#DejaVuSans-1b" transform="translate(95.40625 0)"/>
      </g>
     </g>
    </g>
    <g id="text_30">
     <!-- amplitude ratio -->
     <g transform="translate(399.887862 213.258086) rotate(-90) scale(0.13 -0.13)">
      <use xlink:href="#DejaVuSans-44"/>
      <use xlink:href="#DejaVuSans-50" transform="translate(61.28125 0)"/>
      <use xlink:href="#DejaVuSans-53" transform="translate(158.6875 0)"/>
      <use xlink:href="#DejaVuSans-4f" transform="translate(222.171875 0)"/>
      <use xlink:href="#DejaVuSans-4c" transform="translate(249.953125 0)"/>
      <use xlink:href="#DejaVuSans-57" transform="translate(277.734375 0)"/>
      <use xlink:href="#DejaVuSans-58" transform="translate(316.9375 0)"/>
      <use xlink:href="#DejaVuSans-47" transform="translate(380.3125 0)"/>
      <use xlink:href="#DejaVuSans-48" transform="translate(443.796875 0)"/>
      <use xlink:href="#DejaVuSans-3" transform="translate(505.328125 0)"/>
      <use xlink:href="#DejaVuSans-55" transform="translate(537.109375 0)"/>
      <use xlink:href="#DejaVuSans-44" transform="translate(578.21875 0)"/>
      <use xlink:href="#DejaVuSans-57" transform="translate(639.5 0)"/>
      <use xlink:href="#DejaVuSans-4c" transform="translate(678.703125 0)"/>
      <use xlink:href="#DejaVuSans-52" transform="translate(706.484375 0)"/>
     </g>
    </g>
   </g>
   <g id="line2d_51">
    <path d="M 448.928277 37.212362 
L 454.200937 39.714025 
L 459.188588 42.324637 
L 464.033734 45.112813 
L 468.736376 48.081663 
L 473.15401 51.13011 
L 477.429139 54.342698 
L 481.704269 57.837408 
L 485.836894 61.507872 
L 489.827014 65.347938 
L 493.817135 69.503097 
L 497.664751 73.831847 
L 501.512368 78.50068 
L 505.21748 83.340904 
L 508.922592 88.541646 
L 512.627704 94.125526 
L 516.332816 100.11498 
L 520.037928 106.531753 
L 523.74304 113.396298 
L 527.448152 120.727029 
L 531.295769 128.849734 
L 535.143385 137.504779 
L 539.133506 147.050067 
L 543.123626 157.17465 
L 547.256251 168.259361 
L 551.673885 180.751202 
L 556.519031 195.149381 
L 561.934195 211.965567 
L 569.629428 236.682291 
L 576.897148 259.830675 
L 580.317251 270.018077 
L 582.739824 276.598629 
L 584.592381 281.060658 
L 586.159928 284.291464 
L 587.442467 286.455043 
L 588.582501 287.940391 
L 589.580031 288.855272 
L 590.435057 289.329495 
L 591.147579 289.497039 
L 591.8601 289.455302 
L 592.572622 289.206722 
L 593.427648 288.645035 
L 594.282674 287.81352 
L 595.280204 286.534019 
L 596.420238 284.715598 
L 597.845281 282.001764 
L 599.555333 278.247693 
L 601.835402 272.656422 
L 604.970497 264.321271 
L 611.098182 247.236934 
L 618.365902 227.195898 
L 623.496057 213.707895 
L 628.198699 201.971207 
L 632.616333 191.539064 
L 636.891462 182.005385 
L 641.024087 173.313962 
L 645.156712 165.128285 
L 649.289337 157.4327 
L 653.421962 150.207608 
L 657.554587 143.430899 
L 661.687212 137.079031 
L 665.819837 131.127836 
L 670.094967 125.367319 
L 674.370096 119.983395 
L 678.645225 114.950603 
L 683.062859 110.093057 
L 687.480492 105.558935 
L 692.04063 101.192396 
L 696.743272 96.997574 
L 701.588419 92.976759 
L 706.57607 89.130593 
L 711.706225 85.458272 
L 716.978884 81.957743 
L 722.394048 78.625898 
L 728.094221 75.3807 
L 733.794393 72.379392 
L 733.794393 72.379392 
" clip-path="url(#pa94e1ea1fd)" style="fill: none; stroke: #0072b2; stroke-width: 2.2; stroke-linecap: square"/>
   </g>
   <g id="line2d_52">
    <defs>
     <path id="m637185ef73" d="M 0 3 
C 0.795609 3 1.55874 2.683901 2.12132 2.12132 
C 2.683901 1.55874 3 0.795609 3 0 
C 3 -0.795609 2.683901 -1.55874 2.12132 -2.12132 
C 1.55874 -2.683901 0.795609 -3 0 -3 
C -0.795609 -3 -1.55874 -2.683901 -2.12132 -2.12132 
C -2.683901 -1.55874 -3 -0.795609 -3 0 
C -3 0.795609 -2.683901 1.55874 -2.12132 2.12132 
C -1.55874 2.683901 -0.795609 3 0 3 
z
" style="stroke: #e69f00"/>
    </defs>
    <g clip-path="url(#pa94e1ea1fd)">
     <use xlink:href="#m637185ef73" x="534.388112" y="135.763407" style="fill: #e69f00; stroke: #e69f00"/>
    </g>
   </g>
   <g id="line2d_53">
    <g clip-path="url(#pa94e1ea1fd)">
     <use xlink:href="#m637185ef73" x="591.361335" y="289.506467" style="fill: #e69f00; stroke: #e69f00"/>
    </g>
   </g>
   <g id="line2d_54">
    <g clip-path="url(#pa94e1ea1fd)">
     <use xlink:href="#m637185ef73" x="648.334558" y="159.168088" style="fill: #e69f00; stroke: #e69f00"/>
    </g>
   </g>
   <g id="patch_6">
    <path d="M 434.684972 302.121172 
L 434.684972 24.597656 
" style="fill: none; stroke: #000000; stroke-width: 0.8; stroke-linejoin: miter; stroke-linecap: square"/>
   </g>
   <g id="patch_7">
    <path d="M 434.684972 302.121172 
L 748.037699 302.121172 
" style="fill: none; stroke: #000000; stroke-width: 0.8; stroke-linejoin: miter; stroke-linecap: square"/>
   </g>
   <g id="text_31">
    <!-- Notch: attenuation depends on tuning -->
    <g transform="translate(448.162898 18.597656) scale(0.15 -0.15)">
     <defs>
      <path id="DejaVuSans-31" d="M 628 4666 
L 1478 4666 
L 3547 763 
L 3547 4666 
L 4159 4666 
L 4159 0 
L 3309 0 
L 1241 3903 
L 1241 0 
L 628 0 
L 628 4666 
z
" transform="scale(0.015625)"/>
      <path id="DejaVuSans-4b" d="M 3513 2113 
L 3513 0 
L 2938 0 
L 2938 2094 
Q 2938 2591 2744 2837 
Q 2550 3084 2163 3084 
Q 1697 3084 1428 2787 
Q 1159 2491 1159 1978 
L 1159 0 
L 581 0 
L 581 4863 
L 1159 4863 
L 1159 2956 
Q 1366 3272 1645 3428 
Q 1925 3584 2291 3584 
Q 2894 3584 3203 3211 
Q 3513 2838 3513 2113 
z
" transform="scale(0.015625)"/>
     </defs>
     <use xlink:href="#DejaVuSans-31"/>
     <use xlink:href="#DejaVuSans-52" transform="translate(74.8125 0)"/>
     <use xlink:href="#DejaVuSans-57" transform="translate(136 0)"/>
     <use xlink:href="#DejaVuSans-46" transform="translate(175.203125 0)"/>
     <use xlink:href="#DejaVuSans-4b" transform="translate(230.1875 0)"/>
     <use xlink:href="#DejaVuSans-1d" transform="translate(293.5625 0)"/>
     <use xlink:href="#DejaVuSans-3" transform="translate(327.25 0)"/>
     <use xlink:href="#DejaVuSans-44" transform="translate(359.03125 0)"/>
     <use xlink:href="#DejaVuSans-57" transform="translate(420.3125 0)"/>
     <use xlink:href="#DejaVuSans-57" transform="translate(459.515625 0)"/>
     <use xlink:href="#DejaVuSans-48" transform="translate(498.71875 0)"/>
     <use xlink:href="#DejaVuSans-51" transform="translate(560.25 0)"/>
     <use xlink:href="#DejaVuSans-58" transform="translate(623.625 0)"/>
     <use xlink:href="#DejaVuSans-44" transform="translate(687 0)"/>
     <use xlink:href="#DejaVuSans-57" transform="translate(748.28125 0)"/>
     <use xlink:href="#DejaVuSans-4c" transform="translate(787.484375 0)"/>
     <use xlink:href="#DejaVuSans-52" transform="translate(815.265625 0)"/>
     <use xlink:href="#DejaVuSans-51" transform="translate(876.453125 0)"/>
     <use xlink:href="#DejaVuSans-3" transform="translate(939.828125 0)"/>
     <use xlink:href="#DejaVuSans-47" transform="translate(971.609375 0)"/>
     <use xlink:href="#DejaVuSans-48" transform="translate(1035.09375 0)"/>
     <use xlink:href="#DejaVuSans-53" transform="translate(1096.625 0)"/>
     <use xlink:href="#DejaVuSans-48" transform="translate(1160.109375 0)"/>
     <use xlink:href="#DejaVuSans-51" transform="translate(1221.640625 0)"/>
     <use xlink:href="#DejaVuSans-47" transform="translate(1285.015625 0)"/>
     <use xlink:href="#DejaVuSans-56" transform="translate(1348.5 0)"/>
     <use xlink:href="#DejaVuSans-3" transform="translate(1400.59375 0)"/>
     <use xlink:href="#DejaVuSans-52" transform="translate(1432.375 0)"/>
     <use xlink:href="#DejaVuSans-51" transform="translate(1493.5625 0)"/>
     <use xlink:href="#DejaVuSans-3" transform="translate(1556.9375 0)"/>
     <use xlink:href="#DejaVuSans-57" transform="translate(1588.71875 0)"/>
     <use xlink:href="#DejaVuSans-58" transform="translate(1627.921875 0)"/>
     <use xlink:href="#DejaVuSans-51" transform="translate(1691.296875 0)"/>
     <use xlink:href="#DejaVuSans-4c" transform="translate(1754.671875 0)"/>
     <use xlink:href="#DejaVuSans-51" transform="translate(1782.453125 0)"/>
     <use xlink:href="#DejaVuSans-4a" transform="translate(1845.828125 0)"/>
    </g>
   </g>
  </g>
  <g id="axes_3">
   <g id="patch_8">
    <path d="M 817.495881 302.121172 
L 1130.848608 302.121172 
L 1130.848608 24.597656 
L 817.495881 24.597656 
z
" style="fill: #ffffff"/>
   </g>
   <g id="matplotlib.axis_5">
    <g id="xtick_13">
     <g id="line2d_55">
      <path d="M 831.739186 302.121172 
L 831.739186 24.597656 
" clip-path="url(#p495e6f8284)" style="fill: none; stroke: #b0b0b0; stroke-opacity: 0.25; stroke-width: 0.8; stroke-linecap: square"/>
     </g>
     <g id="line2d_56">
      <g>
       <use xlink:href="#mc7939f702a" x="831.739186" y="302.121172" style="stroke: #000000; stroke-width: 0.8"/>
      </g>
     </g>
     <g id="text_32">
      <!-- 0 -->
      <g transform="translate(827.603561 318.998125) scale(0.13 -0.13)">
       <use xlink:href="#DejaVuSans-13"/>
      </g>
     </g>
    </g>
    <g id="xtick_14">
     <g id="line2d_57">
      <path d="M 888.71241 302.121172 
L 888.71241 24.597656 
" clip-path="url(#p495e6f8284)" style="fill: none; stroke: #b0b0b0; stroke-opacity: 0.25; stroke-width: 0.8; stroke-linecap: square"/>
     </g>
     <g id="line2d_58">
      <g>
       <use xlink:href="#mc7939f702a" x="888.71241" y="302.121172" style="stroke: #000000; stroke-width: 0.8"/>
      </g>
     </g>
     <g id="text_33">
      <!-- 1 -->
      <g transform="translate(884.576785 318.998125) scale(0.13 -0.13)">
       <use xlink:href="#DejaVuSans-14"/>
      </g>
     </g>
    </g>
    <g id="xtick_15">
     <g id="line2d_59">
      <path d="M 945.685633 302.121172 
L 945.685633 24.597656 
" clip-path="url(#p495e6f8284)" style="fill: none; stroke: #b0b0b0; stroke-opacity: 0.25; stroke-width: 0.8; stroke-linecap: square"/>
     </g>
     <g id="line2d_60">
      <g>
       <use xlink:href="#mc7939f702a" x="945.685633" y="302.121172" style="stroke: #000000; stroke-width: 0.8"/>
      </g>
     </g>
     <g id="text_34">
      <!-- 2 -->
      <g transform="translate(941.550008 318.998125) scale(0.13 -0.13)">
       <use xlink:href="#DejaVuSans-15"/>
      </g>
     </g>
    </g>
    <g id="xtick_16">
     <g id="line2d_61">
      <path d="M 1002.658856 302.121172 
L 1002.658856 24.597656 
" clip-path="url(#p495e6f8284)" style="fill: none; stroke: #b0b0b0; stroke-opacity: 0.25; stroke-width: 0.8; stroke-linecap: square"/>
     </g>
     <g id="line2d_62">
      <g>
       <use xlink:href="#mc7939f702a" x="1002.658856" y="302.121172" style="stroke: #000000; stroke-width: 0.8"/>
      </g>
     </g>
     <g id="text_35">
      <!-- 3 -->
      <g transform="translate(998.523231 318.998125) scale(0.13 -0.13)">
       <use xlink:href="#DejaVuSans-16"/>
      </g>
     </g>
    </g>
    <g id="xtick_17">
     <g id="line2d_63">
      <path d="M 1059.632079 302.121172 
L 1059.632079 24.597656 
" clip-path="url(#p495e6f8284)" style="fill: none; stroke: #b0b0b0; stroke-opacity: 0.25; stroke-width: 0.8; stroke-linecap: square"/>
     </g>
     <g id="line2d_64">
      <g>
       <use xlink:href="#mc7939f702a" x="1059.632079" y="302.121172" style="stroke: #000000; stroke-width: 0.8"/>
      </g>
     </g>
     <g id="text_36">
      <!-- 4 -->
      <g transform="translate(1055.496454 318.998125) scale(0.13 -0.13)">
       <use xlink:href="#DejaVuSans-17"/>
      </g>
     </g>
    </g>
    <g id="xtick_18">
     <g id="line2d_65">
      <path d="M 1116.605302 302.121172 
L 1116.605302 24.597656 
" clip-path="url(#p495e6f8284)" style="fill: none; stroke: #b0b0b0; stroke-opacity: 0.25; stroke-width: 0.8; stroke-linecap: square"/>
     </g>
     <g id="line2d_66">
      <g>
       <use xlink:href="#mc7939f702a" x="1116.605302" y="302.121172" style="stroke: #000000; stroke-width: 0.8"/>
      </g>
     </g>
     <g id="text_37">
      <!-- 5 -->
      <g transform="translate(1112.469677 318.998125) scale(0.13 -0.13)">
       <use xlink:href="#DejaVuSans-18"/>
      </g>
     </g>
    </g>
    <g id="text_38">
     <!-- time [s] -->
     <g transform="translate(948.963416 335.999141) scale(0.13 -0.13)">
      <use xlink:href="#DejaVuSans-57"/>
      <use xlink:href="#DejaVuSans-4c" transform="translate(39.203125 0)"/>
      <use xlink:href="#DejaVuSans-50" transform="translate(66.984375 0)"/>
      <use xlink:href="#DejaVuSans-48" transform="translate(164.390625 0)"/>
      <use xlink:href="#DejaVuSans-3" transform="translate(225.921875 0)"/>
      <use xlink:href="#DejaVuSans-3e" transform="translate(257.703125 0)"/>
      <use xlink:href="#DejaVuSans-56" transform="translate(296.71875 0)"/>
      <use xlink:href="#DejaVuSans-40" transform="translate(348.8125 0)"/>
     </g>
    </g>
   </g>
   <g id="matplotlib.axis_6">
    <g id="ytick_12">
     <g id="line2d_67">
      <path d="M 817.495881 289.506467 
L 1130.848608 289.506467 
" clip-path="url(#p495e6f8284)" style="fill: none; stroke: #b0b0b0; stroke-opacity: 0.25; stroke-width: 0.8; stroke-linecap: square"/>
     </g>
     <g id="line2d_68">
      <g>
       <use xlink:href="#mbe4ab7c347" x="817.495881" y="289.506467" style="stroke: #000000; stroke-width: 0.8"/>
      </g>
     </g>
     <g id="text_39">
      <!-- 0.0 -->
      <g transform="translate(789.821818 294.444943) scale(0.13 -0.13)">
       <use xlink:href="#DejaVuSans-13"/>
       <use xlink:href="#DejaVuSans-11" transform="translate(63.625 0)"/>
       <use xlink:href="#DejaVuSans-13" transform="translate(95.40625 0)"/>
      </g>
     </g>
    </g>
    <g id="ytick_13">
     <g id="line2d_69">
      <path d="M 817.495881 244.418882 
L 1130.848608 244.418882 
" clip-path="url(#p495e6f8284)" style="fill: none; stroke: #b0b0b0; stroke-opacity: 0.25; stroke-width: 0.8; stroke-linecap: square"/>
     </g>
     <g id="line2d_70">
      <g>
       <use xlink:href="#mbe4ab7c347" x="817.495881" y="244.418882" style="stroke: #000000; stroke-width: 0.8"/>
      </g>
     </g>
     <g id="text_40">
      <!-- 0.2 -->
      <g transform="translate(789.821818 249.357358) scale(0.13 -0.13)">
       <use xlink:href="#DejaVuSans-13"/>
       <use xlink:href="#DejaVuSans-11" transform="translate(63.625 0)"/>
       <use xlink:href="#DejaVuSans-15" transform="translate(95.40625 0)"/>
      </g>
     </g>
    </g>
    <g id="ytick_14">
     <g id="line2d_71">
      <path d="M 817.495881 199.331296 
L 1130.848608 199.331296 
" clip-path="url(#p495e6f8284)" style="fill: none; stroke: #b0b0b0; stroke-opacity: 0.25; stroke-width: 0.8; stroke-linecap: square"/>
     </g>
     <g id="line2d_72">
      <g>
       <use xlink:href="#mbe4ab7c347" x="817.495881" y="199.331296" style="stroke: #000000; stroke-width: 0.8"/>
      </g>
     </g>
     <g id="text_41">
      <!-- 0.4 -->
      <g transform="translate(789.821818 204.269773) scale(0.13 -0.13)">
       <use xlink:href="#DejaVuSans-13"/>
       <use xlink:href="#DejaVuSans-11" transform="translate(63.625 0)"/>
       <use xlink:href="#DejaVuSans-17" transform="translate(95.40625 0)"/>
      </g>
     </g>
    </g>
    <g id="ytick_15">
     <g id="line2d_73">
      <path d="M 817.495881 154.243711 
L 1130.848608 154.243711 
" clip-path="url(#p495e6f8284)" style="fill: none; stroke: #b0b0b0; stroke-opacity: 0.25; stroke-width: 0.8; stroke-linecap: square"/>
     </g>
     <g id="line2d_74">
      <g>
       <use xlink:href="#mbe4ab7c347" x="817.495881" y="154.243711" style="stroke: #000000; stroke-width: 0.8"/>
      </g>
     </g>
     <g id="text_42">
      <!-- 0.6 -->
      <g transform="translate(789.821818 159.182188) scale(0.13 -0.13)">
       <use xlink:href="#DejaVuSans-13"/>
       <use xlink:href="#DejaVuSans-11" transform="translate(63.625 0)"/>
       <use xlink:href="#DejaVuSans-19" transform="translate(95.40625 0)"/>
      </g>
     </g>
    </g>
    <g id="ytick_16">
     <g id="line2d_75">
      <path d="M 817.495881 109.156126 
L 1130.848608 109.156126 
" clip-path="url(#p495e6f8284)" style="fill: none; stroke: #b0b0b0; stroke-opacity: 0.25; stroke-width: 0.8; stroke-linecap: square"/>
     </g>
     <g id="line2d_76">
      <g>
       <use xlink:href="#mbe4ab7c347" x="817.495881" y="109.156126" style="stroke: #000000; stroke-width: 0.8"/>
      </g>
     </g>
     <g id="text_43">
      <!-- 0.8 -->
      <g transform="translate(789.821818 114.094603) scale(0.13 -0.13)">
       <use xlink:href="#DejaVuSans-13"/>
       <use xlink:href="#DejaVuSans-11" transform="translate(63.625 0)"/>
       <use xlink:href="#DejaVuSans-1b" transform="translate(95.40625 0)"/>
      </g>
     </g>
    </g>
    <g id="ytick_17">
     <g id="line2d_77">
      <path d="M 817.495881 64.068541 
L 1130.848608 64.068541 
" clip-path="url(#p495e6f8284)" style="fill: none; stroke: #b0b0b0; stroke-opacity: 0.25; stroke-width: 0.8; stroke-linecap: square"/>
     </g>
     <g id="line2d_78">
      <g>
       <use xlink:href="#mbe4ab7c347" x="817.495881" y="64.068541" style="stroke: #000000; stroke-width: 0.8"/>
      </g>
     </g>
     <g id="text_44">
      <!-- 1.0 -->
      <g transform="translate(789.821818 69.007018) scale(0.13 -0.13)">
       <use xlink:href="#DejaVuSans-14"/>
       <use xlink:href="#DejaVuSans-11" transform="translate(63.625 0)"/>
       <use xlink:href="#DejaVuSans-13" transform="translate(95.40625 0)"/>
      </g>
     </g>
    </g>
    <g id="text_45">
     <!-- output -->
     <g transform="translate(782.698771 184.798242) rotate(-90) scale(0.13 -0.13)">
      <use xlink:href="#DejaVuSans-52"/>
      <use xlink:href="#DejaVuSans-58" transform="translate(61.1875 0)"/>
      <use xlink:href="#DejaVuSans-57" transform="translate(124.5625 0)"/>
      <use xlink:href="#DejaVuSans-53" transform="translate(163.765625 0)"/>
      <use xlink:href="#DejaVuSans-58" transform="translate(227.25 0)"/>
      <use xlink:href="#DejaVuSans-57" transform="translate(290.625 0)"/>
     </g>
    </g>
   </g>
   <g id="line2d_79">
    <path d="M 831.739186 289.506467 
L 834.787254 254.655459 
L 837.607428 224.894367 
L 840.28517 198.94068 
L 842.848965 176.22649 
L 845.298814 156.466682 
L 847.663202 139.168408 
L 849.942131 124.098847 
L 852.164087 110.86886 
L 854.300583 99.453885 
L 856.380105 89.516145 
L 858.402655 80.904339 
L 860.368231 73.476457 
L 862.305321 67.011431 
L 864.185437 61.498891 
L 866.00858 56.824875 
L 867.803237 52.826947 
L 869.54092 49.487183 
L 871.250117 46.676153 
L 872.90234 44.373432 
L 874.526077 42.478124 
L 876.149814 40.919542 
L 877.745064 39.690353 
L 879.340314 38.735977 
L 880.964051 38.022547 
L 882.616275 37.539466 
L 884.325471 37.27237 
L 886.120128 37.219547 
L 888.028731 37.389205 
L 890.079767 37.796704 
L 892.358696 38.481219 
L 894.922491 39.48966 
L 897.913585 40.912523 
L 901.645331 42.946259 
L 907.342654 46.337268 
L 916.543829 51.79781 
L 921.5005 54.463523 
L 925.944411 56.604135 
L 930.188916 58.403396 
L 934.347961 59.92688 
L 938.535493 61.22521 
L 942.836972 62.325138 
L 947.30937 63.237542 
L 952.038147 63.973472 
L 957.165737 64.542575 
L 962.834573 64.943285 
L 969.32952 65.173821 
L 977.248798 65.223077 
L 988.24463 65.050374 
L 1033.111044 64.136291 
L 1056.669471 64.023096 
L 1113.671181 64.061018 
L 1116.605302 64.062737 
L 1116.605302 64.062737 
" clip-path="url(#p495e6f8284)" style="fill: none; stroke: #1f77b4; stroke-width: 2.2; stroke-linecap: square"/>
   </g>
   <g id="line2d_80">
    <path d="M 831.739186 289.506467 
L 832.365892 289.398946 
L 833.049571 289.043901 
L 833.790222 288.392883 
L 834.616334 287.357713 
L 835.556392 285.808021 
L 836.638884 283.569041 
L 837.863808 280.499205 
L 839.259652 276.377953 
L 840.883389 270.851768 
L 842.763505 263.618605 
L 844.985461 254.137692 
L 847.720176 241.436598 
L 851.480408 222.820605 
L 862.390781 168.213699 
L 865.980094 151.705872 
L 869.170594 138.054266 
L 872.104715 126.451327 
L 874.867916 116.406972 
L 877.517171 107.6006 
L 880.05248 99.930219 
L 882.502328 93.212993 
L 884.866717 87.361774 
L 887.174133 82.22983 
L 889.424575 77.752442 
L 891.646531 73.818993 
L 893.811513 70.427551 
L 895.948009 67.482934 
L 898.084505 64.912842 
L 900.192514 62.719358 
L 902.300523 60.841352 
L 904.437019 59.234964 
L 906.602002 57.88676 
L 908.795471 56.782085 
L 911.045913 55.895504 
L 913.410302 55.204698 
L 915.888637 54.714199 
L 918.537892 54.419282 
L 921.41504 54.326883 
L 924.60554 54.452608 
L 928.22334 54.823076 
L 932.553305 55.497561 
L 938.336087 56.639408 
L 959.615586 61.03842 
L 966.423886 62.106103 
L 973.175213 62.93854 
L 980.182919 63.576475 
L 987.788845 64.042188 
L 996.477261 64.344778 
L 1007.102767 64.482128 
L 1022.400078 64.436186 
L 1084.985163 64.057649 
L 1116.605302 64.054385 
L 1116.605302 64.054385 
" clip-path="url(#p495e6f8284)" style="fill: none; stroke: #ff7f0e; stroke-width: 2.2; stroke-linecap: square"/>
   </g>
   <g id="patch_9">
    <path d="M 817.495881 302.121172 
L 817.495881 24.597656 
" style="fill: none; stroke: #000000; stroke-width: 0.8; stroke-linejoin: miter; stroke-linecap: square"/>
   </g>
   <g id="patch_10">
    <path d="M 817.495881 302.121172 
L 1130.848608 302.121172 
" style="fill: none; stroke: #000000; stroke-width: 0.8; stroke-linejoin: miter; stroke-linecap: square"/>
   </g>
   <g id="text_46">
    <!-- Same characteristic polynomial -->
    <g transform="translate(855.790604 18.597656) scale(0.15 -0.15)">
     <defs>
      <path id="DejaVuSans-36" d="M 3425 4513 
L 3425 3897 
Q 3066 4069 2747 4153 
Q 2428 4238 2131 4238 
Q 1616 4238 1336 4038 
Q 1056 3838 1056 3469 
Q 1056 3159 1242 3001 
Q 1428 2844 1947 2747 
L 2328 2669 
Q 3034 2534 3370 2195 
Q 3706 1856 3706 1288 
Q 3706 609 3251 259 
Q 2797 -91 1919 -91 
Q 1588 -91 1214 -16 
Q 841 59 441 206 
L 441 856 
Q 825 641 1194 531 
Q 1563 422 1919 422 
Q 2459 422 2753 634 
Q 3047 847 3047 1241 
Q 3047 1584 2836 1778 
Q 2625 1972 2144 2069 
L 1759 2144 
Q 1053 2284 737 2584 
Q 422 2884 422 3419 
Q 422 4038 858 4394 
Q 1294 4750 2059 4750 
Q 2388 4750 2728 4690 
Q 3069 4631 3425 4513 
z
" transform="scale(0.015625)"/>
     </defs>
     <use xlink:href="#DejaVuSans-36"/>
     <use xlink:href="#DejaVuSans-44" transform="translate(63.484375 0)"/>
     <use xlink:href="#DejaVuSans-50" transform="translate(124.765625 0)"/>
     <use xlink:href="#DejaVuSans-48" transform="translate(222.171875 0)"/>
     <use xlink:href="#DejaVuSans-3" transform="translate(283.703125 0)"/>
     <use xlink:href="#DejaVuSans-46" transform="translate(315.484375 0)"/>
     <use xlink:href="#DejaVuSans-4b" transform="translate(370.46875 0)"/>
     <use xlink:href="#DejaVuSans-44" transform="translate(433.84375 0)"/>
     <use xlink:href="#DejaVuSans-55" transform="translate(495.125 0)"/>
     <use xlink:href="#DejaVuSans-44" transform="translate(536.234375 0)"/>
     <use xlink:href="#DejaVuSans-46" transform="translate(597.515625 0)"/>
     <use xlink:href="#DejaVuSans-57" transform="translate(652.5 0)"/>
     <use xlink:href="#DejaVuSans-48" transform="translate(691.703125 0)"/>
     <use xlink:href="#DejaVuSans-55" transform="translate(753.234375 0)"/>
     <use xlink:href="#DejaVuSans-4c" transform="translate(794.34375 0)"/>
     <use xlink:href="#DejaVuSans-56" transform="translate(822.125 0)"/>
     <use xlink:href="#DejaVuSans-57" transform="translate(874.21875 0)"/>
     <use xlink:href="#DejaVuSans-4c" transform="translate(913.421875 0)"/>
     <use xlink:href="#DejaVuSans-46" transform="translate(941.203125 0)"/>
     <use xlink:href="#DejaVuSans-3" transform="translate(996.1875 0)"/>
     <use xlink:href="#DejaVuSans-53" transform="translate(1027.96875 0)"/>
     <use xlink:href="#DejaVuSans-52" transform="translate(1091.453125 0)"/>
     <use xlink:href="#DejaVuSans-4f" transform="translate(1152.640625 0)"/>
     <use xlink:href="#DejaVuSans-5c" transform="translate(1180.421875 0)"/>
     <use xlink:href="#DejaVuSans-51" transform="translate(1239.609375 0)"/>
     <use xlink:href="#DejaVuSans-52" transform="translate(1302.984375 0)"/>
     <use xlink:href="#DejaVuSans-50" transform="translate(1364.171875 0)"/>
     <use xlink:href="#DejaVuSans-4c" transform="translate(1461.578125 0)"/>
     <use xlink:href="#DejaVuSans-44" transform="translate(1489.359375 0)"/>
     <use xlink:href="#DejaVuSans-4f" transform="translate(1550.640625 0)"/>
    </g>
   </g>
   <g id="legend_2">
    <g id="line2d_81">
     <path d="M 1024.417358 37.696094 
L 1034.417358 37.696094 
L 1044.417358 37.696094 
" style="fill: none; stroke: #1f77b4; stroke-width: 2.2; stroke-linecap: square"/>
    </g>
    <g id="text_47">
     <!-- forward PD -->
     <g transform="translate(1052.417358 41.196094) scale(0.1 -0.1)">
      <defs>
       <path id="DejaVuSans-5a" d="M 269 3500 
L 844 3500 
L 1563 769 
L 2278 3500 
L 2956 3500 
L 3675 769 
L 4391 3500 
L 4966 3500 
L 4050 0 
L 3372 0 
L 2619 2869 
L 1863 0 
L 1184 0 
L 269 3500 
z
" transform="scale(0.015625)"/>
       <path id="DejaVuSans-27" d="M 1259 4147 
L 1259 519 
L 2022 519 
Q 2988 519 3436 956 
Q 3884 1394 3884 2338 
Q 3884 3275 3436 3711 
Q 2988 4147 2022 4147 
L 1259 4147 
z
M 628 4666 
L 1925 4666 
Q 3281 4666 3915 4102 
Q 4550 3538 4550 2338 
Q 4550 1131 3912 565 
Q 3275 0 1925 0 
L 628 0 
L 628 4666 
z
" transform="scale(0.015625)"/>
      </defs>
      <use xlink:href="#DejaVuSans-49"/>
      <use xlink:href="#DejaVuSans-52" transform="translate(35.203125 0)"/>
      <use xlink:href="#DejaVuSans-55" transform="translate(96.390625 0)"/>
      <use xlink:href="#DejaVuSans-5a" transform="translate(137.5 0)"/>
      <use xlink:href="#DejaVuSans-44" transform="translate(219.28125 0)"/>
      <use xlink:href="#DejaVuSans-55" transform="translate(280.5625 0)"/>
      <use xlink:href="#DejaVuSans-47" transform="translate(319.921875 0)"/>
      <use xlink:href="#DejaVuSans-3" transform="translate(383.40625 0)"/>
      <use xlink:href="#DejaVuSans-33" transform="translate(415.1875 0)"/>
      <use xlink:href="#DejaVuSans-27" transform="translate(475.484375 0)"/>
     </g>
    </g>
    <g id="line2d_82">
     <path d="M 1024.417358 52.696875 
L 1034.417358 52.696875 
L 1044.417358 52.696875 
" style="fill: none; stroke: #ff7f0e; stroke-width: 2.2; stroke-linecap: square"/>
    </g>
    <g id="text_48">
     <!-- rate feedback -->
     <g transform="translate(1052.417358 56.196875) scale(0.1 -0.1)">
      <defs>
       <path id="DejaVuSans-45" d="M 3116 1747 
Q 3116 2381 2855 2742 
Q 2594 3103 2138 3103 
Q 1681 3103 1420 2742 
Q 1159 2381 1159 1747 
Q 1159 1113 1420 752 
Q 1681 391 2138 391 
Q 2594 391 2855 752 
Q 3116 1113 3116 1747 
z
M 1159 2969 
Q 1341 3281 1617 3432 
Q 1894 3584 2278 3584 
Q 2916 3584 3314 3078 
Q 3713 2572 3713 1747 
Q 3713 922 3314 415 
Q 2916 -91 2278 -91 
Q 1894 -91 1617 61 
Q 1341 213 1159 525 
L 1159 0 
L 581 0 
L 581 4863 
L 1159 4863 
L 1159 2969 
z
" transform="scale(0.015625)"/>
       <path id="DejaVuSans-4e" d="M 581 4863 
L 1159 4863 
L 1159 1991 
L 2875 3500 
L 3609 3500 
L 1753 1863 
L 3688 0 
L 2938 0 
L 1159 1709 
L 1159 0 
L 581 0 
L 581 4863 
z
" transform="scale(0.015625)"/>
      </defs>
      <use xlink:href="#DejaVuSans-55"/>
      <use xlink:href="#DejaVuSans-44" transform="translate(41.109375 0)"/>
      <use xlink:href="#DejaVuSans-57" transform="translate(102.390625 0)"/>
      <use xlink:href="#DejaVuSans-48" transform="translate(141.59375 0)"/>
      <use xlink:href="#DejaVuSans-3" transform="translate(203.125 0)"/>
      <use xlink:href="#DejaVuSans-49" transform="translate(234.90625 0)"/>
      <use xlink:href="#DejaVuSans-48" transform="translate(270.109375 0)"/>
      <use xlink:href="#DejaVuSans-48" transform="translate(331.640625 0)"/>
      <use xlink:href="#DejaVuSans-47" transform="translate(393.171875 0)"/>
      <use xlink:href="#DejaVuSans-45" transform="translate(456.65625 0)"/>
      <use xlink:href="#DejaVuSans-44" transform="translate(520.140625 0)"/>
      <use xlink:href="#DejaVuSans-46" transform="translate(581.421875 0)"/>
      <use xlink:href="#DejaVuSans-4e" transform="translate(636.40625 0)"/>
     </g>
    </g>
   </g>
  </g>
 </g>
 <defs>
  <clipPath id="pb949e5ed36">
   <rect x="51.874063" y="24.597656" width="313.352727" height="277.523516"/>
  </clipPath>
  <clipPath id="pa94e1ea1fd">
   <rect x="434.684972" y="24.597656" width="313.352727" height="277.523516"/>
  </clipPath>
  <clipPath id="p495e6f8284">
   <rect x="817.495881" y="24.597656" width="313.352727" height="277.523516"/>
  </clipPath>
 </defs>
</svg>
